%TF.GenerationSoftware,KiCad,Pcbnew,7.0.5*%
%TF.CreationDate,2023-07-07T19:33:34+07:00*%
%TF.ProjectId,19-6-2023_WeatherStation_QuocThang_V1,31392d36-2d32-4303-9233-5f5765617468,rev?*%
%TF.SameCoordinates,Original*%
%TF.FileFunction,Paste,Top*%
%TF.FilePolarity,Positive*%
%FSLAX46Y46*%
G04 Gerber Fmt 4.6, Leading zero omitted, Abs format (unit mm)*
G04 Created by KiCad (PCBNEW 7.0.5) date 2023-07-07 19:33:34*
%MOMM*%
%LPD*%
G01*
G04 APERTURE LIST*
G04 Aperture macros list*
%AMRoundRect*
0 Rectangle with rounded corners*
0 $1 Rounding radius*
0 $2 $3 $4 $5 $6 $7 $8 $9 X,Y pos of 4 corners*
0 Add a 4 corners polygon primitive as box body*
4,1,4,$2,$3,$4,$5,$6,$7,$8,$9,$2,$3,0*
0 Add four circle primitives for the rounded corners*
1,1,$1+$1,$2,$3*
1,1,$1+$1,$4,$5*
1,1,$1+$1,$6,$7*
1,1,$1+$1,$8,$9*
0 Add four rect primitives between the rounded corners*
20,1,$1+$1,$2,$3,$4,$5,0*
20,1,$1+$1,$4,$5,$6,$7,0*
20,1,$1+$1,$6,$7,$8,$9,0*
20,1,$1+$1,$8,$9,$2,$3,0*%
G04 Aperture macros list end*
%ADD10C,0.010000*%
%ADD11RoundRect,0.199200X-0.350000X-0.450000X0.350000X-0.450000X0.350000X0.450000X-0.350000X0.450000X0*%
%ADD12RoundRect,0.199200X-0.475000X0.337500X-0.475000X-0.337500X0.475000X-0.337500X0.475000X0.337500X0*%
%ADD13RoundRect,0.199200X-0.337500X-0.475000X0.337500X-0.475000X0.337500X0.475000X-0.337500X0.475000X0*%
%ADD14RoundRect,0.199200X0.450000X-0.350000X0.450000X0.350000X-0.450000X0.350000X-0.450000X-0.350000X0*%
%ADD15RoundRect,0.199200X0.475000X-0.337500X0.475000X0.337500X-0.475000X0.337500X-0.475000X-0.337500X0*%
%ADD16RoundRect,0.199200X0.350000X0.450000X-0.350000X0.450000X-0.350000X-0.450000X0.350000X-0.450000X0*%
%ADD17RoundRect,0.199200X-0.450000X0.350000X-0.450000X-0.350000X0.450000X-0.350000X0.450000X0.350000X0*%
%ADD18R,0.898400X1.298400*%
%ADD19RoundRect,0.199200X-0.450000X0.325000X-0.450000X-0.325000X0.450000X-0.325000X0.450000X0.325000X0*%
%ADD20R,0.898400X1.148400*%
%ADD21RoundRect,0.199200X0.550000X-1.500000X0.550000X1.500000X-0.550000X1.500000X-0.550000X-1.500000X0*%
%ADD22RoundRect,0.000000X0.259200X-0.604200X0.259200X0.604200X-0.259200X0.604200X-0.259200X-0.604200X0*%
%ADD23R,3.438400X2.498400*%
%ADD24R,3.558400X2.498400*%
%ADD25RoundRect,0.199200X0.400000X1.450000X-0.400000X1.450000X-0.400000X-1.450000X0.400000X-1.450000X0*%
%ADD26R,3.078400X2.148400*%
%ADD27R,3.398400X3.448400*%
%ADD28R,1.398400X0.798400*%
%ADD29R,0.798400X1.398400*%
%ADD30R,0.798400X0.798400*%
%ADD31RoundRect,0.000000X0.974200X0.244200X-0.974200X0.244200X-0.974200X-0.244200X0.974200X-0.244200X0*%
%ADD32R,1.898400X1.398400*%
%ADD33R,1.898400X3.698400*%
%ADD34R,1.198400X0.348400*%
%ADD35R,0.498400X2.098400*%
%ADD36RoundRect,0.199200X0.450000X-0.325000X0.450000X0.325000X-0.450000X0.325000X-0.450000X-0.325000X0*%
%ADD37R,0.498400X1.868400*%
%ADD38RoundRect,0.199200X-1.500000X-0.550000X1.500000X-0.550000X1.500000X0.550000X-1.500000X0.550000X0*%
G04 APERTURE END LIST*
%TO.C,D5*%
D10*
X169400000Y-53673889D02*
X169098454Y-53673889D01*
X169098454Y-52925000D01*
X169400000Y-52925000D01*
X169400000Y-53673889D01*
G36*
X169400000Y-53673889D02*
G01*
X169098454Y-53673889D01*
X169098454Y-52925000D01*
X169400000Y-52925000D01*
X169400000Y-53673889D01*
G37*
X169400000Y-55575920D02*
X169099445Y-55575920D01*
X169099445Y-54825000D01*
X169400000Y-54825000D01*
X169400000Y-55575920D01*
G36*
X169400000Y-55575920D02*
G01*
X169099445Y-55575920D01*
X169099445Y-54825000D01*
X169400000Y-54825000D01*
X169400000Y-55575920D01*
G37*
X170050000Y-55576250D02*
X169749858Y-55576250D01*
X169749858Y-54825000D01*
X170050000Y-54825000D01*
X170050000Y-55576250D01*
G36*
X170050000Y-55576250D02*
G01*
X169749858Y-55576250D01*
X169749858Y-54825000D01*
X170050000Y-54825000D01*
X170050000Y-55576250D01*
G37*
X170050000Y-53674924D02*
X169749980Y-53674924D01*
X169749980Y-52925000D01*
X170050000Y-52925000D01*
X170050000Y-53674924D01*
G36*
X170050000Y-53674924D02*
G01*
X169749980Y-53674924D01*
X169749980Y-52925000D01*
X170050000Y-52925000D01*
X170050000Y-53674924D01*
G37*
X170700000Y-53674957D02*
X170400037Y-53674957D01*
X170400037Y-52925000D01*
X170700000Y-52925000D01*
X170700000Y-53674957D01*
G36*
X170700000Y-53674957D02*
G01*
X170400037Y-53674957D01*
X170400037Y-52925000D01*
X170700000Y-52925000D01*
X170700000Y-53674957D01*
G37*
X170700000Y-55576090D02*
X170400413Y-55576090D01*
X170400413Y-54825000D01*
X170700000Y-54825000D01*
X170700000Y-55576090D01*
G36*
X170700000Y-55576090D02*
G01*
X170400413Y-55576090D01*
X170400413Y-54825000D01*
X170700000Y-54825000D01*
X170700000Y-55576090D01*
G37*
%TO.C,U2*%
X147935000Y-95417000D02*
X145853460Y-95417000D01*
X145853460Y-93891875D01*
X147935000Y-93891875D01*
X147935000Y-95417000D01*
G36*
X147935000Y-95417000D02*
G01*
X145853460Y-95417000D01*
X145853460Y-93891875D01*
X147935000Y-93891875D01*
X147935000Y-95417000D01*
G37*
%TD*%
D11*
%TO.C,R23*%
X122920000Y-85400000D03*
X124920000Y-85400000D03*
%TD*%
D12*
%TO.C,C13*%
X178167000Y-88392500D03*
X178167000Y-90467500D03*
%TD*%
D13*
%TO.C,C22*%
X122812500Y-71980000D03*
X124887500Y-71980000D03*
%TD*%
D14*
%TO.C,R27*%
X133860000Y-85400000D03*
X133860000Y-83400000D03*
%TD*%
D11*
%TO.C,R21*%
X118760000Y-85400000D03*
X120760000Y-85400000D03*
%TD*%
D15*
%TO.C,C17*%
X164430000Y-59902500D03*
X164430000Y-57827500D03*
%TD*%
D16*
%TO.C,R5*%
X142840000Y-92110000D03*
X140840000Y-92110000D03*
%TD*%
%TO.C,R2*%
X147550000Y-101845000D03*
X145550000Y-101845000D03*
%TD*%
D15*
%TO.C,C16*%
X118620000Y-49167500D03*
X118620000Y-47092500D03*
%TD*%
D14*
%TO.C,R26*%
X131480000Y-85400000D03*
X131480000Y-83400000D03*
%TD*%
%TO.C,R17*%
X154150000Y-54950000D03*
X154150000Y-52950000D03*
%TD*%
D17*
%TO.C,R18*%
X149550000Y-54950000D03*
X149550000Y-56950000D03*
%TD*%
D18*
%TO.C,Q1*%
X149750000Y-52650000D03*
X151650000Y-52650000D03*
X150700000Y-50450000D03*
%TD*%
D13*
%TO.C,C6*%
X140772500Y-88660000D03*
X142847500Y-88660000D03*
%TD*%
D15*
%TO.C,C4*%
X159920000Y-65752500D03*
X159920000Y-63677500D03*
%TD*%
D19*
%TO.C,D3*%
X143670000Y-71890000D03*
X143670000Y-73940000D03*
%TD*%
D20*
%TO.C,FLASH*%
X181700000Y-70117500D03*
X181700000Y-77867500D03*
%TD*%
D21*
%TO.C,C9*%
X151740000Y-77530000D03*
X151740000Y-71930000D03*
%TD*%
D15*
%TO.C,C19*%
X136500000Y-85397500D03*
X136500000Y-83322500D03*
%TD*%
D19*
%TO.C,D2*%
X157320000Y-57782500D03*
X157320000Y-59832500D03*
%TD*%
D21*
%TO.C,C11*%
X160340000Y-77530000D03*
X160340000Y-72130000D03*
%TD*%
D12*
%TO.C,C21*%
X143335000Y-78370000D03*
X143335000Y-80445000D03*
%TD*%
D18*
%TO.C,Q2*%
X151700000Y-59150000D03*
X149800000Y-59150000D03*
X150750000Y-61350000D03*
%TD*%
D11*
%TO.C,R22*%
X122920000Y-83090000D03*
X124920000Y-83090000D03*
%TD*%
D22*
%TO.C,U5*%
X157865000Y-54005000D03*
X159135000Y-54005000D03*
X160405000Y-54005000D03*
X161675000Y-54005000D03*
X162945000Y-54005000D03*
X164215000Y-54005000D03*
X165485000Y-54005000D03*
X166755000Y-54005000D03*
X166755000Y-48505000D03*
X165485000Y-48505000D03*
X164215000Y-48505000D03*
X162945000Y-48505000D03*
X161675000Y-48505000D03*
X160405000Y-48505000D03*
X159135000Y-48505000D03*
X157865000Y-48505000D03*
%TD*%
D14*
%TO.C,R9*%
X175520000Y-72112500D03*
X175520000Y-70112500D03*
%TD*%
D23*
%TO.C,J3*%
X136500000Y-97175000D03*
D24*
X120700000Y-97175000D03*
%TD*%
D14*
%TO.C,R15*%
X144950000Y-58550000D03*
X144950000Y-56550000D03*
%TD*%
D16*
%TO.C,R1*%
X142830000Y-101905000D03*
X140830000Y-101905000D03*
%TD*%
D25*
%TO.C,F1*%
X157885000Y-95175000D03*
X153435000Y-95175000D03*
%TD*%
D16*
%TO.C,R25*%
X129060000Y-85400000D03*
X127060000Y-85400000D03*
%TD*%
D17*
%TO.C,R7*%
X159690000Y-57835000D03*
X159690000Y-59835000D03*
%TD*%
D12*
%TO.C,C2*%
X147570000Y-104067500D03*
X147570000Y-106142500D03*
%TD*%
D17*
%TO.C,R11*%
X144950000Y-48350000D03*
X144950000Y-50350000D03*
%TD*%
D14*
%TO.C,R19*%
X151750000Y-56950000D03*
X151750000Y-54950000D03*
%TD*%
D26*
%TO.C,D1*%
X155050000Y-83155000D03*
X155050000Y-90065000D03*
%TD*%
D16*
%TO.C,R3*%
X142840000Y-94490000D03*
X140840000Y-94490000D03*
%TD*%
D12*
%TO.C,C20*%
X145705000Y-78370000D03*
X145705000Y-80445000D03*
%TD*%
D17*
%TO.C,R30*%
X121950000Y-54010000D03*
X121950000Y-56010000D03*
%TD*%
D13*
%TO.C,C23*%
X122812500Y-69750000D03*
X124887500Y-69750000D03*
%TD*%
D27*
%TO.C,L1*%
X164242500Y-90065000D03*
X164242500Y-81115000D03*
%TD*%
D28*
%TO.C,U4*%
X124420000Y-47120000D03*
X124420000Y-48390000D03*
X124420000Y-49660000D03*
X124420000Y-50930000D03*
X124420000Y-52200000D03*
X124420000Y-53470000D03*
X124420000Y-54740000D03*
X124420000Y-56010000D03*
X124420000Y-57280000D03*
X124420000Y-58550000D03*
X124420000Y-59820000D03*
X124420000Y-61090000D03*
X124420000Y-62360000D03*
X124420000Y-63630000D03*
D29*
X127455000Y-64880000D03*
X128725000Y-64880000D03*
X129995000Y-64880000D03*
X131265000Y-64880000D03*
X132535000Y-64880000D03*
X133805000Y-64880000D03*
X135075000Y-64880000D03*
X136345000Y-64880000D03*
X137615000Y-64880000D03*
X138885000Y-64880000D03*
D28*
X141920000Y-63630000D03*
X141920000Y-62360000D03*
X141920000Y-61090000D03*
X141920000Y-59820000D03*
X141920000Y-58550000D03*
X141920000Y-57280000D03*
X141920000Y-56010000D03*
X141920000Y-54740000D03*
X141920000Y-53470000D03*
X141920000Y-52200000D03*
X141920000Y-50930000D03*
X141920000Y-49660000D03*
X141920000Y-48390000D03*
X141920000Y-47120000D03*
D30*
X130270000Y-53440000D03*
X131670000Y-53440000D03*
X133070000Y-53440000D03*
X130270000Y-54840000D03*
X131670000Y-54840000D03*
X133070000Y-54840000D03*
X130270000Y-56240000D03*
X131670000Y-56240000D03*
X133070000Y-56240000D03*
%TD*%
D16*
%TO.C,R10*%
X146950000Y-52710000D03*
X144950000Y-52710000D03*
%TD*%
D31*
%TO.C,U7*%
X140780000Y-79640000D03*
X140780000Y-78370000D03*
X140780000Y-77100000D03*
X140780000Y-75830000D03*
X140780000Y-74560000D03*
X140780000Y-73290000D03*
X140780000Y-72020000D03*
X140780000Y-70750000D03*
X131470000Y-70750000D03*
X131470000Y-72020000D03*
X131470000Y-73290000D03*
X131470000Y-74560000D03*
X131470000Y-75830000D03*
X131470000Y-77100000D03*
X131470000Y-78370000D03*
X131470000Y-79640000D03*
%TD*%
D32*
%TO.C,U3*%
X157220000Y-68265000D03*
X157220000Y-65965000D03*
D33*
X150920000Y-65965000D03*
D32*
X157220000Y-63665000D03*
%TD*%
D17*
%TO.C,R8*%
X145900000Y-71935000D03*
X145900000Y-73935000D03*
%TD*%
D15*
%TO.C,C5*%
X151015000Y-95717500D03*
X151015000Y-93642500D03*
%TD*%
D16*
%TO.C,R4*%
X142840000Y-99695000D03*
X140840000Y-99695000D03*
%TD*%
D15*
%TO.C,C3*%
X162380000Y-65782500D03*
X162380000Y-63707500D03*
%TD*%
D34*
%TO.C,J2*%
X173650000Y-54715000D03*
X173650000Y-54065000D03*
X173650000Y-53415000D03*
X173650000Y-52765000D03*
X173650000Y-52115000D03*
%TD*%
D17*
%TO.C,R14*%
X147667000Y-61108000D03*
X147667000Y-63108000D03*
%TD*%
D20*
%TO.C,EN*%
X181650000Y-90467500D03*
X181650000Y-98217500D03*
%TD*%
D15*
%TO.C,C10*%
X145400000Y-68027500D03*
X145400000Y-65952500D03*
%TD*%
D14*
%TO.C,R12*%
X175750000Y-90405000D03*
X175750000Y-88405000D03*
%TD*%
D15*
%TO.C,C15*%
X121150000Y-49187500D03*
X121150000Y-47112500D03*
%TD*%
%TO.C,C8*%
X147650000Y-68027500D03*
X147650000Y-65952500D03*
%TD*%
D12*
%TO.C,C7*%
X146250000Y-86612500D03*
X146250000Y-88687500D03*
%TD*%
D35*
%TO.C,U6*%
X123650000Y-79940000D03*
X124920000Y-79940000D03*
X126190000Y-79940000D03*
X127460000Y-79940000D03*
X127460000Y-74740000D03*
X126190000Y-74740000D03*
X124920000Y-74740000D03*
X123650000Y-74740000D03*
%TD*%
D20*
%TO.C,BUTTON *%
X181650000Y-80380000D03*
X181650000Y-88130000D03*
%TD*%
D14*
%TO.C,R13*%
X175750000Y-80380000D03*
X175750000Y-78380000D03*
%TD*%
%TO.C,R16*%
X154150000Y-59050000D03*
X154150000Y-57050000D03*
%TD*%
D36*
%TO.C,D4*%
X147250000Y-58575000D03*
X147250000Y-56525000D03*
%TD*%
D12*
%TO.C,C12*%
X178050000Y-70105000D03*
X178050000Y-72180000D03*
%TD*%
D11*
%TO.C,R20*%
X118750000Y-83090000D03*
X120750000Y-83090000D03*
%TD*%
D16*
%TO.C,R24*%
X129100000Y-83090000D03*
X127100000Y-83090000D03*
%TD*%
D37*
%TO.C,U2*%
X148800000Y-92180000D03*
X147530000Y-92180000D03*
X146260000Y-92180000D03*
X144990000Y-92180000D03*
X144990000Y-97130000D03*
X146260000Y-97130000D03*
X147530000Y-97130000D03*
X148800000Y-97130000D03*
%TD*%
D11*
%TO.C,R28*%
X138770000Y-82670000D03*
X140770000Y-82670000D03*
%TD*%
%TO.C,R6*%
X140767500Y-86275000D03*
X142767500Y-86275000D03*
%TD*%
D12*
%TO.C,C14*%
X178167000Y-78363000D03*
X178167000Y-80438000D03*
%TD*%
D38*
%TO.C,C1*%
X153530000Y-101475000D03*
X159130000Y-101475000D03*
%TD*%
D16*
%TO.C,R29*%
X145705000Y-76190000D03*
X143705000Y-76190000D03*
%TD*%
D12*
%TO.C,C18*%
X162045000Y-57827500D03*
X162045000Y-59902500D03*
%TD*%
M02*
