%TF.GenerationSoftware,KiCad,Pcbnew,7.0.5*%
%TF.CreationDate,2023-07-07T19:33:18+07:00*%
%TF.ProjectId,19-6-2023_WeatherStation_QuocThang_V1,31392d36-2d32-4303-9233-5f5765617468,rev?*%
%TF.SameCoordinates,Original*%
%TF.FileFunction,Drillmap*%
%TF.FilePolarity,Positive*%
%FSLAX45Y45*%
G04 Gerber Fmt 4.5, Leading zero omitted, Abs format (unit mm)*
G04 Created by KiCad (PCBNEW 7.0.5) date 2023-07-07 19:33:18*
%MOMM*%
%LPD*%
G01*
G04 APERTURE LIST*
%ADD10C,0.100000*%
%ADD11C,0.200000*%
%ADD12C,0.020000*%
%ADD13C,0.040000*%
%ADD14C,0.055000*%
%ADD15C,0.085000*%
%ADD16C,0.160000*%
G04 APERTURE END LIST*
D10*
X12391000Y-4572500D02*
X14243000Y-4572500D01*
X14243000Y-4572500D02*
X14243000Y-3841500D01*
X18439000Y-3841500D02*
X14243000Y-3841500D01*
X18439000Y-10691500D02*
X10990000Y-10691500D01*
X10990000Y-10691500D02*
X10990000Y-3841500D01*
X10990000Y-3841500D02*
X12391000Y-3841500D01*
X18439000Y-10691500D02*
X18439000Y-3841500D01*
X12391000Y-3841500D02*
X12391000Y-4572500D01*
D11*
D12*
X14554200Y-9377000D02*
X14574200Y-9397000D01*
X14574200Y-9377000D02*
X14554200Y-9397000D01*
X14554200Y-9428300D02*
X14574200Y-9448300D01*
X14574200Y-9428300D02*
X14554200Y-9448300D01*
X14554200Y-9479100D02*
X14574200Y-9499100D01*
X14574200Y-9479100D02*
X14554200Y-9499100D01*
X14554200Y-9529900D02*
X14574200Y-9549900D01*
X14574200Y-9529900D02*
X14554200Y-9549900D01*
X14605000Y-9377500D02*
X14625000Y-9397500D01*
X14625000Y-9377500D02*
X14605000Y-9397500D01*
X14605000Y-9428300D02*
X14625000Y-9448300D01*
X14625000Y-9428300D02*
X14605000Y-9448300D01*
X14605000Y-9479100D02*
X14625000Y-9499100D01*
X14625000Y-9479100D02*
X14605000Y-9499100D01*
X14605000Y-9529900D02*
X14625000Y-9549900D01*
X14625000Y-9529900D02*
X14605000Y-9549900D01*
X14655800Y-9377500D02*
X14675800Y-9397500D01*
X14675800Y-9377500D02*
X14655800Y-9397500D01*
X14655800Y-9428300D02*
X14675800Y-9448300D01*
X14675800Y-9428300D02*
X14655800Y-9448300D01*
X14655800Y-9479100D02*
X14675800Y-9499100D01*
X14675800Y-9479100D02*
X14655800Y-9499100D01*
X14655800Y-9529900D02*
X14675800Y-9549900D01*
X14675800Y-9529900D02*
X14655800Y-9549900D01*
X14706600Y-9377500D02*
X14726600Y-9397500D01*
X14726600Y-9377500D02*
X14706600Y-9397500D01*
X14706600Y-9428300D02*
X14726600Y-9448300D01*
X14726600Y-9428300D02*
X14706600Y-9448300D01*
X14706600Y-9479100D02*
X14726600Y-9499100D01*
X14726600Y-9479100D02*
X14706600Y-9499100D01*
X14706600Y-9529900D02*
X14726600Y-9549900D01*
X14726600Y-9529900D02*
X14706600Y-9549900D01*
X14757400Y-9377500D02*
X14777400Y-9397500D01*
X14777400Y-9377500D02*
X14757400Y-9397500D01*
X14757400Y-9428300D02*
X14777400Y-9448300D01*
X14777400Y-9428300D02*
X14757400Y-9448300D01*
X14757400Y-9479100D02*
X14777400Y-9499100D01*
X14777400Y-9479100D02*
X14757400Y-9499100D01*
X14757400Y-9529900D02*
X14777400Y-9549900D01*
X14777400Y-9529900D02*
X14757400Y-9549900D01*
X14808200Y-9377500D02*
X14828200Y-9397500D01*
X14828200Y-9377500D02*
X14808200Y-9397500D01*
X14808200Y-9428300D02*
X14828200Y-9448300D01*
X14828200Y-9428300D02*
X14808200Y-9448300D01*
X14808200Y-9479100D02*
X14828200Y-9499100D01*
X14828200Y-9479100D02*
X14808200Y-9499100D01*
X14808200Y-9529900D02*
X14828200Y-9549900D01*
X14828200Y-9529900D02*
X14808200Y-9549900D01*
X13037000Y-5414000D02*
G75*
G03*
X13037000Y-5414000I-10000J0D01*
G01*
X13037000Y-5554000D02*
G75*
G03*
X13037000Y-5554000I-10000J0D01*
G01*
X13107000Y-5344000D02*
G75*
G03*
X13107000Y-5344000I-10000J0D01*
G01*
X13107000Y-5484000D02*
G75*
G03*
X13107000Y-5484000I-10000J0D01*
G01*
X13107000Y-5624000D02*
G75*
G03*
X13107000Y-5624000I-10000J0D01*
G01*
X13177000Y-5414000D02*
G75*
G03*
X13177000Y-5414000I-10000J0D01*
G01*
X13177000Y-5554000D02*
G75*
G03*
X13177000Y-5554000I-10000J0D01*
G01*
X13247000Y-5344000D02*
G75*
G03*
X13247000Y-5344000I-10000J0D01*
G01*
X13247000Y-5484000D02*
G75*
G03*
X13247000Y-5484000I-10000J0D01*
G01*
X13247000Y-5624000D02*
G75*
G03*
X13247000Y-5624000I-10000J0D01*
G01*
X13317000Y-5414000D02*
G75*
G03*
X13317000Y-5414000I-10000J0D01*
G01*
X13317000Y-5554000D02*
G75*
G03*
X13317000Y-5554000I-10000J0D01*
G01*
D13*
X11748000Y-8685000D02*
X11748000Y-8725000D01*
X11728000Y-8705000D02*
X11768000Y-8705000D01*
X11748000Y-8812000D02*
X11748000Y-8852000D01*
X11728000Y-8832000D02*
X11768000Y-8832000D01*
X11748000Y-8941500D02*
X11748000Y-8981500D01*
X11728000Y-8961500D02*
X11768000Y-8961500D01*
X11860000Y-5175000D02*
X11860000Y-5215000D01*
X11840000Y-5195000D02*
X11880000Y-5195000D01*
X11875000Y-8812000D02*
X11875000Y-8852000D01*
X11855000Y-8832000D02*
X11895000Y-8832000D01*
X11875000Y-8941500D02*
X11875000Y-8981500D01*
X11855000Y-8961500D02*
X11895000Y-8961500D01*
X11876700Y-8685800D02*
X11876700Y-8725800D01*
X11856700Y-8705800D02*
X11896700Y-8705800D01*
X11975070Y-8157500D02*
X11975070Y-8197500D01*
X11955070Y-8177500D02*
X11995070Y-8177500D01*
X12002000Y-8685000D02*
X12002000Y-8725000D01*
X11982000Y-8705000D02*
X12022000Y-8705000D01*
X12002000Y-8812000D02*
X12002000Y-8852000D01*
X11982000Y-8832000D02*
X12022000Y-8832000D01*
X12002000Y-8941500D02*
X12002000Y-8981500D01*
X11982000Y-8961500D02*
X12022000Y-8961500D01*
X12077970Y-6955000D02*
X12077970Y-6995000D01*
X12057970Y-6975000D02*
X12097970Y-6975000D01*
X12129000Y-8685000D02*
X12129000Y-8725000D01*
X12109000Y-8705000D02*
X12149000Y-8705000D01*
X12129000Y-8812000D02*
X12129000Y-8852000D01*
X12109000Y-8832000D02*
X12149000Y-8832000D01*
X12129000Y-8941500D02*
X12129000Y-8981500D01*
X12109000Y-8961500D02*
X12149000Y-8961500D01*
X12161000Y-5082500D02*
X12161000Y-5122500D01*
X12141000Y-5102500D02*
X12181000Y-5102500D01*
X12275000Y-4690000D02*
X12275000Y-4730000D01*
X12255000Y-4710000D02*
X12295000Y-4710000D01*
X12275000Y-6450000D02*
X12275000Y-6490000D01*
X12255000Y-6470000D02*
X12295000Y-6470000D01*
X12292000Y-8156500D02*
X12292000Y-8196500D01*
X12272000Y-8176500D02*
X12312000Y-8176500D01*
X12296000Y-8811500D02*
X12296000Y-8851500D01*
X12276000Y-8831500D02*
X12316000Y-8831500D01*
X12296000Y-8938500D02*
X12296000Y-8978500D01*
X12276000Y-8958500D02*
X12316000Y-8958500D01*
X12296700Y-8685800D02*
X12296700Y-8725800D01*
X12276700Y-8705800D02*
X12316700Y-8705800D01*
X12422000Y-8687500D02*
X12422000Y-8727500D01*
X12402000Y-8707500D02*
X12442000Y-8707500D01*
X12422000Y-8814500D02*
X12422000Y-8854500D01*
X12402000Y-8834500D02*
X12442000Y-8834500D01*
X12423000Y-8938500D02*
X12423000Y-8978500D01*
X12403000Y-8958500D02*
X12443000Y-8958500D01*
X12549000Y-8687500D02*
X12549000Y-8727500D01*
X12529000Y-8707500D02*
X12569000Y-8707500D01*
X12549000Y-8814500D02*
X12549000Y-8854500D01*
X12529000Y-8834500D02*
X12569000Y-8834500D01*
X12550000Y-8938500D02*
X12550000Y-8978500D01*
X12530000Y-8958500D02*
X12570000Y-8958500D01*
X12636800Y-6945000D02*
X12636800Y-6985000D01*
X12616800Y-6965000D02*
X12656800Y-6965000D01*
X12636800Y-7046600D02*
X12636800Y-7086600D01*
X12616800Y-7066600D02*
X12656800Y-7066600D01*
X12676000Y-8687500D02*
X12676000Y-8727500D01*
X12656000Y-8707500D02*
X12696000Y-8707500D01*
X12676000Y-8814500D02*
X12676000Y-8854500D01*
X12656000Y-8834500D02*
X12696000Y-8834500D01*
X12677000Y-8938500D02*
X12677000Y-8978500D01*
X12657000Y-8958500D02*
X12697000Y-8958500D01*
X12713000Y-6868800D02*
X12713000Y-6908800D01*
X12693000Y-6888800D02*
X12733000Y-6888800D01*
X12732902Y-6964902D02*
X12732902Y-7004902D01*
X12712902Y-6984902D02*
X12752902Y-6984902D01*
X12809102Y-6888702D02*
X12809102Y-6928702D01*
X12789102Y-6908702D02*
X12829102Y-6908702D01*
X12865400Y-7199000D02*
X12865400Y-7239000D01*
X12845400Y-7219000D02*
X12885400Y-7219000D01*
X12910000Y-8158500D02*
X12910000Y-8198500D01*
X12890000Y-8178500D02*
X12930000Y-8178500D01*
X12911700Y-8685800D02*
X12911700Y-8725800D01*
X12891700Y-8705800D02*
X12931700Y-8705800D01*
X12912000Y-8814500D02*
X12912000Y-8854500D01*
X12892000Y-8834500D02*
X12932000Y-8834500D01*
X12913000Y-8938500D02*
X12913000Y-8978500D01*
X12893000Y-8958500D02*
X12933000Y-8958500D01*
X12967000Y-7199000D02*
X12967000Y-7239000D01*
X12947000Y-7219000D02*
X12987000Y-7219000D01*
X12968000Y-7097400D02*
X12968000Y-7137400D01*
X12948000Y-7117400D02*
X12988000Y-7117400D01*
X13057000Y-8687500D02*
X13057000Y-8727500D01*
X13037000Y-8707500D02*
X13077000Y-8707500D01*
X13057000Y-8814500D02*
X13057000Y-8854500D01*
X13037000Y-8834500D02*
X13077000Y-8834500D01*
X13058000Y-8938500D02*
X13058000Y-8978500D01*
X13038000Y-8958500D02*
X13078000Y-8958500D01*
X13184000Y-8687500D02*
X13184000Y-8727500D01*
X13164000Y-8707500D02*
X13204000Y-8707500D01*
X13184000Y-8814500D02*
X13184000Y-8854500D01*
X13164000Y-8834500D02*
X13204000Y-8834500D01*
X13185000Y-8938500D02*
X13185000Y-8978500D01*
X13165000Y-8958500D02*
X13205000Y-8958500D01*
X13311000Y-8687500D02*
X13311000Y-8727500D01*
X13291000Y-8707500D02*
X13331000Y-8707500D01*
X13311000Y-8814500D02*
X13311000Y-8854500D01*
X13291000Y-8834500D02*
X13331000Y-8834500D01*
X13312000Y-8938500D02*
X13312000Y-8978500D01*
X13292000Y-8958500D02*
X13332000Y-8958500D01*
X13438000Y-8685800D02*
X13438000Y-8725800D01*
X13418000Y-8705800D02*
X13458000Y-8705800D01*
X13438000Y-8814500D02*
X13438000Y-8854500D01*
X13418000Y-8834500D02*
X13458000Y-8834500D01*
X13439000Y-8938500D02*
X13439000Y-8978500D01*
X13419000Y-8958500D02*
X13459000Y-8958500D01*
X13633000Y-7722500D02*
X13633000Y-7762500D01*
X13613000Y-7742500D02*
X13653000Y-7742500D01*
X13633000Y-7849500D02*
X13633000Y-7889500D01*
X13613000Y-7869500D02*
X13653000Y-7869500D01*
X13633000Y-7976500D02*
X13633000Y-8016500D01*
X13613000Y-7996500D02*
X13653000Y-7996500D01*
X13650000Y-8156500D02*
X13650000Y-8196500D01*
X13630000Y-8176500D02*
X13670000Y-8176500D01*
X13760000Y-7722500D02*
X13760000Y-7762500D01*
X13740000Y-7742500D02*
X13780000Y-7742500D01*
X13760000Y-7849500D02*
X13760000Y-7889500D01*
X13740000Y-7869500D02*
X13780000Y-7869500D01*
X13760000Y-7976500D02*
X13760000Y-8016500D01*
X13740000Y-7996500D02*
X13780000Y-7996500D01*
X13887000Y-7849500D02*
X13887000Y-7889500D01*
X13867000Y-7869500D02*
X13907000Y-7869500D01*
X13887000Y-7976500D02*
X13887000Y-8016500D01*
X13867000Y-7996500D02*
X13907000Y-7996500D01*
X13888000Y-7721500D02*
X13888000Y-7761500D01*
X13868000Y-7741500D02*
X13908000Y-7741500D01*
X14131000Y-6702500D02*
X14131000Y-6742500D01*
X14111000Y-6722500D02*
X14151000Y-6722500D01*
X14131000Y-6829500D02*
X14131000Y-6869500D01*
X14111000Y-6849500D02*
X14151000Y-6849500D01*
X14258000Y-6702500D02*
X14258000Y-6742500D01*
X14238000Y-6722500D02*
X14278000Y-6722500D01*
X14258000Y-6829500D02*
X14258000Y-6869500D01*
X14238000Y-6849500D02*
X14278000Y-6849500D01*
X14283000Y-10356500D02*
X14283000Y-10396500D01*
X14263000Y-10376500D02*
X14303000Y-10376500D01*
X14333500Y-8153500D02*
X14333500Y-8193500D01*
X14313500Y-8173500D02*
X14353500Y-8173500D01*
X14517000Y-6216500D02*
X14517000Y-6256500D01*
X14497000Y-6236500D02*
X14537000Y-6236500D01*
X14592000Y-6931500D02*
X14592000Y-6971500D01*
X14572000Y-6951500D02*
X14612000Y-6951500D01*
X14592000Y-7058500D02*
X14592000Y-7098500D01*
X14572000Y-7078500D02*
X14612000Y-7078500D01*
X14650000Y-8354500D02*
X14650000Y-8394500D01*
X14630000Y-8374500D02*
X14670000Y-8374500D01*
X14718000Y-6931500D02*
X14718000Y-6971500D01*
X14698000Y-6951500D02*
X14738000Y-6951500D01*
X14719000Y-7058500D02*
X14719000Y-7098500D01*
X14699000Y-7078500D02*
X14739000Y-7078500D01*
X14725000Y-5965800D02*
X14725000Y-6005800D01*
X14705000Y-5985800D02*
X14745000Y-5985800D01*
X14751700Y-8960800D02*
X14751700Y-9000800D01*
X14731700Y-8980800D02*
X14771700Y-8980800D01*
X14761700Y-7590800D02*
X14761700Y-7630800D01*
X14741700Y-7610800D02*
X14781700Y-7610800D01*
X14761700Y-7723500D02*
X14761700Y-7763500D01*
X14741700Y-7743500D02*
X14781700Y-7743500D01*
X14762000Y-7337500D02*
X14762000Y-7377500D01*
X14742000Y-7357500D02*
X14782000Y-7357500D01*
X14762000Y-7464500D02*
X14762000Y-7504500D01*
X14742000Y-7484500D02*
X14782000Y-7484500D01*
X14775000Y-8642500D02*
X14775000Y-8682500D01*
X14755000Y-8662500D02*
X14795000Y-8662500D01*
X14775000Y-8769500D02*
X14775000Y-8809500D01*
X14755000Y-8789500D02*
X14795000Y-8789500D01*
X14777000Y-8227500D02*
X14777000Y-8267500D01*
X14757000Y-8247500D02*
X14797000Y-8247500D01*
X14777000Y-8354500D02*
X14777000Y-8394500D01*
X14757000Y-8374500D02*
X14797000Y-8374500D01*
X14845000Y-6931500D02*
X14845000Y-6971500D01*
X14825000Y-6951500D02*
X14865000Y-6951500D01*
X14846000Y-7058500D02*
X14846000Y-7098500D01*
X14826000Y-7078500D02*
X14866000Y-7078500D01*
X14902000Y-8641250D02*
X14902000Y-8681250D01*
X14882000Y-8661250D02*
X14922000Y-8661250D01*
X14902000Y-8769500D02*
X14902000Y-8809500D01*
X14882000Y-8789500D02*
X14922000Y-8789500D01*
X14903000Y-8353500D02*
X14903000Y-8393500D01*
X14883000Y-8373500D02*
X14923000Y-8373500D01*
X14904000Y-7973500D02*
X14904000Y-8013500D01*
X14884000Y-7993500D02*
X14924000Y-7993500D01*
X14904000Y-8100500D02*
X14904000Y-8140500D01*
X14884000Y-8120500D02*
X14924000Y-8120500D01*
X14904000Y-8227500D02*
X14904000Y-8267500D01*
X14884000Y-8247500D02*
X14924000Y-8247500D01*
X14908000Y-5021500D02*
X14908000Y-5061500D01*
X14888000Y-5041500D02*
X14928000Y-5041500D01*
X15029000Y-8515500D02*
X15029000Y-8555500D01*
X15009000Y-8535500D02*
X15049000Y-8535500D01*
X15029000Y-8642500D02*
X15029000Y-8682500D01*
X15009000Y-8662500D02*
X15049000Y-8662500D01*
X15029000Y-8769500D02*
X15029000Y-8809500D01*
X15009000Y-8789500D02*
X15049000Y-8789500D01*
X15156000Y-8515500D02*
X15156000Y-8555500D01*
X15136000Y-8535500D02*
X15176000Y-8535500D01*
X15156000Y-8642500D02*
X15156000Y-8682500D01*
X15136000Y-8662500D02*
X15176000Y-8662500D01*
X15156000Y-8769500D02*
X15156000Y-8809500D01*
X15136000Y-8789500D02*
X15176000Y-8789500D01*
X15158000Y-10594500D02*
X15158000Y-10634500D01*
X15138000Y-10614500D02*
X15178000Y-10614500D01*
X15195000Y-6115000D02*
X15195000Y-6155000D01*
X15175000Y-6135000D02*
X15215000Y-6135000D01*
X15270000Y-5042500D02*
X15270000Y-5082500D01*
X15250000Y-5062500D02*
X15290000Y-5062500D01*
X15272750Y-10386750D02*
X15272750Y-10426750D01*
X15252750Y-10406750D02*
X15292750Y-10406750D01*
X15409000Y-5041500D02*
X15409000Y-5081500D01*
X15389000Y-5061500D02*
X15429000Y-5061500D01*
X15437000Y-6068500D02*
X15437000Y-6108500D01*
X15417000Y-6088500D02*
X15457000Y-6088500D01*
X15437000Y-6443500D02*
X15437000Y-6483500D01*
X15417000Y-6463500D02*
X15457000Y-6463500D01*
X15440000Y-6718420D02*
X15440000Y-6758420D01*
X15420000Y-6738420D02*
X15460000Y-6738420D01*
X15618000Y-5214500D02*
X15618000Y-5254500D01*
X15598000Y-5234500D02*
X15638000Y-5234500D01*
X15622000Y-4829500D02*
X15622000Y-4869500D01*
X15602000Y-4849500D02*
X15642000Y-4849500D01*
X16041000Y-4650550D02*
X16041000Y-4690550D01*
X16021000Y-4670550D02*
X16061000Y-4670550D01*
X16170000Y-4648500D02*
X16170000Y-4688500D01*
X16150000Y-4668500D02*
X16190000Y-4668500D01*
X16454000Y-7483500D02*
X16454000Y-7523500D01*
X16434000Y-7503500D02*
X16474000Y-7503500D01*
X16454000Y-7610500D02*
X16454000Y-7650500D01*
X16434000Y-7630500D02*
X16474000Y-7630500D01*
X16454000Y-7736500D02*
X16454000Y-7776500D01*
X16434000Y-7756500D02*
X16474000Y-7756500D01*
X16581000Y-7483500D02*
X16581000Y-7523500D01*
X16561000Y-7503500D02*
X16601000Y-7503500D01*
X16581000Y-7610500D02*
X16581000Y-7650500D01*
X16561000Y-7630500D02*
X16601000Y-7630500D01*
X16581000Y-7737500D02*
X16581000Y-7777500D01*
X16561000Y-7757500D02*
X16601000Y-7757500D01*
X16615000Y-5970500D02*
X16615000Y-6010500D01*
X16595000Y-5990500D02*
X16635000Y-5990500D01*
X16856000Y-5608500D02*
X16856000Y-5648500D01*
X16836000Y-5628500D02*
X16876000Y-5628500D01*
X16858530Y-4949000D02*
X16858530Y-4989000D01*
X16838530Y-4969000D02*
X16878530Y-4969000D01*
X17055000Y-5695500D02*
X17055000Y-5735500D01*
X17035000Y-5715500D02*
X17075000Y-5715500D01*
X17055000Y-6032570D02*
X17055000Y-6072570D01*
X17035000Y-6052570D02*
X17075000Y-6052570D01*
X17121000Y-7891500D02*
X17121000Y-7931500D01*
X17101000Y-7911500D02*
X17141000Y-7911500D01*
X17121000Y-8018500D02*
X17121000Y-8058500D01*
X17101000Y-8038500D02*
X17141000Y-8038500D01*
X17121000Y-8145500D02*
X17121000Y-8185500D01*
X17101000Y-8165500D02*
X17141000Y-8165500D01*
X17121000Y-8272500D02*
X17121000Y-8312500D01*
X17101000Y-8292500D02*
X17141000Y-8292500D01*
X17121000Y-8399500D02*
X17121000Y-8439500D01*
X17101000Y-8419500D02*
X17141000Y-8419500D01*
X17248000Y-7891500D02*
X17248000Y-7931500D01*
X17228000Y-7911500D02*
X17268000Y-7911500D01*
X17248000Y-8018500D02*
X17248000Y-8058500D01*
X17228000Y-8038500D02*
X17268000Y-8038500D01*
X17248000Y-8145500D02*
X17248000Y-8185500D01*
X17228000Y-8165500D02*
X17268000Y-8165500D01*
X17248000Y-8272500D02*
X17248000Y-8312500D01*
X17228000Y-8292500D02*
X17268000Y-8292500D01*
X17248000Y-8399500D02*
X17248000Y-8439500D01*
X17228000Y-8419500D02*
X17268000Y-8419500D01*
X17374000Y-8018000D02*
X17374000Y-8058000D01*
X17354000Y-8038000D02*
X17394000Y-8038000D01*
X17375000Y-7891500D02*
X17375000Y-7931500D01*
X17355000Y-7911500D02*
X17395000Y-7911500D01*
X17375000Y-8145500D02*
X17375000Y-8185500D01*
X17355000Y-8165500D02*
X17395000Y-8165500D01*
X17375000Y-8272500D02*
X17375000Y-8312500D01*
X17355000Y-8292500D02*
X17395000Y-8292500D01*
X17375000Y-8399500D02*
X17375000Y-8439500D01*
X17355000Y-8419500D02*
X17395000Y-8419500D01*
X17494000Y-6182500D02*
X17494000Y-6222500D01*
X17474000Y-6202500D02*
X17514000Y-6202500D01*
X17551000Y-6829500D02*
X17551000Y-6869500D01*
X17531000Y-6849500D02*
X17571000Y-6849500D01*
X17576000Y-7653500D02*
X17576000Y-7693500D01*
X17556000Y-7673500D02*
X17596000Y-7673500D01*
X17687000Y-6829500D02*
X17687000Y-6869500D01*
X17667000Y-6849500D02*
X17707000Y-6849500D01*
X17817000Y-8661500D02*
X17817000Y-8701500D01*
X17797000Y-8681500D02*
X17837000Y-8681500D01*
D14*
X17769446Y-4973446D02*
X17769446Y-4934554D01*
X17730554Y-4934554D01*
X17730554Y-4973446D01*
X17769446Y-4973446D01*
D11*
X17717500Y-4981500D02*
X17782500Y-4981500D01*
X17782500Y-4981500D02*
G75*
G03*
X17782500Y-4926500I0J27500D01*
G01*
X17782500Y-4926500D02*
X17717500Y-4926500D01*
X17717500Y-4926500D02*
G75*
G03*
X17717500Y-4981500I0J-27500D01*
G01*
D14*
X17769446Y-5748446D02*
X17769446Y-5709554D01*
X17730554Y-5709554D01*
X17730554Y-5748446D01*
X17769446Y-5748446D01*
D11*
X17717500Y-5756500D02*
X17782500Y-5756500D01*
X17782500Y-5756500D02*
G75*
G03*
X17782500Y-5701500I0J27500D01*
G01*
X17782500Y-5701500D02*
X17717500Y-5701500D01*
X17717500Y-5701500D02*
G75*
G03*
X17717500Y-5756500I0J-27500D01*
G01*
D15*
X17370000Y-5011500D02*
X17412500Y-4969000D01*
X17370000Y-4926500D01*
X17327500Y-4969000D01*
X17370000Y-5011500D01*
D11*
X17342500Y-5011500D02*
X17397500Y-5011500D01*
X17397500Y-5011500D02*
G75*
G03*
X17397500Y-4926500I0J42500D01*
G01*
X17397500Y-4926500D02*
X17342500Y-4926500D01*
X17342500Y-4926500D02*
G75*
G03*
X17342500Y-5011500I0J-42500D01*
G01*
D15*
X17370000Y-5756500D02*
X17412500Y-5714000D01*
X17370000Y-5671500D01*
X17327500Y-5714000D01*
X17370000Y-5756500D01*
D11*
X17342500Y-5756500D02*
X17397500Y-5756500D01*
X17397500Y-5756500D02*
G75*
G03*
X17397500Y-5671500I0J42500D01*
G01*
X17397500Y-5671500D02*
X17342500Y-5671500D01*
X17342500Y-5671500D02*
G75*
G03*
X17342500Y-5756500I0J-42500D01*
G01*
D10*
X11302000Y-4801500D02*
X11402000Y-4901500D01*
X11402000Y-4801500D02*
X11302000Y-4901500D01*
X11402000Y-4851500D02*
G75*
G03*
X11402000Y-4851500I-50000J0D01*
G01*
X11302000Y-5055500D02*
X11402000Y-5155500D01*
X11402000Y-5055500D02*
X11302000Y-5155500D01*
X11402000Y-5105500D02*
G75*
G03*
X11402000Y-5105500I-50000J0D01*
G01*
X11302000Y-5309500D02*
X11402000Y-5409500D01*
X11402000Y-5309500D02*
X11302000Y-5409500D01*
X11402000Y-5359500D02*
G75*
G03*
X11402000Y-5359500I-50000J0D01*
G01*
X11304000Y-7186000D02*
X11404000Y-7286000D01*
X11404000Y-7186000D02*
X11304000Y-7286000D01*
X11404000Y-7236000D02*
G75*
G03*
X11404000Y-7236000I-50000J0D01*
G01*
X11304000Y-7440000D02*
X11404000Y-7540000D01*
X11404000Y-7440000D02*
X11304000Y-7540000D01*
X11404000Y-7490000D02*
G75*
G03*
X11404000Y-7490000I-50000J0D01*
G01*
X11304000Y-7694000D02*
X11404000Y-7794000D01*
X11404000Y-7694000D02*
X11304000Y-7794000D01*
X11404000Y-7744000D02*
G75*
G03*
X11404000Y-7744000I-50000J0D01*
G01*
X11304000Y-7948000D02*
X11404000Y-8048000D01*
X11404000Y-7948000D02*
X11304000Y-8048000D01*
X11404000Y-7998000D02*
G75*
G03*
X11404000Y-7998000I-50000J0D01*
G01*
X11304000Y-8202000D02*
X11404000Y-8302000D01*
X11404000Y-8202000D02*
X11304000Y-8302000D01*
X11404000Y-8252000D02*
G75*
G03*
X11404000Y-8252000I-50000J0D01*
G01*
X11304000Y-8456000D02*
X11404000Y-8556000D01*
X11404000Y-8456000D02*
X11304000Y-8556000D01*
X11404000Y-8506000D02*
G75*
G03*
X11404000Y-8506000I-50000J0D01*
G01*
X11304000Y-8710000D02*
X11404000Y-8810000D01*
X11404000Y-8710000D02*
X11304000Y-8810000D01*
X11404000Y-8760000D02*
G75*
G03*
X11404000Y-8760000I-50000J0D01*
G01*
X11304000Y-8964000D02*
X11404000Y-9064000D01*
X11404000Y-8964000D02*
X11304000Y-9064000D01*
X11404000Y-9014000D02*
G75*
G03*
X11404000Y-9014000I-50000J0D01*
G01*
X11305000Y-5755000D02*
X11405000Y-5855000D01*
X11405000Y-5755000D02*
X11305000Y-5855000D01*
X11405000Y-5805000D02*
G75*
G03*
X11405000Y-5805000I-50000J0D01*
G01*
X11305000Y-6009000D02*
X11405000Y-6109000D01*
X11405000Y-6009000D02*
X11305000Y-6109000D01*
X11405000Y-6059000D02*
G75*
G03*
X11405000Y-6059000I-50000J0D01*
G01*
X11305000Y-6263000D02*
X11405000Y-6363000D01*
X11405000Y-6263000D02*
X11305000Y-6363000D01*
X11405000Y-6313000D02*
G75*
G03*
X11405000Y-6313000I-50000J0D01*
G01*
X11305000Y-6517000D02*
X11405000Y-6617000D01*
X11405000Y-6517000D02*
X11305000Y-6617000D01*
X11405000Y-6567000D02*
G75*
G03*
X11405000Y-6567000I-50000J0D01*
G01*
X11305000Y-6771000D02*
X11405000Y-6871000D01*
X11405000Y-6771000D02*
X11305000Y-6871000D01*
X11405000Y-6821000D02*
G75*
G03*
X11405000Y-6821000I-50000J0D01*
G01*
X16720000Y-9466250D02*
X16820000Y-9566250D01*
X16820000Y-9466250D02*
X16720000Y-9566250D01*
X16820000Y-9516250D02*
G75*
G03*
X16820000Y-9516250I-50000J0D01*
G01*
D11*
X16645000Y-9566250D02*
X16895000Y-9566250D01*
X16895000Y-9566250D02*
G75*
G03*
X16895000Y-9466250I0J50000D01*
G01*
X16895000Y-9466250D02*
X16645000Y-9466250D01*
X16645000Y-9466250D02*
G75*
G03*
X16645000Y-9566250I0J-50000D01*
G01*
D10*
X16720000Y-10066250D02*
X16820000Y-10166250D01*
X16820000Y-10066250D02*
X16720000Y-10166250D01*
X16820000Y-10116250D02*
G75*
G03*
X16820000Y-10116250I-50000J0D01*
G01*
D11*
X16670000Y-10166250D02*
X16870000Y-10166250D01*
X16870000Y-10166250D02*
G75*
G03*
X16870000Y-10066250I0J50000D01*
G01*
X16870000Y-10066250D02*
X16670000Y-10066250D01*
X16670000Y-10066250D02*
G75*
G03*
X16670000Y-10166250I0J-50000D01*
G01*
D10*
X17190000Y-9766250D02*
X17290000Y-9866250D01*
X17290000Y-9766250D02*
X17190000Y-9866250D01*
X17290000Y-9816250D02*
G75*
G03*
X17290000Y-9816250I-50000J0D01*
G01*
D11*
X17290000Y-9916250D02*
X17290000Y-9716250D01*
X17290000Y-9716250D02*
G75*
G03*
X17190000Y-9716250I-50000J0D01*
G01*
X17190000Y-9716250D02*
X17190000Y-9916250D01*
X17190000Y-9916250D02*
G75*
G03*
X17290000Y-9916250I50000J0D01*
G01*
D16*
X16791000Y-6515500D02*
X16951000Y-6675500D01*
X16951000Y-6515500D02*
X16791000Y-6675500D01*
X16871000Y-6515500D02*
X16871000Y-6675500D01*
X16791000Y-6595500D02*
X16951000Y-6595500D01*
X16791000Y-6985500D02*
X16951000Y-7145500D01*
X16951000Y-6985500D02*
X16791000Y-7145500D01*
X16871000Y-6985500D02*
X16871000Y-7145500D01*
X16791000Y-7065500D02*
X16951000Y-7065500D01*
X16791000Y-7455500D02*
X16951000Y-7615500D01*
X16951000Y-7455500D02*
X16791000Y-7615500D01*
X16871000Y-7455500D02*
X16871000Y-7615500D01*
X16791000Y-7535500D02*
X16951000Y-7535500D01*
D11*
X11245777Y-11007984D02*
X11245777Y-10807984D01*
X11245777Y-10807984D02*
X11293396Y-10807984D01*
X11293396Y-10807984D02*
X11321967Y-10817508D01*
X11321967Y-10817508D02*
X11341015Y-10836555D01*
X11341015Y-10836555D02*
X11350539Y-10855603D01*
X11350539Y-10855603D02*
X11360062Y-10893698D01*
X11360062Y-10893698D02*
X11360062Y-10922270D01*
X11360062Y-10922270D02*
X11350539Y-10960365D01*
X11350539Y-10960365D02*
X11341015Y-10979412D01*
X11341015Y-10979412D02*
X11321967Y-10998460D01*
X11321967Y-10998460D02*
X11293396Y-11007984D01*
X11293396Y-11007984D02*
X11245777Y-11007984D01*
X11445777Y-11007984D02*
X11445777Y-10874650D01*
X11445777Y-10912746D02*
X11455301Y-10893698D01*
X11455301Y-10893698D02*
X11464824Y-10884174D01*
X11464824Y-10884174D02*
X11483872Y-10874650D01*
X11483872Y-10874650D02*
X11502920Y-10874650D01*
X11569586Y-11007984D02*
X11569586Y-10874650D01*
X11569586Y-10807984D02*
X11560062Y-10817508D01*
X11560062Y-10817508D02*
X11569586Y-10827031D01*
X11569586Y-10827031D02*
X11579110Y-10817508D01*
X11579110Y-10817508D02*
X11569586Y-10807984D01*
X11569586Y-10807984D02*
X11569586Y-10827031D01*
X11693396Y-11007984D02*
X11674348Y-10998460D01*
X11674348Y-10998460D02*
X11664824Y-10979412D01*
X11664824Y-10979412D02*
X11664824Y-10807984D01*
X11798158Y-11007984D02*
X11779110Y-10998460D01*
X11779110Y-10998460D02*
X11769586Y-10979412D01*
X11769586Y-10979412D02*
X11769586Y-10807984D01*
X12026729Y-11007984D02*
X12026729Y-10807984D01*
X12026729Y-10807984D02*
X12093396Y-10950841D01*
X12093396Y-10950841D02*
X12160062Y-10807984D01*
X12160062Y-10807984D02*
X12160062Y-11007984D01*
X12341015Y-11007984D02*
X12341015Y-10903222D01*
X12341015Y-10903222D02*
X12331491Y-10884174D01*
X12331491Y-10884174D02*
X12312443Y-10874650D01*
X12312443Y-10874650D02*
X12274348Y-10874650D01*
X12274348Y-10874650D02*
X12255301Y-10884174D01*
X12341015Y-10998460D02*
X12321967Y-11007984D01*
X12321967Y-11007984D02*
X12274348Y-11007984D01*
X12274348Y-11007984D02*
X12255301Y-10998460D01*
X12255301Y-10998460D02*
X12245777Y-10979412D01*
X12245777Y-10979412D02*
X12245777Y-10960365D01*
X12245777Y-10960365D02*
X12255301Y-10941317D01*
X12255301Y-10941317D02*
X12274348Y-10931793D01*
X12274348Y-10931793D02*
X12321967Y-10931793D01*
X12321967Y-10931793D02*
X12341015Y-10922270D01*
X12436253Y-10874650D02*
X12436253Y-11074650D01*
X12436253Y-10884174D02*
X12455301Y-10874650D01*
X12455301Y-10874650D02*
X12493396Y-10874650D01*
X12493396Y-10874650D02*
X12512443Y-10884174D01*
X12512443Y-10884174D02*
X12521967Y-10893698D01*
X12521967Y-10893698D02*
X12531491Y-10912746D01*
X12531491Y-10912746D02*
X12531491Y-10969889D01*
X12531491Y-10969889D02*
X12521967Y-10988936D01*
X12521967Y-10988936D02*
X12512443Y-10998460D01*
X12512443Y-10998460D02*
X12493396Y-11007984D01*
X12493396Y-11007984D02*
X12455301Y-11007984D01*
X12455301Y-11007984D02*
X12436253Y-10998460D01*
X12617205Y-10988936D02*
X12626729Y-10998460D01*
X12626729Y-10998460D02*
X12617205Y-11007984D01*
X12617205Y-11007984D02*
X12607682Y-10998460D01*
X12607682Y-10998460D02*
X12617205Y-10988936D01*
X12617205Y-10988936D02*
X12617205Y-11007984D01*
X12617205Y-10884174D02*
X12626729Y-10893698D01*
X12626729Y-10893698D02*
X12617205Y-10903222D01*
X12617205Y-10903222D02*
X12607682Y-10893698D01*
X12607682Y-10893698D02*
X12617205Y-10884174D01*
X12617205Y-10884174D02*
X12617205Y-10903222D01*
D12*
X10965000Y-11326500D02*
X10985000Y-11346500D01*
X10985000Y-11326500D02*
X10965000Y-11346500D01*
D11*
X11283872Y-11227984D02*
X11302920Y-11227984D01*
X11302920Y-11227984D02*
X11321967Y-11237508D01*
X11321967Y-11237508D02*
X11331491Y-11247031D01*
X11331491Y-11247031D02*
X11341015Y-11266079D01*
X11341015Y-11266079D02*
X11350539Y-11304174D01*
X11350539Y-11304174D02*
X11350539Y-11351793D01*
X11350539Y-11351793D02*
X11341015Y-11389888D01*
X11341015Y-11389888D02*
X11331491Y-11408936D01*
X11331491Y-11408936D02*
X11321967Y-11418460D01*
X11321967Y-11418460D02*
X11302920Y-11427984D01*
X11302920Y-11427984D02*
X11283872Y-11427984D01*
X11283872Y-11427984D02*
X11264824Y-11418460D01*
X11264824Y-11418460D02*
X11255301Y-11408936D01*
X11255301Y-11408936D02*
X11245777Y-11389888D01*
X11245777Y-11389888D02*
X11236253Y-11351793D01*
X11236253Y-11351793D02*
X11236253Y-11304174D01*
X11236253Y-11304174D02*
X11245777Y-11266079D01*
X11245777Y-11266079D02*
X11255301Y-11247031D01*
X11255301Y-11247031D02*
X11264824Y-11237508D01*
X11264824Y-11237508D02*
X11283872Y-11227984D01*
X11436253Y-11408936D02*
X11445777Y-11418460D01*
X11445777Y-11418460D02*
X11436253Y-11427984D01*
X11436253Y-11427984D02*
X11426729Y-11418460D01*
X11426729Y-11418460D02*
X11436253Y-11408936D01*
X11436253Y-11408936D02*
X11436253Y-11427984D01*
X11521967Y-11247031D02*
X11531491Y-11237508D01*
X11531491Y-11237508D02*
X11550539Y-11227984D01*
X11550539Y-11227984D02*
X11598158Y-11227984D01*
X11598158Y-11227984D02*
X11617205Y-11237508D01*
X11617205Y-11237508D02*
X11626729Y-11247031D01*
X11626729Y-11247031D02*
X11636253Y-11266079D01*
X11636253Y-11266079D02*
X11636253Y-11285127D01*
X11636253Y-11285127D02*
X11626729Y-11313698D01*
X11626729Y-11313698D02*
X11512443Y-11427984D01*
X11512443Y-11427984D02*
X11636253Y-11427984D01*
X11760062Y-11227984D02*
X11779110Y-11227984D01*
X11779110Y-11227984D02*
X11798158Y-11237508D01*
X11798158Y-11237508D02*
X11807682Y-11247031D01*
X11807682Y-11247031D02*
X11817205Y-11266079D01*
X11817205Y-11266079D02*
X11826729Y-11304174D01*
X11826729Y-11304174D02*
X11826729Y-11351793D01*
X11826729Y-11351793D02*
X11817205Y-11389888D01*
X11817205Y-11389888D02*
X11807682Y-11408936D01*
X11807682Y-11408936D02*
X11798158Y-11418460D01*
X11798158Y-11418460D02*
X11779110Y-11427984D01*
X11779110Y-11427984D02*
X11760062Y-11427984D01*
X11760062Y-11427984D02*
X11741015Y-11418460D01*
X11741015Y-11418460D02*
X11731491Y-11408936D01*
X11731491Y-11408936D02*
X11721967Y-11389888D01*
X11721967Y-11389888D02*
X11712443Y-11351793D01*
X11712443Y-11351793D02*
X11712443Y-11304174D01*
X11712443Y-11304174D02*
X11721967Y-11266079D01*
X11721967Y-11266079D02*
X11731491Y-11247031D01*
X11731491Y-11247031D02*
X11741015Y-11237508D01*
X11741015Y-11237508D02*
X11760062Y-11227984D01*
X11950539Y-11227984D02*
X11969586Y-11227984D01*
X11969586Y-11227984D02*
X11988634Y-11237508D01*
X11988634Y-11237508D02*
X11998158Y-11247031D01*
X11998158Y-11247031D02*
X12007682Y-11266079D01*
X12007682Y-11266079D02*
X12017205Y-11304174D01*
X12017205Y-11304174D02*
X12017205Y-11351793D01*
X12017205Y-11351793D02*
X12007682Y-11389888D01*
X12007682Y-11389888D02*
X11998158Y-11408936D01*
X11998158Y-11408936D02*
X11988634Y-11418460D01*
X11988634Y-11418460D02*
X11969586Y-11427984D01*
X11969586Y-11427984D02*
X11950539Y-11427984D01*
X11950539Y-11427984D02*
X11931491Y-11418460D01*
X11931491Y-11418460D02*
X11921967Y-11408936D01*
X11921967Y-11408936D02*
X11912443Y-11389888D01*
X11912443Y-11389888D02*
X11902920Y-11351793D01*
X11902920Y-11351793D02*
X11902920Y-11304174D01*
X11902920Y-11304174D02*
X11912443Y-11266079D01*
X11912443Y-11266079D02*
X11921967Y-11247031D01*
X11921967Y-11247031D02*
X11931491Y-11237508D01*
X11931491Y-11237508D02*
X11950539Y-11227984D01*
X12102920Y-11427984D02*
X12102920Y-11294650D01*
X12102920Y-11313698D02*
X12112443Y-11304174D01*
X12112443Y-11304174D02*
X12131491Y-11294650D01*
X12131491Y-11294650D02*
X12160063Y-11294650D01*
X12160063Y-11294650D02*
X12179110Y-11304174D01*
X12179110Y-11304174D02*
X12188634Y-11323222D01*
X12188634Y-11323222D02*
X12188634Y-11427984D01*
X12188634Y-11323222D02*
X12198158Y-11304174D01*
X12198158Y-11304174D02*
X12217205Y-11294650D01*
X12217205Y-11294650D02*
X12245777Y-11294650D01*
X12245777Y-11294650D02*
X12264824Y-11304174D01*
X12264824Y-11304174D02*
X12274348Y-11323222D01*
X12274348Y-11323222D02*
X12274348Y-11427984D01*
X12369586Y-11427984D02*
X12369586Y-11294650D01*
X12369586Y-11313698D02*
X12379110Y-11304174D01*
X12379110Y-11304174D02*
X12398158Y-11294650D01*
X12398158Y-11294650D02*
X12426729Y-11294650D01*
X12426729Y-11294650D02*
X12445777Y-11304174D01*
X12445777Y-11304174D02*
X12455301Y-11323222D01*
X12455301Y-11323222D02*
X12455301Y-11427984D01*
X12455301Y-11323222D02*
X12464824Y-11304174D01*
X12464824Y-11304174D02*
X12483872Y-11294650D01*
X12483872Y-11294650D02*
X12512443Y-11294650D01*
X12512443Y-11294650D02*
X12531491Y-11304174D01*
X12531491Y-11304174D02*
X12541015Y-11323222D01*
X12541015Y-11323222D02*
X12541015Y-11427984D01*
X12931491Y-11218460D02*
X12760063Y-11475603D01*
X13188634Y-11227984D02*
X13207682Y-11227984D01*
X13207682Y-11227984D02*
X13226729Y-11237508D01*
X13226729Y-11237508D02*
X13236253Y-11247031D01*
X13236253Y-11247031D02*
X13245777Y-11266079D01*
X13245777Y-11266079D02*
X13255301Y-11304174D01*
X13255301Y-11304174D02*
X13255301Y-11351793D01*
X13255301Y-11351793D02*
X13245777Y-11389888D01*
X13245777Y-11389888D02*
X13236253Y-11408936D01*
X13236253Y-11408936D02*
X13226729Y-11418460D01*
X13226729Y-11418460D02*
X13207682Y-11427984D01*
X13207682Y-11427984D02*
X13188634Y-11427984D01*
X13188634Y-11427984D02*
X13169586Y-11418460D01*
X13169586Y-11418460D02*
X13160063Y-11408936D01*
X13160063Y-11408936D02*
X13150539Y-11389888D01*
X13150539Y-11389888D02*
X13141015Y-11351793D01*
X13141015Y-11351793D02*
X13141015Y-11304174D01*
X13141015Y-11304174D02*
X13150539Y-11266079D01*
X13150539Y-11266079D02*
X13160063Y-11247031D01*
X13160063Y-11247031D02*
X13169586Y-11237508D01*
X13169586Y-11237508D02*
X13188634Y-11227984D01*
X13341015Y-11408936D02*
X13350539Y-11418460D01*
X13350539Y-11418460D02*
X13341015Y-11427984D01*
X13341015Y-11427984D02*
X13331491Y-11418460D01*
X13331491Y-11418460D02*
X13341015Y-11408936D01*
X13341015Y-11408936D02*
X13341015Y-11427984D01*
X13474348Y-11227984D02*
X13493396Y-11227984D01*
X13493396Y-11227984D02*
X13512444Y-11237508D01*
X13512444Y-11237508D02*
X13521967Y-11247031D01*
X13521967Y-11247031D02*
X13531491Y-11266079D01*
X13531491Y-11266079D02*
X13541015Y-11304174D01*
X13541015Y-11304174D02*
X13541015Y-11351793D01*
X13541015Y-11351793D02*
X13531491Y-11389888D01*
X13531491Y-11389888D02*
X13521967Y-11408936D01*
X13521967Y-11408936D02*
X13512444Y-11418460D01*
X13512444Y-11418460D02*
X13493396Y-11427984D01*
X13493396Y-11427984D02*
X13474348Y-11427984D01*
X13474348Y-11427984D02*
X13455301Y-11418460D01*
X13455301Y-11418460D02*
X13445777Y-11408936D01*
X13445777Y-11408936D02*
X13436253Y-11389888D01*
X13436253Y-11389888D02*
X13426729Y-11351793D01*
X13426729Y-11351793D02*
X13426729Y-11304174D01*
X13426729Y-11304174D02*
X13436253Y-11266079D01*
X13436253Y-11266079D02*
X13445777Y-11247031D01*
X13445777Y-11247031D02*
X13455301Y-11237508D01*
X13455301Y-11237508D02*
X13474348Y-11227984D01*
X13664825Y-11227984D02*
X13683872Y-11227984D01*
X13683872Y-11227984D02*
X13702920Y-11237508D01*
X13702920Y-11237508D02*
X13712444Y-11247031D01*
X13712444Y-11247031D02*
X13721967Y-11266079D01*
X13721967Y-11266079D02*
X13731491Y-11304174D01*
X13731491Y-11304174D02*
X13731491Y-11351793D01*
X13731491Y-11351793D02*
X13721967Y-11389888D01*
X13721967Y-11389888D02*
X13712444Y-11408936D01*
X13712444Y-11408936D02*
X13702920Y-11418460D01*
X13702920Y-11418460D02*
X13683872Y-11427984D01*
X13683872Y-11427984D02*
X13664825Y-11427984D01*
X13664825Y-11427984D02*
X13645777Y-11418460D01*
X13645777Y-11418460D02*
X13636253Y-11408936D01*
X13636253Y-11408936D02*
X13626729Y-11389888D01*
X13626729Y-11389888D02*
X13617206Y-11351793D01*
X13617206Y-11351793D02*
X13617206Y-11304174D01*
X13617206Y-11304174D02*
X13626729Y-11266079D01*
X13626729Y-11266079D02*
X13636253Y-11247031D01*
X13636253Y-11247031D02*
X13645777Y-11237508D01*
X13645777Y-11237508D02*
X13664825Y-11227984D01*
X13798158Y-11227984D02*
X13931491Y-11227984D01*
X13931491Y-11227984D02*
X13845777Y-11427984D01*
X14017206Y-11427984D02*
X14055301Y-11427984D01*
X14055301Y-11427984D02*
X14074348Y-11418460D01*
X14074348Y-11418460D02*
X14083872Y-11408936D01*
X14083872Y-11408936D02*
X14102920Y-11380365D01*
X14102920Y-11380365D02*
X14112444Y-11342269D01*
X14112444Y-11342269D02*
X14112444Y-11266079D01*
X14112444Y-11266079D02*
X14102920Y-11247031D01*
X14102920Y-11247031D02*
X14093396Y-11237508D01*
X14093396Y-11237508D02*
X14074348Y-11227984D01*
X14074348Y-11227984D02*
X14036253Y-11227984D01*
X14036253Y-11227984D02*
X14017206Y-11237508D01*
X14017206Y-11237508D02*
X14007682Y-11247031D01*
X14007682Y-11247031D02*
X13998158Y-11266079D01*
X13998158Y-11266079D02*
X13998158Y-11313698D01*
X13998158Y-11313698D02*
X14007682Y-11332746D01*
X14007682Y-11332746D02*
X14017206Y-11342269D01*
X14017206Y-11342269D02*
X14036253Y-11351793D01*
X14036253Y-11351793D02*
X14074348Y-11351793D01*
X14074348Y-11351793D02*
X14093396Y-11342269D01*
X14093396Y-11342269D02*
X14102920Y-11332746D01*
X14102920Y-11332746D02*
X14112444Y-11313698D01*
X14188634Y-11227984D02*
X14188634Y-11266079D01*
X14264825Y-11227984D02*
X14264825Y-11266079D01*
X14560063Y-11504174D02*
X14550539Y-11494650D01*
X14550539Y-11494650D02*
X14531491Y-11466079D01*
X14531491Y-11466079D02*
X14521968Y-11447031D01*
X14521968Y-11447031D02*
X14512444Y-11418460D01*
X14512444Y-11418460D02*
X14502920Y-11370841D01*
X14502920Y-11370841D02*
X14502920Y-11332746D01*
X14502920Y-11332746D02*
X14512444Y-11285127D01*
X14512444Y-11285127D02*
X14521968Y-11256555D01*
X14521968Y-11256555D02*
X14531491Y-11237508D01*
X14531491Y-11237508D02*
X14550539Y-11208936D01*
X14550539Y-11208936D02*
X14560063Y-11199412D01*
X14626729Y-11247031D02*
X14636253Y-11237508D01*
X14636253Y-11237508D02*
X14655301Y-11227984D01*
X14655301Y-11227984D02*
X14702920Y-11227984D01*
X14702920Y-11227984D02*
X14721968Y-11237508D01*
X14721968Y-11237508D02*
X14731491Y-11247031D01*
X14731491Y-11247031D02*
X14741015Y-11266079D01*
X14741015Y-11266079D02*
X14741015Y-11285127D01*
X14741015Y-11285127D02*
X14731491Y-11313698D01*
X14731491Y-11313698D02*
X14617206Y-11427984D01*
X14617206Y-11427984D02*
X14741015Y-11427984D01*
X14912444Y-11294650D02*
X14912444Y-11427984D01*
X14864825Y-11218460D02*
X14817206Y-11361317D01*
X14817206Y-11361317D02*
X14941015Y-11361317D01*
X15169587Y-11427984D02*
X15169587Y-11227984D01*
X15255301Y-11427984D02*
X15255301Y-11323222D01*
X15255301Y-11323222D02*
X15245777Y-11304174D01*
X15245777Y-11304174D02*
X15226730Y-11294650D01*
X15226730Y-11294650D02*
X15198158Y-11294650D01*
X15198158Y-11294650D02*
X15179110Y-11304174D01*
X15179110Y-11304174D02*
X15169587Y-11313698D01*
X15379110Y-11427984D02*
X15360063Y-11418460D01*
X15360063Y-11418460D02*
X15350539Y-11408936D01*
X15350539Y-11408936D02*
X15341015Y-11389888D01*
X15341015Y-11389888D02*
X15341015Y-11332746D01*
X15341015Y-11332746D02*
X15350539Y-11313698D01*
X15350539Y-11313698D02*
X15360063Y-11304174D01*
X15360063Y-11304174D02*
X15379110Y-11294650D01*
X15379110Y-11294650D02*
X15407682Y-11294650D01*
X15407682Y-11294650D02*
X15426730Y-11304174D01*
X15426730Y-11304174D02*
X15436253Y-11313698D01*
X15436253Y-11313698D02*
X15445777Y-11332746D01*
X15445777Y-11332746D02*
X15445777Y-11389888D01*
X15445777Y-11389888D02*
X15436253Y-11408936D01*
X15436253Y-11408936D02*
X15426730Y-11418460D01*
X15426730Y-11418460D02*
X15407682Y-11427984D01*
X15407682Y-11427984D02*
X15379110Y-11427984D01*
X15560063Y-11427984D02*
X15541015Y-11418460D01*
X15541015Y-11418460D02*
X15531491Y-11399412D01*
X15531491Y-11399412D02*
X15531491Y-11227984D01*
X15712444Y-11418460D02*
X15693396Y-11427984D01*
X15693396Y-11427984D02*
X15655301Y-11427984D01*
X15655301Y-11427984D02*
X15636253Y-11418460D01*
X15636253Y-11418460D02*
X15626730Y-11399412D01*
X15626730Y-11399412D02*
X15626730Y-11323222D01*
X15626730Y-11323222D02*
X15636253Y-11304174D01*
X15636253Y-11304174D02*
X15655301Y-11294650D01*
X15655301Y-11294650D02*
X15693396Y-11294650D01*
X15693396Y-11294650D02*
X15712444Y-11304174D01*
X15712444Y-11304174D02*
X15721968Y-11323222D01*
X15721968Y-11323222D02*
X15721968Y-11342269D01*
X15721968Y-11342269D02*
X15626730Y-11361317D01*
X15798158Y-11418460D02*
X15817206Y-11427984D01*
X15817206Y-11427984D02*
X15855301Y-11427984D01*
X15855301Y-11427984D02*
X15874349Y-11418460D01*
X15874349Y-11418460D02*
X15883872Y-11399412D01*
X15883872Y-11399412D02*
X15883872Y-11389888D01*
X15883872Y-11389888D02*
X15874349Y-11370841D01*
X15874349Y-11370841D02*
X15855301Y-11361317D01*
X15855301Y-11361317D02*
X15826730Y-11361317D01*
X15826730Y-11361317D02*
X15807682Y-11351793D01*
X15807682Y-11351793D02*
X15798158Y-11332746D01*
X15798158Y-11332746D02*
X15798158Y-11323222D01*
X15798158Y-11323222D02*
X15807682Y-11304174D01*
X15807682Y-11304174D02*
X15826730Y-11294650D01*
X15826730Y-11294650D02*
X15855301Y-11294650D01*
X15855301Y-11294650D02*
X15874349Y-11304174D01*
X15950539Y-11504174D02*
X15960063Y-11494650D01*
X15960063Y-11494650D02*
X15979111Y-11466079D01*
X15979111Y-11466079D02*
X15988634Y-11447031D01*
X15988634Y-11447031D02*
X15998158Y-11418460D01*
X15998158Y-11418460D02*
X16007682Y-11370841D01*
X16007682Y-11370841D02*
X16007682Y-11332746D01*
X16007682Y-11332746D02*
X15998158Y-11285127D01*
X15998158Y-11285127D02*
X15988634Y-11256555D01*
X15988634Y-11256555D02*
X15979111Y-11237508D01*
X15979111Y-11237508D02*
X15960063Y-11208936D01*
X15960063Y-11208936D02*
X15950539Y-11199412D01*
D12*
X10985000Y-11600500D02*
G75*
G03*
X10985000Y-11600500I-10000J0D01*
G01*
D11*
X11283872Y-11491984D02*
X11302920Y-11491984D01*
X11302920Y-11491984D02*
X11321967Y-11501508D01*
X11321967Y-11501508D02*
X11331491Y-11511031D01*
X11331491Y-11511031D02*
X11341015Y-11530079D01*
X11341015Y-11530079D02*
X11350539Y-11568174D01*
X11350539Y-11568174D02*
X11350539Y-11615793D01*
X11350539Y-11615793D02*
X11341015Y-11653888D01*
X11341015Y-11653888D02*
X11331491Y-11672936D01*
X11331491Y-11672936D02*
X11321967Y-11682460D01*
X11321967Y-11682460D02*
X11302920Y-11691984D01*
X11302920Y-11691984D02*
X11283872Y-11691984D01*
X11283872Y-11691984D02*
X11264824Y-11682460D01*
X11264824Y-11682460D02*
X11255301Y-11672936D01*
X11255301Y-11672936D02*
X11245777Y-11653888D01*
X11245777Y-11653888D02*
X11236253Y-11615793D01*
X11236253Y-11615793D02*
X11236253Y-11568174D01*
X11236253Y-11568174D02*
X11245777Y-11530079D01*
X11245777Y-11530079D02*
X11255301Y-11511031D01*
X11255301Y-11511031D02*
X11264824Y-11501508D01*
X11264824Y-11501508D02*
X11283872Y-11491984D01*
X11436253Y-11672936D02*
X11445777Y-11682460D01*
X11445777Y-11682460D02*
X11436253Y-11691984D01*
X11436253Y-11691984D02*
X11426729Y-11682460D01*
X11426729Y-11682460D02*
X11436253Y-11672936D01*
X11436253Y-11672936D02*
X11436253Y-11691984D01*
X11521967Y-11511031D02*
X11531491Y-11501508D01*
X11531491Y-11501508D02*
X11550539Y-11491984D01*
X11550539Y-11491984D02*
X11598158Y-11491984D01*
X11598158Y-11491984D02*
X11617205Y-11501508D01*
X11617205Y-11501508D02*
X11626729Y-11511031D01*
X11626729Y-11511031D02*
X11636253Y-11530079D01*
X11636253Y-11530079D02*
X11636253Y-11549127D01*
X11636253Y-11549127D02*
X11626729Y-11577698D01*
X11626729Y-11577698D02*
X11512443Y-11691984D01*
X11512443Y-11691984D02*
X11636253Y-11691984D01*
X11760062Y-11491984D02*
X11779110Y-11491984D01*
X11779110Y-11491984D02*
X11798158Y-11501508D01*
X11798158Y-11501508D02*
X11807682Y-11511031D01*
X11807682Y-11511031D02*
X11817205Y-11530079D01*
X11817205Y-11530079D02*
X11826729Y-11568174D01*
X11826729Y-11568174D02*
X11826729Y-11615793D01*
X11826729Y-11615793D02*
X11817205Y-11653888D01*
X11817205Y-11653888D02*
X11807682Y-11672936D01*
X11807682Y-11672936D02*
X11798158Y-11682460D01*
X11798158Y-11682460D02*
X11779110Y-11691984D01*
X11779110Y-11691984D02*
X11760062Y-11691984D01*
X11760062Y-11691984D02*
X11741015Y-11682460D01*
X11741015Y-11682460D02*
X11731491Y-11672936D01*
X11731491Y-11672936D02*
X11721967Y-11653888D01*
X11721967Y-11653888D02*
X11712443Y-11615793D01*
X11712443Y-11615793D02*
X11712443Y-11568174D01*
X11712443Y-11568174D02*
X11721967Y-11530079D01*
X11721967Y-11530079D02*
X11731491Y-11511031D01*
X11731491Y-11511031D02*
X11741015Y-11501508D01*
X11741015Y-11501508D02*
X11760062Y-11491984D01*
X11950539Y-11491984D02*
X11969586Y-11491984D01*
X11969586Y-11491984D02*
X11988634Y-11501508D01*
X11988634Y-11501508D02*
X11998158Y-11511031D01*
X11998158Y-11511031D02*
X12007682Y-11530079D01*
X12007682Y-11530079D02*
X12017205Y-11568174D01*
X12017205Y-11568174D02*
X12017205Y-11615793D01*
X12017205Y-11615793D02*
X12007682Y-11653888D01*
X12007682Y-11653888D02*
X11998158Y-11672936D01*
X11998158Y-11672936D02*
X11988634Y-11682460D01*
X11988634Y-11682460D02*
X11969586Y-11691984D01*
X11969586Y-11691984D02*
X11950539Y-11691984D01*
X11950539Y-11691984D02*
X11931491Y-11682460D01*
X11931491Y-11682460D02*
X11921967Y-11672936D01*
X11921967Y-11672936D02*
X11912443Y-11653888D01*
X11912443Y-11653888D02*
X11902920Y-11615793D01*
X11902920Y-11615793D02*
X11902920Y-11568174D01*
X11902920Y-11568174D02*
X11912443Y-11530079D01*
X11912443Y-11530079D02*
X11921967Y-11511031D01*
X11921967Y-11511031D02*
X11931491Y-11501508D01*
X11931491Y-11501508D02*
X11950539Y-11491984D01*
X12102920Y-11691984D02*
X12102920Y-11558650D01*
X12102920Y-11577698D02*
X12112443Y-11568174D01*
X12112443Y-11568174D02*
X12131491Y-11558650D01*
X12131491Y-11558650D02*
X12160063Y-11558650D01*
X12160063Y-11558650D02*
X12179110Y-11568174D01*
X12179110Y-11568174D02*
X12188634Y-11587222D01*
X12188634Y-11587222D02*
X12188634Y-11691984D01*
X12188634Y-11587222D02*
X12198158Y-11568174D01*
X12198158Y-11568174D02*
X12217205Y-11558650D01*
X12217205Y-11558650D02*
X12245777Y-11558650D01*
X12245777Y-11558650D02*
X12264824Y-11568174D01*
X12264824Y-11568174D02*
X12274348Y-11587222D01*
X12274348Y-11587222D02*
X12274348Y-11691984D01*
X12369586Y-11691984D02*
X12369586Y-11558650D01*
X12369586Y-11577698D02*
X12379110Y-11568174D01*
X12379110Y-11568174D02*
X12398158Y-11558650D01*
X12398158Y-11558650D02*
X12426729Y-11558650D01*
X12426729Y-11558650D02*
X12445777Y-11568174D01*
X12445777Y-11568174D02*
X12455301Y-11587222D01*
X12455301Y-11587222D02*
X12455301Y-11691984D01*
X12455301Y-11587222D02*
X12464824Y-11568174D01*
X12464824Y-11568174D02*
X12483872Y-11558650D01*
X12483872Y-11558650D02*
X12512443Y-11558650D01*
X12512443Y-11558650D02*
X12531491Y-11568174D01*
X12531491Y-11568174D02*
X12541015Y-11587222D01*
X12541015Y-11587222D02*
X12541015Y-11691984D01*
X12931491Y-11482460D02*
X12760063Y-11739603D01*
X13188634Y-11491984D02*
X13207682Y-11491984D01*
X13207682Y-11491984D02*
X13226729Y-11501508D01*
X13226729Y-11501508D02*
X13236253Y-11511031D01*
X13236253Y-11511031D02*
X13245777Y-11530079D01*
X13245777Y-11530079D02*
X13255301Y-11568174D01*
X13255301Y-11568174D02*
X13255301Y-11615793D01*
X13255301Y-11615793D02*
X13245777Y-11653888D01*
X13245777Y-11653888D02*
X13236253Y-11672936D01*
X13236253Y-11672936D02*
X13226729Y-11682460D01*
X13226729Y-11682460D02*
X13207682Y-11691984D01*
X13207682Y-11691984D02*
X13188634Y-11691984D01*
X13188634Y-11691984D02*
X13169586Y-11682460D01*
X13169586Y-11682460D02*
X13160063Y-11672936D01*
X13160063Y-11672936D02*
X13150539Y-11653888D01*
X13150539Y-11653888D02*
X13141015Y-11615793D01*
X13141015Y-11615793D02*
X13141015Y-11568174D01*
X13141015Y-11568174D02*
X13150539Y-11530079D01*
X13150539Y-11530079D02*
X13160063Y-11511031D01*
X13160063Y-11511031D02*
X13169586Y-11501508D01*
X13169586Y-11501508D02*
X13188634Y-11491984D01*
X13341015Y-11672936D02*
X13350539Y-11682460D01*
X13350539Y-11682460D02*
X13341015Y-11691984D01*
X13341015Y-11691984D02*
X13331491Y-11682460D01*
X13331491Y-11682460D02*
X13341015Y-11672936D01*
X13341015Y-11672936D02*
X13341015Y-11691984D01*
X13474348Y-11491984D02*
X13493396Y-11491984D01*
X13493396Y-11491984D02*
X13512444Y-11501508D01*
X13512444Y-11501508D02*
X13521967Y-11511031D01*
X13521967Y-11511031D02*
X13531491Y-11530079D01*
X13531491Y-11530079D02*
X13541015Y-11568174D01*
X13541015Y-11568174D02*
X13541015Y-11615793D01*
X13541015Y-11615793D02*
X13531491Y-11653888D01*
X13531491Y-11653888D02*
X13521967Y-11672936D01*
X13521967Y-11672936D02*
X13512444Y-11682460D01*
X13512444Y-11682460D02*
X13493396Y-11691984D01*
X13493396Y-11691984D02*
X13474348Y-11691984D01*
X13474348Y-11691984D02*
X13455301Y-11682460D01*
X13455301Y-11682460D02*
X13445777Y-11672936D01*
X13445777Y-11672936D02*
X13436253Y-11653888D01*
X13436253Y-11653888D02*
X13426729Y-11615793D01*
X13426729Y-11615793D02*
X13426729Y-11568174D01*
X13426729Y-11568174D02*
X13436253Y-11530079D01*
X13436253Y-11530079D02*
X13445777Y-11511031D01*
X13445777Y-11511031D02*
X13455301Y-11501508D01*
X13455301Y-11501508D02*
X13474348Y-11491984D01*
X13664825Y-11491984D02*
X13683872Y-11491984D01*
X13683872Y-11491984D02*
X13702920Y-11501508D01*
X13702920Y-11501508D02*
X13712444Y-11511031D01*
X13712444Y-11511031D02*
X13721967Y-11530079D01*
X13721967Y-11530079D02*
X13731491Y-11568174D01*
X13731491Y-11568174D02*
X13731491Y-11615793D01*
X13731491Y-11615793D02*
X13721967Y-11653888D01*
X13721967Y-11653888D02*
X13712444Y-11672936D01*
X13712444Y-11672936D02*
X13702920Y-11682460D01*
X13702920Y-11682460D02*
X13683872Y-11691984D01*
X13683872Y-11691984D02*
X13664825Y-11691984D01*
X13664825Y-11691984D02*
X13645777Y-11682460D01*
X13645777Y-11682460D02*
X13636253Y-11672936D01*
X13636253Y-11672936D02*
X13626729Y-11653888D01*
X13626729Y-11653888D02*
X13617206Y-11615793D01*
X13617206Y-11615793D02*
X13617206Y-11568174D01*
X13617206Y-11568174D02*
X13626729Y-11530079D01*
X13626729Y-11530079D02*
X13636253Y-11511031D01*
X13636253Y-11511031D02*
X13645777Y-11501508D01*
X13645777Y-11501508D02*
X13664825Y-11491984D01*
X13798158Y-11491984D02*
X13931491Y-11491984D01*
X13931491Y-11491984D02*
X13845777Y-11691984D01*
X14017206Y-11691984D02*
X14055301Y-11691984D01*
X14055301Y-11691984D02*
X14074348Y-11682460D01*
X14074348Y-11682460D02*
X14083872Y-11672936D01*
X14083872Y-11672936D02*
X14102920Y-11644365D01*
X14102920Y-11644365D02*
X14112444Y-11606269D01*
X14112444Y-11606269D02*
X14112444Y-11530079D01*
X14112444Y-11530079D02*
X14102920Y-11511031D01*
X14102920Y-11511031D02*
X14093396Y-11501508D01*
X14093396Y-11501508D02*
X14074348Y-11491984D01*
X14074348Y-11491984D02*
X14036253Y-11491984D01*
X14036253Y-11491984D02*
X14017206Y-11501508D01*
X14017206Y-11501508D02*
X14007682Y-11511031D01*
X14007682Y-11511031D02*
X13998158Y-11530079D01*
X13998158Y-11530079D02*
X13998158Y-11577698D01*
X13998158Y-11577698D02*
X14007682Y-11596746D01*
X14007682Y-11596746D02*
X14017206Y-11606269D01*
X14017206Y-11606269D02*
X14036253Y-11615793D01*
X14036253Y-11615793D02*
X14074348Y-11615793D01*
X14074348Y-11615793D02*
X14093396Y-11606269D01*
X14093396Y-11606269D02*
X14102920Y-11596746D01*
X14102920Y-11596746D02*
X14112444Y-11577698D01*
X14188634Y-11491984D02*
X14188634Y-11530079D01*
X14264825Y-11491984D02*
X14264825Y-11530079D01*
X14560063Y-11768174D02*
X14550539Y-11758650D01*
X14550539Y-11758650D02*
X14531491Y-11730079D01*
X14531491Y-11730079D02*
X14521968Y-11711031D01*
X14521968Y-11711031D02*
X14512444Y-11682460D01*
X14512444Y-11682460D02*
X14502920Y-11634841D01*
X14502920Y-11634841D02*
X14502920Y-11596746D01*
X14502920Y-11596746D02*
X14512444Y-11549127D01*
X14512444Y-11549127D02*
X14521968Y-11520555D01*
X14521968Y-11520555D02*
X14531491Y-11501508D01*
X14531491Y-11501508D02*
X14550539Y-11472936D01*
X14550539Y-11472936D02*
X14560063Y-11463412D01*
X14741015Y-11691984D02*
X14626729Y-11691984D01*
X14683872Y-11691984D02*
X14683872Y-11491984D01*
X14683872Y-11491984D02*
X14664825Y-11520555D01*
X14664825Y-11520555D02*
X14645777Y-11539603D01*
X14645777Y-11539603D02*
X14626729Y-11549127D01*
X14817206Y-11511031D02*
X14826729Y-11501508D01*
X14826729Y-11501508D02*
X14845777Y-11491984D01*
X14845777Y-11491984D02*
X14893396Y-11491984D01*
X14893396Y-11491984D02*
X14912444Y-11501508D01*
X14912444Y-11501508D02*
X14921968Y-11511031D01*
X14921968Y-11511031D02*
X14931491Y-11530079D01*
X14931491Y-11530079D02*
X14931491Y-11549127D01*
X14931491Y-11549127D02*
X14921968Y-11577698D01*
X14921968Y-11577698D02*
X14807682Y-11691984D01*
X14807682Y-11691984D02*
X14931491Y-11691984D01*
X15169587Y-11691984D02*
X15169587Y-11491984D01*
X15255301Y-11691984D02*
X15255301Y-11587222D01*
X15255301Y-11587222D02*
X15245777Y-11568174D01*
X15245777Y-11568174D02*
X15226730Y-11558650D01*
X15226730Y-11558650D02*
X15198158Y-11558650D01*
X15198158Y-11558650D02*
X15179110Y-11568174D01*
X15179110Y-11568174D02*
X15169587Y-11577698D01*
X15379110Y-11691984D02*
X15360063Y-11682460D01*
X15360063Y-11682460D02*
X15350539Y-11672936D01*
X15350539Y-11672936D02*
X15341015Y-11653888D01*
X15341015Y-11653888D02*
X15341015Y-11596746D01*
X15341015Y-11596746D02*
X15350539Y-11577698D01*
X15350539Y-11577698D02*
X15360063Y-11568174D01*
X15360063Y-11568174D02*
X15379110Y-11558650D01*
X15379110Y-11558650D02*
X15407682Y-11558650D01*
X15407682Y-11558650D02*
X15426730Y-11568174D01*
X15426730Y-11568174D02*
X15436253Y-11577698D01*
X15436253Y-11577698D02*
X15445777Y-11596746D01*
X15445777Y-11596746D02*
X15445777Y-11653888D01*
X15445777Y-11653888D02*
X15436253Y-11672936D01*
X15436253Y-11672936D02*
X15426730Y-11682460D01*
X15426730Y-11682460D02*
X15407682Y-11691984D01*
X15407682Y-11691984D02*
X15379110Y-11691984D01*
X15560063Y-11691984D02*
X15541015Y-11682460D01*
X15541015Y-11682460D02*
X15531491Y-11663412D01*
X15531491Y-11663412D02*
X15531491Y-11491984D01*
X15712444Y-11682460D02*
X15693396Y-11691984D01*
X15693396Y-11691984D02*
X15655301Y-11691984D01*
X15655301Y-11691984D02*
X15636253Y-11682460D01*
X15636253Y-11682460D02*
X15626730Y-11663412D01*
X15626730Y-11663412D02*
X15626730Y-11587222D01*
X15626730Y-11587222D02*
X15636253Y-11568174D01*
X15636253Y-11568174D02*
X15655301Y-11558650D01*
X15655301Y-11558650D02*
X15693396Y-11558650D01*
X15693396Y-11558650D02*
X15712444Y-11568174D01*
X15712444Y-11568174D02*
X15721968Y-11587222D01*
X15721968Y-11587222D02*
X15721968Y-11606269D01*
X15721968Y-11606269D02*
X15626730Y-11625317D01*
X15798158Y-11682460D02*
X15817206Y-11691984D01*
X15817206Y-11691984D02*
X15855301Y-11691984D01*
X15855301Y-11691984D02*
X15874349Y-11682460D01*
X15874349Y-11682460D02*
X15883872Y-11663412D01*
X15883872Y-11663412D02*
X15883872Y-11653888D01*
X15883872Y-11653888D02*
X15874349Y-11634841D01*
X15874349Y-11634841D02*
X15855301Y-11625317D01*
X15855301Y-11625317D02*
X15826730Y-11625317D01*
X15826730Y-11625317D02*
X15807682Y-11615793D01*
X15807682Y-11615793D02*
X15798158Y-11596746D01*
X15798158Y-11596746D02*
X15798158Y-11587222D01*
X15798158Y-11587222D02*
X15807682Y-11568174D01*
X15807682Y-11568174D02*
X15826730Y-11558650D01*
X15826730Y-11558650D02*
X15855301Y-11558650D01*
X15855301Y-11558650D02*
X15874349Y-11568174D01*
X15950539Y-11768174D02*
X15960063Y-11758650D01*
X15960063Y-11758650D02*
X15979111Y-11730079D01*
X15979111Y-11730079D02*
X15988634Y-11711031D01*
X15988634Y-11711031D02*
X15998158Y-11682460D01*
X15998158Y-11682460D02*
X16007682Y-11634841D01*
X16007682Y-11634841D02*
X16007682Y-11596746D01*
X16007682Y-11596746D02*
X15998158Y-11549127D01*
X15998158Y-11549127D02*
X15988634Y-11520555D01*
X15988634Y-11520555D02*
X15979111Y-11501508D01*
X15979111Y-11501508D02*
X15960063Y-11472936D01*
X15960063Y-11472936D02*
X15950539Y-11463412D01*
D13*
X10965000Y-11844500D02*
X10965000Y-11884500D01*
X10945000Y-11864500D02*
X10985000Y-11864500D01*
D11*
X11283872Y-11755984D02*
X11302920Y-11755984D01*
X11302920Y-11755984D02*
X11321967Y-11765508D01*
X11321967Y-11765508D02*
X11331491Y-11775031D01*
X11331491Y-11775031D02*
X11341015Y-11794079D01*
X11341015Y-11794079D02*
X11350539Y-11832174D01*
X11350539Y-11832174D02*
X11350539Y-11879793D01*
X11350539Y-11879793D02*
X11341015Y-11917888D01*
X11341015Y-11917888D02*
X11331491Y-11936936D01*
X11331491Y-11936936D02*
X11321967Y-11946460D01*
X11321967Y-11946460D02*
X11302920Y-11955984D01*
X11302920Y-11955984D02*
X11283872Y-11955984D01*
X11283872Y-11955984D02*
X11264824Y-11946460D01*
X11264824Y-11946460D02*
X11255301Y-11936936D01*
X11255301Y-11936936D02*
X11245777Y-11917888D01*
X11245777Y-11917888D02*
X11236253Y-11879793D01*
X11236253Y-11879793D02*
X11236253Y-11832174D01*
X11236253Y-11832174D02*
X11245777Y-11794079D01*
X11245777Y-11794079D02*
X11255301Y-11775031D01*
X11255301Y-11775031D02*
X11264824Y-11765508D01*
X11264824Y-11765508D02*
X11283872Y-11755984D01*
X11436253Y-11936936D02*
X11445777Y-11946460D01*
X11445777Y-11946460D02*
X11436253Y-11955984D01*
X11436253Y-11955984D02*
X11426729Y-11946460D01*
X11426729Y-11946460D02*
X11436253Y-11936936D01*
X11436253Y-11936936D02*
X11436253Y-11955984D01*
X11617205Y-11822650D02*
X11617205Y-11955984D01*
X11569586Y-11746460D02*
X11521967Y-11889317D01*
X11521967Y-11889317D02*
X11645777Y-11889317D01*
X11760062Y-11755984D02*
X11779110Y-11755984D01*
X11779110Y-11755984D02*
X11798158Y-11765508D01*
X11798158Y-11765508D02*
X11807682Y-11775031D01*
X11807682Y-11775031D02*
X11817205Y-11794079D01*
X11817205Y-11794079D02*
X11826729Y-11832174D01*
X11826729Y-11832174D02*
X11826729Y-11879793D01*
X11826729Y-11879793D02*
X11817205Y-11917888D01*
X11817205Y-11917888D02*
X11807682Y-11936936D01*
X11807682Y-11936936D02*
X11798158Y-11946460D01*
X11798158Y-11946460D02*
X11779110Y-11955984D01*
X11779110Y-11955984D02*
X11760062Y-11955984D01*
X11760062Y-11955984D02*
X11741015Y-11946460D01*
X11741015Y-11946460D02*
X11731491Y-11936936D01*
X11731491Y-11936936D02*
X11721967Y-11917888D01*
X11721967Y-11917888D02*
X11712443Y-11879793D01*
X11712443Y-11879793D02*
X11712443Y-11832174D01*
X11712443Y-11832174D02*
X11721967Y-11794079D01*
X11721967Y-11794079D02*
X11731491Y-11775031D01*
X11731491Y-11775031D02*
X11741015Y-11765508D01*
X11741015Y-11765508D02*
X11760062Y-11755984D01*
X11950539Y-11755984D02*
X11969586Y-11755984D01*
X11969586Y-11755984D02*
X11988634Y-11765508D01*
X11988634Y-11765508D02*
X11998158Y-11775031D01*
X11998158Y-11775031D02*
X12007682Y-11794079D01*
X12007682Y-11794079D02*
X12017205Y-11832174D01*
X12017205Y-11832174D02*
X12017205Y-11879793D01*
X12017205Y-11879793D02*
X12007682Y-11917888D01*
X12007682Y-11917888D02*
X11998158Y-11936936D01*
X11998158Y-11936936D02*
X11988634Y-11946460D01*
X11988634Y-11946460D02*
X11969586Y-11955984D01*
X11969586Y-11955984D02*
X11950539Y-11955984D01*
X11950539Y-11955984D02*
X11931491Y-11946460D01*
X11931491Y-11946460D02*
X11921967Y-11936936D01*
X11921967Y-11936936D02*
X11912443Y-11917888D01*
X11912443Y-11917888D02*
X11902920Y-11879793D01*
X11902920Y-11879793D02*
X11902920Y-11832174D01*
X11902920Y-11832174D02*
X11912443Y-11794079D01*
X11912443Y-11794079D02*
X11921967Y-11775031D01*
X11921967Y-11775031D02*
X11931491Y-11765508D01*
X11931491Y-11765508D02*
X11950539Y-11755984D01*
X12102920Y-11955984D02*
X12102920Y-11822650D01*
X12102920Y-11841698D02*
X12112443Y-11832174D01*
X12112443Y-11832174D02*
X12131491Y-11822650D01*
X12131491Y-11822650D02*
X12160063Y-11822650D01*
X12160063Y-11822650D02*
X12179110Y-11832174D01*
X12179110Y-11832174D02*
X12188634Y-11851222D01*
X12188634Y-11851222D02*
X12188634Y-11955984D01*
X12188634Y-11851222D02*
X12198158Y-11832174D01*
X12198158Y-11832174D02*
X12217205Y-11822650D01*
X12217205Y-11822650D02*
X12245777Y-11822650D01*
X12245777Y-11822650D02*
X12264824Y-11832174D01*
X12264824Y-11832174D02*
X12274348Y-11851222D01*
X12274348Y-11851222D02*
X12274348Y-11955984D01*
X12369586Y-11955984D02*
X12369586Y-11822650D01*
X12369586Y-11841698D02*
X12379110Y-11832174D01*
X12379110Y-11832174D02*
X12398158Y-11822650D01*
X12398158Y-11822650D02*
X12426729Y-11822650D01*
X12426729Y-11822650D02*
X12445777Y-11832174D01*
X12445777Y-11832174D02*
X12455301Y-11851222D01*
X12455301Y-11851222D02*
X12455301Y-11955984D01*
X12455301Y-11851222D02*
X12464824Y-11832174D01*
X12464824Y-11832174D02*
X12483872Y-11822650D01*
X12483872Y-11822650D02*
X12512443Y-11822650D01*
X12512443Y-11822650D02*
X12531491Y-11832174D01*
X12531491Y-11832174D02*
X12541015Y-11851222D01*
X12541015Y-11851222D02*
X12541015Y-11955984D01*
X12931491Y-11746460D02*
X12760063Y-12003603D01*
X13188634Y-11755984D02*
X13207682Y-11755984D01*
X13207682Y-11755984D02*
X13226729Y-11765508D01*
X13226729Y-11765508D02*
X13236253Y-11775031D01*
X13236253Y-11775031D02*
X13245777Y-11794079D01*
X13245777Y-11794079D02*
X13255301Y-11832174D01*
X13255301Y-11832174D02*
X13255301Y-11879793D01*
X13255301Y-11879793D02*
X13245777Y-11917888D01*
X13245777Y-11917888D02*
X13236253Y-11936936D01*
X13236253Y-11936936D02*
X13226729Y-11946460D01*
X13226729Y-11946460D02*
X13207682Y-11955984D01*
X13207682Y-11955984D02*
X13188634Y-11955984D01*
X13188634Y-11955984D02*
X13169586Y-11946460D01*
X13169586Y-11946460D02*
X13160063Y-11936936D01*
X13160063Y-11936936D02*
X13150539Y-11917888D01*
X13150539Y-11917888D02*
X13141015Y-11879793D01*
X13141015Y-11879793D02*
X13141015Y-11832174D01*
X13141015Y-11832174D02*
X13150539Y-11794079D01*
X13150539Y-11794079D02*
X13160063Y-11775031D01*
X13160063Y-11775031D02*
X13169586Y-11765508D01*
X13169586Y-11765508D02*
X13188634Y-11755984D01*
X13341015Y-11936936D02*
X13350539Y-11946460D01*
X13350539Y-11946460D02*
X13341015Y-11955984D01*
X13341015Y-11955984D02*
X13331491Y-11946460D01*
X13331491Y-11946460D02*
X13341015Y-11936936D01*
X13341015Y-11936936D02*
X13341015Y-11955984D01*
X13474348Y-11755984D02*
X13493396Y-11755984D01*
X13493396Y-11755984D02*
X13512444Y-11765508D01*
X13512444Y-11765508D02*
X13521967Y-11775031D01*
X13521967Y-11775031D02*
X13531491Y-11794079D01*
X13531491Y-11794079D02*
X13541015Y-11832174D01*
X13541015Y-11832174D02*
X13541015Y-11879793D01*
X13541015Y-11879793D02*
X13531491Y-11917888D01*
X13531491Y-11917888D02*
X13521967Y-11936936D01*
X13521967Y-11936936D02*
X13512444Y-11946460D01*
X13512444Y-11946460D02*
X13493396Y-11955984D01*
X13493396Y-11955984D02*
X13474348Y-11955984D01*
X13474348Y-11955984D02*
X13455301Y-11946460D01*
X13455301Y-11946460D02*
X13445777Y-11936936D01*
X13445777Y-11936936D02*
X13436253Y-11917888D01*
X13436253Y-11917888D02*
X13426729Y-11879793D01*
X13426729Y-11879793D02*
X13426729Y-11832174D01*
X13426729Y-11832174D02*
X13436253Y-11794079D01*
X13436253Y-11794079D02*
X13445777Y-11775031D01*
X13445777Y-11775031D02*
X13455301Y-11765508D01*
X13455301Y-11765508D02*
X13474348Y-11755984D01*
X13731491Y-11955984D02*
X13617206Y-11955984D01*
X13674348Y-11955984D02*
X13674348Y-11755984D01*
X13674348Y-11755984D02*
X13655301Y-11784555D01*
X13655301Y-11784555D02*
X13636253Y-11803603D01*
X13636253Y-11803603D02*
X13617206Y-11813127D01*
X13912444Y-11755984D02*
X13817206Y-11755984D01*
X13817206Y-11755984D02*
X13807682Y-11851222D01*
X13807682Y-11851222D02*
X13817206Y-11841698D01*
X13817206Y-11841698D02*
X13836253Y-11832174D01*
X13836253Y-11832174D02*
X13883872Y-11832174D01*
X13883872Y-11832174D02*
X13902920Y-11841698D01*
X13902920Y-11841698D02*
X13912444Y-11851222D01*
X13912444Y-11851222D02*
X13921967Y-11870269D01*
X13921967Y-11870269D02*
X13921967Y-11917888D01*
X13921967Y-11917888D02*
X13912444Y-11936936D01*
X13912444Y-11936936D02*
X13902920Y-11946460D01*
X13902920Y-11946460D02*
X13883872Y-11955984D01*
X13883872Y-11955984D02*
X13836253Y-11955984D01*
X13836253Y-11955984D02*
X13817206Y-11946460D01*
X13817206Y-11946460D02*
X13807682Y-11936936D01*
X13988634Y-11755984D02*
X14121967Y-11755984D01*
X14121967Y-11755984D02*
X14036253Y-11955984D01*
X14188634Y-11755984D02*
X14188634Y-11794079D01*
X14264825Y-11755984D02*
X14264825Y-11794079D01*
X14560063Y-12032174D02*
X14550539Y-12022650D01*
X14550539Y-12022650D02*
X14531491Y-11994079D01*
X14531491Y-11994079D02*
X14521968Y-11975031D01*
X14521968Y-11975031D02*
X14512444Y-11946460D01*
X14512444Y-11946460D02*
X14502920Y-11898841D01*
X14502920Y-11898841D02*
X14502920Y-11860746D01*
X14502920Y-11860746D02*
X14512444Y-11813127D01*
X14512444Y-11813127D02*
X14521968Y-11784555D01*
X14521968Y-11784555D02*
X14531491Y-11765508D01*
X14531491Y-11765508D02*
X14550539Y-11736936D01*
X14550539Y-11736936D02*
X14560063Y-11727412D01*
X14741015Y-11955984D02*
X14626729Y-11955984D01*
X14683872Y-11955984D02*
X14683872Y-11755984D01*
X14683872Y-11755984D02*
X14664825Y-11784555D01*
X14664825Y-11784555D02*
X14645777Y-11803603D01*
X14645777Y-11803603D02*
X14626729Y-11813127D01*
X14912444Y-11822650D02*
X14912444Y-11955984D01*
X14864825Y-11746460D02*
X14817206Y-11889317D01*
X14817206Y-11889317D02*
X14941015Y-11889317D01*
X15112444Y-11755984D02*
X15017206Y-11755984D01*
X15017206Y-11755984D02*
X15007682Y-11851222D01*
X15007682Y-11851222D02*
X15017206Y-11841698D01*
X15017206Y-11841698D02*
X15036253Y-11832174D01*
X15036253Y-11832174D02*
X15083872Y-11832174D01*
X15083872Y-11832174D02*
X15102920Y-11841698D01*
X15102920Y-11841698D02*
X15112444Y-11851222D01*
X15112444Y-11851222D02*
X15121968Y-11870269D01*
X15121968Y-11870269D02*
X15121968Y-11917888D01*
X15121968Y-11917888D02*
X15112444Y-11936936D01*
X15112444Y-11936936D02*
X15102920Y-11946460D01*
X15102920Y-11946460D02*
X15083872Y-11955984D01*
X15083872Y-11955984D02*
X15036253Y-11955984D01*
X15036253Y-11955984D02*
X15017206Y-11946460D01*
X15017206Y-11946460D02*
X15007682Y-11936936D01*
X15360063Y-11955984D02*
X15360063Y-11755984D01*
X15445777Y-11955984D02*
X15445777Y-11851222D01*
X15445777Y-11851222D02*
X15436253Y-11832174D01*
X15436253Y-11832174D02*
X15417206Y-11822650D01*
X15417206Y-11822650D02*
X15388634Y-11822650D01*
X15388634Y-11822650D02*
X15369587Y-11832174D01*
X15369587Y-11832174D02*
X15360063Y-11841698D01*
X15569587Y-11955984D02*
X15550539Y-11946460D01*
X15550539Y-11946460D02*
X15541015Y-11936936D01*
X15541015Y-11936936D02*
X15531491Y-11917888D01*
X15531491Y-11917888D02*
X15531491Y-11860746D01*
X15531491Y-11860746D02*
X15541015Y-11841698D01*
X15541015Y-11841698D02*
X15550539Y-11832174D01*
X15550539Y-11832174D02*
X15569587Y-11822650D01*
X15569587Y-11822650D02*
X15598158Y-11822650D01*
X15598158Y-11822650D02*
X15617206Y-11832174D01*
X15617206Y-11832174D02*
X15626730Y-11841698D01*
X15626730Y-11841698D02*
X15636253Y-11860746D01*
X15636253Y-11860746D02*
X15636253Y-11917888D01*
X15636253Y-11917888D02*
X15626730Y-11936936D01*
X15626730Y-11936936D02*
X15617206Y-11946460D01*
X15617206Y-11946460D02*
X15598158Y-11955984D01*
X15598158Y-11955984D02*
X15569587Y-11955984D01*
X15750539Y-11955984D02*
X15731491Y-11946460D01*
X15731491Y-11946460D02*
X15721968Y-11927412D01*
X15721968Y-11927412D02*
X15721968Y-11755984D01*
X15902920Y-11946460D02*
X15883872Y-11955984D01*
X15883872Y-11955984D02*
X15845777Y-11955984D01*
X15845777Y-11955984D02*
X15826730Y-11946460D01*
X15826730Y-11946460D02*
X15817206Y-11927412D01*
X15817206Y-11927412D02*
X15817206Y-11851222D01*
X15817206Y-11851222D02*
X15826730Y-11832174D01*
X15826730Y-11832174D02*
X15845777Y-11822650D01*
X15845777Y-11822650D02*
X15883872Y-11822650D01*
X15883872Y-11822650D02*
X15902920Y-11832174D01*
X15902920Y-11832174D02*
X15912444Y-11851222D01*
X15912444Y-11851222D02*
X15912444Y-11870269D01*
X15912444Y-11870269D02*
X15817206Y-11889317D01*
X15988634Y-11946460D02*
X16007682Y-11955984D01*
X16007682Y-11955984D02*
X16045777Y-11955984D01*
X16045777Y-11955984D02*
X16064825Y-11946460D01*
X16064825Y-11946460D02*
X16074349Y-11927412D01*
X16074349Y-11927412D02*
X16074349Y-11917888D01*
X16074349Y-11917888D02*
X16064825Y-11898841D01*
X16064825Y-11898841D02*
X16045777Y-11889317D01*
X16045777Y-11889317D02*
X16017206Y-11889317D01*
X16017206Y-11889317D02*
X15998158Y-11879793D01*
X15998158Y-11879793D02*
X15988634Y-11860746D01*
X15988634Y-11860746D02*
X15988634Y-11851222D01*
X15988634Y-11851222D02*
X15998158Y-11832174D01*
X15998158Y-11832174D02*
X16017206Y-11822650D01*
X16017206Y-11822650D02*
X16045777Y-11822650D01*
X16045777Y-11822650D02*
X16064825Y-11832174D01*
X16141015Y-12032174D02*
X16150539Y-12022650D01*
X16150539Y-12022650D02*
X16169587Y-11994079D01*
X16169587Y-11994079D02*
X16179111Y-11975031D01*
X16179111Y-11975031D02*
X16188634Y-11946460D01*
X16188634Y-11946460D02*
X16198158Y-11898841D01*
X16198158Y-11898841D02*
X16198158Y-11860746D01*
X16198158Y-11860746D02*
X16188634Y-11813127D01*
X16188634Y-11813127D02*
X16179111Y-11784555D01*
X16179111Y-11784555D02*
X16169587Y-11765508D01*
X16169587Y-11765508D02*
X16150539Y-11736936D01*
X16150539Y-11736936D02*
X16141015Y-11727412D01*
D14*
X10976946Y-12147946D02*
X10976946Y-12109054D01*
X10938054Y-12109054D01*
X10938054Y-12147946D01*
X10976946Y-12147946D01*
D11*
X11283872Y-12019984D02*
X11302920Y-12019984D01*
X11302920Y-12019984D02*
X11321967Y-12029508D01*
X11321967Y-12029508D02*
X11331491Y-12039031D01*
X11331491Y-12039031D02*
X11341015Y-12058079D01*
X11341015Y-12058079D02*
X11350539Y-12096174D01*
X11350539Y-12096174D02*
X11350539Y-12143793D01*
X11350539Y-12143793D02*
X11341015Y-12181888D01*
X11341015Y-12181888D02*
X11331491Y-12200936D01*
X11331491Y-12200936D02*
X11321967Y-12210460D01*
X11321967Y-12210460D02*
X11302920Y-12219984D01*
X11302920Y-12219984D02*
X11283872Y-12219984D01*
X11283872Y-12219984D02*
X11264824Y-12210460D01*
X11264824Y-12210460D02*
X11255301Y-12200936D01*
X11255301Y-12200936D02*
X11245777Y-12181888D01*
X11245777Y-12181888D02*
X11236253Y-12143793D01*
X11236253Y-12143793D02*
X11236253Y-12096174D01*
X11236253Y-12096174D02*
X11245777Y-12058079D01*
X11245777Y-12058079D02*
X11255301Y-12039031D01*
X11255301Y-12039031D02*
X11264824Y-12029508D01*
X11264824Y-12029508D02*
X11283872Y-12019984D01*
X11436253Y-12200936D02*
X11445777Y-12210460D01*
X11445777Y-12210460D02*
X11436253Y-12219984D01*
X11436253Y-12219984D02*
X11426729Y-12210460D01*
X11426729Y-12210460D02*
X11436253Y-12200936D01*
X11436253Y-12200936D02*
X11436253Y-12219984D01*
X11626729Y-12019984D02*
X11531491Y-12019984D01*
X11531491Y-12019984D02*
X11521967Y-12115222D01*
X11521967Y-12115222D02*
X11531491Y-12105698D01*
X11531491Y-12105698D02*
X11550539Y-12096174D01*
X11550539Y-12096174D02*
X11598158Y-12096174D01*
X11598158Y-12096174D02*
X11617205Y-12105698D01*
X11617205Y-12105698D02*
X11626729Y-12115222D01*
X11626729Y-12115222D02*
X11636253Y-12134269D01*
X11636253Y-12134269D02*
X11636253Y-12181888D01*
X11636253Y-12181888D02*
X11626729Y-12200936D01*
X11626729Y-12200936D02*
X11617205Y-12210460D01*
X11617205Y-12210460D02*
X11598158Y-12219984D01*
X11598158Y-12219984D02*
X11550539Y-12219984D01*
X11550539Y-12219984D02*
X11531491Y-12210460D01*
X11531491Y-12210460D02*
X11521967Y-12200936D01*
X11817205Y-12019984D02*
X11721967Y-12019984D01*
X11721967Y-12019984D02*
X11712443Y-12115222D01*
X11712443Y-12115222D02*
X11721967Y-12105698D01*
X11721967Y-12105698D02*
X11741015Y-12096174D01*
X11741015Y-12096174D02*
X11788634Y-12096174D01*
X11788634Y-12096174D02*
X11807682Y-12105698D01*
X11807682Y-12105698D02*
X11817205Y-12115222D01*
X11817205Y-12115222D02*
X11826729Y-12134269D01*
X11826729Y-12134269D02*
X11826729Y-12181888D01*
X11826729Y-12181888D02*
X11817205Y-12200936D01*
X11817205Y-12200936D02*
X11807682Y-12210460D01*
X11807682Y-12210460D02*
X11788634Y-12219984D01*
X11788634Y-12219984D02*
X11741015Y-12219984D01*
X11741015Y-12219984D02*
X11721967Y-12210460D01*
X11721967Y-12210460D02*
X11712443Y-12200936D01*
X11950539Y-12019984D02*
X11969586Y-12019984D01*
X11969586Y-12019984D02*
X11988634Y-12029508D01*
X11988634Y-12029508D02*
X11998158Y-12039031D01*
X11998158Y-12039031D02*
X12007682Y-12058079D01*
X12007682Y-12058079D02*
X12017205Y-12096174D01*
X12017205Y-12096174D02*
X12017205Y-12143793D01*
X12017205Y-12143793D02*
X12007682Y-12181888D01*
X12007682Y-12181888D02*
X11998158Y-12200936D01*
X11998158Y-12200936D02*
X11988634Y-12210460D01*
X11988634Y-12210460D02*
X11969586Y-12219984D01*
X11969586Y-12219984D02*
X11950539Y-12219984D01*
X11950539Y-12219984D02*
X11931491Y-12210460D01*
X11931491Y-12210460D02*
X11921967Y-12200936D01*
X11921967Y-12200936D02*
X11912443Y-12181888D01*
X11912443Y-12181888D02*
X11902920Y-12143793D01*
X11902920Y-12143793D02*
X11902920Y-12096174D01*
X11902920Y-12096174D02*
X11912443Y-12058079D01*
X11912443Y-12058079D02*
X11921967Y-12039031D01*
X11921967Y-12039031D02*
X11931491Y-12029508D01*
X11931491Y-12029508D02*
X11950539Y-12019984D01*
X12102920Y-12219984D02*
X12102920Y-12086650D01*
X12102920Y-12105698D02*
X12112443Y-12096174D01*
X12112443Y-12096174D02*
X12131491Y-12086650D01*
X12131491Y-12086650D02*
X12160063Y-12086650D01*
X12160063Y-12086650D02*
X12179110Y-12096174D01*
X12179110Y-12096174D02*
X12188634Y-12115222D01*
X12188634Y-12115222D02*
X12188634Y-12219984D01*
X12188634Y-12115222D02*
X12198158Y-12096174D01*
X12198158Y-12096174D02*
X12217205Y-12086650D01*
X12217205Y-12086650D02*
X12245777Y-12086650D01*
X12245777Y-12086650D02*
X12264824Y-12096174D01*
X12264824Y-12096174D02*
X12274348Y-12115222D01*
X12274348Y-12115222D02*
X12274348Y-12219984D01*
X12369586Y-12219984D02*
X12369586Y-12086650D01*
X12369586Y-12105698D02*
X12379110Y-12096174D01*
X12379110Y-12096174D02*
X12398158Y-12086650D01*
X12398158Y-12086650D02*
X12426729Y-12086650D01*
X12426729Y-12086650D02*
X12445777Y-12096174D01*
X12445777Y-12096174D02*
X12455301Y-12115222D01*
X12455301Y-12115222D02*
X12455301Y-12219984D01*
X12455301Y-12115222D02*
X12464824Y-12096174D01*
X12464824Y-12096174D02*
X12483872Y-12086650D01*
X12483872Y-12086650D02*
X12512443Y-12086650D01*
X12512443Y-12086650D02*
X12531491Y-12096174D01*
X12531491Y-12096174D02*
X12541015Y-12115222D01*
X12541015Y-12115222D02*
X12541015Y-12219984D01*
X12931491Y-12010460D02*
X12760063Y-12267603D01*
X13188634Y-12019984D02*
X13207682Y-12019984D01*
X13207682Y-12019984D02*
X13226729Y-12029508D01*
X13226729Y-12029508D02*
X13236253Y-12039031D01*
X13236253Y-12039031D02*
X13245777Y-12058079D01*
X13245777Y-12058079D02*
X13255301Y-12096174D01*
X13255301Y-12096174D02*
X13255301Y-12143793D01*
X13255301Y-12143793D02*
X13245777Y-12181888D01*
X13245777Y-12181888D02*
X13236253Y-12200936D01*
X13236253Y-12200936D02*
X13226729Y-12210460D01*
X13226729Y-12210460D02*
X13207682Y-12219984D01*
X13207682Y-12219984D02*
X13188634Y-12219984D01*
X13188634Y-12219984D02*
X13169586Y-12210460D01*
X13169586Y-12210460D02*
X13160063Y-12200936D01*
X13160063Y-12200936D02*
X13150539Y-12181888D01*
X13150539Y-12181888D02*
X13141015Y-12143793D01*
X13141015Y-12143793D02*
X13141015Y-12096174D01*
X13141015Y-12096174D02*
X13150539Y-12058079D01*
X13150539Y-12058079D02*
X13160063Y-12039031D01*
X13160063Y-12039031D02*
X13169586Y-12029508D01*
X13169586Y-12029508D02*
X13188634Y-12019984D01*
X13341015Y-12200936D02*
X13350539Y-12210460D01*
X13350539Y-12210460D02*
X13341015Y-12219984D01*
X13341015Y-12219984D02*
X13331491Y-12210460D01*
X13331491Y-12210460D02*
X13341015Y-12200936D01*
X13341015Y-12200936D02*
X13341015Y-12219984D01*
X13474348Y-12019984D02*
X13493396Y-12019984D01*
X13493396Y-12019984D02*
X13512444Y-12029508D01*
X13512444Y-12029508D02*
X13521967Y-12039031D01*
X13521967Y-12039031D02*
X13531491Y-12058079D01*
X13531491Y-12058079D02*
X13541015Y-12096174D01*
X13541015Y-12096174D02*
X13541015Y-12143793D01*
X13541015Y-12143793D02*
X13531491Y-12181888D01*
X13531491Y-12181888D02*
X13521967Y-12200936D01*
X13521967Y-12200936D02*
X13512444Y-12210460D01*
X13512444Y-12210460D02*
X13493396Y-12219984D01*
X13493396Y-12219984D02*
X13474348Y-12219984D01*
X13474348Y-12219984D02*
X13455301Y-12210460D01*
X13455301Y-12210460D02*
X13445777Y-12200936D01*
X13445777Y-12200936D02*
X13436253Y-12181888D01*
X13436253Y-12181888D02*
X13426729Y-12143793D01*
X13426729Y-12143793D02*
X13426729Y-12096174D01*
X13426729Y-12096174D02*
X13436253Y-12058079D01*
X13436253Y-12058079D02*
X13445777Y-12039031D01*
X13445777Y-12039031D02*
X13455301Y-12029508D01*
X13455301Y-12029508D02*
X13474348Y-12019984D01*
X13617206Y-12039031D02*
X13626729Y-12029508D01*
X13626729Y-12029508D02*
X13645777Y-12019984D01*
X13645777Y-12019984D02*
X13693396Y-12019984D01*
X13693396Y-12019984D02*
X13712444Y-12029508D01*
X13712444Y-12029508D02*
X13721967Y-12039031D01*
X13721967Y-12039031D02*
X13731491Y-12058079D01*
X13731491Y-12058079D02*
X13731491Y-12077127D01*
X13731491Y-12077127D02*
X13721967Y-12105698D01*
X13721967Y-12105698D02*
X13607682Y-12219984D01*
X13607682Y-12219984D02*
X13731491Y-12219984D01*
X13921967Y-12219984D02*
X13807682Y-12219984D01*
X13864825Y-12219984D02*
X13864825Y-12019984D01*
X13864825Y-12019984D02*
X13845777Y-12048555D01*
X13845777Y-12048555D02*
X13826729Y-12067603D01*
X13826729Y-12067603D02*
X13807682Y-12077127D01*
X13988634Y-12019984D02*
X14121967Y-12019984D01*
X14121967Y-12019984D02*
X14036253Y-12219984D01*
X14188634Y-12019984D02*
X14188634Y-12058079D01*
X14264825Y-12019984D02*
X14264825Y-12058079D01*
X14560063Y-12296174D02*
X14550539Y-12286650D01*
X14550539Y-12286650D02*
X14531491Y-12258079D01*
X14531491Y-12258079D02*
X14521968Y-12239031D01*
X14521968Y-12239031D02*
X14512444Y-12210460D01*
X14512444Y-12210460D02*
X14502920Y-12162841D01*
X14502920Y-12162841D02*
X14502920Y-12124746D01*
X14502920Y-12124746D02*
X14512444Y-12077127D01*
X14512444Y-12077127D02*
X14521968Y-12048555D01*
X14521968Y-12048555D02*
X14531491Y-12029508D01*
X14531491Y-12029508D02*
X14550539Y-12000936D01*
X14550539Y-12000936D02*
X14560063Y-11991412D01*
X14674348Y-12019984D02*
X14693396Y-12019984D01*
X14693396Y-12019984D02*
X14712444Y-12029508D01*
X14712444Y-12029508D02*
X14721968Y-12039031D01*
X14721968Y-12039031D02*
X14731491Y-12058079D01*
X14731491Y-12058079D02*
X14741015Y-12096174D01*
X14741015Y-12096174D02*
X14741015Y-12143793D01*
X14741015Y-12143793D02*
X14731491Y-12181888D01*
X14731491Y-12181888D02*
X14721968Y-12200936D01*
X14721968Y-12200936D02*
X14712444Y-12210460D01*
X14712444Y-12210460D02*
X14693396Y-12219984D01*
X14693396Y-12219984D02*
X14674348Y-12219984D01*
X14674348Y-12219984D02*
X14655301Y-12210460D01*
X14655301Y-12210460D02*
X14645777Y-12200936D01*
X14645777Y-12200936D02*
X14636253Y-12181888D01*
X14636253Y-12181888D02*
X14626729Y-12143793D01*
X14626729Y-12143793D02*
X14626729Y-12096174D01*
X14626729Y-12096174D02*
X14636253Y-12058079D01*
X14636253Y-12058079D02*
X14645777Y-12039031D01*
X14645777Y-12039031D02*
X14655301Y-12029508D01*
X14655301Y-12029508D02*
X14674348Y-12019984D01*
X14979110Y-12219984D02*
X14979110Y-12019984D01*
X15064825Y-12219984D02*
X15064825Y-12115222D01*
X15064825Y-12115222D02*
X15055301Y-12096174D01*
X15055301Y-12096174D02*
X15036253Y-12086650D01*
X15036253Y-12086650D02*
X15007682Y-12086650D01*
X15007682Y-12086650D02*
X14988634Y-12096174D01*
X14988634Y-12096174D02*
X14979110Y-12105698D01*
X15188634Y-12219984D02*
X15169587Y-12210460D01*
X15169587Y-12210460D02*
X15160063Y-12200936D01*
X15160063Y-12200936D02*
X15150539Y-12181888D01*
X15150539Y-12181888D02*
X15150539Y-12124746D01*
X15150539Y-12124746D02*
X15160063Y-12105698D01*
X15160063Y-12105698D02*
X15169587Y-12096174D01*
X15169587Y-12096174D02*
X15188634Y-12086650D01*
X15188634Y-12086650D02*
X15217206Y-12086650D01*
X15217206Y-12086650D02*
X15236253Y-12096174D01*
X15236253Y-12096174D02*
X15245777Y-12105698D01*
X15245777Y-12105698D02*
X15255301Y-12124746D01*
X15255301Y-12124746D02*
X15255301Y-12181888D01*
X15255301Y-12181888D02*
X15245777Y-12200936D01*
X15245777Y-12200936D02*
X15236253Y-12210460D01*
X15236253Y-12210460D02*
X15217206Y-12219984D01*
X15217206Y-12219984D02*
X15188634Y-12219984D01*
X15369587Y-12219984D02*
X15350539Y-12210460D01*
X15350539Y-12210460D02*
X15341015Y-12191412D01*
X15341015Y-12191412D02*
X15341015Y-12019984D01*
X15521968Y-12210460D02*
X15502920Y-12219984D01*
X15502920Y-12219984D02*
X15464825Y-12219984D01*
X15464825Y-12219984D02*
X15445777Y-12210460D01*
X15445777Y-12210460D02*
X15436253Y-12191412D01*
X15436253Y-12191412D02*
X15436253Y-12115222D01*
X15436253Y-12115222D02*
X15445777Y-12096174D01*
X15445777Y-12096174D02*
X15464825Y-12086650D01*
X15464825Y-12086650D02*
X15502920Y-12086650D01*
X15502920Y-12086650D02*
X15521968Y-12096174D01*
X15521968Y-12096174D02*
X15531491Y-12115222D01*
X15531491Y-12115222D02*
X15531491Y-12134269D01*
X15531491Y-12134269D02*
X15436253Y-12153317D01*
X15607682Y-12210460D02*
X15626730Y-12219984D01*
X15626730Y-12219984D02*
X15664825Y-12219984D01*
X15664825Y-12219984D02*
X15683872Y-12210460D01*
X15683872Y-12210460D02*
X15693396Y-12191412D01*
X15693396Y-12191412D02*
X15693396Y-12181888D01*
X15693396Y-12181888D02*
X15683872Y-12162841D01*
X15683872Y-12162841D02*
X15664825Y-12153317D01*
X15664825Y-12153317D02*
X15636253Y-12153317D01*
X15636253Y-12153317D02*
X15617206Y-12143793D01*
X15617206Y-12143793D02*
X15607682Y-12124746D01*
X15607682Y-12124746D02*
X15607682Y-12115222D01*
X15607682Y-12115222D02*
X15617206Y-12096174D01*
X15617206Y-12096174D02*
X15636253Y-12086650D01*
X15636253Y-12086650D02*
X15664825Y-12086650D01*
X15664825Y-12086650D02*
X15683872Y-12096174D01*
X15931492Y-12143793D02*
X16083873Y-12143793D01*
X16007682Y-12219984D02*
X16007682Y-12067603D01*
X16321968Y-12039031D02*
X16331492Y-12029508D01*
X16331492Y-12029508D02*
X16350539Y-12019984D01*
X16350539Y-12019984D02*
X16398158Y-12019984D01*
X16398158Y-12019984D02*
X16417206Y-12029508D01*
X16417206Y-12029508D02*
X16426730Y-12039031D01*
X16426730Y-12039031D02*
X16436253Y-12058079D01*
X16436253Y-12058079D02*
X16436253Y-12077127D01*
X16436253Y-12077127D02*
X16426730Y-12105698D01*
X16426730Y-12105698D02*
X16312444Y-12219984D01*
X16312444Y-12219984D02*
X16436253Y-12219984D01*
X16664825Y-12210460D02*
X16683873Y-12219984D01*
X16683873Y-12219984D02*
X16721968Y-12219984D01*
X16721968Y-12219984D02*
X16741015Y-12210460D01*
X16741015Y-12210460D02*
X16750539Y-12191412D01*
X16750539Y-12191412D02*
X16750539Y-12181888D01*
X16750539Y-12181888D02*
X16741015Y-12162841D01*
X16741015Y-12162841D02*
X16721968Y-12153317D01*
X16721968Y-12153317D02*
X16693396Y-12153317D01*
X16693396Y-12153317D02*
X16674349Y-12143793D01*
X16674349Y-12143793D02*
X16664825Y-12124746D01*
X16664825Y-12124746D02*
X16664825Y-12115222D01*
X16664825Y-12115222D02*
X16674349Y-12096174D01*
X16674349Y-12096174D02*
X16693396Y-12086650D01*
X16693396Y-12086650D02*
X16721968Y-12086650D01*
X16721968Y-12086650D02*
X16741015Y-12096174D01*
X16864825Y-12219984D02*
X16845777Y-12210460D01*
X16845777Y-12210460D02*
X16836254Y-12191412D01*
X16836254Y-12191412D02*
X16836254Y-12019984D01*
X16969587Y-12219984D02*
X16950539Y-12210460D01*
X16950539Y-12210460D02*
X16941016Y-12200936D01*
X16941016Y-12200936D02*
X16931492Y-12181888D01*
X16931492Y-12181888D02*
X16931492Y-12124746D01*
X16931492Y-12124746D02*
X16941016Y-12105698D01*
X16941016Y-12105698D02*
X16950539Y-12096174D01*
X16950539Y-12096174D02*
X16969587Y-12086650D01*
X16969587Y-12086650D02*
X16998158Y-12086650D01*
X16998158Y-12086650D02*
X17017206Y-12096174D01*
X17017206Y-12096174D02*
X17026730Y-12105698D01*
X17026730Y-12105698D02*
X17036254Y-12124746D01*
X17036254Y-12124746D02*
X17036254Y-12181888D01*
X17036254Y-12181888D02*
X17026730Y-12200936D01*
X17026730Y-12200936D02*
X17017206Y-12210460D01*
X17017206Y-12210460D02*
X16998158Y-12219984D01*
X16998158Y-12219984D02*
X16969587Y-12219984D01*
X17093397Y-12086650D02*
X17169587Y-12086650D01*
X17121968Y-12019984D02*
X17121968Y-12191412D01*
X17121968Y-12191412D02*
X17131492Y-12210460D01*
X17131492Y-12210460D02*
X17150539Y-12219984D01*
X17150539Y-12219984D02*
X17169587Y-12219984D01*
X17226730Y-12210460D02*
X17245777Y-12219984D01*
X17245777Y-12219984D02*
X17283873Y-12219984D01*
X17283873Y-12219984D02*
X17302920Y-12210460D01*
X17302920Y-12210460D02*
X17312444Y-12191412D01*
X17312444Y-12191412D02*
X17312444Y-12181888D01*
X17312444Y-12181888D02*
X17302920Y-12162841D01*
X17302920Y-12162841D02*
X17283873Y-12153317D01*
X17283873Y-12153317D02*
X17255301Y-12153317D01*
X17255301Y-12153317D02*
X17236254Y-12143793D01*
X17236254Y-12143793D02*
X17226730Y-12124746D01*
X17226730Y-12124746D02*
X17226730Y-12115222D01*
X17226730Y-12115222D02*
X17236254Y-12096174D01*
X17236254Y-12096174D02*
X17255301Y-12086650D01*
X17255301Y-12086650D02*
X17283873Y-12086650D01*
X17283873Y-12086650D02*
X17302920Y-12096174D01*
X17379111Y-12296174D02*
X17388635Y-12286650D01*
X17388635Y-12286650D02*
X17407682Y-12258079D01*
X17407682Y-12258079D02*
X17417206Y-12239031D01*
X17417206Y-12239031D02*
X17426730Y-12210460D01*
X17426730Y-12210460D02*
X17436254Y-12162841D01*
X17436254Y-12162841D02*
X17436254Y-12124746D01*
X17436254Y-12124746D02*
X17426730Y-12077127D01*
X17426730Y-12077127D02*
X17417206Y-12048555D01*
X17417206Y-12048555D02*
X17407682Y-12029508D01*
X17407682Y-12029508D02*
X17388635Y-12000936D01*
X17388635Y-12000936D02*
X17379111Y-11991412D01*
D15*
X10942500Y-12435000D02*
X10985000Y-12392500D01*
X10942500Y-12350000D01*
X10900000Y-12392500D01*
X10942500Y-12435000D01*
D11*
X11283872Y-12283984D02*
X11302920Y-12283984D01*
X11302920Y-12283984D02*
X11321967Y-12293508D01*
X11321967Y-12293508D02*
X11331491Y-12303031D01*
X11331491Y-12303031D02*
X11341015Y-12322079D01*
X11341015Y-12322079D02*
X11350539Y-12360174D01*
X11350539Y-12360174D02*
X11350539Y-12407793D01*
X11350539Y-12407793D02*
X11341015Y-12445888D01*
X11341015Y-12445888D02*
X11331491Y-12464936D01*
X11331491Y-12464936D02*
X11321967Y-12474460D01*
X11321967Y-12474460D02*
X11302920Y-12483984D01*
X11302920Y-12483984D02*
X11283872Y-12483984D01*
X11283872Y-12483984D02*
X11264824Y-12474460D01*
X11264824Y-12474460D02*
X11255301Y-12464936D01*
X11255301Y-12464936D02*
X11245777Y-12445888D01*
X11245777Y-12445888D02*
X11236253Y-12407793D01*
X11236253Y-12407793D02*
X11236253Y-12360174D01*
X11236253Y-12360174D02*
X11245777Y-12322079D01*
X11245777Y-12322079D02*
X11255301Y-12303031D01*
X11255301Y-12303031D02*
X11264824Y-12293508D01*
X11264824Y-12293508D02*
X11283872Y-12283984D01*
X11436253Y-12464936D02*
X11445777Y-12474460D01*
X11445777Y-12474460D02*
X11436253Y-12483984D01*
X11436253Y-12483984D02*
X11426729Y-12474460D01*
X11426729Y-12474460D02*
X11436253Y-12464936D01*
X11436253Y-12464936D02*
X11436253Y-12483984D01*
X11560062Y-12369698D02*
X11541015Y-12360174D01*
X11541015Y-12360174D02*
X11531491Y-12350650D01*
X11531491Y-12350650D02*
X11521967Y-12331603D01*
X11521967Y-12331603D02*
X11521967Y-12322079D01*
X11521967Y-12322079D02*
X11531491Y-12303031D01*
X11531491Y-12303031D02*
X11541015Y-12293508D01*
X11541015Y-12293508D02*
X11560062Y-12283984D01*
X11560062Y-12283984D02*
X11598158Y-12283984D01*
X11598158Y-12283984D02*
X11617205Y-12293508D01*
X11617205Y-12293508D02*
X11626729Y-12303031D01*
X11626729Y-12303031D02*
X11636253Y-12322079D01*
X11636253Y-12322079D02*
X11636253Y-12331603D01*
X11636253Y-12331603D02*
X11626729Y-12350650D01*
X11626729Y-12350650D02*
X11617205Y-12360174D01*
X11617205Y-12360174D02*
X11598158Y-12369698D01*
X11598158Y-12369698D02*
X11560062Y-12369698D01*
X11560062Y-12369698D02*
X11541015Y-12379222D01*
X11541015Y-12379222D02*
X11531491Y-12388746D01*
X11531491Y-12388746D02*
X11521967Y-12407793D01*
X11521967Y-12407793D02*
X11521967Y-12445888D01*
X11521967Y-12445888D02*
X11531491Y-12464936D01*
X11531491Y-12464936D02*
X11541015Y-12474460D01*
X11541015Y-12474460D02*
X11560062Y-12483984D01*
X11560062Y-12483984D02*
X11598158Y-12483984D01*
X11598158Y-12483984D02*
X11617205Y-12474460D01*
X11617205Y-12474460D02*
X11626729Y-12464936D01*
X11626729Y-12464936D02*
X11636253Y-12445888D01*
X11636253Y-12445888D02*
X11636253Y-12407793D01*
X11636253Y-12407793D02*
X11626729Y-12388746D01*
X11626729Y-12388746D02*
X11617205Y-12379222D01*
X11617205Y-12379222D02*
X11598158Y-12369698D01*
X11817205Y-12283984D02*
X11721967Y-12283984D01*
X11721967Y-12283984D02*
X11712443Y-12379222D01*
X11712443Y-12379222D02*
X11721967Y-12369698D01*
X11721967Y-12369698D02*
X11741015Y-12360174D01*
X11741015Y-12360174D02*
X11788634Y-12360174D01*
X11788634Y-12360174D02*
X11807682Y-12369698D01*
X11807682Y-12369698D02*
X11817205Y-12379222D01*
X11817205Y-12379222D02*
X11826729Y-12398269D01*
X11826729Y-12398269D02*
X11826729Y-12445888D01*
X11826729Y-12445888D02*
X11817205Y-12464936D01*
X11817205Y-12464936D02*
X11807682Y-12474460D01*
X11807682Y-12474460D02*
X11788634Y-12483984D01*
X11788634Y-12483984D02*
X11741015Y-12483984D01*
X11741015Y-12483984D02*
X11721967Y-12474460D01*
X11721967Y-12474460D02*
X11712443Y-12464936D01*
X11950539Y-12283984D02*
X11969586Y-12283984D01*
X11969586Y-12283984D02*
X11988634Y-12293508D01*
X11988634Y-12293508D02*
X11998158Y-12303031D01*
X11998158Y-12303031D02*
X12007682Y-12322079D01*
X12007682Y-12322079D02*
X12017205Y-12360174D01*
X12017205Y-12360174D02*
X12017205Y-12407793D01*
X12017205Y-12407793D02*
X12007682Y-12445888D01*
X12007682Y-12445888D02*
X11998158Y-12464936D01*
X11998158Y-12464936D02*
X11988634Y-12474460D01*
X11988634Y-12474460D02*
X11969586Y-12483984D01*
X11969586Y-12483984D02*
X11950539Y-12483984D01*
X11950539Y-12483984D02*
X11931491Y-12474460D01*
X11931491Y-12474460D02*
X11921967Y-12464936D01*
X11921967Y-12464936D02*
X11912443Y-12445888D01*
X11912443Y-12445888D02*
X11902920Y-12407793D01*
X11902920Y-12407793D02*
X11902920Y-12360174D01*
X11902920Y-12360174D02*
X11912443Y-12322079D01*
X11912443Y-12322079D02*
X11921967Y-12303031D01*
X11921967Y-12303031D02*
X11931491Y-12293508D01*
X11931491Y-12293508D02*
X11950539Y-12283984D01*
X12102920Y-12483984D02*
X12102920Y-12350650D01*
X12102920Y-12369698D02*
X12112443Y-12360174D01*
X12112443Y-12360174D02*
X12131491Y-12350650D01*
X12131491Y-12350650D02*
X12160063Y-12350650D01*
X12160063Y-12350650D02*
X12179110Y-12360174D01*
X12179110Y-12360174D02*
X12188634Y-12379222D01*
X12188634Y-12379222D02*
X12188634Y-12483984D01*
X12188634Y-12379222D02*
X12198158Y-12360174D01*
X12198158Y-12360174D02*
X12217205Y-12350650D01*
X12217205Y-12350650D02*
X12245777Y-12350650D01*
X12245777Y-12350650D02*
X12264824Y-12360174D01*
X12264824Y-12360174D02*
X12274348Y-12379222D01*
X12274348Y-12379222D02*
X12274348Y-12483984D01*
X12369586Y-12483984D02*
X12369586Y-12350650D01*
X12369586Y-12369698D02*
X12379110Y-12360174D01*
X12379110Y-12360174D02*
X12398158Y-12350650D01*
X12398158Y-12350650D02*
X12426729Y-12350650D01*
X12426729Y-12350650D02*
X12445777Y-12360174D01*
X12445777Y-12360174D02*
X12455301Y-12379222D01*
X12455301Y-12379222D02*
X12455301Y-12483984D01*
X12455301Y-12379222D02*
X12464824Y-12360174D01*
X12464824Y-12360174D02*
X12483872Y-12350650D01*
X12483872Y-12350650D02*
X12512443Y-12350650D01*
X12512443Y-12350650D02*
X12531491Y-12360174D01*
X12531491Y-12360174D02*
X12541015Y-12379222D01*
X12541015Y-12379222D02*
X12541015Y-12483984D01*
X12931491Y-12274460D02*
X12760063Y-12531603D01*
X13188634Y-12283984D02*
X13207682Y-12283984D01*
X13207682Y-12283984D02*
X13226729Y-12293508D01*
X13226729Y-12293508D02*
X13236253Y-12303031D01*
X13236253Y-12303031D02*
X13245777Y-12322079D01*
X13245777Y-12322079D02*
X13255301Y-12360174D01*
X13255301Y-12360174D02*
X13255301Y-12407793D01*
X13255301Y-12407793D02*
X13245777Y-12445888D01*
X13245777Y-12445888D02*
X13236253Y-12464936D01*
X13236253Y-12464936D02*
X13226729Y-12474460D01*
X13226729Y-12474460D02*
X13207682Y-12483984D01*
X13207682Y-12483984D02*
X13188634Y-12483984D01*
X13188634Y-12483984D02*
X13169586Y-12474460D01*
X13169586Y-12474460D02*
X13160063Y-12464936D01*
X13160063Y-12464936D02*
X13150539Y-12445888D01*
X13150539Y-12445888D02*
X13141015Y-12407793D01*
X13141015Y-12407793D02*
X13141015Y-12360174D01*
X13141015Y-12360174D02*
X13150539Y-12322079D01*
X13150539Y-12322079D02*
X13160063Y-12303031D01*
X13160063Y-12303031D02*
X13169586Y-12293508D01*
X13169586Y-12293508D02*
X13188634Y-12283984D01*
X13341015Y-12464936D02*
X13350539Y-12474460D01*
X13350539Y-12474460D02*
X13341015Y-12483984D01*
X13341015Y-12483984D02*
X13331491Y-12474460D01*
X13331491Y-12474460D02*
X13341015Y-12464936D01*
X13341015Y-12464936D02*
X13341015Y-12483984D01*
X13474348Y-12283984D02*
X13493396Y-12283984D01*
X13493396Y-12283984D02*
X13512444Y-12293508D01*
X13512444Y-12293508D02*
X13521967Y-12303031D01*
X13521967Y-12303031D02*
X13531491Y-12322079D01*
X13531491Y-12322079D02*
X13541015Y-12360174D01*
X13541015Y-12360174D02*
X13541015Y-12407793D01*
X13541015Y-12407793D02*
X13531491Y-12445888D01*
X13531491Y-12445888D02*
X13521967Y-12464936D01*
X13521967Y-12464936D02*
X13512444Y-12474460D01*
X13512444Y-12474460D02*
X13493396Y-12483984D01*
X13493396Y-12483984D02*
X13474348Y-12483984D01*
X13474348Y-12483984D02*
X13455301Y-12474460D01*
X13455301Y-12474460D02*
X13445777Y-12464936D01*
X13445777Y-12464936D02*
X13436253Y-12445888D01*
X13436253Y-12445888D02*
X13426729Y-12407793D01*
X13426729Y-12407793D02*
X13426729Y-12360174D01*
X13426729Y-12360174D02*
X13436253Y-12322079D01*
X13436253Y-12322079D02*
X13445777Y-12303031D01*
X13445777Y-12303031D02*
X13455301Y-12293508D01*
X13455301Y-12293508D02*
X13474348Y-12283984D01*
X13607682Y-12283984D02*
X13731491Y-12283984D01*
X13731491Y-12283984D02*
X13664825Y-12360174D01*
X13664825Y-12360174D02*
X13693396Y-12360174D01*
X13693396Y-12360174D02*
X13712444Y-12369698D01*
X13712444Y-12369698D02*
X13721967Y-12379222D01*
X13721967Y-12379222D02*
X13731491Y-12398269D01*
X13731491Y-12398269D02*
X13731491Y-12445888D01*
X13731491Y-12445888D02*
X13721967Y-12464936D01*
X13721967Y-12464936D02*
X13712444Y-12474460D01*
X13712444Y-12474460D02*
X13693396Y-12483984D01*
X13693396Y-12483984D02*
X13636253Y-12483984D01*
X13636253Y-12483984D02*
X13617206Y-12474460D01*
X13617206Y-12474460D02*
X13607682Y-12464936D01*
X13798158Y-12283984D02*
X13921967Y-12283984D01*
X13921967Y-12283984D02*
X13855301Y-12360174D01*
X13855301Y-12360174D02*
X13883872Y-12360174D01*
X13883872Y-12360174D02*
X13902920Y-12369698D01*
X13902920Y-12369698D02*
X13912444Y-12379222D01*
X13912444Y-12379222D02*
X13921967Y-12398269D01*
X13921967Y-12398269D02*
X13921967Y-12445888D01*
X13921967Y-12445888D02*
X13912444Y-12464936D01*
X13912444Y-12464936D02*
X13902920Y-12474460D01*
X13902920Y-12474460D02*
X13883872Y-12483984D01*
X13883872Y-12483984D02*
X13826729Y-12483984D01*
X13826729Y-12483984D02*
X13807682Y-12474460D01*
X13807682Y-12474460D02*
X13798158Y-12464936D01*
X14102920Y-12283984D02*
X14007682Y-12283984D01*
X14007682Y-12283984D02*
X13998158Y-12379222D01*
X13998158Y-12379222D02*
X14007682Y-12369698D01*
X14007682Y-12369698D02*
X14026729Y-12360174D01*
X14026729Y-12360174D02*
X14074348Y-12360174D01*
X14074348Y-12360174D02*
X14093396Y-12369698D01*
X14093396Y-12369698D02*
X14102920Y-12379222D01*
X14102920Y-12379222D02*
X14112444Y-12398269D01*
X14112444Y-12398269D02*
X14112444Y-12445888D01*
X14112444Y-12445888D02*
X14102920Y-12464936D01*
X14102920Y-12464936D02*
X14093396Y-12474460D01*
X14093396Y-12474460D02*
X14074348Y-12483984D01*
X14074348Y-12483984D02*
X14026729Y-12483984D01*
X14026729Y-12483984D02*
X14007682Y-12474460D01*
X14007682Y-12474460D02*
X13998158Y-12464936D01*
X14188634Y-12283984D02*
X14188634Y-12322079D01*
X14264825Y-12283984D02*
X14264825Y-12322079D01*
X14560063Y-12560174D02*
X14550539Y-12550650D01*
X14550539Y-12550650D02*
X14531491Y-12522079D01*
X14531491Y-12522079D02*
X14521968Y-12503031D01*
X14521968Y-12503031D02*
X14512444Y-12474460D01*
X14512444Y-12474460D02*
X14502920Y-12426841D01*
X14502920Y-12426841D02*
X14502920Y-12388746D01*
X14502920Y-12388746D02*
X14512444Y-12341127D01*
X14512444Y-12341127D02*
X14521968Y-12312555D01*
X14521968Y-12312555D02*
X14531491Y-12293508D01*
X14531491Y-12293508D02*
X14550539Y-12264936D01*
X14550539Y-12264936D02*
X14560063Y-12255412D01*
X14674348Y-12283984D02*
X14693396Y-12283984D01*
X14693396Y-12283984D02*
X14712444Y-12293508D01*
X14712444Y-12293508D02*
X14721968Y-12303031D01*
X14721968Y-12303031D02*
X14731491Y-12322079D01*
X14731491Y-12322079D02*
X14741015Y-12360174D01*
X14741015Y-12360174D02*
X14741015Y-12407793D01*
X14741015Y-12407793D02*
X14731491Y-12445888D01*
X14731491Y-12445888D02*
X14721968Y-12464936D01*
X14721968Y-12464936D02*
X14712444Y-12474460D01*
X14712444Y-12474460D02*
X14693396Y-12483984D01*
X14693396Y-12483984D02*
X14674348Y-12483984D01*
X14674348Y-12483984D02*
X14655301Y-12474460D01*
X14655301Y-12474460D02*
X14645777Y-12464936D01*
X14645777Y-12464936D02*
X14636253Y-12445888D01*
X14636253Y-12445888D02*
X14626729Y-12407793D01*
X14626729Y-12407793D02*
X14626729Y-12360174D01*
X14626729Y-12360174D02*
X14636253Y-12322079D01*
X14636253Y-12322079D02*
X14645777Y-12303031D01*
X14645777Y-12303031D02*
X14655301Y-12293508D01*
X14655301Y-12293508D02*
X14674348Y-12283984D01*
X14979110Y-12483984D02*
X14979110Y-12283984D01*
X15064825Y-12483984D02*
X15064825Y-12379222D01*
X15064825Y-12379222D02*
X15055301Y-12360174D01*
X15055301Y-12360174D02*
X15036253Y-12350650D01*
X15036253Y-12350650D02*
X15007682Y-12350650D01*
X15007682Y-12350650D02*
X14988634Y-12360174D01*
X14988634Y-12360174D02*
X14979110Y-12369698D01*
X15188634Y-12483984D02*
X15169587Y-12474460D01*
X15169587Y-12474460D02*
X15160063Y-12464936D01*
X15160063Y-12464936D02*
X15150539Y-12445888D01*
X15150539Y-12445888D02*
X15150539Y-12388746D01*
X15150539Y-12388746D02*
X15160063Y-12369698D01*
X15160063Y-12369698D02*
X15169587Y-12360174D01*
X15169587Y-12360174D02*
X15188634Y-12350650D01*
X15188634Y-12350650D02*
X15217206Y-12350650D01*
X15217206Y-12350650D02*
X15236253Y-12360174D01*
X15236253Y-12360174D02*
X15245777Y-12369698D01*
X15245777Y-12369698D02*
X15255301Y-12388746D01*
X15255301Y-12388746D02*
X15255301Y-12445888D01*
X15255301Y-12445888D02*
X15245777Y-12464936D01*
X15245777Y-12464936D02*
X15236253Y-12474460D01*
X15236253Y-12474460D02*
X15217206Y-12483984D01*
X15217206Y-12483984D02*
X15188634Y-12483984D01*
X15369587Y-12483984D02*
X15350539Y-12474460D01*
X15350539Y-12474460D02*
X15341015Y-12455412D01*
X15341015Y-12455412D02*
X15341015Y-12283984D01*
X15521968Y-12474460D02*
X15502920Y-12483984D01*
X15502920Y-12483984D02*
X15464825Y-12483984D01*
X15464825Y-12483984D02*
X15445777Y-12474460D01*
X15445777Y-12474460D02*
X15436253Y-12455412D01*
X15436253Y-12455412D02*
X15436253Y-12379222D01*
X15436253Y-12379222D02*
X15445777Y-12360174D01*
X15445777Y-12360174D02*
X15464825Y-12350650D01*
X15464825Y-12350650D02*
X15502920Y-12350650D01*
X15502920Y-12350650D02*
X15521968Y-12360174D01*
X15521968Y-12360174D02*
X15531491Y-12379222D01*
X15531491Y-12379222D02*
X15531491Y-12398269D01*
X15531491Y-12398269D02*
X15436253Y-12417317D01*
X15607682Y-12474460D02*
X15626730Y-12483984D01*
X15626730Y-12483984D02*
X15664825Y-12483984D01*
X15664825Y-12483984D02*
X15683872Y-12474460D01*
X15683872Y-12474460D02*
X15693396Y-12455412D01*
X15693396Y-12455412D02*
X15693396Y-12445888D01*
X15693396Y-12445888D02*
X15683872Y-12426841D01*
X15683872Y-12426841D02*
X15664825Y-12417317D01*
X15664825Y-12417317D02*
X15636253Y-12417317D01*
X15636253Y-12417317D02*
X15617206Y-12407793D01*
X15617206Y-12407793D02*
X15607682Y-12388746D01*
X15607682Y-12388746D02*
X15607682Y-12379222D01*
X15607682Y-12379222D02*
X15617206Y-12360174D01*
X15617206Y-12360174D02*
X15636253Y-12350650D01*
X15636253Y-12350650D02*
X15664825Y-12350650D01*
X15664825Y-12350650D02*
X15683872Y-12360174D01*
X15931492Y-12407793D02*
X16083873Y-12407793D01*
X16007682Y-12483984D02*
X16007682Y-12331603D01*
X16321968Y-12303031D02*
X16331492Y-12293508D01*
X16331492Y-12293508D02*
X16350539Y-12283984D01*
X16350539Y-12283984D02*
X16398158Y-12283984D01*
X16398158Y-12283984D02*
X16417206Y-12293508D01*
X16417206Y-12293508D02*
X16426730Y-12303031D01*
X16426730Y-12303031D02*
X16436253Y-12322079D01*
X16436253Y-12322079D02*
X16436253Y-12341127D01*
X16436253Y-12341127D02*
X16426730Y-12369698D01*
X16426730Y-12369698D02*
X16312444Y-12483984D01*
X16312444Y-12483984D02*
X16436253Y-12483984D01*
X16664825Y-12474460D02*
X16683873Y-12483984D01*
X16683873Y-12483984D02*
X16721968Y-12483984D01*
X16721968Y-12483984D02*
X16741015Y-12474460D01*
X16741015Y-12474460D02*
X16750539Y-12455412D01*
X16750539Y-12455412D02*
X16750539Y-12445888D01*
X16750539Y-12445888D02*
X16741015Y-12426841D01*
X16741015Y-12426841D02*
X16721968Y-12417317D01*
X16721968Y-12417317D02*
X16693396Y-12417317D01*
X16693396Y-12417317D02*
X16674349Y-12407793D01*
X16674349Y-12407793D02*
X16664825Y-12388746D01*
X16664825Y-12388746D02*
X16664825Y-12379222D01*
X16664825Y-12379222D02*
X16674349Y-12360174D01*
X16674349Y-12360174D02*
X16693396Y-12350650D01*
X16693396Y-12350650D02*
X16721968Y-12350650D01*
X16721968Y-12350650D02*
X16741015Y-12360174D01*
X16864825Y-12483984D02*
X16845777Y-12474460D01*
X16845777Y-12474460D02*
X16836254Y-12455412D01*
X16836254Y-12455412D02*
X16836254Y-12283984D01*
X16969587Y-12483984D02*
X16950539Y-12474460D01*
X16950539Y-12474460D02*
X16941016Y-12464936D01*
X16941016Y-12464936D02*
X16931492Y-12445888D01*
X16931492Y-12445888D02*
X16931492Y-12388746D01*
X16931492Y-12388746D02*
X16941016Y-12369698D01*
X16941016Y-12369698D02*
X16950539Y-12360174D01*
X16950539Y-12360174D02*
X16969587Y-12350650D01*
X16969587Y-12350650D02*
X16998158Y-12350650D01*
X16998158Y-12350650D02*
X17017206Y-12360174D01*
X17017206Y-12360174D02*
X17026730Y-12369698D01*
X17026730Y-12369698D02*
X17036254Y-12388746D01*
X17036254Y-12388746D02*
X17036254Y-12445888D01*
X17036254Y-12445888D02*
X17026730Y-12464936D01*
X17026730Y-12464936D02*
X17017206Y-12474460D01*
X17017206Y-12474460D02*
X16998158Y-12483984D01*
X16998158Y-12483984D02*
X16969587Y-12483984D01*
X17093397Y-12350650D02*
X17169587Y-12350650D01*
X17121968Y-12283984D02*
X17121968Y-12455412D01*
X17121968Y-12455412D02*
X17131492Y-12474460D01*
X17131492Y-12474460D02*
X17150539Y-12483984D01*
X17150539Y-12483984D02*
X17169587Y-12483984D01*
X17226730Y-12474460D02*
X17245777Y-12483984D01*
X17245777Y-12483984D02*
X17283873Y-12483984D01*
X17283873Y-12483984D02*
X17302920Y-12474460D01*
X17302920Y-12474460D02*
X17312444Y-12455412D01*
X17312444Y-12455412D02*
X17312444Y-12445888D01*
X17312444Y-12445888D02*
X17302920Y-12426841D01*
X17302920Y-12426841D02*
X17283873Y-12417317D01*
X17283873Y-12417317D02*
X17255301Y-12417317D01*
X17255301Y-12417317D02*
X17236254Y-12407793D01*
X17236254Y-12407793D02*
X17226730Y-12388746D01*
X17226730Y-12388746D02*
X17226730Y-12379222D01*
X17226730Y-12379222D02*
X17236254Y-12360174D01*
X17236254Y-12360174D02*
X17255301Y-12350650D01*
X17255301Y-12350650D02*
X17283873Y-12350650D01*
X17283873Y-12350650D02*
X17302920Y-12360174D01*
X17379111Y-12560174D02*
X17388635Y-12550650D01*
X17388635Y-12550650D02*
X17407682Y-12522079D01*
X17407682Y-12522079D02*
X17417206Y-12503031D01*
X17417206Y-12503031D02*
X17426730Y-12474460D01*
X17426730Y-12474460D02*
X17436254Y-12426841D01*
X17436254Y-12426841D02*
X17436254Y-12388746D01*
X17436254Y-12388746D02*
X17426730Y-12341127D01*
X17426730Y-12341127D02*
X17417206Y-12312555D01*
X17417206Y-12312555D02*
X17407682Y-12293508D01*
X17407682Y-12293508D02*
X17388635Y-12264936D01*
X17388635Y-12264936D02*
X17379111Y-12255412D01*
D10*
X10885000Y-12606500D02*
X10985000Y-12706500D01*
X10985000Y-12606500D02*
X10885000Y-12706500D01*
X10985000Y-12656500D02*
G75*
G03*
X10985000Y-12656500I-50000J0D01*
G01*
D11*
X11350539Y-12747984D02*
X11236253Y-12747984D01*
X11293396Y-12747984D02*
X11293396Y-12547984D01*
X11293396Y-12547984D02*
X11274348Y-12576555D01*
X11274348Y-12576555D02*
X11255301Y-12595603D01*
X11255301Y-12595603D02*
X11236253Y-12605127D01*
X11436253Y-12728936D02*
X11445777Y-12738460D01*
X11445777Y-12738460D02*
X11436253Y-12747984D01*
X11436253Y-12747984D02*
X11426729Y-12738460D01*
X11426729Y-12738460D02*
X11436253Y-12728936D01*
X11436253Y-12728936D02*
X11436253Y-12747984D01*
X11569586Y-12547984D02*
X11588634Y-12547984D01*
X11588634Y-12547984D02*
X11607682Y-12557508D01*
X11607682Y-12557508D02*
X11617205Y-12567031D01*
X11617205Y-12567031D02*
X11626729Y-12586079D01*
X11626729Y-12586079D02*
X11636253Y-12624174D01*
X11636253Y-12624174D02*
X11636253Y-12671793D01*
X11636253Y-12671793D02*
X11626729Y-12709888D01*
X11626729Y-12709888D02*
X11617205Y-12728936D01*
X11617205Y-12728936D02*
X11607682Y-12738460D01*
X11607682Y-12738460D02*
X11588634Y-12747984D01*
X11588634Y-12747984D02*
X11569586Y-12747984D01*
X11569586Y-12747984D02*
X11550539Y-12738460D01*
X11550539Y-12738460D02*
X11541015Y-12728936D01*
X11541015Y-12728936D02*
X11531491Y-12709888D01*
X11531491Y-12709888D02*
X11521967Y-12671793D01*
X11521967Y-12671793D02*
X11521967Y-12624174D01*
X11521967Y-12624174D02*
X11531491Y-12586079D01*
X11531491Y-12586079D02*
X11541015Y-12567031D01*
X11541015Y-12567031D02*
X11550539Y-12557508D01*
X11550539Y-12557508D02*
X11569586Y-12547984D01*
X11760062Y-12547984D02*
X11779110Y-12547984D01*
X11779110Y-12547984D02*
X11798158Y-12557508D01*
X11798158Y-12557508D02*
X11807682Y-12567031D01*
X11807682Y-12567031D02*
X11817205Y-12586079D01*
X11817205Y-12586079D02*
X11826729Y-12624174D01*
X11826729Y-12624174D02*
X11826729Y-12671793D01*
X11826729Y-12671793D02*
X11817205Y-12709888D01*
X11817205Y-12709888D02*
X11807682Y-12728936D01*
X11807682Y-12728936D02*
X11798158Y-12738460D01*
X11798158Y-12738460D02*
X11779110Y-12747984D01*
X11779110Y-12747984D02*
X11760062Y-12747984D01*
X11760062Y-12747984D02*
X11741015Y-12738460D01*
X11741015Y-12738460D02*
X11731491Y-12728936D01*
X11731491Y-12728936D02*
X11721967Y-12709888D01*
X11721967Y-12709888D02*
X11712443Y-12671793D01*
X11712443Y-12671793D02*
X11712443Y-12624174D01*
X11712443Y-12624174D02*
X11721967Y-12586079D01*
X11721967Y-12586079D02*
X11731491Y-12567031D01*
X11731491Y-12567031D02*
X11741015Y-12557508D01*
X11741015Y-12557508D02*
X11760062Y-12547984D01*
X11950539Y-12547984D02*
X11969586Y-12547984D01*
X11969586Y-12547984D02*
X11988634Y-12557508D01*
X11988634Y-12557508D02*
X11998158Y-12567031D01*
X11998158Y-12567031D02*
X12007682Y-12586079D01*
X12007682Y-12586079D02*
X12017205Y-12624174D01*
X12017205Y-12624174D02*
X12017205Y-12671793D01*
X12017205Y-12671793D02*
X12007682Y-12709888D01*
X12007682Y-12709888D02*
X11998158Y-12728936D01*
X11998158Y-12728936D02*
X11988634Y-12738460D01*
X11988634Y-12738460D02*
X11969586Y-12747984D01*
X11969586Y-12747984D02*
X11950539Y-12747984D01*
X11950539Y-12747984D02*
X11931491Y-12738460D01*
X11931491Y-12738460D02*
X11921967Y-12728936D01*
X11921967Y-12728936D02*
X11912443Y-12709888D01*
X11912443Y-12709888D02*
X11902920Y-12671793D01*
X11902920Y-12671793D02*
X11902920Y-12624174D01*
X11902920Y-12624174D02*
X11912443Y-12586079D01*
X11912443Y-12586079D02*
X11921967Y-12567031D01*
X11921967Y-12567031D02*
X11931491Y-12557508D01*
X11931491Y-12557508D02*
X11950539Y-12547984D01*
X12102920Y-12747984D02*
X12102920Y-12614650D01*
X12102920Y-12633698D02*
X12112443Y-12624174D01*
X12112443Y-12624174D02*
X12131491Y-12614650D01*
X12131491Y-12614650D02*
X12160063Y-12614650D01*
X12160063Y-12614650D02*
X12179110Y-12624174D01*
X12179110Y-12624174D02*
X12188634Y-12643222D01*
X12188634Y-12643222D02*
X12188634Y-12747984D01*
X12188634Y-12643222D02*
X12198158Y-12624174D01*
X12198158Y-12624174D02*
X12217205Y-12614650D01*
X12217205Y-12614650D02*
X12245777Y-12614650D01*
X12245777Y-12614650D02*
X12264824Y-12624174D01*
X12264824Y-12624174D02*
X12274348Y-12643222D01*
X12274348Y-12643222D02*
X12274348Y-12747984D01*
X12369586Y-12747984D02*
X12369586Y-12614650D01*
X12369586Y-12633698D02*
X12379110Y-12624174D01*
X12379110Y-12624174D02*
X12398158Y-12614650D01*
X12398158Y-12614650D02*
X12426729Y-12614650D01*
X12426729Y-12614650D02*
X12445777Y-12624174D01*
X12445777Y-12624174D02*
X12455301Y-12643222D01*
X12455301Y-12643222D02*
X12455301Y-12747984D01*
X12455301Y-12643222D02*
X12464824Y-12624174D01*
X12464824Y-12624174D02*
X12483872Y-12614650D01*
X12483872Y-12614650D02*
X12512443Y-12614650D01*
X12512443Y-12614650D02*
X12531491Y-12624174D01*
X12531491Y-12624174D02*
X12541015Y-12643222D01*
X12541015Y-12643222D02*
X12541015Y-12747984D01*
X12931491Y-12538460D02*
X12760063Y-12795603D01*
X13188634Y-12547984D02*
X13207682Y-12547984D01*
X13207682Y-12547984D02*
X13226729Y-12557508D01*
X13226729Y-12557508D02*
X13236253Y-12567031D01*
X13236253Y-12567031D02*
X13245777Y-12586079D01*
X13245777Y-12586079D02*
X13255301Y-12624174D01*
X13255301Y-12624174D02*
X13255301Y-12671793D01*
X13255301Y-12671793D02*
X13245777Y-12709888D01*
X13245777Y-12709888D02*
X13236253Y-12728936D01*
X13236253Y-12728936D02*
X13226729Y-12738460D01*
X13226729Y-12738460D02*
X13207682Y-12747984D01*
X13207682Y-12747984D02*
X13188634Y-12747984D01*
X13188634Y-12747984D02*
X13169586Y-12738460D01*
X13169586Y-12738460D02*
X13160063Y-12728936D01*
X13160063Y-12728936D02*
X13150539Y-12709888D01*
X13150539Y-12709888D02*
X13141015Y-12671793D01*
X13141015Y-12671793D02*
X13141015Y-12624174D01*
X13141015Y-12624174D02*
X13150539Y-12586079D01*
X13150539Y-12586079D02*
X13160063Y-12567031D01*
X13160063Y-12567031D02*
X13169586Y-12557508D01*
X13169586Y-12557508D02*
X13188634Y-12547984D01*
X13341015Y-12728936D02*
X13350539Y-12738460D01*
X13350539Y-12738460D02*
X13341015Y-12747984D01*
X13341015Y-12747984D02*
X13331491Y-12738460D01*
X13331491Y-12738460D02*
X13341015Y-12728936D01*
X13341015Y-12728936D02*
X13341015Y-12747984D01*
X13474348Y-12547984D02*
X13493396Y-12547984D01*
X13493396Y-12547984D02*
X13512444Y-12557508D01*
X13512444Y-12557508D02*
X13521967Y-12567031D01*
X13521967Y-12567031D02*
X13531491Y-12586079D01*
X13531491Y-12586079D02*
X13541015Y-12624174D01*
X13541015Y-12624174D02*
X13541015Y-12671793D01*
X13541015Y-12671793D02*
X13531491Y-12709888D01*
X13531491Y-12709888D02*
X13521967Y-12728936D01*
X13521967Y-12728936D02*
X13512444Y-12738460D01*
X13512444Y-12738460D02*
X13493396Y-12747984D01*
X13493396Y-12747984D02*
X13474348Y-12747984D01*
X13474348Y-12747984D02*
X13455301Y-12738460D01*
X13455301Y-12738460D02*
X13445777Y-12728936D01*
X13445777Y-12728936D02*
X13436253Y-12709888D01*
X13436253Y-12709888D02*
X13426729Y-12671793D01*
X13426729Y-12671793D02*
X13426729Y-12624174D01*
X13426729Y-12624174D02*
X13436253Y-12586079D01*
X13436253Y-12586079D02*
X13445777Y-12567031D01*
X13445777Y-12567031D02*
X13455301Y-12557508D01*
X13455301Y-12557508D02*
X13474348Y-12547984D01*
X13607682Y-12547984D02*
X13731491Y-12547984D01*
X13731491Y-12547984D02*
X13664825Y-12624174D01*
X13664825Y-12624174D02*
X13693396Y-12624174D01*
X13693396Y-12624174D02*
X13712444Y-12633698D01*
X13712444Y-12633698D02*
X13721967Y-12643222D01*
X13721967Y-12643222D02*
X13731491Y-12662269D01*
X13731491Y-12662269D02*
X13731491Y-12709888D01*
X13731491Y-12709888D02*
X13721967Y-12728936D01*
X13721967Y-12728936D02*
X13712444Y-12738460D01*
X13712444Y-12738460D02*
X13693396Y-12747984D01*
X13693396Y-12747984D02*
X13636253Y-12747984D01*
X13636253Y-12747984D02*
X13617206Y-12738460D01*
X13617206Y-12738460D02*
X13607682Y-12728936D01*
X13826729Y-12747984D02*
X13864825Y-12747984D01*
X13864825Y-12747984D02*
X13883872Y-12738460D01*
X13883872Y-12738460D02*
X13893396Y-12728936D01*
X13893396Y-12728936D02*
X13912444Y-12700365D01*
X13912444Y-12700365D02*
X13921967Y-12662269D01*
X13921967Y-12662269D02*
X13921967Y-12586079D01*
X13921967Y-12586079D02*
X13912444Y-12567031D01*
X13912444Y-12567031D02*
X13902920Y-12557508D01*
X13902920Y-12557508D02*
X13883872Y-12547984D01*
X13883872Y-12547984D02*
X13845777Y-12547984D01*
X13845777Y-12547984D02*
X13826729Y-12557508D01*
X13826729Y-12557508D02*
X13817206Y-12567031D01*
X13817206Y-12567031D02*
X13807682Y-12586079D01*
X13807682Y-12586079D02*
X13807682Y-12633698D01*
X13807682Y-12633698D02*
X13817206Y-12652746D01*
X13817206Y-12652746D02*
X13826729Y-12662269D01*
X13826729Y-12662269D02*
X13845777Y-12671793D01*
X13845777Y-12671793D02*
X13883872Y-12671793D01*
X13883872Y-12671793D02*
X13902920Y-12662269D01*
X13902920Y-12662269D02*
X13912444Y-12652746D01*
X13912444Y-12652746D02*
X13921967Y-12633698D01*
X14093396Y-12614650D02*
X14093396Y-12747984D01*
X14045777Y-12538460D02*
X13998158Y-12681317D01*
X13998158Y-12681317D02*
X14121967Y-12681317D01*
X14188634Y-12547984D02*
X14188634Y-12586079D01*
X14264825Y-12547984D02*
X14264825Y-12586079D01*
X14560063Y-12824174D02*
X14550539Y-12814650D01*
X14550539Y-12814650D02*
X14531491Y-12786079D01*
X14531491Y-12786079D02*
X14521968Y-12767031D01*
X14521968Y-12767031D02*
X14512444Y-12738460D01*
X14512444Y-12738460D02*
X14502920Y-12690841D01*
X14502920Y-12690841D02*
X14502920Y-12652746D01*
X14502920Y-12652746D02*
X14512444Y-12605127D01*
X14512444Y-12605127D02*
X14521968Y-12576555D01*
X14521968Y-12576555D02*
X14531491Y-12557508D01*
X14531491Y-12557508D02*
X14550539Y-12528936D01*
X14550539Y-12528936D02*
X14560063Y-12519412D01*
X14741015Y-12747984D02*
X14626729Y-12747984D01*
X14683872Y-12747984D02*
X14683872Y-12547984D01*
X14683872Y-12547984D02*
X14664825Y-12576555D01*
X14664825Y-12576555D02*
X14645777Y-12595603D01*
X14645777Y-12595603D02*
X14626729Y-12605127D01*
X14912444Y-12547984D02*
X14874348Y-12547984D01*
X14874348Y-12547984D02*
X14855301Y-12557508D01*
X14855301Y-12557508D02*
X14845777Y-12567031D01*
X14845777Y-12567031D02*
X14826729Y-12595603D01*
X14826729Y-12595603D02*
X14817206Y-12633698D01*
X14817206Y-12633698D02*
X14817206Y-12709888D01*
X14817206Y-12709888D02*
X14826729Y-12728936D01*
X14826729Y-12728936D02*
X14836253Y-12738460D01*
X14836253Y-12738460D02*
X14855301Y-12747984D01*
X14855301Y-12747984D02*
X14893396Y-12747984D01*
X14893396Y-12747984D02*
X14912444Y-12738460D01*
X14912444Y-12738460D02*
X14921968Y-12728936D01*
X14921968Y-12728936D02*
X14931491Y-12709888D01*
X14931491Y-12709888D02*
X14931491Y-12662269D01*
X14931491Y-12662269D02*
X14921968Y-12643222D01*
X14921968Y-12643222D02*
X14912444Y-12633698D01*
X14912444Y-12633698D02*
X14893396Y-12624174D01*
X14893396Y-12624174D02*
X14855301Y-12624174D01*
X14855301Y-12624174D02*
X14836253Y-12633698D01*
X14836253Y-12633698D02*
X14826729Y-12643222D01*
X14826729Y-12643222D02*
X14817206Y-12662269D01*
X15169587Y-12747984D02*
X15169587Y-12547984D01*
X15255301Y-12747984D02*
X15255301Y-12643222D01*
X15255301Y-12643222D02*
X15245777Y-12624174D01*
X15245777Y-12624174D02*
X15226730Y-12614650D01*
X15226730Y-12614650D02*
X15198158Y-12614650D01*
X15198158Y-12614650D02*
X15179110Y-12624174D01*
X15179110Y-12624174D02*
X15169587Y-12633698D01*
X15379110Y-12747984D02*
X15360063Y-12738460D01*
X15360063Y-12738460D02*
X15350539Y-12728936D01*
X15350539Y-12728936D02*
X15341015Y-12709888D01*
X15341015Y-12709888D02*
X15341015Y-12652746D01*
X15341015Y-12652746D02*
X15350539Y-12633698D01*
X15350539Y-12633698D02*
X15360063Y-12624174D01*
X15360063Y-12624174D02*
X15379110Y-12614650D01*
X15379110Y-12614650D02*
X15407682Y-12614650D01*
X15407682Y-12614650D02*
X15426730Y-12624174D01*
X15426730Y-12624174D02*
X15436253Y-12633698D01*
X15436253Y-12633698D02*
X15445777Y-12652746D01*
X15445777Y-12652746D02*
X15445777Y-12709888D01*
X15445777Y-12709888D02*
X15436253Y-12728936D01*
X15436253Y-12728936D02*
X15426730Y-12738460D01*
X15426730Y-12738460D02*
X15407682Y-12747984D01*
X15407682Y-12747984D02*
X15379110Y-12747984D01*
X15560063Y-12747984D02*
X15541015Y-12738460D01*
X15541015Y-12738460D02*
X15531491Y-12719412D01*
X15531491Y-12719412D02*
X15531491Y-12547984D01*
X15712444Y-12738460D02*
X15693396Y-12747984D01*
X15693396Y-12747984D02*
X15655301Y-12747984D01*
X15655301Y-12747984D02*
X15636253Y-12738460D01*
X15636253Y-12738460D02*
X15626730Y-12719412D01*
X15626730Y-12719412D02*
X15626730Y-12643222D01*
X15626730Y-12643222D02*
X15636253Y-12624174D01*
X15636253Y-12624174D02*
X15655301Y-12614650D01*
X15655301Y-12614650D02*
X15693396Y-12614650D01*
X15693396Y-12614650D02*
X15712444Y-12624174D01*
X15712444Y-12624174D02*
X15721968Y-12643222D01*
X15721968Y-12643222D02*
X15721968Y-12662269D01*
X15721968Y-12662269D02*
X15626730Y-12681317D01*
X15798158Y-12738460D02*
X15817206Y-12747984D01*
X15817206Y-12747984D02*
X15855301Y-12747984D01*
X15855301Y-12747984D02*
X15874349Y-12738460D01*
X15874349Y-12738460D02*
X15883872Y-12719412D01*
X15883872Y-12719412D02*
X15883872Y-12709888D01*
X15883872Y-12709888D02*
X15874349Y-12690841D01*
X15874349Y-12690841D02*
X15855301Y-12681317D01*
X15855301Y-12681317D02*
X15826730Y-12681317D01*
X15826730Y-12681317D02*
X15807682Y-12671793D01*
X15807682Y-12671793D02*
X15798158Y-12652746D01*
X15798158Y-12652746D02*
X15798158Y-12643222D01*
X15798158Y-12643222D02*
X15807682Y-12624174D01*
X15807682Y-12624174D02*
X15826730Y-12614650D01*
X15826730Y-12614650D02*
X15855301Y-12614650D01*
X15855301Y-12614650D02*
X15874349Y-12624174D01*
X16121968Y-12671793D02*
X16274349Y-12671793D01*
X16198158Y-12747984D02*
X16198158Y-12595603D01*
X16502920Y-12547984D02*
X16626730Y-12547984D01*
X16626730Y-12547984D02*
X16560063Y-12624174D01*
X16560063Y-12624174D02*
X16588634Y-12624174D01*
X16588634Y-12624174D02*
X16607682Y-12633698D01*
X16607682Y-12633698D02*
X16617206Y-12643222D01*
X16617206Y-12643222D02*
X16626730Y-12662269D01*
X16626730Y-12662269D02*
X16626730Y-12709888D01*
X16626730Y-12709888D02*
X16617206Y-12728936D01*
X16617206Y-12728936D02*
X16607682Y-12738460D01*
X16607682Y-12738460D02*
X16588634Y-12747984D01*
X16588634Y-12747984D02*
X16531492Y-12747984D01*
X16531492Y-12747984D02*
X16512444Y-12738460D01*
X16512444Y-12738460D02*
X16502920Y-12728936D01*
X16855301Y-12738460D02*
X16874349Y-12747984D01*
X16874349Y-12747984D02*
X16912444Y-12747984D01*
X16912444Y-12747984D02*
X16931492Y-12738460D01*
X16931492Y-12738460D02*
X16941016Y-12719412D01*
X16941016Y-12719412D02*
X16941016Y-12709888D01*
X16941016Y-12709888D02*
X16931492Y-12690841D01*
X16931492Y-12690841D02*
X16912444Y-12681317D01*
X16912444Y-12681317D02*
X16883873Y-12681317D01*
X16883873Y-12681317D02*
X16864825Y-12671793D01*
X16864825Y-12671793D02*
X16855301Y-12652746D01*
X16855301Y-12652746D02*
X16855301Y-12643222D01*
X16855301Y-12643222D02*
X16864825Y-12624174D01*
X16864825Y-12624174D02*
X16883873Y-12614650D01*
X16883873Y-12614650D02*
X16912444Y-12614650D01*
X16912444Y-12614650D02*
X16931492Y-12624174D01*
X17055301Y-12747984D02*
X17036254Y-12738460D01*
X17036254Y-12738460D02*
X17026730Y-12719412D01*
X17026730Y-12719412D02*
X17026730Y-12547984D01*
X17160063Y-12747984D02*
X17141016Y-12738460D01*
X17141016Y-12738460D02*
X17131492Y-12728936D01*
X17131492Y-12728936D02*
X17121968Y-12709888D01*
X17121968Y-12709888D02*
X17121968Y-12652746D01*
X17121968Y-12652746D02*
X17131492Y-12633698D01*
X17131492Y-12633698D02*
X17141016Y-12624174D01*
X17141016Y-12624174D02*
X17160063Y-12614650D01*
X17160063Y-12614650D02*
X17188635Y-12614650D01*
X17188635Y-12614650D02*
X17207682Y-12624174D01*
X17207682Y-12624174D02*
X17217206Y-12633698D01*
X17217206Y-12633698D02*
X17226730Y-12652746D01*
X17226730Y-12652746D02*
X17226730Y-12709888D01*
X17226730Y-12709888D02*
X17217206Y-12728936D01*
X17217206Y-12728936D02*
X17207682Y-12738460D01*
X17207682Y-12738460D02*
X17188635Y-12747984D01*
X17188635Y-12747984D02*
X17160063Y-12747984D01*
X17283873Y-12614650D02*
X17360063Y-12614650D01*
X17312444Y-12547984D02*
X17312444Y-12719412D01*
X17312444Y-12719412D02*
X17321968Y-12738460D01*
X17321968Y-12738460D02*
X17341016Y-12747984D01*
X17341016Y-12747984D02*
X17360063Y-12747984D01*
X17417206Y-12738460D02*
X17436254Y-12747984D01*
X17436254Y-12747984D02*
X17474349Y-12747984D01*
X17474349Y-12747984D02*
X17493397Y-12738460D01*
X17493397Y-12738460D02*
X17502920Y-12719412D01*
X17502920Y-12719412D02*
X17502920Y-12709888D01*
X17502920Y-12709888D02*
X17493397Y-12690841D01*
X17493397Y-12690841D02*
X17474349Y-12681317D01*
X17474349Y-12681317D02*
X17445777Y-12681317D01*
X17445777Y-12681317D02*
X17426730Y-12671793D01*
X17426730Y-12671793D02*
X17417206Y-12652746D01*
X17417206Y-12652746D02*
X17417206Y-12643222D01*
X17417206Y-12643222D02*
X17426730Y-12624174D01*
X17426730Y-12624174D02*
X17445777Y-12614650D01*
X17445777Y-12614650D02*
X17474349Y-12614650D01*
X17474349Y-12614650D02*
X17493397Y-12624174D01*
X17569587Y-12824174D02*
X17579111Y-12814650D01*
X17579111Y-12814650D02*
X17598158Y-12786079D01*
X17598158Y-12786079D02*
X17607682Y-12767031D01*
X17607682Y-12767031D02*
X17617206Y-12738460D01*
X17617206Y-12738460D02*
X17626730Y-12690841D01*
X17626730Y-12690841D02*
X17626730Y-12652746D01*
X17626730Y-12652746D02*
X17617206Y-12605127D01*
X17617206Y-12605127D02*
X17607682Y-12576555D01*
X17607682Y-12576555D02*
X17598158Y-12557508D01*
X17598158Y-12557508D02*
X17579111Y-12528936D01*
X17579111Y-12528936D02*
X17569587Y-12519412D01*
D16*
X10825000Y-12840500D02*
X10985000Y-13000500D01*
X10985000Y-12840500D02*
X10825000Y-13000500D01*
X10905000Y-12840500D02*
X10905000Y-13000500D01*
X10825000Y-12920500D02*
X10985000Y-12920500D01*
D11*
X11350539Y-13011984D02*
X11236253Y-13011984D01*
X11293396Y-13011984D02*
X11293396Y-12811984D01*
X11293396Y-12811984D02*
X11274348Y-12840555D01*
X11274348Y-12840555D02*
X11255301Y-12859603D01*
X11255301Y-12859603D02*
X11236253Y-12869127D01*
X11436253Y-12992936D02*
X11445777Y-13002460D01*
X11445777Y-13002460D02*
X11436253Y-13011984D01*
X11436253Y-13011984D02*
X11426729Y-13002460D01*
X11426729Y-13002460D02*
X11436253Y-12992936D01*
X11436253Y-12992936D02*
X11436253Y-13011984D01*
X11617205Y-12811984D02*
X11579110Y-12811984D01*
X11579110Y-12811984D02*
X11560062Y-12821508D01*
X11560062Y-12821508D02*
X11550539Y-12831031D01*
X11550539Y-12831031D02*
X11531491Y-12859603D01*
X11531491Y-12859603D02*
X11521967Y-12897698D01*
X11521967Y-12897698D02*
X11521967Y-12973888D01*
X11521967Y-12973888D02*
X11531491Y-12992936D01*
X11531491Y-12992936D02*
X11541015Y-13002460D01*
X11541015Y-13002460D02*
X11560062Y-13011984D01*
X11560062Y-13011984D02*
X11598158Y-13011984D01*
X11598158Y-13011984D02*
X11617205Y-13002460D01*
X11617205Y-13002460D02*
X11626729Y-12992936D01*
X11626729Y-12992936D02*
X11636253Y-12973888D01*
X11636253Y-12973888D02*
X11636253Y-12926269D01*
X11636253Y-12926269D02*
X11626729Y-12907222D01*
X11626729Y-12907222D02*
X11617205Y-12897698D01*
X11617205Y-12897698D02*
X11598158Y-12888174D01*
X11598158Y-12888174D02*
X11560062Y-12888174D01*
X11560062Y-12888174D02*
X11541015Y-12897698D01*
X11541015Y-12897698D02*
X11531491Y-12907222D01*
X11531491Y-12907222D02*
X11521967Y-12926269D01*
X11760062Y-12811984D02*
X11779110Y-12811984D01*
X11779110Y-12811984D02*
X11798158Y-12821508D01*
X11798158Y-12821508D02*
X11807682Y-12831031D01*
X11807682Y-12831031D02*
X11817205Y-12850079D01*
X11817205Y-12850079D02*
X11826729Y-12888174D01*
X11826729Y-12888174D02*
X11826729Y-12935793D01*
X11826729Y-12935793D02*
X11817205Y-12973888D01*
X11817205Y-12973888D02*
X11807682Y-12992936D01*
X11807682Y-12992936D02*
X11798158Y-13002460D01*
X11798158Y-13002460D02*
X11779110Y-13011984D01*
X11779110Y-13011984D02*
X11760062Y-13011984D01*
X11760062Y-13011984D02*
X11741015Y-13002460D01*
X11741015Y-13002460D02*
X11731491Y-12992936D01*
X11731491Y-12992936D02*
X11721967Y-12973888D01*
X11721967Y-12973888D02*
X11712443Y-12935793D01*
X11712443Y-12935793D02*
X11712443Y-12888174D01*
X11712443Y-12888174D02*
X11721967Y-12850079D01*
X11721967Y-12850079D02*
X11731491Y-12831031D01*
X11731491Y-12831031D02*
X11741015Y-12821508D01*
X11741015Y-12821508D02*
X11760062Y-12811984D01*
X11950539Y-12811984D02*
X11969586Y-12811984D01*
X11969586Y-12811984D02*
X11988634Y-12821508D01*
X11988634Y-12821508D02*
X11998158Y-12831031D01*
X11998158Y-12831031D02*
X12007682Y-12850079D01*
X12007682Y-12850079D02*
X12017205Y-12888174D01*
X12017205Y-12888174D02*
X12017205Y-12935793D01*
X12017205Y-12935793D02*
X12007682Y-12973888D01*
X12007682Y-12973888D02*
X11998158Y-12992936D01*
X11998158Y-12992936D02*
X11988634Y-13002460D01*
X11988634Y-13002460D02*
X11969586Y-13011984D01*
X11969586Y-13011984D02*
X11950539Y-13011984D01*
X11950539Y-13011984D02*
X11931491Y-13002460D01*
X11931491Y-13002460D02*
X11921967Y-12992936D01*
X11921967Y-12992936D02*
X11912443Y-12973888D01*
X11912443Y-12973888D02*
X11902920Y-12935793D01*
X11902920Y-12935793D02*
X11902920Y-12888174D01*
X11902920Y-12888174D02*
X11912443Y-12850079D01*
X11912443Y-12850079D02*
X11921967Y-12831031D01*
X11921967Y-12831031D02*
X11931491Y-12821508D01*
X11931491Y-12821508D02*
X11950539Y-12811984D01*
X12102920Y-13011984D02*
X12102920Y-12878650D01*
X12102920Y-12897698D02*
X12112443Y-12888174D01*
X12112443Y-12888174D02*
X12131491Y-12878650D01*
X12131491Y-12878650D02*
X12160063Y-12878650D01*
X12160063Y-12878650D02*
X12179110Y-12888174D01*
X12179110Y-12888174D02*
X12188634Y-12907222D01*
X12188634Y-12907222D02*
X12188634Y-13011984D01*
X12188634Y-12907222D02*
X12198158Y-12888174D01*
X12198158Y-12888174D02*
X12217205Y-12878650D01*
X12217205Y-12878650D02*
X12245777Y-12878650D01*
X12245777Y-12878650D02*
X12264824Y-12888174D01*
X12264824Y-12888174D02*
X12274348Y-12907222D01*
X12274348Y-12907222D02*
X12274348Y-13011984D01*
X12369586Y-13011984D02*
X12369586Y-12878650D01*
X12369586Y-12897698D02*
X12379110Y-12888174D01*
X12379110Y-12888174D02*
X12398158Y-12878650D01*
X12398158Y-12878650D02*
X12426729Y-12878650D01*
X12426729Y-12878650D02*
X12445777Y-12888174D01*
X12445777Y-12888174D02*
X12455301Y-12907222D01*
X12455301Y-12907222D02*
X12455301Y-13011984D01*
X12455301Y-12907222D02*
X12464824Y-12888174D01*
X12464824Y-12888174D02*
X12483872Y-12878650D01*
X12483872Y-12878650D02*
X12512443Y-12878650D01*
X12512443Y-12878650D02*
X12531491Y-12888174D01*
X12531491Y-12888174D02*
X12541015Y-12907222D01*
X12541015Y-12907222D02*
X12541015Y-13011984D01*
X12931491Y-12802460D02*
X12760063Y-13059603D01*
X13188634Y-12811984D02*
X13207682Y-12811984D01*
X13207682Y-12811984D02*
X13226729Y-12821508D01*
X13226729Y-12821508D02*
X13236253Y-12831031D01*
X13236253Y-12831031D02*
X13245777Y-12850079D01*
X13245777Y-12850079D02*
X13255301Y-12888174D01*
X13255301Y-12888174D02*
X13255301Y-12935793D01*
X13255301Y-12935793D02*
X13245777Y-12973888D01*
X13245777Y-12973888D02*
X13236253Y-12992936D01*
X13236253Y-12992936D02*
X13226729Y-13002460D01*
X13226729Y-13002460D02*
X13207682Y-13011984D01*
X13207682Y-13011984D02*
X13188634Y-13011984D01*
X13188634Y-13011984D02*
X13169586Y-13002460D01*
X13169586Y-13002460D02*
X13160063Y-12992936D01*
X13160063Y-12992936D02*
X13150539Y-12973888D01*
X13150539Y-12973888D02*
X13141015Y-12935793D01*
X13141015Y-12935793D02*
X13141015Y-12888174D01*
X13141015Y-12888174D02*
X13150539Y-12850079D01*
X13150539Y-12850079D02*
X13160063Y-12831031D01*
X13160063Y-12831031D02*
X13169586Y-12821508D01*
X13169586Y-12821508D02*
X13188634Y-12811984D01*
X13341015Y-12992936D02*
X13350539Y-13002460D01*
X13350539Y-13002460D02*
X13341015Y-13011984D01*
X13341015Y-13011984D02*
X13331491Y-13002460D01*
X13331491Y-13002460D02*
X13341015Y-12992936D01*
X13341015Y-12992936D02*
X13341015Y-13011984D01*
X13474348Y-12811984D02*
X13493396Y-12811984D01*
X13493396Y-12811984D02*
X13512444Y-12821508D01*
X13512444Y-12821508D02*
X13521967Y-12831031D01*
X13521967Y-12831031D02*
X13531491Y-12850079D01*
X13531491Y-12850079D02*
X13541015Y-12888174D01*
X13541015Y-12888174D02*
X13541015Y-12935793D01*
X13541015Y-12935793D02*
X13531491Y-12973888D01*
X13531491Y-12973888D02*
X13521967Y-12992936D01*
X13521967Y-12992936D02*
X13512444Y-13002460D01*
X13512444Y-13002460D02*
X13493396Y-13011984D01*
X13493396Y-13011984D02*
X13474348Y-13011984D01*
X13474348Y-13011984D02*
X13455301Y-13002460D01*
X13455301Y-13002460D02*
X13445777Y-12992936D01*
X13445777Y-12992936D02*
X13436253Y-12973888D01*
X13436253Y-12973888D02*
X13426729Y-12935793D01*
X13426729Y-12935793D02*
X13426729Y-12888174D01*
X13426729Y-12888174D02*
X13436253Y-12850079D01*
X13436253Y-12850079D02*
X13445777Y-12831031D01*
X13445777Y-12831031D02*
X13455301Y-12821508D01*
X13455301Y-12821508D02*
X13474348Y-12811984D01*
X13712444Y-12811984D02*
X13674348Y-12811984D01*
X13674348Y-12811984D02*
X13655301Y-12821508D01*
X13655301Y-12821508D02*
X13645777Y-12831031D01*
X13645777Y-12831031D02*
X13626729Y-12859603D01*
X13626729Y-12859603D02*
X13617206Y-12897698D01*
X13617206Y-12897698D02*
X13617206Y-12973888D01*
X13617206Y-12973888D02*
X13626729Y-12992936D01*
X13626729Y-12992936D02*
X13636253Y-13002460D01*
X13636253Y-13002460D02*
X13655301Y-13011984D01*
X13655301Y-13011984D02*
X13693396Y-13011984D01*
X13693396Y-13011984D02*
X13712444Y-13002460D01*
X13712444Y-13002460D02*
X13721967Y-12992936D01*
X13721967Y-12992936D02*
X13731491Y-12973888D01*
X13731491Y-12973888D02*
X13731491Y-12926269D01*
X13731491Y-12926269D02*
X13721967Y-12907222D01*
X13721967Y-12907222D02*
X13712444Y-12897698D01*
X13712444Y-12897698D02*
X13693396Y-12888174D01*
X13693396Y-12888174D02*
X13655301Y-12888174D01*
X13655301Y-12888174D02*
X13636253Y-12897698D01*
X13636253Y-12897698D02*
X13626729Y-12907222D01*
X13626729Y-12907222D02*
X13617206Y-12926269D01*
X13798158Y-12811984D02*
X13921967Y-12811984D01*
X13921967Y-12811984D02*
X13855301Y-12888174D01*
X13855301Y-12888174D02*
X13883872Y-12888174D01*
X13883872Y-12888174D02*
X13902920Y-12897698D01*
X13902920Y-12897698D02*
X13912444Y-12907222D01*
X13912444Y-12907222D02*
X13921967Y-12926269D01*
X13921967Y-12926269D02*
X13921967Y-12973888D01*
X13921967Y-12973888D02*
X13912444Y-12992936D01*
X13912444Y-12992936D02*
X13902920Y-13002460D01*
X13902920Y-13002460D02*
X13883872Y-13011984D01*
X13883872Y-13011984D02*
X13826729Y-13011984D01*
X13826729Y-13011984D02*
X13807682Y-13002460D01*
X13807682Y-13002460D02*
X13798158Y-12992936D01*
X14045777Y-12811984D02*
X14064825Y-12811984D01*
X14064825Y-12811984D02*
X14083872Y-12821508D01*
X14083872Y-12821508D02*
X14093396Y-12831031D01*
X14093396Y-12831031D02*
X14102920Y-12850079D01*
X14102920Y-12850079D02*
X14112444Y-12888174D01*
X14112444Y-12888174D02*
X14112444Y-12935793D01*
X14112444Y-12935793D02*
X14102920Y-12973888D01*
X14102920Y-12973888D02*
X14093396Y-12992936D01*
X14093396Y-12992936D02*
X14083872Y-13002460D01*
X14083872Y-13002460D02*
X14064825Y-13011984D01*
X14064825Y-13011984D02*
X14045777Y-13011984D01*
X14045777Y-13011984D02*
X14026729Y-13002460D01*
X14026729Y-13002460D02*
X14017206Y-12992936D01*
X14017206Y-12992936D02*
X14007682Y-12973888D01*
X14007682Y-12973888D02*
X13998158Y-12935793D01*
X13998158Y-12935793D02*
X13998158Y-12888174D01*
X13998158Y-12888174D02*
X14007682Y-12850079D01*
X14007682Y-12850079D02*
X14017206Y-12831031D01*
X14017206Y-12831031D02*
X14026729Y-12821508D01*
X14026729Y-12821508D02*
X14045777Y-12811984D01*
X14188634Y-12811984D02*
X14188634Y-12850079D01*
X14264825Y-12811984D02*
X14264825Y-12850079D01*
X14560063Y-13088174D02*
X14550539Y-13078650D01*
X14550539Y-13078650D02*
X14531491Y-13050079D01*
X14531491Y-13050079D02*
X14521968Y-13031031D01*
X14521968Y-13031031D02*
X14512444Y-13002460D01*
X14512444Y-13002460D02*
X14502920Y-12954841D01*
X14502920Y-12954841D02*
X14502920Y-12916746D01*
X14502920Y-12916746D02*
X14512444Y-12869127D01*
X14512444Y-12869127D02*
X14521968Y-12840555D01*
X14521968Y-12840555D02*
X14531491Y-12821508D01*
X14531491Y-12821508D02*
X14550539Y-12792936D01*
X14550539Y-12792936D02*
X14560063Y-12783412D01*
X14617206Y-12811984D02*
X14741015Y-12811984D01*
X14741015Y-12811984D02*
X14674348Y-12888174D01*
X14674348Y-12888174D02*
X14702920Y-12888174D01*
X14702920Y-12888174D02*
X14721968Y-12897698D01*
X14721968Y-12897698D02*
X14731491Y-12907222D01*
X14731491Y-12907222D02*
X14741015Y-12926269D01*
X14741015Y-12926269D02*
X14741015Y-12973888D01*
X14741015Y-12973888D02*
X14731491Y-12992936D01*
X14731491Y-12992936D02*
X14721968Y-13002460D01*
X14721968Y-13002460D02*
X14702920Y-13011984D01*
X14702920Y-13011984D02*
X14645777Y-13011984D01*
X14645777Y-13011984D02*
X14626729Y-13002460D01*
X14626729Y-13002460D02*
X14617206Y-12992936D01*
X14979110Y-13011984D02*
X14979110Y-12811984D01*
X15064825Y-13011984D02*
X15064825Y-12907222D01*
X15064825Y-12907222D02*
X15055301Y-12888174D01*
X15055301Y-12888174D02*
X15036253Y-12878650D01*
X15036253Y-12878650D02*
X15007682Y-12878650D01*
X15007682Y-12878650D02*
X14988634Y-12888174D01*
X14988634Y-12888174D02*
X14979110Y-12897698D01*
X15188634Y-13011984D02*
X15169587Y-13002460D01*
X15169587Y-13002460D02*
X15160063Y-12992936D01*
X15160063Y-12992936D02*
X15150539Y-12973888D01*
X15150539Y-12973888D02*
X15150539Y-12916746D01*
X15150539Y-12916746D02*
X15160063Y-12897698D01*
X15160063Y-12897698D02*
X15169587Y-12888174D01*
X15169587Y-12888174D02*
X15188634Y-12878650D01*
X15188634Y-12878650D02*
X15217206Y-12878650D01*
X15217206Y-12878650D02*
X15236253Y-12888174D01*
X15236253Y-12888174D02*
X15245777Y-12897698D01*
X15245777Y-12897698D02*
X15255301Y-12916746D01*
X15255301Y-12916746D02*
X15255301Y-12973888D01*
X15255301Y-12973888D02*
X15245777Y-12992936D01*
X15245777Y-12992936D02*
X15236253Y-13002460D01*
X15236253Y-13002460D02*
X15217206Y-13011984D01*
X15217206Y-13011984D02*
X15188634Y-13011984D01*
X15369587Y-13011984D02*
X15350539Y-13002460D01*
X15350539Y-13002460D02*
X15341015Y-12983412D01*
X15341015Y-12983412D02*
X15341015Y-12811984D01*
X15521968Y-13002460D02*
X15502920Y-13011984D01*
X15502920Y-13011984D02*
X15464825Y-13011984D01*
X15464825Y-13011984D02*
X15445777Y-13002460D01*
X15445777Y-13002460D02*
X15436253Y-12983412D01*
X15436253Y-12983412D02*
X15436253Y-12907222D01*
X15436253Y-12907222D02*
X15445777Y-12888174D01*
X15445777Y-12888174D02*
X15464825Y-12878650D01*
X15464825Y-12878650D02*
X15502920Y-12878650D01*
X15502920Y-12878650D02*
X15521968Y-12888174D01*
X15521968Y-12888174D02*
X15531491Y-12907222D01*
X15531491Y-12907222D02*
X15531491Y-12926269D01*
X15531491Y-12926269D02*
X15436253Y-12945317D01*
X15607682Y-13002460D02*
X15626730Y-13011984D01*
X15626730Y-13011984D02*
X15664825Y-13011984D01*
X15664825Y-13011984D02*
X15683872Y-13002460D01*
X15683872Y-13002460D02*
X15693396Y-12983412D01*
X15693396Y-12983412D02*
X15693396Y-12973888D01*
X15693396Y-12973888D02*
X15683872Y-12954841D01*
X15683872Y-12954841D02*
X15664825Y-12945317D01*
X15664825Y-12945317D02*
X15636253Y-12945317D01*
X15636253Y-12945317D02*
X15617206Y-12935793D01*
X15617206Y-12935793D02*
X15607682Y-12916746D01*
X15607682Y-12916746D02*
X15607682Y-12907222D01*
X15607682Y-12907222D02*
X15617206Y-12888174D01*
X15617206Y-12888174D02*
X15636253Y-12878650D01*
X15636253Y-12878650D02*
X15664825Y-12878650D01*
X15664825Y-12878650D02*
X15683872Y-12888174D01*
X15760063Y-13088174D02*
X15769587Y-13078650D01*
X15769587Y-13078650D02*
X15788634Y-13050079D01*
X15788634Y-13050079D02*
X15798158Y-13031031D01*
X15798158Y-13031031D02*
X15807682Y-13002460D01*
X15807682Y-13002460D02*
X15817206Y-12954841D01*
X15817206Y-12954841D02*
X15817206Y-12916746D01*
X15817206Y-12916746D02*
X15807682Y-12869127D01*
X15807682Y-12869127D02*
X15798158Y-12840555D01*
X15798158Y-12840555D02*
X15788634Y-12821508D01*
X15788634Y-12821508D02*
X15769587Y-12792936D01*
X15769587Y-12792936D02*
X15760063Y-12783412D01*
M02*
