%TF.GenerationSoftware,KiCad,Pcbnew,7.0.5*%
%TF.CreationDate,2023-07-07T19:33:34+07:00*%
%TF.ProjectId,19-6-2023_WeatherStation_QuocThang_V1,31392d36-2d32-4303-9233-5f5765617468,rev?*%
%TF.SameCoordinates,Original*%
%TF.FileFunction,Copper,L2,Bot*%
%TF.FilePolarity,Positive*%
%FSLAX46Y46*%
G04 Gerber Fmt 4.6, Leading zero omitted, Abs format (unit mm)*
G04 Created by KiCad (PCBNEW 7.0.5) date 2023-07-07 19:33:34*
%MOMM*%
%LPD*%
G01*
G04 APERTURE LIST*
%TA.AperFunction,ComponentPad*%
%ADD10R,1.700000X1.700000*%
%TD*%
%TA.AperFunction,ComponentPad*%
%ADD11O,1.700000X1.700000*%
%TD*%
%TA.AperFunction,ComponentPad*%
%ADD12R,2.500000X2.500000*%
%TD*%
%TA.AperFunction,ComponentPad*%
%ADD13O,2.700000X2.700000*%
%TD*%
%TA.AperFunction,ComponentPad*%
%ADD14C,0.300000*%
%TD*%
%TA.AperFunction,ComponentPad*%
%ADD15O,1.800000X1.150000*%
%TD*%
%TA.AperFunction,ComponentPad*%
%ADD16O,2.000000X1.450000*%
%TD*%
%TA.AperFunction,ComponentPad*%
%ADD17O,4.400000X2.200000*%
%TD*%
%TA.AperFunction,ComponentPad*%
%ADD18O,4.000000X2.000000*%
%TD*%
%TA.AperFunction,ComponentPad*%
%ADD19O,2.000000X4.000000*%
%TD*%
%TA.AperFunction,ViaPad*%
%ADD20C,0.800000*%
%TD*%
%TA.AperFunction,ViaPad*%
%ADD21C,0.400000*%
%TD*%
%TA.AperFunction,Conductor*%
%ADD22C,0.762000*%
%TD*%
%TA.AperFunction,Conductor*%
%ADD23C,0.381000*%
%TD*%
%TA.AperFunction,Conductor*%
%ADD24C,0.508000*%
%TD*%
%TA.AperFunction,Conductor*%
%ADD25C,0.254000*%
%TD*%
%TA.AperFunction,Conductor*%
%ADD26C,1.016000*%
%TD*%
G04 APERTURE END LIST*
D10*
%TO.P,J4,1,Pin_1*%
%TO.N,+5V*%
X113540000Y-90140000D03*
D11*
%TO.P,J4,2,Pin_2*%
%TO.N,GND*%
X113540000Y-87600000D03*
%TO.P,J4,3,Pin_3*%
%TO.N,SPI_RESET*%
X113540000Y-85060000D03*
%TO.P,J4,4,Pin_4*%
%TO.N,SPI_CS0*%
X113540000Y-82520000D03*
%TO.P,J4,5,Pin_5*%
%TO.N,SPI_MOSI*%
X113540000Y-79980000D03*
%TO.P,J4,6,Pin_6*%
%TO.N,SPI_RS*%
X113540000Y-77440000D03*
%TO.P,J4,7,Pin_7*%
%TO.N,SPI_SCLK*%
X113540000Y-74900000D03*
%TO.P,J4,8,Pin_8*%
%TO.N,+3.3V*%
X113540000Y-72360000D03*
%TD*%
D10*
%TO.P,J5,1,Pin_1*%
%TO.N,Phase A*%
X113550000Y-58050000D03*
D11*
%TO.P,J5,2,Pin_2*%
%TO.N,Phase B*%
X113550000Y-60590000D03*
%TO.P,J5,3,Pin_3*%
%TO.N,SW*%
X113550000Y-63130000D03*
%TO.P,J5,4,Pin_4*%
%TO.N,+5V*%
X113550000Y-65670000D03*
%TO.P,J5,5,Pin_5*%
%TO.N,GND*%
X113550000Y-68210000D03*
%TD*%
D12*
%TO.P,SW4,1,LEFT*%
%TO.N,+5V*%
X168710000Y-75355000D03*
D13*
%TO.P,SW4,2,MID*%
%TO.N,Net-(SW4-MID)*%
X168710000Y-70655000D03*
%TO.P,SW4,3,RIGHT*%
%TO.N,V_USB*%
X168710000Y-65955000D03*
%TD*%
D14*
%TO.P,U4,39_10*%
%TO.N,N/C*%
X130970000Y-53440000D03*
%TO.P,U4,39_11*%
X132370000Y-53440000D03*
%TO.P,U4,39_12*%
X130270000Y-54140000D03*
%TO.P,U4,39_13*%
X131670000Y-54140000D03*
%TO.P,U4,39_14*%
X133070000Y-54140000D03*
%TO.P,U4,39_15*%
X130970000Y-54840000D03*
%TO.P,U4,39_16*%
X132370000Y-54840000D03*
%TO.P,U4,39_17*%
X130270000Y-55540000D03*
%TO.P,U4,39_18*%
X131670000Y-55540000D03*
%TO.P,U4,39_19*%
X133070000Y-55540000D03*
%TO.P,U4,39_20*%
X130970000Y-56240000D03*
%TO.P,U4,39_21*%
X132370000Y-56240000D03*
%TD*%
D15*
%TO.P,J2,6,Shield*%
%TO.N,GND*%
X177500000Y-57290000D03*
D16*
X173700000Y-57140000D03*
X173700000Y-49690000D03*
D15*
X177500000Y-49540000D03*
%TD*%
D10*
%TO.P,J6,1,Pin_1*%
%TO.N,+3.3V*%
X113520000Y-53595000D03*
D11*
%TO.P,J6,2,Pin_2*%
%TO.N,ONE WIRE*%
X113520000Y-51055000D03*
%TO.P,J6,3,Pin_3*%
%TO.N,GND*%
X113520000Y-48515000D03*
%TD*%
D17*
%TO.P,J1,1*%
%TO.N,Net-(F1-Pad1)*%
X167700000Y-95162500D03*
D18*
%TO.P,J1,2*%
%TO.N,GND*%
X167700000Y-101162500D03*
D19*
%TO.P,J1,3*%
X172400000Y-98162500D03*
%TD*%
D20*
%TO.N,V_USB*%
X170550000Y-60525700D03*
X170550000Y-57155000D03*
%TO.N,GND*%
X147250000Y-59858000D03*
X149030000Y-83735000D03*
X128654000Y-72190000D03*
X151560000Y-87895000D03*
D21*
X147166000Y-95399000D03*
D20*
X122920000Y-81765000D03*
D21*
X145642000Y-94383000D03*
D20*
X136500000Y-81765000D03*
D21*
X148182000Y-95399000D03*
D20*
X129100000Y-81785000D03*
X149040000Y-79935000D03*
X151560000Y-85355000D03*
X119750700Y-81775000D03*
D21*
X146150000Y-95399000D03*
D20*
X168560000Y-56285000D03*
X150290000Y-87895000D03*
X174940000Y-62025000D03*
X154370000Y-64635000D03*
X154370000Y-60885000D03*
D21*
X148182000Y-93875000D03*
X147674000Y-93875000D03*
D20*
X149040000Y-82475000D03*
X127130000Y-68888000D03*
X126368000Y-70666000D03*
D21*
X145642000Y-94891000D03*
D20*
X168585300Y-49690000D03*
X143335000Y-81735000D03*
D21*
X148182000Y-94891000D03*
D20*
X129670000Y-72190000D03*
D21*
X146658000Y-94383000D03*
D20*
X122750000Y-64700000D03*
X149040000Y-81205000D03*
D21*
X147166000Y-94891000D03*
X145642000Y-93870000D03*
D20*
X147770000Y-83745000D03*
X149020000Y-86612500D03*
D21*
X145642000Y-95399000D03*
X148182000Y-94383000D03*
X147674000Y-94383000D03*
D20*
X149020000Y-87895000D03*
X147770000Y-82475000D03*
X151580000Y-106145000D03*
D21*
X147166000Y-94383000D03*
D20*
X122750000Y-47100000D03*
D21*
X146658000Y-95399000D03*
D20*
X151560000Y-86625000D03*
X166150000Y-59905000D03*
X150290000Y-86625000D03*
D21*
X146150000Y-94383000D03*
D20*
X150290000Y-85355000D03*
X147750000Y-86625000D03*
X127329024Y-69849024D03*
X146500000Y-83745000D03*
X154400000Y-67384200D03*
X129680000Y-71174000D03*
D21*
X147166000Y-93875000D03*
X147674000Y-95399000D03*
X146658000Y-93875000D03*
D20*
X126368000Y-69650000D03*
D21*
X146150000Y-94891000D03*
D20*
X147750000Y-87895000D03*
D21*
X146150000Y-93875000D03*
X147674000Y-94891000D03*
X146658000Y-94891000D03*
D20*
X128091024Y-69087024D03*
%TO.N,FLASH*%
X175510000Y-68495000D03*
X151950000Y-61350000D03*
%TO.N,EN*%
X121610000Y-51025000D03*
X178170000Y-86815000D03*
X149080000Y-50415000D03*
%TO.N,BUTTON CHECK*%
X145170000Y-62365000D03*
X175760000Y-76735000D03*
%TO.N,+3.3V*%
X141310000Y-68495000D03*
X118600000Y-51950000D03*
X173750000Y-82925000D03*
X148460000Y-70785000D03*
X147190000Y-70785000D03*
X173750000Y-84195000D03*
X172480000Y-81655000D03*
X172480000Y-84195000D03*
X173740000Y-80380000D03*
X142580000Y-67225000D03*
X145920000Y-70785000D03*
X171210000Y-82925000D03*
X145920000Y-69515000D03*
X171210000Y-79115000D03*
X148450000Y-69515000D03*
X172480000Y-80385000D03*
X171210000Y-84195000D03*
X173750000Y-79115000D03*
X142580000Y-68495000D03*
X141310000Y-67225000D03*
X173750000Y-81655000D03*
X147180000Y-69515000D03*
X171210000Y-81655000D03*
X172480000Y-82925000D03*
X171210000Y-80385000D03*
X172480000Y-79115000D03*
%TO.N,Vin*%
X176870000Y-68495000D03*
X152727500Y-104067500D03*
%TO.N,Net-(U2-EN)*%
X147517000Y-89808000D03*
X142830000Y-103765000D03*
%TO.N,Net-(U5-~{DTR})*%
X154090000Y-50615000D03*
X161700000Y-46685000D03*
%TO.N,Net-(U5-~{RTS})*%
X152700000Y-50625000D03*
X160410000Y-46705500D03*
%TO.N,+5V*%
X125500000Y-89585000D03*
X134390000Y-89585000D03*
X121290000Y-89615000D03*
X126760000Y-87075000D03*
X118750000Y-89615000D03*
X137600000Y-77425000D03*
X130580000Y-89585000D03*
X136330000Y-77425000D03*
X147620000Y-74845000D03*
X164540000Y-76305000D03*
X138880000Y-77415000D03*
X118750000Y-88320000D03*
X137600000Y-78695000D03*
X117480000Y-88320000D03*
X126770000Y-89585000D03*
X147617000Y-76108000D03*
X130570000Y-87075000D03*
X124220000Y-87075000D03*
X130570000Y-88345000D03*
X138870000Y-78695000D03*
X117480000Y-89615000D03*
X124230000Y-89585000D03*
X136330000Y-78695000D03*
X164540000Y-77565000D03*
X133120000Y-89585000D03*
X120020000Y-87050000D03*
X147620000Y-73575000D03*
X165810000Y-77575000D03*
X121290000Y-87050000D03*
X131840000Y-88345000D03*
X133110000Y-87075000D03*
X165810000Y-75035000D03*
X134380000Y-87058000D03*
X131850000Y-89585000D03*
X122960000Y-88315000D03*
X120020000Y-88320000D03*
X129130000Y-89585000D03*
X131840000Y-87075000D03*
X126760000Y-88345000D03*
X120779700Y-69750000D03*
X156180000Y-52345000D03*
X118767000Y-87058000D03*
X147617000Y-77435000D03*
X156220000Y-48495000D03*
X129120000Y-88345000D03*
X164540000Y-75035000D03*
X120020000Y-89615000D03*
X121290000Y-88320000D03*
X117480000Y-87050000D03*
X134380000Y-88345000D03*
X165810000Y-76305000D03*
X129117000Y-87058000D03*
X137600000Y-79965000D03*
X136330000Y-79965000D03*
X125490000Y-88345000D03*
X124220000Y-88345000D03*
X122967000Y-87058000D03*
X125490000Y-87075000D03*
X122960000Y-89585000D03*
X138870000Y-79965000D03*
X133110000Y-88345000D03*
%TD*%
D22*
%TO.N,V_USB*%
X170550000Y-57155000D02*
X170560000Y-57145000D01*
X170550000Y-60525700D02*
X170550000Y-57155000D01*
D23*
%TO.N,GND*%
X136500000Y-81765000D02*
X143305000Y-81765000D01*
D24*
X154370000Y-64635000D02*
X154370000Y-67354200D01*
D23*
X143305000Y-81765000D02*
X143335000Y-81735000D01*
D25*
X155510000Y-62025000D02*
X154370000Y-60885000D01*
D22*
X147250000Y-59858000D02*
X147250000Y-66545000D01*
X151560000Y-106125000D02*
X151580000Y-106145000D01*
D25*
X174940000Y-62025000D02*
X155510000Y-62025000D01*
D22*
X147250000Y-66545000D02*
X148089200Y-67384200D01*
X122750000Y-64700000D02*
X122750000Y-55550000D01*
X148089200Y-67384200D02*
X154400000Y-67384200D01*
X168570000Y-56565000D02*
X166150000Y-58985000D01*
X122750000Y-55550000D02*
X122760000Y-55540000D01*
X166150000Y-58985000D02*
X166150000Y-59905000D01*
X149020000Y-86612500D02*
X149030000Y-86602500D01*
D24*
X154370000Y-67354200D02*
X154400000Y-67384200D01*
D23*
X119750700Y-81775000D02*
X119760700Y-81765000D01*
D22*
X122750000Y-47100000D02*
X122750000Y-55550000D01*
X122760000Y-55540000D02*
X130270000Y-55540000D01*
D23*
X119760700Y-81765000D02*
X122920000Y-81765000D01*
D22*
X151560000Y-87895000D02*
X151560000Y-106125000D01*
X168570000Y-49705300D02*
X168570000Y-56565000D01*
X149030000Y-86602500D02*
X149030000Y-83735000D01*
X168585300Y-49690000D02*
X168570000Y-49705300D01*
D23*
X122920000Y-81765000D02*
X136500000Y-81765000D01*
D25*
%TO.N,FLASH*%
X152880000Y-63495000D02*
X151950000Y-62565000D01*
X175510000Y-68495000D02*
X175510000Y-65635000D01*
X175510000Y-65635000D02*
X173370000Y-63495000D01*
X151950000Y-62565000D02*
X151950000Y-61350000D01*
X173370000Y-63495000D02*
X152880000Y-63495000D01*
%TO.N,EN*%
X149080000Y-50415000D02*
X149080000Y-57055000D01*
X121610000Y-51025000D02*
X121610000Y-65945000D01*
X121610000Y-65945000D02*
X122080000Y-66415000D01*
X142860000Y-66415000D02*
X143710000Y-65565000D01*
X143710000Y-65565000D02*
X143710000Y-51505000D01*
X154920000Y-62895000D02*
X174140000Y-62895000D01*
X143710000Y-51505000D02*
X144800000Y-50415000D01*
X174140000Y-62895000D02*
X178170000Y-66925000D01*
X122080000Y-66415000D02*
X142860000Y-66415000D01*
X178170000Y-66925000D02*
X178170000Y-86815000D01*
X149080000Y-57055000D02*
X154920000Y-62895000D01*
X144800000Y-50415000D02*
X149080000Y-50415000D01*
%TO.N,BUTTON CHECK*%
X146070000Y-68385000D02*
X174150000Y-68385000D01*
X175760000Y-69995000D02*
X175760000Y-76735000D01*
X174150000Y-68385000D02*
X175760000Y-69995000D01*
X145170000Y-62365000D02*
X145170000Y-67485000D01*
X145170000Y-67485000D02*
X146070000Y-68385000D01*
D22*
%TO.N,+3.3V*%
X117295000Y-51900000D02*
X118550000Y-51900000D01*
X116567000Y-53475000D02*
X116447000Y-53595000D01*
X118550000Y-51900000D02*
X118600000Y-51950000D01*
X116447000Y-53595000D02*
X113520000Y-53595000D01*
X171210000Y-80385000D02*
X171205000Y-80380000D01*
X116567000Y-67458000D02*
X116567000Y-53475000D01*
X142580000Y-68495000D02*
X142580000Y-69255000D01*
X145890000Y-69545000D02*
X145920000Y-69515000D01*
X142580000Y-69255000D02*
X142870000Y-69545000D01*
X115865000Y-72360000D02*
X113540000Y-72360000D01*
X171630000Y-72945000D02*
X172480000Y-73795000D01*
X163340000Y-70785000D02*
X165500000Y-72945000D01*
X116567000Y-52628000D02*
X117295000Y-51900000D01*
X116567000Y-53475000D02*
X116567000Y-52628000D01*
X172480000Y-80385000D02*
X172475000Y-80380000D01*
X116800000Y-67225000D02*
X116567000Y-67458000D01*
X172485000Y-80380000D02*
X172480000Y-80385000D01*
X171215000Y-80380000D02*
X171210000Y-80385000D01*
X148460000Y-70785000D02*
X163340000Y-70785000D01*
X165500000Y-72945000D02*
X171630000Y-72945000D01*
X116567000Y-67458000D02*
X116567000Y-71658000D01*
X172480000Y-73795000D02*
X172480000Y-79115000D01*
X141310000Y-67225000D02*
X116800000Y-67225000D01*
X116567000Y-71658000D02*
X115865000Y-72360000D01*
X142870000Y-69545000D02*
X145890000Y-69545000D01*
%TO.N,Vin*%
X176870000Y-68495000D02*
X176870000Y-98245000D01*
X171047500Y-104067500D02*
X152727500Y-104067500D01*
X176870000Y-98245000D02*
X171047500Y-104067500D01*
D25*
%TO.N,Net-(U2-EN)*%
X143627000Y-89808000D02*
X147517000Y-89808000D01*
X142830000Y-103765000D02*
X142830000Y-90605000D01*
X142830000Y-90605000D02*
X143627000Y-89808000D01*
%TO.N,Net-(U5-~{DTR})*%
X161710000Y-46595000D02*
X161710000Y-46675000D01*
X160949300Y-47435700D02*
X154459300Y-47435700D01*
X154090000Y-47805000D02*
X154090000Y-50615000D01*
X154459300Y-47435700D02*
X154090000Y-47805000D01*
X161710000Y-46675000D02*
X160949300Y-47435700D01*
%TO.N,Net-(U5-~{RTS})*%
X160410000Y-46705500D02*
X160409500Y-46705000D01*
X152700000Y-47505000D02*
X152700000Y-50625000D01*
X153500000Y-46705000D02*
X152700000Y-47505000D01*
X160409500Y-46705000D02*
X153500000Y-46705000D01*
X160420000Y-46615500D02*
X160420000Y-46695500D01*
X160420000Y-46695500D02*
X160410000Y-46705500D01*
D22*
%TO.N,+5V*%
X118750000Y-88320000D02*
X118767000Y-88337000D01*
X118767000Y-77945000D02*
X118767000Y-70608000D01*
X119625000Y-69750000D02*
X120779700Y-69750000D01*
X111367000Y-66458000D02*
X112155000Y-65670000D01*
X118837000Y-77435000D02*
X118767000Y-77505000D01*
X116955000Y-90140000D02*
X118767000Y-90140000D01*
X111367000Y-91708000D02*
X111367000Y-66458000D01*
X156180000Y-48535000D02*
X156180000Y-52345000D01*
X118767000Y-70608000D02*
X119625000Y-69750000D01*
X118767000Y-87058000D02*
X118767000Y-77945000D01*
D26*
X147627000Y-77445000D02*
X164420000Y-77445000D01*
D22*
X118767000Y-92008000D02*
X118017000Y-92758000D01*
X112155000Y-65670000D02*
X113550000Y-65670000D01*
X118767000Y-89632000D02*
X118767000Y-90140000D01*
D26*
X147617000Y-77435000D02*
X147627000Y-77445000D01*
D22*
X136330000Y-77425000D02*
X136320000Y-77435000D01*
D26*
X147597000Y-77415000D02*
X138880000Y-77415000D01*
D22*
X118767000Y-88303000D02*
X118750000Y-88320000D01*
D26*
X164420000Y-77445000D02*
X164540000Y-77565000D01*
D22*
X122967000Y-88308000D02*
X122960000Y-88315000D01*
X113540000Y-90140000D02*
X116955000Y-90140000D01*
X118017000Y-92758000D02*
X112417000Y-92758000D01*
D26*
X147617000Y-76108000D02*
X147617000Y-77435000D01*
D22*
X118767000Y-88337000D02*
X118767000Y-89598000D01*
X156220000Y-48495000D02*
X156180000Y-48535000D01*
X112417000Y-92758000D02*
X111367000Y-91708000D01*
X122960000Y-89585000D02*
X122967000Y-89592000D01*
X118767000Y-90140000D02*
X118767000Y-92008000D01*
D26*
X138880000Y-77415000D02*
X138890000Y-77435000D01*
D22*
X122967000Y-89578000D02*
X122960000Y-89585000D01*
X118750000Y-89615000D02*
X118767000Y-89632000D01*
X136320000Y-77435000D02*
X118837000Y-77435000D01*
X118767000Y-87058000D02*
X118767000Y-88303000D01*
X122960000Y-88315000D02*
X122967000Y-88322000D01*
D26*
X147617000Y-77435000D02*
X147597000Y-77415000D01*
D22*
X118767000Y-89598000D02*
X118750000Y-89615000D01*
%TD*%
%TA.AperFunction,Conductor*%
%TO.N,+5V*%
G36*
X134415677Y-84594685D02*
G01*
X134436319Y-84611319D01*
X134843681Y-85018681D01*
X134877166Y-85080004D01*
X134880000Y-85106362D01*
X134880000Y-90113638D01*
X134860315Y-90180677D01*
X134843681Y-90201319D01*
X134546319Y-90498681D01*
X134484996Y-90532166D01*
X134458638Y-90535000D01*
X116681362Y-90535000D01*
X116614323Y-90515315D01*
X116593681Y-90498681D01*
X116206319Y-90111319D01*
X116172834Y-90049996D01*
X116170000Y-90023638D01*
X116170000Y-86076361D01*
X116189685Y-86009322D01*
X116206314Y-85988685D01*
X117583681Y-84611318D01*
X117645004Y-84577834D01*
X117671362Y-84575000D01*
X134348638Y-84575000D01*
X134415677Y-84594685D01*
G37*
%TD.AperFunction*%
%TD*%
%TA.AperFunction,Conductor*%
%TO.N,GND*%
G36*
X142842999Y-46419706D02*
G01*
X142888774Y-46472493D01*
X142900000Y-46524048D01*
X142900000Y-65776000D01*
X142880315Y-65843039D01*
X142827511Y-65888794D01*
X142776000Y-65900000D01*
X122751362Y-65900000D01*
X122684323Y-65880315D01*
X122663681Y-65863681D01*
X122386319Y-65586319D01*
X122352834Y-65524996D01*
X122350000Y-65498638D01*
X122350000Y-56240001D01*
X130611891Y-56240001D01*
X130614770Y-56258184D01*
X130615321Y-56262755D01*
X130615867Y-56269342D01*
X130616966Y-56273681D01*
X130618100Y-56279202D01*
X130629417Y-56350661D01*
X130637112Y-56365763D01*
X130640032Y-56373528D01*
X130640461Y-56373341D01*
X130644587Y-56382748D01*
X130648120Y-56388156D01*
X130651458Y-56393920D01*
X130680283Y-56450491D01*
X130695889Y-56466096D01*
X130701593Y-56473120D01*
X130701605Y-56473110D01*
X130708564Y-56480670D01*
X130714089Y-56484970D01*
X130719853Y-56490061D01*
X130759503Y-56529711D01*
X130759505Y-56529712D01*
X130759509Y-56529716D01*
X130783930Y-56542159D01*
X130796477Y-56550137D01*
X130800871Y-56552515D01*
X130800874Y-56552517D01*
X130807119Y-56554661D01*
X130815141Y-56558062D01*
X130859338Y-56580582D01*
X130891910Y-56585740D01*
X130910044Y-56590255D01*
X130911512Y-56590500D01*
X130912201Y-56590500D01*
X130931599Y-56592027D01*
X130969998Y-56598109D01*
X130970000Y-56598109D01*
X130970003Y-56598109D01*
X131080658Y-56580583D01*
X131080659Y-56580583D01*
X131080660Y-56580582D01*
X131080662Y-56580582D01*
X131180491Y-56529716D01*
X131259716Y-56450491D01*
X131310582Y-56350662D01*
X131313554Y-56331893D01*
X131314445Y-56327557D01*
X131314471Y-56327234D01*
X131314473Y-56327232D01*
X131314480Y-56327141D01*
X131315026Y-56322595D01*
X131328109Y-56240001D01*
X132011891Y-56240001D01*
X132014770Y-56258184D01*
X132015321Y-56262755D01*
X132015867Y-56269342D01*
X132016966Y-56273681D01*
X132018100Y-56279202D01*
X132029417Y-56350661D01*
X132037112Y-56365763D01*
X132040032Y-56373528D01*
X132040461Y-56373341D01*
X132044587Y-56382748D01*
X132048120Y-56388156D01*
X132051458Y-56393920D01*
X132080283Y-56450491D01*
X132095889Y-56466096D01*
X132101593Y-56473120D01*
X132101605Y-56473110D01*
X132108564Y-56480670D01*
X132114089Y-56484970D01*
X132119853Y-56490061D01*
X132159503Y-56529711D01*
X132159505Y-56529712D01*
X132159509Y-56529716D01*
X132183930Y-56542159D01*
X132196477Y-56550137D01*
X132200871Y-56552515D01*
X132200874Y-56552517D01*
X132207119Y-56554661D01*
X132215141Y-56558062D01*
X132259338Y-56580582D01*
X132291910Y-56585740D01*
X132310044Y-56590255D01*
X132311512Y-56590500D01*
X132312201Y-56590500D01*
X132331599Y-56592027D01*
X132369998Y-56598109D01*
X132370000Y-56598109D01*
X132370003Y-56598109D01*
X132480658Y-56580583D01*
X132480659Y-56580583D01*
X132480660Y-56580582D01*
X132480662Y-56580582D01*
X132580491Y-56529716D01*
X132659716Y-56450491D01*
X132710582Y-56350662D01*
X132713554Y-56331893D01*
X132714445Y-56327557D01*
X132714471Y-56327234D01*
X132714473Y-56327232D01*
X132714480Y-56327141D01*
X132715026Y-56322595D01*
X132728109Y-56240000D01*
X132725226Y-56221800D01*
X132724675Y-56217223D01*
X132724131Y-56210661D01*
X132724132Y-56210656D01*
X132723036Y-56206331D01*
X132721900Y-56200802D01*
X132714670Y-56155152D01*
X132710582Y-56129338D01*
X132702890Y-56114243D01*
X132699972Y-56106479D01*
X132699543Y-56106668D01*
X132695415Y-56097257D01*
X132691881Y-56091847D01*
X132688542Y-56086082D01*
X132676584Y-56062615D01*
X132659716Y-56029509D01*
X132659713Y-56029506D01*
X132659711Y-56029503D01*
X132644111Y-56013903D01*
X132638407Y-56006879D01*
X132638396Y-56006890D01*
X132631437Y-55999330D01*
X132625908Y-55995027D01*
X132620149Y-55989942D01*
X132580491Y-55950284D01*
X132556070Y-55937840D01*
X132543520Y-55929861D01*
X132539126Y-55927483D01*
X132532885Y-55925340D01*
X132524863Y-55921939D01*
X132480661Y-55899417D01*
X132448090Y-55894258D01*
X132429931Y-55889740D01*
X132428489Y-55889500D01*
X132428488Y-55889500D01*
X132427799Y-55889500D01*
X132408401Y-55887973D01*
X132370002Y-55881891D01*
X132369997Y-55881891D01*
X132259341Y-55899416D01*
X132259340Y-55899416D01*
X132159506Y-55950285D01*
X132080284Y-56029507D01*
X132029419Y-56129334D01*
X132029416Y-56129341D01*
X132026444Y-56148100D01*
X132025552Y-56152452D01*
X132025517Y-56152876D01*
X132024967Y-56157438D01*
X132011891Y-56239996D01*
X132011891Y-56240001D01*
X131328109Y-56240001D01*
X131328109Y-56240000D01*
X131325226Y-56221800D01*
X131324675Y-56217223D01*
X131324131Y-56210661D01*
X131324132Y-56210656D01*
X131323036Y-56206331D01*
X131321900Y-56200802D01*
X131314670Y-56155152D01*
X131310582Y-56129338D01*
X131302890Y-56114243D01*
X131299972Y-56106479D01*
X131299543Y-56106668D01*
X131295415Y-56097257D01*
X131291881Y-56091847D01*
X131288542Y-56086082D01*
X131276584Y-56062615D01*
X131259716Y-56029509D01*
X131259713Y-56029506D01*
X131259711Y-56029503D01*
X131244111Y-56013903D01*
X131238407Y-56006879D01*
X131238396Y-56006890D01*
X131231437Y-55999330D01*
X131225908Y-55995027D01*
X131220149Y-55989942D01*
X131180491Y-55950284D01*
X131156070Y-55937840D01*
X131143520Y-55929861D01*
X131139126Y-55927483D01*
X131132885Y-55925340D01*
X131124863Y-55921939D01*
X131080661Y-55899417D01*
X131048090Y-55894258D01*
X131029931Y-55889740D01*
X131028489Y-55889500D01*
X131028488Y-55889500D01*
X131027799Y-55889500D01*
X131008401Y-55887973D01*
X130970002Y-55881891D01*
X130969997Y-55881891D01*
X130859341Y-55899416D01*
X130859340Y-55899416D01*
X130759506Y-55950285D01*
X130680284Y-56029507D01*
X130629419Y-56129334D01*
X130629416Y-56129341D01*
X130626444Y-56148100D01*
X130625552Y-56152452D01*
X130625517Y-56152876D01*
X130624967Y-56157438D01*
X130611891Y-56239996D01*
X130611891Y-56240001D01*
X122350000Y-56240001D01*
X122350000Y-55540001D01*
X129911891Y-55540001D01*
X129914770Y-55558184D01*
X129915321Y-55562755D01*
X129915867Y-55569342D01*
X129916966Y-55573681D01*
X129918100Y-55579202D01*
X129929417Y-55650661D01*
X129937112Y-55665763D01*
X129940032Y-55673528D01*
X129940461Y-55673341D01*
X129944587Y-55682748D01*
X129948120Y-55688156D01*
X129951458Y-55693920D01*
X129980283Y-55750491D01*
X129995889Y-55766096D01*
X130001593Y-55773120D01*
X130001605Y-55773110D01*
X130008564Y-55780670D01*
X130014089Y-55784970D01*
X130019853Y-55790061D01*
X130059503Y-55829711D01*
X130059505Y-55829712D01*
X130059509Y-55829716D01*
X130083930Y-55842159D01*
X130096477Y-55850137D01*
X130100871Y-55852515D01*
X130100874Y-55852517D01*
X130107119Y-55854661D01*
X130115141Y-55858062D01*
X130159338Y-55880582D01*
X130191910Y-55885740D01*
X130210044Y-55890255D01*
X130211512Y-55890500D01*
X130212201Y-55890500D01*
X130231599Y-55892027D01*
X130269998Y-55898109D01*
X130270000Y-55898109D01*
X130270003Y-55898109D01*
X130380658Y-55880583D01*
X130380659Y-55880583D01*
X130380660Y-55880582D01*
X130380662Y-55880582D01*
X130480491Y-55829716D01*
X130559716Y-55750491D01*
X130610582Y-55650662D01*
X130613554Y-55631893D01*
X130614445Y-55627557D01*
X130614471Y-55627234D01*
X130614473Y-55627232D01*
X130614480Y-55627141D01*
X130615026Y-55622595D01*
X130628109Y-55540001D01*
X131311891Y-55540001D01*
X131314770Y-55558184D01*
X131315321Y-55562755D01*
X131315867Y-55569342D01*
X131316966Y-55573681D01*
X131318100Y-55579202D01*
X131329417Y-55650661D01*
X131337112Y-55665763D01*
X131340032Y-55673528D01*
X131340461Y-55673341D01*
X131344587Y-55682748D01*
X131348120Y-55688156D01*
X131351458Y-55693920D01*
X131380283Y-55750491D01*
X131395889Y-55766096D01*
X131401593Y-55773120D01*
X131401605Y-55773110D01*
X131408564Y-55780670D01*
X131414089Y-55784970D01*
X131419853Y-55790061D01*
X131459503Y-55829711D01*
X131459505Y-55829712D01*
X131459509Y-55829716D01*
X131483930Y-55842159D01*
X131496477Y-55850137D01*
X131500871Y-55852515D01*
X131500874Y-55852517D01*
X131507119Y-55854661D01*
X131515141Y-55858062D01*
X131559338Y-55880582D01*
X131591910Y-55885740D01*
X131610044Y-55890255D01*
X131611512Y-55890500D01*
X131612201Y-55890500D01*
X131631599Y-55892027D01*
X131669998Y-55898109D01*
X131670000Y-55898109D01*
X131670003Y-55898109D01*
X131780658Y-55880583D01*
X131780659Y-55880583D01*
X131780660Y-55880582D01*
X131780662Y-55880582D01*
X131880491Y-55829716D01*
X131959716Y-55750491D01*
X132010582Y-55650662D01*
X132013554Y-55631893D01*
X132014445Y-55627557D01*
X132014471Y-55627234D01*
X132014473Y-55627232D01*
X132014480Y-55627141D01*
X132015026Y-55622595D01*
X132028109Y-55540001D01*
X132711891Y-55540001D01*
X132714770Y-55558184D01*
X132715321Y-55562755D01*
X132715867Y-55569342D01*
X132716966Y-55573681D01*
X132718100Y-55579202D01*
X132729417Y-55650661D01*
X132737112Y-55665763D01*
X132740032Y-55673528D01*
X132740461Y-55673341D01*
X132744587Y-55682748D01*
X132748120Y-55688156D01*
X132751458Y-55693920D01*
X132780283Y-55750491D01*
X132795889Y-55766096D01*
X132801593Y-55773120D01*
X132801605Y-55773110D01*
X132808564Y-55780670D01*
X132814089Y-55784970D01*
X132819853Y-55790061D01*
X132859503Y-55829711D01*
X132859505Y-55829712D01*
X132859509Y-55829716D01*
X132883930Y-55842159D01*
X132896477Y-55850137D01*
X132900871Y-55852515D01*
X132900874Y-55852517D01*
X132907119Y-55854661D01*
X132915141Y-55858062D01*
X132959338Y-55880582D01*
X132991910Y-55885740D01*
X133010044Y-55890255D01*
X133011512Y-55890500D01*
X133012201Y-55890500D01*
X133031599Y-55892027D01*
X133069998Y-55898109D01*
X133070000Y-55898109D01*
X133070003Y-55898109D01*
X133180658Y-55880583D01*
X133180659Y-55880583D01*
X133180660Y-55880582D01*
X133180662Y-55880582D01*
X133280491Y-55829716D01*
X133359716Y-55750491D01*
X133410582Y-55650662D01*
X133413554Y-55631893D01*
X133414445Y-55627557D01*
X133414471Y-55627234D01*
X133414473Y-55627232D01*
X133414480Y-55627141D01*
X133415026Y-55622595D01*
X133428109Y-55540000D01*
X133425226Y-55521800D01*
X133424675Y-55517223D01*
X133424131Y-55510661D01*
X133424132Y-55510656D01*
X133423036Y-55506331D01*
X133421900Y-55500802D01*
X133414670Y-55455152D01*
X133410582Y-55429338D01*
X133402890Y-55414243D01*
X133399972Y-55406479D01*
X133399543Y-55406668D01*
X133395415Y-55397257D01*
X133391881Y-55391847D01*
X133388542Y-55386082D01*
X133376584Y-55362615D01*
X133359716Y-55329509D01*
X133359713Y-55329506D01*
X133359711Y-55329503D01*
X133344111Y-55313903D01*
X133338407Y-55306879D01*
X133338396Y-55306890D01*
X133331437Y-55299330D01*
X133325908Y-55295027D01*
X133320149Y-55289942D01*
X133280491Y-55250284D01*
X133256070Y-55237840D01*
X133243520Y-55229861D01*
X133239126Y-55227483D01*
X133232885Y-55225340D01*
X133224863Y-55221939D01*
X133180661Y-55199417D01*
X133148090Y-55194258D01*
X133129931Y-55189740D01*
X133128489Y-55189500D01*
X133128488Y-55189500D01*
X133127799Y-55189500D01*
X133108401Y-55187973D01*
X133070002Y-55181891D01*
X133069997Y-55181891D01*
X132959341Y-55199416D01*
X132959340Y-55199416D01*
X132859506Y-55250285D01*
X132780284Y-55329507D01*
X132729419Y-55429334D01*
X132729416Y-55429341D01*
X132726444Y-55448100D01*
X132725552Y-55452452D01*
X132725517Y-55452876D01*
X132724967Y-55457438D01*
X132711891Y-55539996D01*
X132711891Y-55540001D01*
X132028109Y-55540001D01*
X132028109Y-55540000D01*
X132025226Y-55521800D01*
X132024675Y-55517223D01*
X132024131Y-55510661D01*
X132024132Y-55510656D01*
X132023036Y-55506331D01*
X132021900Y-55500802D01*
X132014670Y-55455152D01*
X132010582Y-55429338D01*
X132002890Y-55414243D01*
X131999972Y-55406479D01*
X131999543Y-55406668D01*
X131995415Y-55397257D01*
X131991881Y-55391847D01*
X131988542Y-55386082D01*
X131976584Y-55362615D01*
X131959716Y-55329509D01*
X131959713Y-55329506D01*
X131959711Y-55329503D01*
X131944111Y-55313903D01*
X131938407Y-55306879D01*
X131938396Y-55306890D01*
X131931437Y-55299330D01*
X131925908Y-55295027D01*
X131920149Y-55289942D01*
X131880491Y-55250284D01*
X131856070Y-55237840D01*
X131843520Y-55229861D01*
X131839126Y-55227483D01*
X131832885Y-55225340D01*
X131824863Y-55221939D01*
X131780661Y-55199417D01*
X131748090Y-55194258D01*
X131729931Y-55189740D01*
X131728489Y-55189500D01*
X131728488Y-55189500D01*
X131727799Y-55189500D01*
X131708401Y-55187973D01*
X131670002Y-55181891D01*
X131669997Y-55181891D01*
X131559341Y-55199416D01*
X131559340Y-55199416D01*
X131459506Y-55250285D01*
X131380284Y-55329507D01*
X131329419Y-55429334D01*
X131329416Y-55429341D01*
X131326444Y-55448100D01*
X131325552Y-55452452D01*
X131325517Y-55452876D01*
X131324967Y-55457438D01*
X131311891Y-55539996D01*
X131311891Y-55540001D01*
X130628109Y-55540001D01*
X130628109Y-55540000D01*
X130625226Y-55521800D01*
X130624675Y-55517223D01*
X130624131Y-55510661D01*
X130624132Y-55510656D01*
X130623036Y-55506331D01*
X130621900Y-55500802D01*
X130614670Y-55455152D01*
X130610582Y-55429338D01*
X130602890Y-55414243D01*
X130599972Y-55406479D01*
X130599543Y-55406668D01*
X130595415Y-55397257D01*
X130591881Y-55391847D01*
X130588542Y-55386082D01*
X130576584Y-55362615D01*
X130559716Y-55329509D01*
X130559713Y-55329506D01*
X130559711Y-55329503D01*
X130544111Y-55313903D01*
X130538407Y-55306879D01*
X130538396Y-55306890D01*
X130531437Y-55299330D01*
X130525908Y-55295027D01*
X130520149Y-55289942D01*
X130480491Y-55250284D01*
X130456070Y-55237840D01*
X130443520Y-55229861D01*
X130439126Y-55227483D01*
X130432885Y-55225340D01*
X130424863Y-55221939D01*
X130380661Y-55199417D01*
X130348090Y-55194258D01*
X130329931Y-55189740D01*
X130328489Y-55189500D01*
X130328488Y-55189500D01*
X130327799Y-55189500D01*
X130308401Y-55187973D01*
X130270002Y-55181891D01*
X130269997Y-55181891D01*
X130159341Y-55199416D01*
X130159340Y-55199416D01*
X130059506Y-55250285D01*
X129980284Y-55329507D01*
X129929419Y-55429334D01*
X129929416Y-55429341D01*
X129926444Y-55448100D01*
X129925552Y-55452452D01*
X129925517Y-55452876D01*
X129924967Y-55457438D01*
X129911891Y-55539996D01*
X129911891Y-55540001D01*
X122350000Y-55540001D01*
X122350000Y-54840001D01*
X130611891Y-54840001D01*
X130614770Y-54858184D01*
X130615321Y-54862755D01*
X130615867Y-54869342D01*
X130616966Y-54873681D01*
X130618100Y-54879202D01*
X130629417Y-54950661D01*
X130637112Y-54965763D01*
X130640032Y-54973528D01*
X130640461Y-54973341D01*
X130644587Y-54982748D01*
X130648120Y-54988156D01*
X130651458Y-54993920D01*
X130680283Y-55050491D01*
X130695889Y-55066096D01*
X130701593Y-55073120D01*
X130701605Y-55073110D01*
X130708564Y-55080670D01*
X130714089Y-55084970D01*
X130719853Y-55090061D01*
X130759503Y-55129711D01*
X130759505Y-55129712D01*
X130759509Y-55129716D01*
X130783930Y-55142159D01*
X130796477Y-55150137D01*
X130800871Y-55152515D01*
X130800874Y-55152517D01*
X130807119Y-55154661D01*
X130815141Y-55158062D01*
X130859338Y-55180582D01*
X130891910Y-55185740D01*
X130910044Y-55190255D01*
X130911512Y-55190500D01*
X130912201Y-55190500D01*
X130931599Y-55192027D01*
X130969998Y-55198109D01*
X130970000Y-55198109D01*
X130970003Y-55198109D01*
X131080658Y-55180583D01*
X131080659Y-55180583D01*
X131080660Y-55180582D01*
X131080662Y-55180582D01*
X131180491Y-55129716D01*
X131259716Y-55050491D01*
X131310582Y-54950662D01*
X131313554Y-54931893D01*
X131314445Y-54927557D01*
X131314471Y-54927234D01*
X131314473Y-54927232D01*
X131314480Y-54927141D01*
X131315026Y-54922595D01*
X131328109Y-54840001D01*
X132011891Y-54840001D01*
X132014770Y-54858184D01*
X132015321Y-54862755D01*
X132015867Y-54869342D01*
X132016966Y-54873681D01*
X132018100Y-54879202D01*
X132029417Y-54950661D01*
X132037112Y-54965763D01*
X132040032Y-54973528D01*
X132040461Y-54973341D01*
X132044587Y-54982748D01*
X132048120Y-54988156D01*
X132051458Y-54993920D01*
X132080283Y-55050491D01*
X132095889Y-55066096D01*
X132101593Y-55073120D01*
X132101605Y-55073110D01*
X132108564Y-55080670D01*
X132114089Y-55084970D01*
X132119853Y-55090061D01*
X132159503Y-55129711D01*
X132159505Y-55129712D01*
X132159509Y-55129716D01*
X132183930Y-55142159D01*
X132196477Y-55150137D01*
X132200871Y-55152515D01*
X132200874Y-55152517D01*
X132207119Y-55154661D01*
X132215141Y-55158062D01*
X132259338Y-55180582D01*
X132291910Y-55185740D01*
X132310044Y-55190255D01*
X132311512Y-55190500D01*
X132312201Y-55190500D01*
X132331599Y-55192027D01*
X132369998Y-55198109D01*
X132370000Y-55198109D01*
X132370003Y-55198109D01*
X132480658Y-55180583D01*
X132480659Y-55180583D01*
X132480660Y-55180582D01*
X132480662Y-55180582D01*
X132580491Y-55129716D01*
X132659716Y-55050491D01*
X132710582Y-54950662D01*
X132713554Y-54931893D01*
X132714445Y-54927557D01*
X132714471Y-54927234D01*
X132714473Y-54927232D01*
X132714480Y-54927141D01*
X132715026Y-54922595D01*
X132728109Y-54840000D01*
X132725226Y-54821800D01*
X132724675Y-54817223D01*
X132724131Y-54810661D01*
X132724132Y-54810656D01*
X132723036Y-54806331D01*
X132721900Y-54800802D01*
X132714670Y-54755152D01*
X132710582Y-54729338D01*
X132702890Y-54714243D01*
X132699972Y-54706479D01*
X132699543Y-54706668D01*
X132695415Y-54697257D01*
X132691881Y-54691847D01*
X132688542Y-54686082D01*
X132676584Y-54662615D01*
X132659716Y-54629509D01*
X132659713Y-54629506D01*
X132659711Y-54629503D01*
X132644111Y-54613903D01*
X132638407Y-54606879D01*
X132638396Y-54606890D01*
X132631437Y-54599330D01*
X132625908Y-54595027D01*
X132620149Y-54589942D01*
X132580491Y-54550284D01*
X132556070Y-54537840D01*
X132543520Y-54529861D01*
X132539126Y-54527483D01*
X132532885Y-54525340D01*
X132524863Y-54521939D01*
X132480661Y-54499417D01*
X132448090Y-54494258D01*
X132429931Y-54489740D01*
X132428489Y-54489500D01*
X132428488Y-54489500D01*
X132427799Y-54489500D01*
X132408401Y-54487973D01*
X132370002Y-54481891D01*
X132369997Y-54481891D01*
X132259341Y-54499416D01*
X132259340Y-54499416D01*
X132159506Y-54550285D01*
X132080284Y-54629507D01*
X132029419Y-54729334D01*
X132029416Y-54729341D01*
X132026444Y-54748100D01*
X132025552Y-54752452D01*
X132025517Y-54752876D01*
X132024967Y-54757438D01*
X132011891Y-54839996D01*
X132011891Y-54840001D01*
X131328109Y-54840001D01*
X131328109Y-54840000D01*
X131325226Y-54821800D01*
X131324675Y-54817223D01*
X131324131Y-54810661D01*
X131324132Y-54810656D01*
X131323036Y-54806331D01*
X131321900Y-54800802D01*
X131314670Y-54755152D01*
X131310582Y-54729338D01*
X131302890Y-54714243D01*
X131299972Y-54706479D01*
X131299543Y-54706668D01*
X131295415Y-54697257D01*
X131291881Y-54691847D01*
X131288542Y-54686082D01*
X131276584Y-54662615D01*
X131259716Y-54629509D01*
X131259713Y-54629506D01*
X131259711Y-54629503D01*
X131244111Y-54613903D01*
X131238407Y-54606879D01*
X131238396Y-54606890D01*
X131231437Y-54599330D01*
X131225908Y-54595027D01*
X131220149Y-54589942D01*
X131180491Y-54550284D01*
X131156070Y-54537840D01*
X131143520Y-54529861D01*
X131139126Y-54527483D01*
X131132885Y-54525340D01*
X131124863Y-54521939D01*
X131080661Y-54499417D01*
X131048090Y-54494258D01*
X131029931Y-54489740D01*
X131028489Y-54489500D01*
X131028488Y-54489500D01*
X131027799Y-54489500D01*
X131008401Y-54487973D01*
X130970002Y-54481891D01*
X130969997Y-54481891D01*
X130859341Y-54499416D01*
X130859340Y-54499416D01*
X130759506Y-54550285D01*
X130680284Y-54629507D01*
X130629419Y-54729334D01*
X130629416Y-54729341D01*
X130626444Y-54748100D01*
X130625552Y-54752452D01*
X130625517Y-54752876D01*
X130624967Y-54757438D01*
X130611891Y-54839996D01*
X130611891Y-54840001D01*
X122350000Y-54840001D01*
X122350000Y-54140001D01*
X129911891Y-54140001D01*
X129914770Y-54158184D01*
X129915321Y-54162755D01*
X129915867Y-54169342D01*
X129916966Y-54173681D01*
X129918100Y-54179202D01*
X129929417Y-54250661D01*
X129937112Y-54265763D01*
X129940032Y-54273528D01*
X129940461Y-54273341D01*
X129944587Y-54282748D01*
X129948120Y-54288156D01*
X129951458Y-54293920D01*
X129980283Y-54350491D01*
X129995889Y-54366096D01*
X130001593Y-54373120D01*
X130001605Y-54373110D01*
X130008564Y-54380670D01*
X130014089Y-54384970D01*
X130019853Y-54390061D01*
X130059503Y-54429711D01*
X130059505Y-54429712D01*
X130059509Y-54429716D01*
X130083930Y-54442159D01*
X130096477Y-54450137D01*
X130100871Y-54452515D01*
X130100874Y-54452517D01*
X130107119Y-54454661D01*
X130115141Y-54458062D01*
X130159338Y-54480582D01*
X130191910Y-54485740D01*
X130210044Y-54490255D01*
X130211512Y-54490500D01*
X130212201Y-54490500D01*
X130231599Y-54492027D01*
X130269998Y-54498109D01*
X130270000Y-54498109D01*
X130270003Y-54498109D01*
X130380658Y-54480583D01*
X130380659Y-54480583D01*
X130380660Y-54480582D01*
X130380662Y-54480582D01*
X130480491Y-54429716D01*
X130559716Y-54350491D01*
X130610582Y-54250662D01*
X130613554Y-54231893D01*
X130614445Y-54227557D01*
X130614471Y-54227234D01*
X130614473Y-54227232D01*
X130614480Y-54227141D01*
X130615026Y-54222595D01*
X130628109Y-54140001D01*
X131311891Y-54140001D01*
X131314770Y-54158184D01*
X131315321Y-54162755D01*
X131315867Y-54169342D01*
X131316966Y-54173681D01*
X131318100Y-54179202D01*
X131329417Y-54250661D01*
X131337112Y-54265763D01*
X131340032Y-54273528D01*
X131340461Y-54273341D01*
X131344587Y-54282748D01*
X131348120Y-54288156D01*
X131351458Y-54293920D01*
X131380283Y-54350491D01*
X131395889Y-54366096D01*
X131401593Y-54373120D01*
X131401605Y-54373110D01*
X131408564Y-54380670D01*
X131414089Y-54384970D01*
X131419853Y-54390061D01*
X131459503Y-54429711D01*
X131459505Y-54429712D01*
X131459509Y-54429716D01*
X131483930Y-54442159D01*
X131496477Y-54450137D01*
X131500871Y-54452515D01*
X131500874Y-54452517D01*
X131507119Y-54454661D01*
X131515141Y-54458062D01*
X131559338Y-54480582D01*
X131591910Y-54485740D01*
X131610044Y-54490255D01*
X131611512Y-54490500D01*
X131612201Y-54490500D01*
X131631599Y-54492027D01*
X131669998Y-54498109D01*
X131670000Y-54498109D01*
X131670003Y-54498109D01*
X131780658Y-54480583D01*
X131780659Y-54480583D01*
X131780660Y-54480582D01*
X131780662Y-54480582D01*
X131880491Y-54429716D01*
X131959716Y-54350491D01*
X132010582Y-54250662D01*
X132013554Y-54231893D01*
X132014445Y-54227557D01*
X132014471Y-54227234D01*
X132014473Y-54227232D01*
X132014480Y-54227141D01*
X132015026Y-54222595D01*
X132028109Y-54140001D01*
X132711891Y-54140001D01*
X132714770Y-54158184D01*
X132715321Y-54162755D01*
X132715867Y-54169342D01*
X132716966Y-54173681D01*
X132718100Y-54179202D01*
X132729417Y-54250661D01*
X132737112Y-54265763D01*
X132740032Y-54273528D01*
X132740461Y-54273341D01*
X132744587Y-54282748D01*
X132748120Y-54288156D01*
X132751458Y-54293920D01*
X132780283Y-54350491D01*
X132795889Y-54366096D01*
X132801593Y-54373120D01*
X132801605Y-54373110D01*
X132808564Y-54380670D01*
X132814089Y-54384970D01*
X132819853Y-54390061D01*
X132859503Y-54429711D01*
X132859505Y-54429712D01*
X132859509Y-54429716D01*
X132883930Y-54442159D01*
X132896477Y-54450137D01*
X132900871Y-54452515D01*
X132900874Y-54452517D01*
X132907119Y-54454661D01*
X132915141Y-54458062D01*
X132959338Y-54480582D01*
X132991910Y-54485740D01*
X133010044Y-54490255D01*
X133011512Y-54490500D01*
X133012201Y-54490500D01*
X133031599Y-54492027D01*
X133069998Y-54498109D01*
X133070000Y-54498109D01*
X133070003Y-54498109D01*
X133180658Y-54480583D01*
X133180659Y-54480583D01*
X133180660Y-54480582D01*
X133180662Y-54480582D01*
X133280491Y-54429716D01*
X133359716Y-54350491D01*
X133410582Y-54250662D01*
X133413554Y-54231893D01*
X133414445Y-54227557D01*
X133414471Y-54227234D01*
X133414473Y-54227232D01*
X133414480Y-54227141D01*
X133415026Y-54222595D01*
X133428109Y-54140000D01*
X133425226Y-54121800D01*
X133424675Y-54117223D01*
X133424131Y-54110661D01*
X133424132Y-54110656D01*
X133423036Y-54106331D01*
X133421900Y-54100802D01*
X133414670Y-54055152D01*
X133410582Y-54029338D01*
X133402890Y-54014243D01*
X133399972Y-54006479D01*
X133399543Y-54006668D01*
X133395415Y-53997257D01*
X133391881Y-53991847D01*
X133388542Y-53986082D01*
X133376584Y-53962615D01*
X133359716Y-53929509D01*
X133359713Y-53929506D01*
X133359711Y-53929503D01*
X133344111Y-53913903D01*
X133338407Y-53906879D01*
X133338396Y-53906890D01*
X133331437Y-53899330D01*
X133325908Y-53895027D01*
X133320149Y-53889942D01*
X133280491Y-53850284D01*
X133256070Y-53837840D01*
X133243520Y-53829861D01*
X133239126Y-53827483D01*
X133232885Y-53825340D01*
X133224863Y-53821939D01*
X133180661Y-53799417D01*
X133148090Y-53794258D01*
X133129931Y-53789740D01*
X133128489Y-53789500D01*
X133128488Y-53789500D01*
X133127799Y-53789500D01*
X133108401Y-53787973D01*
X133070002Y-53781891D01*
X133069997Y-53781891D01*
X132959341Y-53799416D01*
X132959340Y-53799416D01*
X132859506Y-53850285D01*
X132780284Y-53929507D01*
X132729419Y-54029334D01*
X132729416Y-54029341D01*
X132726444Y-54048100D01*
X132725552Y-54052452D01*
X132725517Y-54052876D01*
X132724967Y-54057438D01*
X132711891Y-54139996D01*
X132711891Y-54140001D01*
X132028109Y-54140001D01*
X132028109Y-54140000D01*
X132025226Y-54121800D01*
X132024675Y-54117223D01*
X132024131Y-54110661D01*
X132024132Y-54110656D01*
X132023036Y-54106331D01*
X132021900Y-54100802D01*
X132014670Y-54055152D01*
X132010582Y-54029338D01*
X132002890Y-54014243D01*
X131999972Y-54006479D01*
X131999543Y-54006668D01*
X131995415Y-53997257D01*
X131991881Y-53991847D01*
X131988542Y-53986082D01*
X131976584Y-53962615D01*
X131959716Y-53929509D01*
X131959713Y-53929506D01*
X131959711Y-53929503D01*
X131944111Y-53913903D01*
X131938407Y-53906879D01*
X131938396Y-53906890D01*
X131931437Y-53899330D01*
X131925908Y-53895027D01*
X131920149Y-53889942D01*
X131880491Y-53850284D01*
X131856070Y-53837840D01*
X131843520Y-53829861D01*
X131839126Y-53827483D01*
X131832885Y-53825340D01*
X131824863Y-53821939D01*
X131780661Y-53799417D01*
X131748090Y-53794258D01*
X131729931Y-53789740D01*
X131728489Y-53789500D01*
X131728488Y-53789500D01*
X131727799Y-53789500D01*
X131708401Y-53787973D01*
X131670002Y-53781891D01*
X131669997Y-53781891D01*
X131559341Y-53799416D01*
X131559340Y-53799416D01*
X131459506Y-53850285D01*
X131380284Y-53929507D01*
X131329419Y-54029334D01*
X131329416Y-54029341D01*
X131326444Y-54048100D01*
X131325552Y-54052452D01*
X131325517Y-54052876D01*
X131324967Y-54057438D01*
X131311891Y-54139996D01*
X131311891Y-54140001D01*
X130628109Y-54140001D01*
X130628109Y-54140000D01*
X130625226Y-54121800D01*
X130624675Y-54117223D01*
X130624131Y-54110661D01*
X130624132Y-54110656D01*
X130623036Y-54106331D01*
X130621900Y-54100802D01*
X130614670Y-54055152D01*
X130610582Y-54029338D01*
X130602890Y-54014243D01*
X130599972Y-54006479D01*
X130599543Y-54006668D01*
X130595415Y-53997257D01*
X130591881Y-53991847D01*
X130588542Y-53986082D01*
X130576584Y-53962615D01*
X130559716Y-53929509D01*
X130559713Y-53929506D01*
X130559711Y-53929503D01*
X130544111Y-53913903D01*
X130538407Y-53906879D01*
X130538396Y-53906890D01*
X130531437Y-53899330D01*
X130525908Y-53895027D01*
X130520149Y-53889942D01*
X130480491Y-53850284D01*
X130456070Y-53837840D01*
X130443520Y-53829861D01*
X130439126Y-53827483D01*
X130432885Y-53825340D01*
X130424863Y-53821939D01*
X130380661Y-53799417D01*
X130348090Y-53794258D01*
X130329931Y-53789740D01*
X130328489Y-53789500D01*
X130328488Y-53789500D01*
X130327799Y-53789500D01*
X130308401Y-53787973D01*
X130270002Y-53781891D01*
X130269997Y-53781891D01*
X130159341Y-53799416D01*
X130159340Y-53799416D01*
X130059506Y-53850285D01*
X129980284Y-53929507D01*
X129929419Y-54029334D01*
X129929416Y-54029341D01*
X129926444Y-54048100D01*
X129925552Y-54052452D01*
X129925517Y-54052876D01*
X129924967Y-54057438D01*
X129911891Y-54139996D01*
X129911891Y-54140001D01*
X122350000Y-54140001D01*
X122350000Y-53440001D01*
X130611891Y-53440001D01*
X130614770Y-53458184D01*
X130615321Y-53462755D01*
X130615867Y-53469342D01*
X130616966Y-53473681D01*
X130618100Y-53479202D01*
X130629417Y-53550661D01*
X130637112Y-53565763D01*
X130640032Y-53573528D01*
X130640461Y-53573341D01*
X130644587Y-53582748D01*
X130648120Y-53588156D01*
X130651458Y-53593920D01*
X130680283Y-53650491D01*
X130695889Y-53666096D01*
X130701593Y-53673120D01*
X130701605Y-53673110D01*
X130708564Y-53680670D01*
X130714089Y-53684970D01*
X130719853Y-53690061D01*
X130759503Y-53729711D01*
X130759505Y-53729712D01*
X130759509Y-53729716D01*
X130783930Y-53742159D01*
X130796477Y-53750137D01*
X130800871Y-53752515D01*
X130800874Y-53752517D01*
X130807119Y-53754661D01*
X130815141Y-53758062D01*
X130859338Y-53780582D01*
X130891910Y-53785740D01*
X130910044Y-53790255D01*
X130911512Y-53790500D01*
X130912201Y-53790500D01*
X130931599Y-53792027D01*
X130969998Y-53798109D01*
X130970000Y-53798109D01*
X130970003Y-53798109D01*
X131080658Y-53780583D01*
X131080659Y-53780583D01*
X131080660Y-53780582D01*
X131080662Y-53780582D01*
X131180491Y-53729716D01*
X131259716Y-53650491D01*
X131310582Y-53550662D01*
X131313554Y-53531893D01*
X131314445Y-53527557D01*
X131314471Y-53527234D01*
X131314473Y-53527232D01*
X131314480Y-53527141D01*
X131315026Y-53522595D01*
X131328109Y-53440001D01*
X132011891Y-53440001D01*
X132014770Y-53458184D01*
X132015321Y-53462755D01*
X132015867Y-53469342D01*
X132016966Y-53473681D01*
X132018100Y-53479202D01*
X132029417Y-53550661D01*
X132037112Y-53565763D01*
X132040032Y-53573528D01*
X132040461Y-53573341D01*
X132044587Y-53582748D01*
X132048120Y-53588156D01*
X132051458Y-53593920D01*
X132080283Y-53650491D01*
X132095889Y-53666096D01*
X132101593Y-53673120D01*
X132101605Y-53673110D01*
X132108564Y-53680670D01*
X132114089Y-53684970D01*
X132119853Y-53690061D01*
X132159503Y-53729711D01*
X132159505Y-53729712D01*
X132159509Y-53729716D01*
X132183930Y-53742159D01*
X132196477Y-53750137D01*
X132200871Y-53752515D01*
X132200874Y-53752517D01*
X132207119Y-53754661D01*
X132215141Y-53758062D01*
X132259338Y-53780582D01*
X132291910Y-53785740D01*
X132310044Y-53790255D01*
X132311512Y-53790500D01*
X132312201Y-53790500D01*
X132331599Y-53792027D01*
X132369998Y-53798109D01*
X132370000Y-53798109D01*
X132370003Y-53798109D01*
X132480658Y-53780583D01*
X132480659Y-53780583D01*
X132480660Y-53780582D01*
X132480662Y-53780582D01*
X132580491Y-53729716D01*
X132659716Y-53650491D01*
X132710582Y-53550662D01*
X132713554Y-53531893D01*
X132714445Y-53527557D01*
X132714471Y-53527234D01*
X132714473Y-53527232D01*
X132714480Y-53527141D01*
X132715026Y-53522595D01*
X132728109Y-53440000D01*
X132725226Y-53421800D01*
X132724675Y-53417223D01*
X132724131Y-53410661D01*
X132724132Y-53410656D01*
X132723036Y-53406331D01*
X132721900Y-53400802D01*
X132714670Y-53355152D01*
X132710582Y-53329338D01*
X132702890Y-53314243D01*
X132699972Y-53306479D01*
X132699543Y-53306668D01*
X132695415Y-53297257D01*
X132691881Y-53291847D01*
X132688542Y-53286082D01*
X132676584Y-53262615D01*
X132659716Y-53229509D01*
X132659713Y-53229506D01*
X132659711Y-53229503D01*
X132644111Y-53213903D01*
X132638407Y-53206879D01*
X132638396Y-53206890D01*
X132631437Y-53199330D01*
X132625908Y-53195027D01*
X132620149Y-53189942D01*
X132580491Y-53150284D01*
X132556070Y-53137840D01*
X132543520Y-53129861D01*
X132539126Y-53127483D01*
X132532885Y-53125340D01*
X132524863Y-53121939D01*
X132480661Y-53099417D01*
X132448090Y-53094258D01*
X132429931Y-53089740D01*
X132428489Y-53089500D01*
X132428488Y-53089500D01*
X132427799Y-53089500D01*
X132408401Y-53087973D01*
X132370002Y-53081891D01*
X132369997Y-53081891D01*
X132259341Y-53099416D01*
X132259340Y-53099416D01*
X132159506Y-53150285D01*
X132080284Y-53229507D01*
X132029419Y-53329334D01*
X132029416Y-53329341D01*
X132026444Y-53348100D01*
X132025552Y-53352452D01*
X132025517Y-53352876D01*
X132024967Y-53357438D01*
X132011891Y-53439996D01*
X132011891Y-53440001D01*
X131328109Y-53440001D01*
X131328109Y-53440000D01*
X131325226Y-53421800D01*
X131324675Y-53417223D01*
X131324131Y-53410661D01*
X131324132Y-53410656D01*
X131323036Y-53406331D01*
X131321900Y-53400802D01*
X131314670Y-53355152D01*
X131310582Y-53329338D01*
X131302890Y-53314243D01*
X131299972Y-53306479D01*
X131299543Y-53306668D01*
X131295415Y-53297257D01*
X131291881Y-53291847D01*
X131288542Y-53286082D01*
X131276584Y-53262615D01*
X131259716Y-53229509D01*
X131259713Y-53229506D01*
X131259711Y-53229503D01*
X131244111Y-53213903D01*
X131238407Y-53206879D01*
X131238396Y-53206890D01*
X131231437Y-53199330D01*
X131225908Y-53195027D01*
X131220149Y-53189942D01*
X131180491Y-53150284D01*
X131156070Y-53137840D01*
X131143520Y-53129861D01*
X131139126Y-53127483D01*
X131132885Y-53125340D01*
X131124863Y-53121939D01*
X131080661Y-53099417D01*
X131048090Y-53094258D01*
X131029931Y-53089740D01*
X131028489Y-53089500D01*
X131028488Y-53089500D01*
X131027799Y-53089500D01*
X131008401Y-53087973D01*
X130970002Y-53081891D01*
X130969997Y-53081891D01*
X130859341Y-53099416D01*
X130859340Y-53099416D01*
X130759506Y-53150285D01*
X130680284Y-53229507D01*
X130629419Y-53329334D01*
X130629416Y-53329341D01*
X130626444Y-53348100D01*
X130625552Y-53352452D01*
X130625517Y-53352876D01*
X130624967Y-53357438D01*
X130611891Y-53439996D01*
X130611891Y-53440001D01*
X122350000Y-53440001D01*
X122350000Y-46531951D01*
X122369685Y-46464912D01*
X122422489Y-46419157D01*
X122473948Y-46407951D01*
X142775952Y-46400048D01*
X142842999Y-46419706D01*
G37*
%TD.AperFunction*%
%TD*%
%TA.AperFunction,Conductor*%
%TO.N,GND*%
G36*
X150005677Y-90864685D02*
G01*
X150026319Y-90881319D01*
X150393681Y-91248681D01*
X150427166Y-91310004D01*
X150430000Y-91336362D01*
X150430000Y-98053638D01*
X150410315Y-98120677D01*
X150393681Y-98141319D01*
X150076319Y-98458681D01*
X150014996Y-98492166D01*
X149988638Y-98495000D01*
X143891362Y-98495000D01*
X143824323Y-98475315D01*
X143803681Y-98458681D01*
X143456319Y-98111319D01*
X143422834Y-98049996D01*
X143420000Y-98023638D01*
X143420000Y-91306361D01*
X143439685Y-91239322D01*
X143456314Y-91218685D01*
X143793681Y-90881319D01*
X143855004Y-90847834D01*
X143881362Y-90845000D01*
X149938638Y-90845000D01*
X150005677Y-90864685D01*
G37*
%TD.AperFunction*%
%TD*%
%TA.AperFunction,Conductor*%
%TO.N,+3.3V*%
G36*
X174165677Y-78674685D02*
G01*
X174186319Y-78691319D01*
X174393681Y-78898681D01*
X174427166Y-78960004D01*
X174430000Y-78986362D01*
X174430000Y-79075000D01*
X174780000Y-79425000D01*
X176161300Y-79425000D01*
X176228339Y-79444685D01*
X176274094Y-79497489D01*
X176285300Y-79549000D01*
X176285300Y-81191000D01*
X176265615Y-81258039D01*
X176212811Y-81303794D01*
X176161300Y-81315000D01*
X174858807Y-81315000D01*
X174811354Y-81305561D01*
X174810000Y-81305000D01*
X174660000Y-81305000D01*
X174659999Y-81305000D01*
X174350000Y-81614999D01*
X174350000Y-84593638D01*
X174330315Y-84660677D01*
X174313681Y-84681319D01*
X174266319Y-84728681D01*
X174204996Y-84762166D01*
X174178638Y-84765000D01*
X170811362Y-84765000D01*
X170744323Y-84745315D01*
X170723681Y-84728681D01*
X170486829Y-84491829D01*
X170453344Y-84430506D01*
X170450510Y-84403936D01*
X170459719Y-79106422D01*
X170479520Y-79039421D01*
X170496033Y-79018966D01*
X170823681Y-78691319D01*
X170885004Y-78657834D01*
X170911362Y-78655000D01*
X174098638Y-78655000D01*
X174165677Y-78674685D01*
G37*
%TD.AperFunction*%
%TD*%
%TA.AperFunction,Conductor*%
%TO.N,+3.3V*%
G36*
X148755677Y-69014685D02*
G01*
X148776319Y-69031319D01*
X149093681Y-69348681D01*
X149127166Y-69410004D01*
X149130000Y-69436362D01*
X149130000Y-70923637D01*
X149110315Y-70990676D01*
X149093681Y-71011318D01*
X148816319Y-71288681D01*
X148754996Y-71322166D01*
X148728638Y-71325000D01*
X145431362Y-71325000D01*
X145364323Y-71305315D01*
X145343681Y-71288681D01*
X145186319Y-71131319D01*
X145152834Y-71069996D01*
X145150000Y-71043638D01*
X145150000Y-69486362D01*
X145169685Y-69419323D01*
X145186319Y-69398681D01*
X145553681Y-69031319D01*
X145615004Y-68997834D01*
X145641362Y-68995000D01*
X148688638Y-68995000D01*
X148755677Y-69014685D01*
G37*
%TD.AperFunction*%
%TD*%
%TA.AperFunction,Conductor*%
%TO.N,+5V*%
G36*
X166095677Y-74374685D02*
G01*
X166116319Y-74391319D01*
X166453681Y-74728681D01*
X166487166Y-74790004D01*
X166490000Y-74816362D01*
X166490000Y-77933638D01*
X166470315Y-78000677D01*
X166453681Y-78021319D01*
X166296319Y-78178681D01*
X166234996Y-78212166D01*
X166208638Y-78215000D01*
X164001362Y-78215000D01*
X163934323Y-78195315D01*
X163913681Y-78178681D01*
X163806319Y-78071319D01*
X163772834Y-78009996D01*
X163770000Y-77983638D01*
X163770000Y-74786362D01*
X163789685Y-74719323D01*
X163806319Y-74698681D01*
X164113681Y-74391319D01*
X164175004Y-74357834D01*
X164201362Y-74355000D01*
X166028638Y-74355000D01*
X166095677Y-74374685D01*
G37*
%TD.AperFunction*%
%TD*%
%TA.AperFunction,Conductor*%
%TO.N,GND*%
G36*
X149955677Y-79424685D02*
G01*
X149976319Y-79441319D01*
X150283681Y-79748681D01*
X150317166Y-79810004D01*
X150320000Y-79836361D01*
X150320000Y-81575000D01*
X152090000Y-83345000D01*
X152090001Y-83345000D01*
X152101355Y-83349703D01*
X152141579Y-83376579D01*
X152243683Y-83478683D01*
X152277166Y-83540002D01*
X152280000Y-83566361D01*
X152280000Y-88213637D01*
X152260315Y-88280676D01*
X152243682Y-88301317D01*
X152176317Y-88368682D01*
X152114997Y-88402166D01*
X152088638Y-88405000D01*
X145691362Y-88405000D01*
X145624323Y-88385315D01*
X145603681Y-88368681D01*
X145216319Y-87981319D01*
X145182834Y-87919996D01*
X145180000Y-87893638D01*
X145180000Y-83376362D01*
X145199685Y-83309323D01*
X145216319Y-83288681D01*
X146990000Y-81515000D01*
X146990000Y-79846362D01*
X147009685Y-79779323D01*
X147026319Y-79758681D01*
X147343681Y-79441319D01*
X147405004Y-79407834D01*
X147431362Y-79405000D01*
X149888638Y-79405000D01*
X149955677Y-79424685D01*
G37*
%TD.AperFunction*%
%TD*%
%TA.AperFunction,Conductor*%
%TO.N,GND*%
G36*
X133515677Y-68439685D02*
G01*
X133536319Y-68456319D01*
X133733681Y-68653681D01*
X133767166Y-68715004D01*
X133770000Y-68741362D01*
X133770000Y-72428637D01*
X133750315Y-72495676D01*
X133733681Y-72516318D01*
X133476319Y-72773681D01*
X133414996Y-72807166D01*
X133388638Y-72810000D01*
X125739999Y-72810000D01*
X125490000Y-73059999D01*
X125490000Y-75248638D01*
X125470315Y-75315677D01*
X125453681Y-75336319D01*
X125276319Y-75513681D01*
X125214996Y-75547166D01*
X125188638Y-75550000D01*
X124761362Y-75550000D01*
X124694323Y-75530315D01*
X124673681Y-75513681D01*
X124446319Y-75286319D01*
X124412834Y-75224996D01*
X124410000Y-75198638D01*
X124410000Y-73490000D01*
X123956319Y-73036319D01*
X123922834Y-72974996D01*
X123920000Y-72948638D01*
X123920000Y-68544000D01*
X123939685Y-68476961D01*
X123992489Y-68431206D01*
X124044000Y-68420000D01*
X133448638Y-68420000D01*
X133515677Y-68439685D01*
G37*
%TD.AperFunction*%
%TD*%
%TA.AperFunction,Conductor*%
%TO.N,+3.3V*%
G36*
X144203251Y-65605753D02*
G01*
X144232375Y-65627375D01*
X144323681Y-65718681D01*
X144357166Y-65780004D01*
X144360000Y-65806362D01*
X144360000Y-68523638D01*
X144340315Y-68590677D01*
X144323681Y-68611319D01*
X143846319Y-69088681D01*
X143784996Y-69122166D01*
X143758638Y-69125000D01*
X140931362Y-69125000D01*
X140864323Y-69105315D01*
X140843681Y-69088681D01*
X140676319Y-68921319D01*
X140642834Y-68859996D01*
X140640000Y-68833638D01*
X140640000Y-66869700D01*
X140659685Y-66802661D01*
X140712489Y-66756906D01*
X140764000Y-66745700D01*
X142842851Y-66745700D01*
X142848252Y-66745935D01*
X142889267Y-66749524D01*
X142929037Y-66738866D01*
X142934297Y-66737700D01*
X142974851Y-66730551D01*
X142974855Y-66730548D01*
X142979248Y-66728950D01*
X142997662Y-66721322D01*
X143001910Y-66719341D01*
X143001916Y-66719340D01*
X143035642Y-66695723D01*
X143040190Y-66692825D01*
X143075849Y-66672239D01*
X143102329Y-66640680D01*
X143105947Y-66636731D01*
X143931725Y-65810954D01*
X143935697Y-65807314D01*
X143967239Y-65780849D01*
X143987831Y-65745179D01*
X143990707Y-65740666D01*
X144014341Y-65706916D01*
X144014341Y-65706913D01*
X144016307Y-65702700D01*
X144023940Y-65684272D01*
X144025545Y-65679859D01*
X144025551Y-65679851D01*
X144025552Y-65679840D01*
X144028170Y-65672650D01*
X144069594Y-65616385D01*
X144134862Y-65591446D01*
X144203251Y-65605753D01*
G37*
%TD.AperFunction*%
%TD*%
%TA.AperFunction,Conductor*%
%TO.N,GND*%
G36*
X137291422Y-81572125D02*
G01*
X137298480Y-81577634D01*
X137300000Y-81583401D01*
X137300000Y-81946598D01*
X137296573Y-81954871D01*
X137291421Y-81957874D01*
X136663020Y-82131798D01*
X136654132Y-82130702D01*
X136649101Y-82125025D01*
X136500875Y-81769499D01*
X136500855Y-81760550D01*
X136649101Y-81404973D01*
X136655447Y-81398657D01*
X136663020Y-81398201D01*
X137291422Y-81572125D01*
G37*
%TD.AperFunction*%
%TD*%
%TA.AperFunction,Conductor*%
%TO.N,GND*%
G36*
X143180584Y-81369489D02*
G01*
X143186083Y-81375418D01*
X143334123Y-81730497D01*
X143334144Y-81739451D01*
X143334123Y-81739501D01*
X143185735Y-82095416D01*
X143179388Y-82101734D01*
X143172286Y-82102310D01*
X142550017Y-81957604D01*
X142542735Y-81952392D01*
X142540967Y-81946208D01*
X142540967Y-81582990D01*
X142544394Y-81574717D01*
X142549038Y-81571867D01*
X143171658Y-81368797D01*
X143180584Y-81369489D01*
G37*
%TD.AperFunction*%
%TD*%
%TA.AperFunction,Conductor*%
%TO.N,GND*%
G36*
X154756006Y-64634965D02*
G01*
X154764271Y-64638413D01*
X154767677Y-64646694D01*
X154767487Y-64648766D01*
X154625752Y-65425401D01*
X154620895Y-65432924D01*
X154614242Y-65435000D01*
X154125758Y-65435000D01*
X154117485Y-65431573D01*
X154114248Y-65425401D01*
X153972512Y-64648766D01*
X153974398Y-64640012D01*
X153981921Y-64635155D01*
X153983992Y-64634965D01*
X154370000Y-64634000D01*
X154756006Y-64634965D01*
G37*
%TD.AperFunction*%
%TD*%
%TA.AperFunction,Conductor*%
%TO.N,GND*%
G36*
X154622932Y-66593594D02*
G01*
X154626069Y-66599276D01*
X154767371Y-67221526D01*
X154765861Y-67230353D01*
X154760463Y-67234916D01*
X154402175Y-67384293D01*
X154397644Y-67385194D01*
X154013499Y-67384233D01*
X154005234Y-67380785D01*
X154001828Y-67372504D01*
X154001951Y-67370842D01*
X154114538Y-66600176D01*
X154119125Y-66592485D01*
X154126115Y-66590167D01*
X154614659Y-66590167D01*
X154622932Y-66593594D01*
G37*
%TD.AperFunction*%
%TD*%
%TA.AperFunction,Conductor*%
%TO.N,GND*%
G36*
X154738072Y-60736241D02*
G01*
X154744221Y-60742198D01*
X155022132Y-61353501D01*
X155022436Y-61362450D01*
X155019754Y-61366616D01*
X154851616Y-61534754D01*
X154843343Y-61538181D01*
X154838501Y-61537132D01*
X154227198Y-61259221D01*
X154221085Y-61252677D01*
X154221219Y-61244119D01*
X154367437Y-60888802D01*
X154373753Y-60882457D01*
X154729119Y-60736220D01*
X154738072Y-60736241D01*
G37*
%TD.AperFunction*%
%TD*%
%TA.AperFunction,Conductor*%
%TO.N,GND*%
G36*
X174785311Y-61659712D02*
G01*
X174791268Y-61665861D01*
X174939123Y-62020498D01*
X174939144Y-62029452D01*
X174939123Y-62029502D01*
X174791268Y-62384138D01*
X174784921Y-62390456D01*
X174776362Y-62390591D01*
X174147593Y-62154846D01*
X174141049Y-62148733D01*
X174140000Y-62143891D01*
X174140000Y-61906108D01*
X174143427Y-61897835D01*
X174147593Y-61895153D01*
X174776364Y-61659408D01*
X174785311Y-61659712D01*
G37*
%TD.AperFunction*%
%TD*%
%TA.AperFunction,Conductor*%
%TO.N,GND*%
G36*
X122765867Y-81399297D02*
G01*
X122770899Y-81404975D01*
X122919123Y-81760498D01*
X122919144Y-81769452D01*
X122919123Y-81769502D01*
X122770899Y-82125024D01*
X122764552Y-82131342D01*
X122756979Y-82131798D01*
X122128579Y-81957874D01*
X122121520Y-81952365D01*
X122120000Y-81946598D01*
X122120000Y-81583401D01*
X122123427Y-81575128D01*
X122128577Y-81572126D01*
X122756979Y-81398201D01*
X122765867Y-81399297D01*
G37*
%TD.AperFunction*%
%TD*%
%TA.AperFunction,Conductor*%
%TO.N,GND*%
G36*
X120539979Y-81572211D02*
G01*
X120547111Y-81577623D01*
X120548711Y-81583528D01*
X120548711Y-81946736D01*
X120545284Y-81955009D01*
X120540302Y-81957964D01*
X119913829Y-82141604D01*
X119904926Y-82140642D01*
X119899740Y-82134879D01*
X119751575Y-81779499D01*
X119751555Y-81770550D01*
X119899855Y-81414844D01*
X119906202Y-81408527D01*
X119913619Y-81408029D01*
X120539979Y-81572211D01*
G37*
%TD.AperFunction*%
%TD*%
%TA.AperFunction,Conductor*%
%TO.N,GND*%
G36*
X123711422Y-81572125D02*
G01*
X123718480Y-81577634D01*
X123720000Y-81583401D01*
X123720000Y-81946598D01*
X123716573Y-81954871D01*
X123711421Y-81957874D01*
X123083020Y-82131798D01*
X123074132Y-82130702D01*
X123069101Y-82125025D01*
X122920875Y-81769499D01*
X122920855Y-81760550D01*
X123069101Y-81404973D01*
X123075447Y-81398657D01*
X123083020Y-81398201D01*
X123711422Y-81572125D01*
G37*
%TD.AperFunction*%
%TD*%
%TA.AperFunction,Conductor*%
%TO.N,GND*%
G36*
X136345867Y-81399297D02*
G01*
X136350899Y-81404975D01*
X136499123Y-81760498D01*
X136499144Y-81769452D01*
X136499123Y-81769502D01*
X136350899Y-82125024D01*
X136344552Y-82131342D01*
X136336979Y-82131798D01*
X135708579Y-81957874D01*
X135701520Y-81952365D01*
X135700000Y-81946598D01*
X135700000Y-81583401D01*
X135703427Y-81575128D01*
X135708577Y-81572126D01*
X136336979Y-81398201D01*
X136345867Y-81399297D01*
G37*
%TD.AperFunction*%
%TD*%
%TA.AperFunction,Conductor*%
%TO.N,FLASH*%
G36*
X175637165Y-67698427D02*
G01*
X175639847Y-67702593D01*
X175875591Y-68331362D01*
X175875287Y-68340311D01*
X175869138Y-68346268D01*
X175514502Y-68494123D01*
X175505548Y-68494144D01*
X175505498Y-68494123D01*
X175150861Y-68346268D01*
X175144543Y-68339921D01*
X175144408Y-68331364D01*
X175380153Y-67702592D01*
X175386266Y-67696049D01*
X175391108Y-67695000D01*
X175628892Y-67695000D01*
X175637165Y-67698427D01*
G37*
%TD.AperFunction*%
%TD*%
%TA.AperFunction,Conductor*%
%TO.N,FLASH*%
G36*
X152309138Y-61498731D02*
G01*
X152315456Y-61505078D01*
X152315591Y-61513637D01*
X152079847Y-62142407D01*
X152073734Y-62148951D01*
X152068892Y-62150000D01*
X151831108Y-62150000D01*
X151822835Y-62146573D01*
X151820153Y-62142407D01*
X151584408Y-61513635D01*
X151584712Y-61504688D01*
X151590859Y-61498732D01*
X151945500Y-61350875D01*
X151954449Y-61350855D01*
X152309138Y-61498731D01*
G37*
%TD.AperFunction*%
%TD*%
%TA.AperFunction,Conductor*%
%TO.N,EN*%
G36*
X149439138Y-50563731D02*
G01*
X149445456Y-50570078D01*
X149445591Y-50578637D01*
X149209847Y-51207407D01*
X149203734Y-51213951D01*
X149198892Y-51215000D01*
X148961108Y-51215000D01*
X148952835Y-51211573D01*
X148950153Y-51207407D01*
X148714408Y-50578635D01*
X148714712Y-50569688D01*
X148720859Y-50563732D01*
X149075500Y-50415875D01*
X149084449Y-50415855D01*
X149439138Y-50563731D01*
G37*
%TD.AperFunction*%
%TD*%
%TA.AperFunction,Conductor*%
%TO.N,EN*%
G36*
X121969138Y-51173731D02*
G01*
X121975456Y-51180078D01*
X121975591Y-51188637D01*
X121739847Y-51817407D01*
X121733734Y-51823951D01*
X121728892Y-51825000D01*
X121491108Y-51825000D01*
X121482835Y-51821573D01*
X121480153Y-51817407D01*
X121244408Y-51188635D01*
X121244712Y-51179688D01*
X121250859Y-51173732D01*
X121605500Y-51025875D01*
X121614449Y-51025855D01*
X121969138Y-51173731D01*
G37*
%TD.AperFunction*%
%TD*%
%TA.AperFunction,Conductor*%
%TO.N,EN*%
G36*
X178297165Y-86018427D02*
G01*
X178299847Y-86022593D01*
X178535591Y-86651362D01*
X178535287Y-86660311D01*
X178529138Y-86666268D01*
X178174502Y-86814123D01*
X178165548Y-86814144D01*
X178165498Y-86814123D01*
X177810861Y-86666268D01*
X177804543Y-86659921D01*
X177804408Y-86651364D01*
X178040153Y-86022592D01*
X178046266Y-86016049D01*
X178051108Y-86015000D01*
X178288892Y-86015000D01*
X178297165Y-86018427D01*
G37*
%TD.AperFunction*%
%TD*%
%TA.AperFunction,Conductor*%
%TO.N,EN*%
G36*
X148925311Y-50049712D02*
G01*
X148931268Y-50055861D01*
X149026864Y-50285153D01*
X149079123Y-50410497D01*
X149079144Y-50419451D01*
X149079123Y-50419501D01*
X148931268Y-50774138D01*
X148924921Y-50780456D01*
X148916362Y-50780591D01*
X148287593Y-50544846D01*
X148281049Y-50538733D01*
X148280000Y-50533891D01*
X148280000Y-50296108D01*
X148283427Y-50287835D01*
X148287593Y-50285153D01*
X148916364Y-50049408D01*
X148925311Y-50049712D01*
G37*
%TD.AperFunction*%
%TD*%
%TA.AperFunction,Conductor*%
%TO.N,BUTTON CHECK*%
G36*
X175887165Y-75938427D02*
G01*
X175889847Y-75942593D01*
X176125591Y-76571362D01*
X176125287Y-76580311D01*
X176119138Y-76586268D01*
X175764502Y-76734123D01*
X175755548Y-76734144D01*
X175755498Y-76734123D01*
X175400861Y-76586268D01*
X175394543Y-76579921D01*
X175394408Y-76571364D01*
X175630153Y-75942592D01*
X175636266Y-75936049D01*
X175641108Y-75935000D01*
X175878892Y-75935000D01*
X175887165Y-75938427D01*
G37*
%TD.AperFunction*%
%TD*%
%TA.AperFunction,Conductor*%
%TO.N,BUTTON CHECK*%
G36*
X145529138Y-62513731D02*
G01*
X145535456Y-62520078D01*
X145535591Y-62528637D01*
X145299847Y-63157407D01*
X145293734Y-63163951D01*
X145288892Y-63165000D01*
X145051108Y-63165000D01*
X145042835Y-63161573D01*
X145040153Y-63157407D01*
X144804408Y-62528635D01*
X144804712Y-62519688D01*
X144810859Y-62513732D01*
X145165500Y-62365875D01*
X145174449Y-62365855D01*
X145529138Y-62513731D01*
G37*
%TD.AperFunction*%
%TD*%
%TA.AperFunction,Conductor*%
%TO.N,+3.3V*%
G36*
X114377696Y-52749246D02*
G01*
X115213953Y-53210663D01*
X115219540Y-53217659D01*
X115220000Y-53220906D01*
X115220000Y-53969093D01*
X115216573Y-53977366D01*
X115213952Y-53979337D01*
X114377698Y-54440752D01*
X114368799Y-54441748D01*
X114363779Y-54438786D01*
X113527287Y-53603277D01*
X113523855Y-53595006D01*
X113527275Y-53586733D01*
X114363780Y-52751211D01*
X114372053Y-52747791D01*
X114377696Y-52749246D01*
G37*
%TD.AperFunction*%
%TD*%
%TA.AperFunction,Conductor*%
%TO.N,+3.3V*%
G36*
X115231602Y-71976530D02*
G01*
X115238571Y-71982151D01*
X115240000Y-71987754D01*
X115240000Y-72732245D01*
X115236573Y-72740518D01*
X115231601Y-72743470D01*
X113875357Y-73142334D01*
X113866453Y-73141380D01*
X113861251Y-73135598D01*
X113540865Y-72364489D01*
X113540856Y-72355534D01*
X113540865Y-72355511D01*
X113861251Y-71584401D01*
X113867590Y-71578076D01*
X113875356Y-71577665D01*
X115231602Y-71976530D01*
G37*
%TD.AperFunction*%
%TD*%
%TA.AperFunction,Conductor*%
%TO.N,Net-(U2-EN)*%
G36*
X147362311Y-89442712D02*
G01*
X147368268Y-89448861D01*
X147516123Y-89803498D01*
X147516144Y-89812452D01*
X147516123Y-89812502D01*
X147368268Y-90167138D01*
X147361921Y-90173456D01*
X147353362Y-90173591D01*
X146724593Y-89937846D01*
X146718049Y-89931733D01*
X146717000Y-89926891D01*
X146717000Y-89689108D01*
X146720427Y-89680835D01*
X146724593Y-89678153D01*
X147353364Y-89442408D01*
X147362311Y-89442712D01*
G37*
%TD.AperFunction*%
%TD*%
%TA.AperFunction,Conductor*%
%TO.N,Net-(U2-EN)*%
G36*
X142957165Y-102968427D02*
G01*
X142959847Y-102972593D01*
X143195591Y-103601362D01*
X143195287Y-103610311D01*
X143189138Y-103616268D01*
X142834502Y-103764123D01*
X142825548Y-103764144D01*
X142825498Y-103764123D01*
X142470861Y-103616268D01*
X142464543Y-103609921D01*
X142464408Y-103601364D01*
X142700153Y-102972592D01*
X142706266Y-102966049D01*
X142711108Y-102965000D01*
X142948892Y-102965000D01*
X142957165Y-102968427D01*
G37*
%TD.AperFunction*%
%TD*%
%TA.AperFunction,Conductor*%
%TO.N,Net-(U5-~{DTR})*%
G36*
X154217165Y-49818427D02*
G01*
X154219847Y-49822593D01*
X154455591Y-50451362D01*
X154455287Y-50460311D01*
X154449138Y-50466268D01*
X154094502Y-50614123D01*
X154085548Y-50614144D01*
X154085498Y-50614123D01*
X153730861Y-50466268D01*
X153724543Y-50459921D01*
X153724408Y-50451364D01*
X153960153Y-49822592D01*
X153966266Y-49816049D01*
X153971108Y-49815000D01*
X154208892Y-49815000D01*
X154217165Y-49818427D01*
G37*
%TD.AperFunction*%
%TD*%
%TA.AperFunction,Conductor*%
%TO.N,Net-(U5-~{DTR})*%
G36*
X161340880Y-46536219D02*
G01*
X161696195Y-46682436D01*
X161702542Y-46688754D01*
X161702563Y-46688804D01*
X161848779Y-47044118D01*
X161848758Y-47053072D01*
X161842801Y-47059221D01*
X161231498Y-47337132D01*
X161222549Y-47337436D01*
X161218383Y-47334754D01*
X161050245Y-47166616D01*
X161046818Y-47158343D01*
X161047866Y-47153505D01*
X161325779Y-46542197D01*
X161332322Y-46536085D01*
X161340880Y-46536219D01*
G37*
%TD.AperFunction*%
%TD*%
%TA.AperFunction,Conductor*%
%TO.N,Net-(U5-~{RTS})*%
G36*
X152827165Y-49828427D02*
G01*
X152829847Y-49832593D01*
X153065591Y-50461362D01*
X153065287Y-50470311D01*
X153059138Y-50476268D01*
X152704502Y-50624123D01*
X152695548Y-50624144D01*
X152695498Y-50624123D01*
X152340861Y-50476268D01*
X152334543Y-50469921D01*
X152334408Y-50461364D01*
X152570153Y-49832592D01*
X152576266Y-49826049D01*
X152581108Y-49825000D01*
X152818892Y-49825000D01*
X152827165Y-49828427D01*
G37*
%TD.AperFunction*%
%TD*%
%TA.AperFunction,Conductor*%
%TO.N,Net-(U5-~{RTS})*%
G36*
X160255316Y-46340209D02*
G01*
X160261266Y-46346355D01*
X160409123Y-46700997D01*
X160409144Y-46709951D01*
X160409123Y-46710001D01*
X160261271Y-47064630D01*
X160254924Y-47070948D01*
X160246357Y-47071080D01*
X159617684Y-46834850D01*
X159611144Y-46828732D01*
X159610099Y-46823898D01*
X159610099Y-46586114D01*
X159613526Y-46577841D01*
X159617696Y-46575156D01*
X160246368Y-46339899D01*
X160255316Y-46340209D01*
G37*
%TD.AperFunction*%
%TD*%
%TA.AperFunction,Conductor*%
%TO.N,+5V*%
G36*
X113229201Y-64895523D02*
G01*
X113229419Y-64896015D01*
X113548844Y-65664809D01*
X113548853Y-65673764D01*
X113548846Y-65673780D01*
X113228750Y-66445577D01*
X113222416Y-66451906D01*
X113214627Y-66452315D01*
X112211593Y-66155918D01*
X112206636Y-66152971D01*
X111681697Y-65628032D01*
X111678270Y-65619759D01*
X111681697Y-65611486D01*
X111684989Y-65609172D01*
X113213635Y-64889916D01*
X113222578Y-64889496D01*
X113229201Y-64895523D01*
G37*
%TD.AperFunction*%
%TD*%
%TA.AperFunction,Conductor*%
%TO.N,+5V*%
G36*
X114397696Y-89294246D02*
G01*
X115233951Y-89755662D01*
X115239539Y-89762659D01*
X115239999Y-89765906D01*
X115239999Y-90514093D01*
X115236572Y-90522366D01*
X115233951Y-90524337D01*
X114397698Y-90985752D01*
X114388799Y-90986748D01*
X114383779Y-90983786D01*
X113547286Y-90148276D01*
X113543855Y-90140007D01*
X113547276Y-90131733D01*
X114383780Y-89296211D01*
X114392053Y-89292791D01*
X114397696Y-89294246D01*
G37*
%TD.AperFunction*%
%TD*%
M02*
