M48
; DRILL file {KiCad 7.0.5} date Fri Jul  7 19:33:19 2023
; FORMAT={-:-/ absolute / inch / decimal}
; #@! TF.CreationDate,2023-07-07T19:33:19+07:00
; #@! TF.GenerationSoftware,Kicad,Pcbnew,7.0.5
; #@! TF.FileFunction,Plated,1,2,PTH
FMAT,2
INCH
; #@! TA.AperFunction,Plated,PTH,ViaDrill
T1C0.0079
; #@! TA.AperFunction,Plated,PTH,ComponentDrill
T2C0.0079
; #@! TA.AperFunction,Plated,PTH,ViaDrill
T3C0.0157
; #@! TA.AperFunction,Plated,PTH,ComponentDrill
T4C0.0217
; #@! TA.AperFunction,Plated,PTH,ComponentDrill
T5C0.0335
; #@! TA.AperFunction,Plated,PTH,ComponentDrill
T6C0.0394
; #@! TA.AperFunction,Plated,PTH,ComponentDrill
T7C0.0630
%
G90
G05
T1
X5.7339Y-3.6957
X5.7339Y-3.7159
X5.7339Y-3.7359
X5.7339Y-3.7559
X5.7539Y-3.6959
X5.7539Y-3.7159
X5.7539Y-3.7359
X5.7539Y-3.7559
X5.7739Y-3.6959
X5.7739Y-3.7159
X5.7739Y-3.7359
X5.7739Y-3.7559
X5.7939Y-3.6959
X5.7939Y-3.7159
X5.7939Y-3.7359
X5.7939Y-3.7559
X5.8139Y-3.6959
X5.8139Y-3.7159
X5.8139Y-3.7359
X5.8139Y-3.7559
X5.8339Y-3.6959
X5.8339Y-3.7159
X5.8339Y-3.7359
X5.8339Y-3.7559
T2
X5.1287Y-2.1315
X5.1287Y-2.1866
X5.1563Y-2.1039
X5.1563Y-2.1591
X5.1563Y-2.2142
X5.1839Y-2.1315
X5.1839Y-2.1866
X5.2114Y-2.1039
X5.2114Y-2.1591
X5.2114Y-2.2142
X5.239Y-2.1315
X5.239Y-2.1866
T3
X4.6252Y-3.4272
X4.6252Y-3.4772
X4.6252Y-3.5281
X4.6693Y-2.0453
X4.6752Y-3.4772
X4.6752Y-3.5281
X4.6759Y-3.4275
X4.7146Y-3.2195
X4.7252Y-3.4272
X4.7252Y-3.4772
X4.7252Y-3.5281
X4.7551Y-2.7461
X4.7752Y-3.4272
X4.7752Y-3.4772
X4.7752Y-3.5281
X4.7878Y-2.0089
X4.8327Y-1.8543
X4.8327Y-2.5472
X4.8394Y-3.2191
X4.8409Y-3.477
X4.8409Y-3.527
X4.8412Y-3.4275
X4.8906Y-3.4281
X4.8906Y-3.4781
X4.8909Y-3.527
X4.9406Y-3.4281
X4.9406Y-3.4781
X4.9409Y-3.527
X4.9751Y-2.7421
X4.9751Y-2.7821
X4.9906Y-3.4281
X4.9906Y-3.4781
X4.9909Y-3.527
X5.0051Y-2.7121
X5.013Y-2.75
X5.043Y-2.72
X5.0651Y-2.8421
X5.0827Y-3.2199
X5.0833Y-3.4275
X5.0835Y-3.4781
X5.0839Y-3.527
X5.1051Y-2.8421
X5.1055Y-2.8021
X5.1406Y-3.4281
X5.1406Y-3.4781
X5.1409Y-3.527
X5.1906Y-3.4281
X5.1906Y-3.4781
X5.1909Y-3.527
X5.2406Y-3.4281
X5.2406Y-3.4781
X5.2409Y-3.527
X5.2906Y-3.4275
X5.2906Y-3.4781
X5.2909Y-3.527
X5.3673Y-3.0482
X5.3673Y-3.0982
X5.3673Y-3.1482
X5.374Y-3.2191
X5.4173Y-3.0482
X5.4173Y-3.0982
X5.4173Y-3.1482
X5.4673Y-3.0982
X5.4673Y-3.1482
X5.4677Y-3.0478
X5.5634Y-2.6467
X5.5634Y-2.6967
X5.6134Y-2.6467
X5.6134Y-2.6967
X5.6232Y-4.0852
X5.6431Y-3.2179
X5.7154Y-2.4553
X5.7449Y-2.7368
X5.7449Y-2.7868
X5.7677Y-3.297
X5.7945Y-2.7368
X5.7949Y-2.7868
X5.7972Y-2.3566
X5.8078Y-3.5357
X5.8117Y-2.9964
X5.8117Y-3.0486
X5.8118Y-2.8967
X5.8118Y-2.9467
X5.8169Y-3.4104
X5.8169Y-3.4604
X5.8177Y-3.247
X5.8177Y-3.297
X5.8445Y-2.7368
X5.8449Y-2.7868
X5.8669Y-3.4099
X5.8669Y-3.4604
X5.8673Y-3.2967
X5.8677Y-3.147
X5.8677Y-3.197
X5.8677Y-3.247
X5.8693Y-1.9848
X5.9169Y-3.3604
X5.9169Y-3.4104
X5.9169Y-3.4604
X5.9669Y-3.3604
X5.9669Y-3.4104
X5.9669Y-3.4604
X5.9677Y-4.1789
X5.9823Y-2.4154
X6.0118Y-1.9931
X6.0129Y-4.0971
X6.0665Y-1.9927
X6.0776Y-2.397
X6.0776Y-2.5447
X6.0787Y-2.6529
X6.1488Y-2.0608
X6.1504Y-1.9093
X6.3154Y-1.8388
X6.3661Y-1.838
X6.478Y-2.9541
X6.478Y-3.0041
X6.478Y-3.0537
X6.528Y-2.9541
X6.528Y-3.0041
X6.528Y-3.0541
X6.5413Y-2.3585
X6.6362Y-2.2159
X6.6372Y-1.9563
X6.7146Y-2.2502
X6.7146Y-2.3829
X6.7406Y-3.1148
X6.7406Y-3.1648
X6.7406Y-3.2148
X6.7406Y-3.2648
X6.7406Y-3.3148
X6.7906Y-3.1148
X6.7906Y-3.1648
X6.7906Y-3.2148
X6.7906Y-3.2648
X6.7906Y-3.3148
X6.8402Y-3.1646
X6.8406Y-3.1148
X6.8406Y-3.2148
X6.8406Y-3.2648
X6.8406Y-3.3148
X6.8874Y-2.4419
X6.9098Y-2.6967
X6.9197Y-3.0211
X6.9634Y-2.6967
X7.0146Y-3.4179
T6
X4.4693Y-1.91
X4.4693Y-2.01
X4.4693Y-2.11
X4.4701Y-2.8488
X4.4701Y-2.9488
X4.4701Y-3.0488
X4.4701Y-3.1488
X4.4701Y-3.2488
X4.4701Y-3.3488
X4.4701Y-3.4488
X4.4701Y-3.5488
X4.4705Y-2.2854
X4.4705Y-2.3854
X4.4705Y-2.4854
X4.4705Y-2.5854
X4.4705Y-2.6854
T7
X6.6421Y-2.5967
X6.6421Y-2.7817
X6.6421Y-2.9667
T4
G00X6.9754Y-1.9504
M15
G01X7.001Y-1.9504
M16
G05
G00X6.9754Y-2.2555
M15
G01X7.001Y-2.2555
M16
G05
T5
G00X6.8278Y-1.9563
M15
G01X6.8494Y-1.9563
M16
G05
G00X6.8278Y-2.2496
M15
G01X6.8494Y-2.2496
M16
G05
T6
G00X6.5531Y-3.7466
M15
G01X6.6516Y-3.7466
M16
G05
G00X6.563Y-3.9828
M15
G01X6.6417Y-3.9828
M16
G05
G00X6.7874Y-3.904
M15
G01X6.7874Y-3.8253
M16
G05
T0
M30
