%TF.GenerationSoftware,KiCad,Pcbnew,7.0.5*%
%TF.CreationDate,2023-07-07T19:33:34+07:00*%
%TF.ProjectId,19-6-2023_WeatherStation_QuocThang_V1,31392d36-2d32-4303-9233-5f5765617468,rev?*%
%TF.SameCoordinates,Original*%
%TF.FileFunction,Legend,Top*%
%TF.FilePolarity,Positive*%
%FSLAX46Y46*%
G04 Gerber Fmt 4.6, Leading zero omitted, Abs format (unit mm)*
G04 Created by KiCad (PCBNEW 7.0.5) date 2023-07-07 19:33:34*
%MOMM*%
%LPD*%
G01*
G04 APERTURE LIST*
%ADD10C,0.100000*%
%ADD11C,0.150000*%
%ADD12C,0.120000*%
%ADD13C,0.152400*%
%ADD14C,0.127000*%
%ADD15C,0.200000*%
%ADD16C,0.220000*%
%ADD17C,0.400000*%
%ADD18C,0.203200*%
G04 APERTURE END LIST*
D10*
X110150000Y-94535000D02*
X118410000Y-94535000D01*
X118410000Y-96955000D01*
X110150000Y-96955000D01*
X110150000Y-94535000D01*
D11*
X111133445Y-96280057D02*
X111038207Y-96232438D01*
X111038207Y-96232438D02*
X110942969Y-96137200D01*
X110942969Y-96137200D02*
X110800112Y-95994342D01*
X110800112Y-95994342D02*
X110704874Y-95946723D01*
X110704874Y-95946723D02*
X110609636Y-95946723D01*
X110657255Y-96184819D02*
X110562017Y-96137200D01*
X110562017Y-96137200D02*
X110466779Y-96041961D01*
X110466779Y-96041961D02*
X110419160Y-95851485D01*
X110419160Y-95851485D02*
X110419160Y-95518152D01*
X110419160Y-95518152D02*
X110466779Y-95327676D01*
X110466779Y-95327676D02*
X110562017Y-95232438D01*
X110562017Y-95232438D02*
X110657255Y-95184819D01*
X110657255Y-95184819D02*
X110847731Y-95184819D01*
X110847731Y-95184819D02*
X110942969Y-95232438D01*
X110942969Y-95232438D02*
X111038207Y-95327676D01*
X111038207Y-95327676D02*
X111085826Y-95518152D01*
X111085826Y-95518152D02*
X111085826Y-95851485D01*
X111085826Y-95851485D02*
X111038207Y-96041961D01*
X111038207Y-96041961D02*
X110942969Y-96137200D01*
X110942969Y-96137200D02*
X110847731Y-96184819D01*
X110847731Y-96184819D02*
X110657255Y-96184819D01*
X111942969Y-95518152D02*
X111942969Y-96184819D01*
X111514398Y-95518152D02*
X111514398Y-96041961D01*
X111514398Y-96041961D02*
X111562017Y-96137200D01*
X111562017Y-96137200D02*
X111657255Y-96184819D01*
X111657255Y-96184819D02*
X111800112Y-96184819D01*
X111800112Y-96184819D02*
X111895350Y-96137200D01*
X111895350Y-96137200D02*
X111942969Y-96089580D01*
X112562017Y-96184819D02*
X112466779Y-96137200D01*
X112466779Y-96137200D02*
X112419160Y-96089580D01*
X112419160Y-96089580D02*
X112371541Y-95994342D01*
X112371541Y-95994342D02*
X112371541Y-95708628D01*
X112371541Y-95708628D02*
X112419160Y-95613390D01*
X112419160Y-95613390D02*
X112466779Y-95565771D01*
X112466779Y-95565771D02*
X112562017Y-95518152D01*
X112562017Y-95518152D02*
X112704874Y-95518152D01*
X112704874Y-95518152D02*
X112800112Y-95565771D01*
X112800112Y-95565771D02*
X112847731Y-95613390D01*
X112847731Y-95613390D02*
X112895350Y-95708628D01*
X112895350Y-95708628D02*
X112895350Y-95994342D01*
X112895350Y-95994342D02*
X112847731Y-96089580D01*
X112847731Y-96089580D02*
X112800112Y-96137200D01*
X112800112Y-96137200D02*
X112704874Y-96184819D01*
X112704874Y-96184819D02*
X112562017Y-96184819D01*
X113752493Y-96137200D02*
X113657255Y-96184819D01*
X113657255Y-96184819D02*
X113466779Y-96184819D01*
X113466779Y-96184819D02*
X113371541Y-96137200D01*
X113371541Y-96137200D02*
X113323922Y-96089580D01*
X113323922Y-96089580D02*
X113276303Y-95994342D01*
X113276303Y-95994342D02*
X113276303Y-95708628D01*
X113276303Y-95708628D02*
X113323922Y-95613390D01*
X113323922Y-95613390D02*
X113371541Y-95565771D01*
X113371541Y-95565771D02*
X113466779Y-95518152D01*
X113466779Y-95518152D02*
X113657255Y-95518152D01*
X113657255Y-95518152D02*
X113752493Y-95565771D01*
X114038208Y-95184819D02*
X114609636Y-95184819D01*
X114323922Y-96184819D02*
X114323922Y-95184819D01*
X114942970Y-96184819D02*
X114942970Y-95184819D01*
X115371541Y-96184819D02*
X115371541Y-95661009D01*
X115371541Y-95661009D02*
X115323922Y-95565771D01*
X115323922Y-95565771D02*
X115228684Y-95518152D01*
X115228684Y-95518152D02*
X115085827Y-95518152D01*
X115085827Y-95518152D02*
X114990589Y-95565771D01*
X114990589Y-95565771D02*
X114942970Y-95613390D01*
X116276303Y-96184819D02*
X116276303Y-95661009D01*
X116276303Y-95661009D02*
X116228684Y-95565771D01*
X116228684Y-95565771D02*
X116133446Y-95518152D01*
X116133446Y-95518152D02*
X115942970Y-95518152D01*
X115942970Y-95518152D02*
X115847732Y-95565771D01*
X116276303Y-96137200D02*
X116181065Y-96184819D01*
X116181065Y-96184819D02*
X115942970Y-96184819D01*
X115942970Y-96184819D02*
X115847732Y-96137200D01*
X115847732Y-96137200D02*
X115800113Y-96041961D01*
X115800113Y-96041961D02*
X115800113Y-95946723D01*
X115800113Y-95946723D02*
X115847732Y-95851485D01*
X115847732Y-95851485D02*
X115942970Y-95803866D01*
X115942970Y-95803866D02*
X116181065Y-95803866D01*
X116181065Y-95803866D02*
X116276303Y-95756247D01*
X116752494Y-95518152D02*
X116752494Y-96184819D01*
X116752494Y-95613390D02*
X116800113Y-95565771D01*
X116800113Y-95565771D02*
X116895351Y-95518152D01*
X116895351Y-95518152D02*
X117038208Y-95518152D01*
X117038208Y-95518152D02*
X117133446Y-95565771D01*
X117133446Y-95565771D02*
X117181065Y-95661009D01*
X117181065Y-95661009D02*
X117181065Y-96184819D01*
X118085827Y-95518152D02*
X118085827Y-96327676D01*
X118085827Y-96327676D02*
X118038208Y-96422914D01*
X118038208Y-96422914D02*
X117990589Y-96470533D01*
X117990589Y-96470533D02*
X117895351Y-96518152D01*
X117895351Y-96518152D02*
X117752494Y-96518152D01*
X117752494Y-96518152D02*
X117657256Y-96470533D01*
X118085827Y-96137200D02*
X117990589Y-96184819D01*
X117990589Y-96184819D02*
X117800113Y-96184819D01*
X117800113Y-96184819D02*
X117704875Y-96137200D01*
X117704875Y-96137200D02*
X117657256Y-96089580D01*
X117657256Y-96089580D02*
X117609637Y-95994342D01*
X117609637Y-95994342D02*
X117609637Y-95708628D01*
X117609637Y-95708628D02*
X117657256Y-95613390D01*
X117657256Y-95613390D02*
X117704875Y-95565771D01*
X117704875Y-95565771D02*
X117800113Y-95518152D01*
X117800113Y-95518152D02*
X117990589Y-95518152D01*
X117990589Y-95518152D02*
X118085827Y-95565771D01*
%TO.C,R23*%
X123124142Y-87737819D02*
X122790809Y-87261628D01*
X122552714Y-87737819D02*
X122552714Y-86737819D01*
X122552714Y-86737819D02*
X122933666Y-86737819D01*
X122933666Y-86737819D02*
X123028904Y-86785438D01*
X123028904Y-86785438D02*
X123076523Y-86833057D01*
X123076523Y-86833057D02*
X123124142Y-86928295D01*
X123124142Y-86928295D02*
X123124142Y-87071152D01*
X123124142Y-87071152D02*
X123076523Y-87166390D01*
X123076523Y-87166390D02*
X123028904Y-87214009D01*
X123028904Y-87214009D02*
X122933666Y-87261628D01*
X122933666Y-87261628D02*
X122552714Y-87261628D01*
X123505095Y-86833057D02*
X123552714Y-86785438D01*
X123552714Y-86785438D02*
X123647952Y-86737819D01*
X123647952Y-86737819D02*
X123886047Y-86737819D01*
X123886047Y-86737819D02*
X123981285Y-86785438D01*
X123981285Y-86785438D02*
X124028904Y-86833057D01*
X124028904Y-86833057D02*
X124076523Y-86928295D01*
X124076523Y-86928295D02*
X124076523Y-87023533D01*
X124076523Y-87023533D02*
X124028904Y-87166390D01*
X124028904Y-87166390D02*
X123457476Y-87737819D01*
X123457476Y-87737819D02*
X124076523Y-87737819D01*
X124409857Y-86737819D02*
X125028904Y-86737819D01*
X125028904Y-86737819D02*
X124695571Y-87118771D01*
X124695571Y-87118771D02*
X124838428Y-87118771D01*
X124838428Y-87118771D02*
X124933666Y-87166390D01*
X124933666Y-87166390D02*
X124981285Y-87214009D01*
X124981285Y-87214009D02*
X125028904Y-87309247D01*
X125028904Y-87309247D02*
X125028904Y-87547342D01*
X125028904Y-87547342D02*
X124981285Y-87642580D01*
X124981285Y-87642580D02*
X124933666Y-87690200D01*
X124933666Y-87690200D02*
X124838428Y-87737819D01*
X124838428Y-87737819D02*
X124552714Y-87737819D01*
X124552714Y-87737819D02*
X124457476Y-87690200D01*
X124457476Y-87690200D02*
X124409857Y-87642580D01*
%TO.C,C13*%
X177457142Y-92469080D02*
X177409523Y-92516700D01*
X177409523Y-92516700D02*
X177266666Y-92564319D01*
X177266666Y-92564319D02*
X177171428Y-92564319D01*
X177171428Y-92564319D02*
X177028571Y-92516700D01*
X177028571Y-92516700D02*
X176933333Y-92421461D01*
X176933333Y-92421461D02*
X176885714Y-92326223D01*
X176885714Y-92326223D02*
X176838095Y-92135747D01*
X176838095Y-92135747D02*
X176838095Y-91992890D01*
X176838095Y-91992890D02*
X176885714Y-91802414D01*
X176885714Y-91802414D02*
X176933333Y-91707176D01*
X176933333Y-91707176D02*
X177028571Y-91611938D01*
X177028571Y-91611938D02*
X177171428Y-91564319D01*
X177171428Y-91564319D02*
X177266666Y-91564319D01*
X177266666Y-91564319D02*
X177409523Y-91611938D01*
X177409523Y-91611938D02*
X177457142Y-91659557D01*
X178409523Y-92564319D02*
X177838095Y-92564319D01*
X178123809Y-92564319D02*
X178123809Y-91564319D01*
X178123809Y-91564319D02*
X178028571Y-91707176D01*
X178028571Y-91707176D02*
X177933333Y-91802414D01*
X177933333Y-91802414D02*
X177838095Y-91850033D01*
X178742857Y-91564319D02*
X179361904Y-91564319D01*
X179361904Y-91564319D02*
X179028571Y-91945271D01*
X179028571Y-91945271D02*
X179171428Y-91945271D01*
X179171428Y-91945271D02*
X179266666Y-91992890D01*
X179266666Y-91992890D02*
X179314285Y-92040509D01*
X179314285Y-92040509D02*
X179361904Y-92135747D01*
X179361904Y-92135747D02*
X179361904Y-92373842D01*
X179361904Y-92373842D02*
X179314285Y-92469080D01*
X179314285Y-92469080D02*
X179266666Y-92516700D01*
X179266666Y-92516700D02*
X179171428Y-92564319D01*
X179171428Y-92564319D02*
X178885714Y-92564319D01*
X178885714Y-92564319D02*
X178790476Y-92516700D01*
X178790476Y-92516700D02*
X178742857Y-92469080D01*
%TO.C,C22*%
X119824142Y-72367580D02*
X119776523Y-72415200D01*
X119776523Y-72415200D02*
X119633666Y-72462819D01*
X119633666Y-72462819D02*
X119538428Y-72462819D01*
X119538428Y-72462819D02*
X119395571Y-72415200D01*
X119395571Y-72415200D02*
X119300333Y-72319961D01*
X119300333Y-72319961D02*
X119252714Y-72224723D01*
X119252714Y-72224723D02*
X119205095Y-72034247D01*
X119205095Y-72034247D02*
X119205095Y-71891390D01*
X119205095Y-71891390D02*
X119252714Y-71700914D01*
X119252714Y-71700914D02*
X119300333Y-71605676D01*
X119300333Y-71605676D02*
X119395571Y-71510438D01*
X119395571Y-71510438D02*
X119538428Y-71462819D01*
X119538428Y-71462819D02*
X119633666Y-71462819D01*
X119633666Y-71462819D02*
X119776523Y-71510438D01*
X119776523Y-71510438D02*
X119824142Y-71558057D01*
X120205095Y-71558057D02*
X120252714Y-71510438D01*
X120252714Y-71510438D02*
X120347952Y-71462819D01*
X120347952Y-71462819D02*
X120586047Y-71462819D01*
X120586047Y-71462819D02*
X120681285Y-71510438D01*
X120681285Y-71510438D02*
X120728904Y-71558057D01*
X120728904Y-71558057D02*
X120776523Y-71653295D01*
X120776523Y-71653295D02*
X120776523Y-71748533D01*
X120776523Y-71748533D02*
X120728904Y-71891390D01*
X120728904Y-71891390D02*
X120157476Y-72462819D01*
X120157476Y-72462819D02*
X120776523Y-72462819D01*
X121157476Y-71558057D02*
X121205095Y-71510438D01*
X121205095Y-71510438D02*
X121300333Y-71462819D01*
X121300333Y-71462819D02*
X121538428Y-71462819D01*
X121538428Y-71462819D02*
X121633666Y-71510438D01*
X121633666Y-71510438D02*
X121681285Y-71558057D01*
X121681285Y-71558057D02*
X121728904Y-71653295D01*
X121728904Y-71653295D02*
X121728904Y-71748533D01*
X121728904Y-71748533D02*
X121681285Y-71891390D01*
X121681285Y-71891390D02*
X121109857Y-72462819D01*
X121109857Y-72462819D02*
X121728904Y-72462819D01*
%TO.C,R27*%
X134271819Y-88525857D02*
X133795628Y-88859190D01*
X134271819Y-89097285D02*
X133271819Y-89097285D01*
X133271819Y-89097285D02*
X133271819Y-88716333D01*
X133271819Y-88716333D02*
X133319438Y-88621095D01*
X133319438Y-88621095D02*
X133367057Y-88573476D01*
X133367057Y-88573476D02*
X133462295Y-88525857D01*
X133462295Y-88525857D02*
X133605152Y-88525857D01*
X133605152Y-88525857D02*
X133700390Y-88573476D01*
X133700390Y-88573476D02*
X133748009Y-88621095D01*
X133748009Y-88621095D02*
X133795628Y-88716333D01*
X133795628Y-88716333D02*
X133795628Y-89097285D01*
X133367057Y-88144904D02*
X133319438Y-88097285D01*
X133319438Y-88097285D02*
X133271819Y-88002047D01*
X133271819Y-88002047D02*
X133271819Y-87763952D01*
X133271819Y-87763952D02*
X133319438Y-87668714D01*
X133319438Y-87668714D02*
X133367057Y-87621095D01*
X133367057Y-87621095D02*
X133462295Y-87573476D01*
X133462295Y-87573476D02*
X133557533Y-87573476D01*
X133557533Y-87573476D02*
X133700390Y-87621095D01*
X133700390Y-87621095D02*
X134271819Y-88192523D01*
X134271819Y-88192523D02*
X134271819Y-87573476D01*
X133271819Y-87240142D02*
X133271819Y-86573476D01*
X133271819Y-86573476D02*
X134271819Y-87002047D01*
%TO.C,R21*%
X119074142Y-87687819D02*
X118740809Y-87211628D01*
X118502714Y-87687819D02*
X118502714Y-86687819D01*
X118502714Y-86687819D02*
X118883666Y-86687819D01*
X118883666Y-86687819D02*
X118978904Y-86735438D01*
X118978904Y-86735438D02*
X119026523Y-86783057D01*
X119026523Y-86783057D02*
X119074142Y-86878295D01*
X119074142Y-86878295D02*
X119074142Y-87021152D01*
X119074142Y-87021152D02*
X119026523Y-87116390D01*
X119026523Y-87116390D02*
X118978904Y-87164009D01*
X118978904Y-87164009D02*
X118883666Y-87211628D01*
X118883666Y-87211628D02*
X118502714Y-87211628D01*
X119455095Y-86783057D02*
X119502714Y-86735438D01*
X119502714Y-86735438D02*
X119597952Y-86687819D01*
X119597952Y-86687819D02*
X119836047Y-86687819D01*
X119836047Y-86687819D02*
X119931285Y-86735438D01*
X119931285Y-86735438D02*
X119978904Y-86783057D01*
X119978904Y-86783057D02*
X120026523Y-86878295D01*
X120026523Y-86878295D02*
X120026523Y-86973533D01*
X120026523Y-86973533D02*
X119978904Y-87116390D01*
X119978904Y-87116390D02*
X119407476Y-87687819D01*
X119407476Y-87687819D02*
X120026523Y-87687819D01*
X120978904Y-87687819D02*
X120407476Y-87687819D01*
X120693190Y-87687819D02*
X120693190Y-86687819D01*
X120693190Y-86687819D02*
X120597952Y-86830676D01*
X120597952Y-86830676D02*
X120502714Y-86925914D01*
X120502714Y-86925914D02*
X120407476Y-86973533D01*
%TO.C,C17*%
X165004142Y-61857580D02*
X164956523Y-61905200D01*
X164956523Y-61905200D02*
X164813666Y-61952819D01*
X164813666Y-61952819D02*
X164718428Y-61952819D01*
X164718428Y-61952819D02*
X164575571Y-61905200D01*
X164575571Y-61905200D02*
X164480333Y-61809961D01*
X164480333Y-61809961D02*
X164432714Y-61714723D01*
X164432714Y-61714723D02*
X164385095Y-61524247D01*
X164385095Y-61524247D02*
X164385095Y-61381390D01*
X164385095Y-61381390D02*
X164432714Y-61190914D01*
X164432714Y-61190914D02*
X164480333Y-61095676D01*
X164480333Y-61095676D02*
X164575571Y-61000438D01*
X164575571Y-61000438D02*
X164718428Y-60952819D01*
X164718428Y-60952819D02*
X164813666Y-60952819D01*
X164813666Y-60952819D02*
X164956523Y-61000438D01*
X164956523Y-61000438D02*
X165004142Y-61048057D01*
X165956523Y-61952819D02*
X165385095Y-61952819D01*
X165670809Y-61952819D02*
X165670809Y-60952819D01*
X165670809Y-60952819D02*
X165575571Y-61095676D01*
X165575571Y-61095676D02*
X165480333Y-61190914D01*
X165480333Y-61190914D02*
X165385095Y-61238533D01*
X166289857Y-60952819D02*
X166956523Y-60952819D01*
X166956523Y-60952819D02*
X166527952Y-61952819D01*
%TO.C,R5*%
X138650333Y-92562819D02*
X138317000Y-92086628D01*
X138078905Y-92562819D02*
X138078905Y-91562819D01*
X138078905Y-91562819D02*
X138459857Y-91562819D01*
X138459857Y-91562819D02*
X138555095Y-91610438D01*
X138555095Y-91610438D02*
X138602714Y-91658057D01*
X138602714Y-91658057D02*
X138650333Y-91753295D01*
X138650333Y-91753295D02*
X138650333Y-91896152D01*
X138650333Y-91896152D02*
X138602714Y-91991390D01*
X138602714Y-91991390D02*
X138555095Y-92039009D01*
X138555095Y-92039009D02*
X138459857Y-92086628D01*
X138459857Y-92086628D02*
X138078905Y-92086628D01*
X139555095Y-91562819D02*
X139078905Y-91562819D01*
X139078905Y-91562819D02*
X139031286Y-92039009D01*
X139031286Y-92039009D02*
X139078905Y-91991390D01*
X139078905Y-91991390D02*
X139174143Y-91943771D01*
X139174143Y-91943771D02*
X139412238Y-91943771D01*
X139412238Y-91943771D02*
X139507476Y-91991390D01*
X139507476Y-91991390D02*
X139555095Y-92039009D01*
X139555095Y-92039009D02*
X139602714Y-92134247D01*
X139602714Y-92134247D02*
X139602714Y-92372342D01*
X139602714Y-92372342D02*
X139555095Y-92467580D01*
X139555095Y-92467580D02*
X139507476Y-92515200D01*
X139507476Y-92515200D02*
X139412238Y-92562819D01*
X139412238Y-92562819D02*
X139174143Y-92562819D01*
X139174143Y-92562819D02*
X139078905Y-92515200D01*
X139078905Y-92515200D02*
X139031286Y-92467580D01*
%TO.C,R2*%
X146403333Y-100439819D02*
X146070000Y-99963628D01*
X145831905Y-100439819D02*
X145831905Y-99439819D01*
X145831905Y-99439819D02*
X146212857Y-99439819D01*
X146212857Y-99439819D02*
X146308095Y-99487438D01*
X146308095Y-99487438D02*
X146355714Y-99535057D01*
X146355714Y-99535057D02*
X146403333Y-99630295D01*
X146403333Y-99630295D02*
X146403333Y-99773152D01*
X146403333Y-99773152D02*
X146355714Y-99868390D01*
X146355714Y-99868390D02*
X146308095Y-99916009D01*
X146308095Y-99916009D02*
X146212857Y-99963628D01*
X146212857Y-99963628D02*
X145831905Y-99963628D01*
X146784286Y-99535057D02*
X146831905Y-99487438D01*
X146831905Y-99487438D02*
X146927143Y-99439819D01*
X146927143Y-99439819D02*
X147165238Y-99439819D01*
X147165238Y-99439819D02*
X147260476Y-99487438D01*
X147260476Y-99487438D02*
X147308095Y-99535057D01*
X147308095Y-99535057D02*
X147355714Y-99630295D01*
X147355714Y-99630295D02*
X147355714Y-99725533D01*
X147355714Y-99725533D02*
X147308095Y-99868390D01*
X147308095Y-99868390D02*
X146736667Y-100439819D01*
X146736667Y-100439819D02*
X147355714Y-100439819D01*
%TO.C,C16*%
X117324142Y-51267580D02*
X117276523Y-51315200D01*
X117276523Y-51315200D02*
X117133666Y-51362819D01*
X117133666Y-51362819D02*
X117038428Y-51362819D01*
X117038428Y-51362819D02*
X116895571Y-51315200D01*
X116895571Y-51315200D02*
X116800333Y-51219961D01*
X116800333Y-51219961D02*
X116752714Y-51124723D01*
X116752714Y-51124723D02*
X116705095Y-50934247D01*
X116705095Y-50934247D02*
X116705095Y-50791390D01*
X116705095Y-50791390D02*
X116752714Y-50600914D01*
X116752714Y-50600914D02*
X116800333Y-50505676D01*
X116800333Y-50505676D02*
X116895571Y-50410438D01*
X116895571Y-50410438D02*
X117038428Y-50362819D01*
X117038428Y-50362819D02*
X117133666Y-50362819D01*
X117133666Y-50362819D02*
X117276523Y-50410438D01*
X117276523Y-50410438D02*
X117324142Y-50458057D01*
X118276523Y-51362819D02*
X117705095Y-51362819D01*
X117990809Y-51362819D02*
X117990809Y-50362819D01*
X117990809Y-50362819D02*
X117895571Y-50505676D01*
X117895571Y-50505676D02*
X117800333Y-50600914D01*
X117800333Y-50600914D02*
X117705095Y-50648533D01*
X119133666Y-50362819D02*
X118943190Y-50362819D01*
X118943190Y-50362819D02*
X118847952Y-50410438D01*
X118847952Y-50410438D02*
X118800333Y-50458057D01*
X118800333Y-50458057D02*
X118705095Y-50600914D01*
X118705095Y-50600914D02*
X118657476Y-50791390D01*
X118657476Y-50791390D02*
X118657476Y-51172342D01*
X118657476Y-51172342D02*
X118705095Y-51267580D01*
X118705095Y-51267580D02*
X118752714Y-51315200D01*
X118752714Y-51315200D02*
X118847952Y-51362819D01*
X118847952Y-51362819D02*
X119038428Y-51362819D01*
X119038428Y-51362819D02*
X119133666Y-51315200D01*
X119133666Y-51315200D02*
X119181285Y-51267580D01*
X119181285Y-51267580D02*
X119228904Y-51172342D01*
X119228904Y-51172342D02*
X119228904Y-50934247D01*
X119228904Y-50934247D02*
X119181285Y-50839009D01*
X119181285Y-50839009D02*
X119133666Y-50791390D01*
X119133666Y-50791390D02*
X119038428Y-50743771D01*
X119038428Y-50743771D02*
X118847952Y-50743771D01*
X118847952Y-50743771D02*
X118752714Y-50791390D01*
X118752714Y-50791390D02*
X118705095Y-50839009D01*
X118705095Y-50839009D02*
X118657476Y-50934247D01*
%TO.C,R26*%
X131871819Y-88525857D02*
X131395628Y-88859190D01*
X131871819Y-89097285D02*
X130871819Y-89097285D01*
X130871819Y-89097285D02*
X130871819Y-88716333D01*
X130871819Y-88716333D02*
X130919438Y-88621095D01*
X130919438Y-88621095D02*
X130967057Y-88573476D01*
X130967057Y-88573476D02*
X131062295Y-88525857D01*
X131062295Y-88525857D02*
X131205152Y-88525857D01*
X131205152Y-88525857D02*
X131300390Y-88573476D01*
X131300390Y-88573476D02*
X131348009Y-88621095D01*
X131348009Y-88621095D02*
X131395628Y-88716333D01*
X131395628Y-88716333D02*
X131395628Y-89097285D01*
X130967057Y-88144904D02*
X130919438Y-88097285D01*
X130919438Y-88097285D02*
X130871819Y-88002047D01*
X130871819Y-88002047D02*
X130871819Y-87763952D01*
X130871819Y-87763952D02*
X130919438Y-87668714D01*
X130919438Y-87668714D02*
X130967057Y-87621095D01*
X130967057Y-87621095D02*
X131062295Y-87573476D01*
X131062295Y-87573476D02*
X131157533Y-87573476D01*
X131157533Y-87573476D02*
X131300390Y-87621095D01*
X131300390Y-87621095D02*
X131871819Y-88192523D01*
X131871819Y-88192523D02*
X131871819Y-87573476D01*
X130871819Y-86716333D02*
X130871819Y-86906809D01*
X130871819Y-86906809D02*
X130919438Y-87002047D01*
X130919438Y-87002047D02*
X130967057Y-87049666D01*
X130967057Y-87049666D02*
X131109914Y-87144904D01*
X131109914Y-87144904D02*
X131300390Y-87192523D01*
X131300390Y-87192523D02*
X131681342Y-87192523D01*
X131681342Y-87192523D02*
X131776580Y-87144904D01*
X131776580Y-87144904D02*
X131824200Y-87097285D01*
X131824200Y-87097285D02*
X131871819Y-87002047D01*
X131871819Y-87002047D02*
X131871819Y-86811571D01*
X131871819Y-86811571D02*
X131824200Y-86716333D01*
X131824200Y-86716333D02*
X131776580Y-86668714D01*
X131776580Y-86668714D02*
X131681342Y-86621095D01*
X131681342Y-86621095D02*
X131443247Y-86621095D01*
X131443247Y-86621095D02*
X131348009Y-86668714D01*
X131348009Y-86668714D02*
X131300390Y-86716333D01*
X131300390Y-86716333D02*
X131252771Y-86811571D01*
X131252771Y-86811571D02*
X131252771Y-87002047D01*
X131252771Y-87002047D02*
X131300390Y-87097285D01*
X131300390Y-87097285D02*
X131348009Y-87144904D01*
X131348009Y-87144904D02*
X131443247Y-87192523D01*
%TO.C,R17*%
X153624142Y-51662819D02*
X153290809Y-51186628D01*
X153052714Y-51662819D02*
X153052714Y-50662819D01*
X153052714Y-50662819D02*
X153433666Y-50662819D01*
X153433666Y-50662819D02*
X153528904Y-50710438D01*
X153528904Y-50710438D02*
X153576523Y-50758057D01*
X153576523Y-50758057D02*
X153624142Y-50853295D01*
X153624142Y-50853295D02*
X153624142Y-50996152D01*
X153624142Y-50996152D02*
X153576523Y-51091390D01*
X153576523Y-51091390D02*
X153528904Y-51139009D01*
X153528904Y-51139009D02*
X153433666Y-51186628D01*
X153433666Y-51186628D02*
X153052714Y-51186628D01*
X154576523Y-51662819D02*
X154005095Y-51662819D01*
X154290809Y-51662819D02*
X154290809Y-50662819D01*
X154290809Y-50662819D02*
X154195571Y-50805676D01*
X154195571Y-50805676D02*
X154100333Y-50900914D01*
X154100333Y-50900914D02*
X154005095Y-50948533D01*
X154909857Y-50662819D02*
X155576523Y-50662819D01*
X155576523Y-50662819D02*
X155147952Y-51662819D01*
%TO.C,R18*%
X149127142Y-59039819D02*
X148793809Y-58563628D01*
X148555714Y-59039819D02*
X148555714Y-58039819D01*
X148555714Y-58039819D02*
X148936666Y-58039819D01*
X148936666Y-58039819D02*
X149031904Y-58087438D01*
X149031904Y-58087438D02*
X149079523Y-58135057D01*
X149079523Y-58135057D02*
X149127142Y-58230295D01*
X149127142Y-58230295D02*
X149127142Y-58373152D01*
X149127142Y-58373152D02*
X149079523Y-58468390D01*
X149079523Y-58468390D02*
X149031904Y-58516009D01*
X149031904Y-58516009D02*
X148936666Y-58563628D01*
X148936666Y-58563628D02*
X148555714Y-58563628D01*
X150079523Y-59039819D02*
X149508095Y-59039819D01*
X149793809Y-59039819D02*
X149793809Y-58039819D01*
X149793809Y-58039819D02*
X149698571Y-58182676D01*
X149698571Y-58182676D02*
X149603333Y-58277914D01*
X149603333Y-58277914D02*
X149508095Y-58325533D01*
X150650952Y-58468390D02*
X150555714Y-58420771D01*
X150555714Y-58420771D02*
X150508095Y-58373152D01*
X150508095Y-58373152D02*
X150460476Y-58277914D01*
X150460476Y-58277914D02*
X150460476Y-58230295D01*
X150460476Y-58230295D02*
X150508095Y-58135057D01*
X150508095Y-58135057D02*
X150555714Y-58087438D01*
X150555714Y-58087438D02*
X150650952Y-58039819D01*
X150650952Y-58039819D02*
X150841428Y-58039819D01*
X150841428Y-58039819D02*
X150936666Y-58087438D01*
X150936666Y-58087438D02*
X150984285Y-58135057D01*
X150984285Y-58135057D02*
X151031904Y-58230295D01*
X151031904Y-58230295D02*
X151031904Y-58277914D01*
X151031904Y-58277914D02*
X150984285Y-58373152D01*
X150984285Y-58373152D02*
X150936666Y-58420771D01*
X150936666Y-58420771D02*
X150841428Y-58468390D01*
X150841428Y-58468390D02*
X150650952Y-58468390D01*
X150650952Y-58468390D02*
X150555714Y-58516009D01*
X150555714Y-58516009D02*
X150508095Y-58563628D01*
X150508095Y-58563628D02*
X150460476Y-58658866D01*
X150460476Y-58658866D02*
X150460476Y-58849342D01*
X150460476Y-58849342D02*
X150508095Y-58944580D01*
X150508095Y-58944580D02*
X150555714Y-58992200D01*
X150555714Y-58992200D02*
X150650952Y-59039819D01*
X150650952Y-59039819D02*
X150841428Y-59039819D01*
X150841428Y-59039819D02*
X150936666Y-58992200D01*
X150936666Y-58992200D02*
X150984285Y-58944580D01*
X150984285Y-58944580D02*
X151031904Y-58849342D01*
X151031904Y-58849342D02*
X151031904Y-58658866D01*
X151031904Y-58658866D02*
X150984285Y-58563628D01*
X150984285Y-58563628D02*
X150936666Y-58516009D01*
X150936666Y-58516009D02*
X150841428Y-58468390D01*
%TO.C,Q1*%
X149271698Y-49483430D02*
X149176396Y-49435779D01*
X149176396Y-49435779D02*
X149081094Y-49340478D01*
X149081094Y-49340478D02*
X148938141Y-49197525D01*
X148938141Y-49197525D02*
X148842840Y-49149874D01*
X148842840Y-49149874D02*
X148747538Y-49149874D01*
X148795189Y-49388128D02*
X148699887Y-49340478D01*
X148699887Y-49340478D02*
X148604585Y-49245176D01*
X148604585Y-49245176D02*
X148556934Y-49054572D01*
X148556934Y-49054572D02*
X148556934Y-48721016D01*
X148556934Y-48721016D02*
X148604585Y-48530412D01*
X148604585Y-48530412D02*
X148699887Y-48435110D01*
X148699887Y-48435110D02*
X148795189Y-48387459D01*
X148795189Y-48387459D02*
X148985792Y-48387459D01*
X148985792Y-48387459D02*
X149081094Y-48435110D01*
X149081094Y-48435110D02*
X149176396Y-48530412D01*
X149176396Y-48530412D02*
X149224047Y-48721016D01*
X149224047Y-48721016D02*
X149224047Y-49054572D01*
X149224047Y-49054572D02*
X149176396Y-49245176D01*
X149176396Y-49245176D02*
X149081094Y-49340478D01*
X149081094Y-49340478D02*
X148985792Y-49388128D01*
X148985792Y-49388128D02*
X148795189Y-49388128D01*
X150177065Y-49388128D02*
X149605254Y-49388128D01*
X149891160Y-49388128D02*
X149891160Y-48387459D01*
X149891160Y-48387459D02*
X149795858Y-48530412D01*
X149795858Y-48530412D02*
X149700556Y-48625714D01*
X149700556Y-48625714D02*
X149605254Y-48673365D01*
%TO.C,J4*%
X113183666Y-92312819D02*
X113183666Y-93027104D01*
X113183666Y-93027104D02*
X113136047Y-93169961D01*
X113136047Y-93169961D02*
X113040809Y-93265200D01*
X113040809Y-93265200D02*
X112897952Y-93312819D01*
X112897952Y-93312819D02*
X112802714Y-93312819D01*
X114088428Y-92646152D02*
X114088428Y-93312819D01*
X113850333Y-92265200D02*
X113612238Y-92979485D01*
X113612238Y-92979485D02*
X114231285Y-92979485D01*
%TO.C,C6*%
X138700333Y-89017580D02*
X138652714Y-89065200D01*
X138652714Y-89065200D02*
X138509857Y-89112819D01*
X138509857Y-89112819D02*
X138414619Y-89112819D01*
X138414619Y-89112819D02*
X138271762Y-89065200D01*
X138271762Y-89065200D02*
X138176524Y-88969961D01*
X138176524Y-88969961D02*
X138128905Y-88874723D01*
X138128905Y-88874723D02*
X138081286Y-88684247D01*
X138081286Y-88684247D02*
X138081286Y-88541390D01*
X138081286Y-88541390D02*
X138128905Y-88350914D01*
X138128905Y-88350914D02*
X138176524Y-88255676D01*
X138176524Y-88255676D02*
X138271762Y-88160438D01*
X138271762Y-88160438D02*
X138414619Y-88112819D01*
X138414619Y-88112819D02*
X138509857Y-88112819D01*
X138509857Y-88112819D02*
X138652714Y-88160438D01*
X138652714Y-88160438D02*
X138700333Y-88208057D01*
X139557476Y-88112819D02*
X139367000Y-88112819D01*
X139367000Y-88112819D02*
X139271762Y-88160438D01*
X139271762Y-88160438D02*
X139224143Y-88208057D01*
X139224143Y-88208057D02*
X139128905Y-88350914D01*
X139128905Y-88350914D02*
X139081286Y-88541390D01*
X139081286Y-88541390D02*
X139081286Y-88922342D01*
X139081286Y-88922342D02*
X139128905Y-89017580D01*
X139128905Y-89017580D02*
X139176524Y-89065200D01*
X139176524Y-89065200D02*
X139271762Y-89112819D01*
X139271762Y-89112819D02*
X139462238Y-89112819D01*
X139462238Y-89112819D02*
X139557476Y-89065200D01*
X139557476Y-89065200D02*
X139605095Y-89017580D01*
X139605095Y-89017580D02*
X139652714Y-88922342D01*
X139652714Y-88922342D02*
X139652714Y-88684247D01*
X139652714Y-88684247D02*
X139605095Y-88589009D01*
X139605095Y-88589009D02*
X139557476Y-88541390D01*
X139557476Y-88541390D02*
X139462238Y-88493771D01*
X139462238Y-88493771D02*
X139271762Y-88493771D01*
X139271762Y-88493771D02*
X139176524Y-88541390D01*
X139176524Y-88541390D02*
X139128905Y-88589009D01*
X139128905Y-88589009D02*
X139081286Y-88684247D01*
%TO.C,C4*%
X159780333Y-67720080D02*
X159732714Y-67767700D01*
X159732714Y-67767700D02*
X159589857Y-67815319D01*
X159589857Y-67815319D02*
X159494619Y-67815319D01*
X159494619Y-67815319D02*
X159351762Y-67767700D01*
X159351762Y-67767700D02*
X159256524Y-67672461D01*
X159256524Y-67672461D02*
X159208905Y-67577223D01*
X159208905Y-67577223D02*
X159161286Y-67386747D01*
X159161286Y-67386747D02*
X159161286Y-67243890D01*
X159161286Y-67243890D02*
X159208905Y-67053414D01*
X159208905Y-67053414D02*
X159256524Y-66958176D01*
X159256524Y-66958176D02*
X159351762Y-66862938D01*
X159351762Y-66862938D02*
X159494619Y-66815319D01*
X159494619Y-66815319D02*
X159589857Y-66815319D01*
X159589857Y-66815319D02*
X159732714Y-66862938D01*
X159732714Y-66862938D02*
X159780333Y-66910557D01*
X160637476Y-67148652D02*
X160637476Y-67815319D01*
X160399381Y-66767700D02*
X160161286Y-67481985D01*
X160161286Y-67481985D02*
X160780333Y-67481985D01*
%TO.C,D3*%
X142811905Y-70719819D02*
X142811905Y-69719819D01*
X142811905Y-69719819D02*
X143050000Y-69719819D01*
X143050000Y-69719819D02*
X143192857Y-69767438D01*
X143192857Y-69767438D02*
X143288095Y-69862676D01*
X143288095Y-69862676D02*
X143335714Y-69957914D01*
X143335714Y-69957914D02*
X143383333Y-70148390D01*
X143383333Y-70148390D02*
X143383333Y-70291247D01*
X143383333Y-70291247D02*
X143335714Y-70481723D01*
X143335714Y-70481723D02*
X143288095Y-70576961D01*
X143288095Y-70576961D02*
X143192857Y-70672200D01*
X143192857Y-70672200D02*
X143050000Y-70719819D01*
X143050000Y-70719819D02*
X142811905Y-70719819D01*
X143716667Y-69719819D02*
X144335714Y-69719819D01*
X144335714Y-69719819D02*
X144002381Y-70100771D01*
X144002381Y-70100771D02*
X144145238Y-70100771D01*
X144145238Y-70100771D02*
X144240476Y-70148390D01*
X144240476Y-70148390D02*
X144288095Y-70196009D01*
X144288095Y-70196009D02*
X144335714Y-70291247D01*
X144335714Y-70291247D02*
X144335714Y-70529342D01*
X144335714Y-70529342D02*
X144288095Y-70624580D01*
X144288095Y-70624580D02*
X144240476Y-70672200D01*
X144240476Y-70672200D02*
X144145238Y-70719819D01*
X144145238Y-70719819D02*
X143859524Y-70719819D01*
X143859524Y-70719819D02*
X143764286Y-70672200D01*
X143764286Y-70672200D02*
X143716667Y-70624580D01*
%TO.C,FLASH*%
X175569523Y-76246009D02*
X175236190Y-76246009D01*
X175236190Y-76769819D02*
X175236190Y-75769819D01*
X175236190Y-75769819D02*
X175712380Y-75769819D01*
X176569523Y-76769819D02*
X176093333Y-76769819D01*
X176093333Y-76769819D02*
X176093333Y-75769819D01*
X176855238Y-76484104D02*
X177331428Y-76484104D01*
X176760000Y-76769819D02*
X177093333Y-75769819D01*
X177093333Y-75769819D02*
X177426666Y-76769819D01*
X177712381Y-76722200D02*
X177855238Y-76769819D01*
X177855238Y-76769819D02*
X178093333Y-76769819D01*
X178093333Y-76769819D02*
X178188571Y-76722200D01*
X178188571Y-76722200D02*
X178236190Y-76674580D01*
X178236190Y-76674580D02*
X178283809Y-76579342D01*
X178283809Y-76579342D02*
X178283809Y-76484104D01*
X178283809Y-76484104D02*
X178236190Y-76388866D01*
X178236190Y-76388866D02*
X178188571Y-76341247D01*
X178188571Y-76341247D02*
X178093333Y-76293628D01*
X178093333Y-76293628D02*
X177902857Y-76246009D01*
X177902857Y-76246009D02*
X177807619Y-76198390D01*
X177807619Y-76198390D02*
X177760000Y-76150771D01*
X177760000Y-76150771D02*
X177712381Y-76055533D01*
X177712381Y-76055533D02*
X177712381Y-75960295D01*
X177712381Y-75960295D02*
X177760000Y-75865057D01*
X177760000Y-75865057D02*
X177807619Y-75817438D01*
X177807619Y-75817438D02*
X177902857Y-75769819D01*
X177902857Y-75769819D02*
X178140952Y-75769819D01*
X178140952Y-75769819D02*
X178283809Y-75817438D01*
X178712381Y-76769819D02*
X178712381Y-75769819D01*
X178712381Y-76246009D02*
X179283809Y-76246009D01*
X179283809Y-76769819D02*
X179283809Y-75769819D01*
%TO.C,C9*%
X154100333Y-79392580D02*
X154052714Y-79440200D01*
X154052714Y-79440200D02*
X153909857Y-79487819D01*
X153909857Y-79487819D02*
X153814619Y-79487819D01*
X153814619Y-79487819D02*
X153671762Y-79440200D01*
X153671762Y-79440200D02*
X153576524Y-79344961D01*
X153576524Y-79344961D02*
X153528905Y-79249723D01*
X153528905Y-79249723D02*
X153481286Y-79059247D01*
X153481286Y-79059247D02*
X153481286Y-78916390D01*
X153481286Y-78916390D02*
X153528905Y-78725914D01*
X153528905Y-78725914D02*
X153576524Y-78630676D01*
X153576524Y-78630676D02*
X153671762Y-78535438D01*
X153671762Y-78535438D02*
X153814619Y-78487819D01*
X153814619Y-78487819D02*
X153909857Y-78487819D01*
X153909857Y-78487819D02*
X154052714Y-78535438D01*
X154052714Y-78535438D02*
X154100333Y-78583057D01*
X154576524Y-79487819D02*
X154767000Y-79487819D01*
X154767000Y-79487819D02*
X154862238Y-79440200D01*
X154862238Y-79440200D02*
X154909857Y-79392580D01*
X154909857Y-79392580D02*
X155005095Y-79249723D01*
X155005095Y-79249723D02*
X155052714Y-79059247D01*
X155052714Y-79059247D02*
X155052714Y-78678295D01*
X155052714Y-78678295D02*
X155005095Y-78583057D01*
X155005095Y-78583057D02*
X154957476Y-78535438D01*
X154957476Y-78535438D02*
X154862238Y-78487819D01*
X154862238Y-78487819D02*
X154671762Y-78487819D01*
X154671762Y-78487819D02*
X154576524Y-78535438D01*
X154576524Y-78535438D02*
X154528905Y-78583057D01*
X154528905Y-78583057D02*
X154481286Y-78678295D01*
X154481286Y-78678295D02*
X154481286Y-78916390D01*
X154481286Y-78916390D02*
X154528905Y-79011628D01*
X154528905Y-79011628D02*
X154576524Y-79059247D01*
X154576524Y-79059247D02*
X154671762Y-79106866D01*
X154671762Y-79106866D02*
X154862238Y-79106866D01*
X154862238Y-79106866D02*
X154957476Y-79059247D01*
X154957476Y-79059247D02*
X155005095Y-79011628D01*
X155005095Y-79011628D02*
X155052714Y-78916390D01*
%TO.C,C19*%
X136826580Y-88525857D02*
X136874200Y-88573476D01*
X136874200Y-88573476D02*
X136921819Y-88716333D01*
X136921819Y-88716333D02*
X136921819Y-88811571D01*
X136921819Y-88811571D02*
X136874200Y-88954428D01*
X136874200Y-88954428D02*
X136778961Y-89049666D01*
X136778961Y-89049666D02*
X136683723Y-89097285D01*
X136683723Y-89097285D02*
X136493247Y-89144904D01*
X136493247Y-89144904D02*
X136350390Y-89144904D01*
X136350390Y-89144904D02*
X136159914Y-89097285D01*
X136159914Y-89097285D02*
X136064676Y-89049666D01*
X136064676Y-89049666D02*
X135969438Y-88954428D01*
X135969438Y-88954428D02*
X135921819Y-88811571D01*
X135921819Y-88811571D02*
X135921819Y-88716333D01*
X135921819Y-88716333D02*
X135969438Y-88573476D01*
X135969438Y-88573476D02*
X136017057Y-88525857D01*
X136921819Y-87573476D02*
X136921819Y-88144904D01*
X136921819Y-87859190D02*
X135921819Y-87859190D01*
X135921819Y-87859190D02*
X136064676Y-87954428D01*
X136064676Y-87954428D02*
X136159914Y-88049666D01*
X136159914Y-88049666D02*
X136207533Y-88144904D01*
X136921819Y-87097285D02*
X136921819Y-86906809D01*
X136921819Y-86906809D02*
X136874200Y-86811571D01*
X136874200Y-86811571D02*
X136826580Y-86763952D01*
X136826580Y-86763952D02*
X136683723Y-86668714D01*
X136683723Y-86668714D02*
X136493247Y-86621095D01*
X136493247Y-86621095D02*
X136112295Y-86621095D01*
X136112295Y-86621095D02*
X136017057Y-86668714D01*
X136017057Y-86668714D02*
X135969438Y-86716333D01*
X135969438Y-86716333D02*
X135921819Y-86811571D01*
X135921819Y-86811571D02*
X135921819Y-87002047D01*
X135921819Y-87002047D02*
X135969438Y-87097285D01*
X135969438Y-87097285D02*
X136017057Y-87144904D01*
X136017057Y-87144904D02*
X136112295Y-87192523D01*
X136112295Y-87192523D02*
X136350390Y-87192523D01*
X136350390Y-87192523D02*
X136445628Y-87144904D01*
X136445628Y-87144904D02*
X136493247Y-87097285D01*
X136493247Y-87097285D02*
X136540866Y-87002047D01*
X136540866Y-87002047D02*
X136540866Y-86811571D01*
X136540866Y-86811571D02*
X136493247Y-86716333D01*
X136493247Y-86716333D02*
X136445628Y-86668714D01*
X136445628Y-86668714D02*
X136350390Y-86621095D01*
%TO.C,D2*%
X156364905Y-56579319D02*
X156364905Y-55579319D01*
X156364905Y-55579319D02*
X156603000Y-55579319D01*
X156603000Y-55579319D02*
X156745857Y-55626938D01*
X156745857Y-55626938D02*
X156841095Y-55722176D01*
X156841095Y-55722176D02*
X156888714Y-55817414D01*
X156888714Y-55817414D02*
X156936333Y-56007890D01*
X156936333Y-56007890D02*
X156936333Y-56150747D01*
X156936333Y-56150747D02*
X156888714Y-56341223D01*
X156888714Y-56341223D02*
X156841095Y-56436461D01*
X156841095Y-56436461D02*
X156745857Y-56531700D01*
X156745857Y-56531700D02*
X156603000Y-56579319D01*
X156603000Y-56579319D02*
X156364905Y-56579319D01*
X157317286Y-55674557D02*
X157364905Y-55626938D01*
X157364905Y-55626938D02*
X157460143Y-55579319D01*
X157460143Y-55579319D02*
X157698238Y-55579319D01*
X157698238Y-55579319D02*
X157793476Y-55626938D01*
X157793476Y-55626938D02*
X157841095Y-55674557D01*
X157841095Y-55674557D02*
X157888714Y-55769795D01*
X157888714Y-55769795D02*
X157888714Y-55865033D01*
X157888714Y-55865033D02*
X157841095Y-56007890D01*
X157841095Y-56007890D02*
X157269667Y-56579319D01*
X157269667Y-56579319D02*
X157888714Y-56579319D01*
%TO.C,C11*%
X162524142Y-70692580D02*
X162476523Y-70740200D01*
X162476523Y-70740200D02*
X162333666Y-70787819D01*
X162333666Y-70787819D02*
X162238428Y-70787819D01*
X162238428Y-70787819D02*
X162095571Y-70740200D01*
X162095571Y-70740200D02*
X162000333Y-70644961D01*
X162000333Y-70644961D02*
X161952714Y-70549723D01*
X161952714Y-70549723D02*
X161905095Y-70359247D01*
X161905095Y-70359247D02*
X161905095Y-70216390D01*
X161905095Y-70216390D02*
X161952714Y-70025914D01*
X161952714Y-70025914D02*
X162000333Y-69930676D01*
X162000333Y-69930676D02*
X162095571Y-69835438D01*
X162095571Y-69835438D02*
X162238428Y-69787819D01*
X162238428Y-69787819D02*
X162333666Y-69787819D01*
X162333666Y-69787819D02*
X162476523Y-69835438D01*
X162476523Y-69835438D02*
X162524142Y-69883057D01*
X163476523Y-70787819D02*
X162905095Y-70787819D01*
X163190809Y-70787819D02*
X163190809Y-69787819D01*
X163190809Y-69787819D02*
X163095571Y-69930676D01*
X163095571Y-69930676D02*
X163000333Y-70025914D01*
X163000333Y-70025914D02*
X162905095Y-70073533D01*
X164428904Y-70787819D02*
X163857476Y-70787819D01*
X164143190Y-70787819D02*
X164143190Y-69787819D01*
X164143190Y-69787819D02*
X164047952Y-69930676D01*
X164047952Y-69930676D02*
X163952714Y-70025914D01*
X163952714Y-70025914D02*
X163857476Y-70073533D01*
%TO.C,J5*%
X116033666Y-57412819D02*
X116033666Y-58127104D01*
X116033666Y-58127104D02*
X115986047Y-58269961D01*
X115986047Y-58269961D02*
X115890809Y-58365200D01*
X115890809Y-58365200D02*
X115747952Y-58412819D01*
X115747952Y-58412819D02*
X115652714Y-58412819D01*
X116986047Y-57412819D02*
X116509857Y-57412819D01*
X116509857Y-57412819D02*
X116462238Y-57889009D01*
X116462238Y-57889009D02*
X116509857Y-57841390D01*
X116509857Y-57841390D02*
X116605095Y-57793771D01*
X116605095Y-57793771D02*
X116843190Y-57793771D01*
X116843190Y-57793771D02*
X116938428Y-57841390D01*
X116938428Y-57841390D02*
X116986047Y-57889009D01*
X116986047Y-57889009D02*
X117033666Y-57984247D01*
X117033666Y-57984247D02*
X117033666Y-58222342D01*
X117033666Y-58222342D02*
X116986047Y-58317580D01*
X116986047Y-58317580D02*
X116938428Y-58365200D01*
X116938428Y-58365200D02*
X116843190Y-58412819D01*
X116843190Y-58412819D02*
X116605095Y-58412819D01*
X116605095Y-58412819D02*
X116509857Y-58365200D01*
X116509857Y-58365200D02*
X116462238Y-58317580D01*
%TO.C,Q2*%
X149071698Y-62083430D02*
X148976396Y-62035779D01*
X148976396Y-62035779D02*
X148881094Y-61940478D01*
X148881094Y-61940478D02*
X148738141Y-61797525D01*
X148738141Y-61797525D02*
X148642840Y-61749874D01*
X148642840Y-61749874D02*
X148547538Y-61749874D01*
X148595189Y-61988128D02*
X148499887Y-61940478D01*
X148499887Y-61940478D02*
X148404585Y-61845176D01*
X148404585Y-61845176D02*
X148356934Y-61654572D01*
X148356934Y-61654572D02*
X148356934Y-61321016D01*
X148356934Y-61321016D02*
X148404585Y-61130412D01*
X148404585Y-61130412D02*
X148499887Y-61035110D01*
X148499887Y-61035110D02*
X148595189Y-60987459D01*
X148595189Y-60987459D02*
X148785792Y-60987459D01*
X148785792Y-60987459D02*
X148881094Y-61035110D01*
X148881094Y-61035110D02*
X148976396Y-61130412D01*
X148976396Y-61130412D02*
X149024047Y-61321016D01*
X149024047Y-61321016D02*
X149024047Y-61654572D01*
X149024047Y-61654572D02*
X148976396Y-61845176D01*
X148976396Y-61845176D02*
X148881094Y-61940478D01*
X148881094Y-61940478D02*
X148785792Y-61988128D01*
X148785792Y-61988128D02*
X148595189Y-61988128D01*
X149405254Y-61082761D02*
X149452905Y-61035110D01*
X149452905Y-61035110D02*
X149548207Y-60987459D01*
X149548207Y-60987459D02*
X149786461Y-60987459D01*
X149786461Y-60987459D02*
X149881763Y-61035110D01*
X149881763Y-61035110D02*
X149929414Y-61082761D01*
X149929414Y-61082761D02*
X149977065Y-61178063D01*
X149977065Y-61178063D02*
X149977065Y-61273365D01*
X149977065Y-61273365D02*
X149929414Y-61416318D01*
X149929414Y-61416318D02*
X149357603Y-61988128D01*
X149357603Y-61988128D02*
X149977065Y-61988128D01*
%TO.C,R22*%
X123277142Y-81894819D02*
X122943809Y-81418628D01*
X122705714Y-81894819D02*
X122705714Y-80894819D01*
X122705714Y-80894819D02*
X123086666Y-80894819D01*
X123086666Y-80894819D02*
X123181904Y-80942438D01*
X123181904Y-80942438D02*
X123229523Y-80990057D01*
X123229523Y-80990057D02*
X123277142Y-81085295D01*
X123277142Y-81085295D02*
X123277142Y-81228152D01*
X123277142Y-81228152D02*
X123229523Y-81323390D01*
X123229523Y-81323390D02*
X123181904Y-81371009D01*
X123181904Y-81371009D02*
X123086666Y-81418628D01*
X123086666Y-81418628D02*
X122705714Y-81418628D01*
X123658095Y-80990057D02*
X123705714Y-80942438D01*
X123705714Y-80942438D02*
X123800952Y-80894819D01*
X123800952Y-80894819D02*
X124039047Y-80894819D01*
X124039047Y-80894819D02*
X124134285Y-80942438D01*
X124134285Y-80942438D02*
X124181904Y-80990057D01*
X124181904Y-80990057D02*
X124229523Y-81085295D01*
X124229523Y-81085295D02*
X124229523Y-81180533D01*
X124229523Y-81180533D02*
X124181904Y-81323390D01*
X124181904Y-81323390D02*
X123610476Y-81894819D01*
X123610476Y-81894819D02*
X124229523Y-81894819D01*
X124610476Y-80990057D02*
X124658095Y-80942438D01*
X124658095Y-80942438D02*
X124753333Y-80894819D01*
X124753333Y-80894819D02*
X124991428Y-80894819D01*
X124991428Y-80894819D02*
X125086666Y-80942438D01*
X125086666Y-80942438D02*
X125134285Y-80990057D01*
X125134285Y-80990057D02*
X125181904Y-81085295D01*
X125181904Y-81085295D02*
X125181904Y-81180533D01*
X125181904Y-81180533D02*
X125134285Y-81323390D01*
X125134285Y-81323390D02*
X124562857Y-81894819D01*
X124562857Y-81894819D02*
X125181904Y-81894819D01*
%TO.C,U5*%
X155225095Y-48092819D02*
X155225095Y-48902342D01*
X155225095Y-48902342D02*
X155272714Y-48997580D01*
X155272714Y-48997580D02*
X155320333Y-49045200D01*
X155320333Y-49045200D02*
X155415571Y-49092819D01*
X155415571Y-49092819D02*
X155606047Y-49092819D01*
X155606047Y-49092819D02*
X155701285Y-49045200D01*
X155701285Y-49045200D02*
X155748904Y-48997580D01*
X155748904Y-48997580D02*
X155796523Y-48902342D01*
X155796523Y-48902342D02*
X155796523Y-48092819D01*
X156748904Y-48092819D02*
X156272714Y-48092819D01*
X156272714Y-48092819D02*
X156225095Y-48569009D01*
X156225095Y-48569009D02*
X156272714Y-48521390D01*
X156272714Y-48521390D02*
X156367952Y-48473771D01*
X156367952Y-48473771D02*
X156606047Y-48473771D01*
X156606047Y-48473771D02*
X156701285Y-48521390D01*
X156701285Y-48521390D02*
X156748904Y-48569009D01*
X156748904Y-48569009D02*
X156796523Y-48664247D01*
X156796523Y-48664247D02*
X156796523Y-48902342D01*
X156796523Y-48902342D02*
X156748904Y-48997580D01*
X156748904Y-48997580D02*
X156701285Y-49045200D01*
X156701285Y-49045200D02*
X156606047Y-49092819D01*
X156606047Y-49092819D02*
X156367952Y-49092819D01*
X156367952Y-49092819D02*
X156272714Y-49045200D01*
X156272714Y-49045200D02*
X156225095Y-48997580D01*
%TO.C,TP2*%
X178948095Y-60009819D02*
X179519523Y-60009819D01*
X179233809Y-61009819D02*
X179233809Y-60009819D01*
X179852857Y-61009819D02*
X179852857Y-60009819D01*
X179852857Y-60009819D02*
X180233809Y-60009819D01*
X180233809Y-60009819D02*
X180329047Y-60057438D01*
X180329047Y-60057438D02*
X180376666Y-60105057D01*
X180376666Y-60105057D02*
X180424285Y-60200295D01*
X180424285Y-60200295D02*
X180424285Y-60343152D01*
X180424285Y-60343152D02*
X180376666Y-60438390D01*
X180376666Y-60438390D02*
X180329047Y-60486009D01*
X180329047Y-60486009D02*
X180233809Y-60533628D01*
X180233809Y-60533628D02*
X179852857Y-60533628D01*
X180805238Y-60105057D02*
X180852857Y-60057438D01*
X180852857Y-60057438D02*
X180948095Y-60009819D01*
X180948095Y-60009819D02*
X181186190Y-60009819D01*
X181186190Y-60009819D02*
X181281428Y-60057438D01*
X181281428Y-60057438D02*
X181329047Y-60105057D01*
X181329047Y-60105057D02*
X181376666Y-60200295D01*
X181376666Y-60200295D02*
X181376666Y-60295533D01*
X181376666Y-60295533D02*
X181329047Y-60438390D01*
X181329047Y-60438390D02*
X180757619Y-61009819D01*
X180757619Y-61009819D02*
X181376666Y-61009819D01*
%TO.C,R9*%
X174453333Y-74339819D02*
X174120000Y-73863628D01*
X173881905Y-74339819D02*
X173881905Y-73339819D01*
X173881905Y-73339819D02*
X174262857Y-73339819D01*
X174262857Y-73339819D02*
X174358095Y-73387438D01*
X174358095Y-73387438D02*
X174405714Y-73435057D01*
X174405714Y-73435057D02*
X174453333Y-73530295D01*
X174453333Y-73530295D02*
X174453333Y-73673152D01*
X174453333Y-73673152D02*
X174405714Y-73768390D01*
X174405714Y-73768390D02*
X174358095Y-73816009D01*
X174358095Y-73816009D02*
X174262857Y-73863628D01*
X174262857Y-73863628D02*
X173881905Y-73863628D01*
X174929524Y-74339819D02*
X175120000Y-74339819D01*
X175120000Y-74339819D02*
X175215238Y-74292200D01*
X175215238Y-74292200D02*
X175262857Y-74244580D01*
X175262857Y-74244580D02*
X175358095Y-74101723D01*
X175358095Y-74101723D02*
X175405714Y-73911247D01*
X175405714Y-73911247D02*
X175405714Y-73530295D01*
X175405714Y-73530295D02*
X175358095Y-73435057D01*
X175358095Y-73435057D02*
X175310476Y-73387438D01*
X175310476Y-73387438D02*
X175215238Y-73339819D01*
X175215238Y-73339819D02*
X175024762Y-73339819D01*
X175024762Y-73339819D02*
X174929524Y-73387438D01*
X174929524Y-73387438D02*
X174881905Y-73435057D01*
X174881905Y-73435057D02*
X174834286Y-73530295D01*
X174834286Y-73530295D02*
X174834286Y-73768390D01*
X174834286Y-73768390D02*
X174881905Y-73863628D01*
X174881905Y-73863628D02*
X174929524Y-73911247D01*
X174929524Y-73911247D02*
X175024762Y-73958866D01*
X175024762Y-73958866D02*
X175215238Y-73958866D01*
X175215238Y-73958866D02*
X175310476Y-73911247D01*
X175310476Y-73911247D02*
X175358095Y-73863628D01*
X175358095Y-73863628D02*
X175405714Y-73768390D01*
%TO.C,J3*%
X118863666Y-89517819D02*
X118863666Y-90232104D01*
X118863666Y-90232104D02*
X118816047Y-90374961D01*
X118816047Y-90374961D02*
X118720809Y-90470200D01*
X118720809Y-90470200D02*
X118577952Y-90517819D01*
X118577952Y-90517819D02*
X118482714Y-90517819D01*
X119244619Y-89517819D02*
X119863666Y-89517819D01*
X119863666Y-89517819D02*
X119530333Y-89898771D01*
X119530333Y-89898771D02*
X119673190Y-89898771D01*
X119673190Y-89898771D02*
X119768428Y-89946390D01*
X119768428Y-89946390D02*
X119816047Y-89994009D01*
X119816047Y-89994009D02*
X119863666Y-90089247D01*
X119863666Y-90089247D02*
X119863666Y-90327342D01*
X119863666Y-90327342D02*
X119816047Y-90422580D01*
X119816047Y-90422580D02*
X119768428Y-90470200D01*
X119768428Y-90470200D02*
X119673190Y-90517819D01*
X119673190Y-90517819D02*
X119387476Y-90517819D01*
X119387476Y-90517819D02*
X119292238Y-90470200D01*
X119292238Y-90470200D02*
X119244619Y-90422580D01*
X138455238Y-97802533D02*
X139064762Y-97802533D01*
X138760000Y-98107295D02*
X138760000Y-97497771D01*
X116703333Y-97778666D02*
X117556667Y-97778666D01*
%TO.C,R15*%
X143874142Y-55312819D02*
X143540809Y-54836628D01*
X143302714Y-55312819D02*
X143302714Y-54312819D01*
X143302714Y-54312819D02*
X143683666Y-54312819D01*
X143683666Y-54312819D02*
X143778904Y-54360438D01*
X143778904Y-54360438D02*
X143826523Y-54408057D01*
X143826523Y-54408057D02*
X143874142Y-54503295D01*
X143874142Y-54503295D02*
X143874142Y-54646152D01*
X143874142Y-54646152D02*
X143826523Y-54741390D01*
X143826523Y-54741390D02*
X143778904Y-54789009D01*
X143778904Y-54789009D02*
X143683666Y-54836628D01*
X143683666Y-54836628D02*
X143302714Y-54836628D01*
X144826523Y-55312819D02*
X144255095Y-55312819D01*
X144540809Y-55312819D02*
X144540809Y-54312819D01*
X144540809Y-54312819D02*
X144445571Y-54455676D01*
X144445571Y-54455676D02*
X144350333Y-54550914D01*
X144350333Y-54550914D02*
X144255095Y-54598533D01*
X145731285Y-54312819D02*
X145255095Y-54312819D01*
X145255095Y-54312819D02*
X145207476Y-54789009D01*
X145207476Y-54789009D02*
X145255095Y-54741390D01*
X145255095Y-54741390D02*
X145350333Y-54693771D01*
X145350333Y-54693771D02*
X145588428Y-54693771D01*
X145588428Y-54693771D02*
X145683666Y-54741390D01*
X145683666Y-54741390D02*
X145731285Y-54789009D01*
X145731285Y-54789009D02*
X145778904Y-54884247D01*
X145778904Y-54884247D02*
X145778904Y-55122342D01*
X145778904Y-55122342D02*
X145731285Y-55217580D01*
X145731285Y-55217580D02*
X145683666Y-55265200D01*
X145683666Y-55265200D02*
X145588428Y-55312819D01*
X145588428Y-55312819D02*
X145350333Y-55312819D01*
X145350333Y-55312819D02*
X145255095Y-55265200D01*
X145255095Y-55265200D02*
X145207476Y-55217580D01*
%TO.C,R1*%
X141513333Y-104367819D02*
X141180000Y-103891628D01*
X140941905Y-104367819D02*
X140941905Y-103367819D01*
X140941905Y-103367819D02*
X141322857Y-103367819D01*
X141322857Y-103367819D02*
X141418095Y-103415438D01*
X141418095Y-103415438D02*
X141465714Y-103463057D01*
X141465714Y-103463057D02*
X141513333Y-103558295D01*
X141513333Y-103558295D02*
X141513333Y-103701152D01*
X141513333Y-103701152D02*
X141465714Y-103796390D01*
X141465714Y-103796390D02*
X141418095Y-103844009D01*
X141418095Y-103844009D02*
X141322857Y-103891628D01*
X141322857Y-103891628D02*
X140941905Y-103891628D01*
X142465714Y-104367819D02*
X141894286Y-104367819D01*
X142180000Y-104367819D02*
X142180000Y-103367819D01*
X142180000Y-103367819D02*
X142084762Y-103510676D01*
X142084762Y-103510676D02*
X141989524Y-103605914D01*
X141989524Y-103605914D02*
X141894286Y-103653533D01*
%TO.C,F1*%
X159543666Y-95151509D02*
X159210333Y-95151509D01*
X159210333Y-95675319D02*
X159210333Y-94675319D01*
X159210333Y-94675319D02*
X159686523Y-94675319D01*
X160591285Y-95675319D02*
X160019857Y-95675319D01*
X160305571Y-95675319D02*
X160305571Y-94675319D01*
X160305571Y-94675319D02*
X160210333Y-94818176D01*
X160210333Y-94818176D02*
X160115095Y-94913414D01*
X160115095Y-94913414D02*
X160019857Y-94961033D01*
%TO.C,R25*%
X127424142Y-87737819D02*
X127090809Y-87261628D01*
X126852714Y-87737819D02*
X126852714Y-86737819D01*
X126852714Y-86737819D02*
X127233666Y-86737819D01*
X127233666Y-86737819D02*
X127328904Y-86785438D01*
X127328904Y-86785438D02*
X127376523Y-86833057D01*
X127376523Y-86833057D02*
X127424142Y-86928295D01*
X127424142Y-86928295D02*
X127424142Y-87071152D01*
X127424142Y-87071152D02*
X127376523Y-87166390D01*
X127376523Y-87166390D02*
X127328904Y-87214009D01*
X127328904Y-87214009D02*
X127233666Y-87261628D01*
X127233666Y-87261628D02*
X126852714Y-87261628D01*
X127805095Y-86833057D02*
X127852714Y-86785438D01*
X127852714Y-86785438D02*
X127947952Y-86737819D01*
X127947952Y-86737819D02*
X128186047Y-86737819D01*
X128186047Y-86737819D02*
X128281285Y-86785438D01*
X128281285Y-86785438D02*
X128328904Y-86833057D01*
X128328904Y-86833057D02*
X128376523Y-86928295D01*
X128376523Y-86928295D02*
X128376523Y-87023533D01*
X128376523Y-87023533D02*
X128328904Y-87166390D01*
X128328904Y-87166390D02*
X127757476Y-87737819D01*
X127757476Y-87737819D02*
X128376523Y-87737819D01*
X129281285Y-86737819D02*
X128805095Y-86737819D01*
X128805095Y-86737819D02*
X128757476Y-87214009D01*
X128757476Y-87214009D02*
X128805095Y-87166390D01*
X128805095Y-87166390D02*
X128900333Y-87118771D01*
X128900333Y-87118771D02*
X129138428Y-87118771D01*
X129138428Y-87118771D02*
X129233666Y-87166390D01*
X129233666Y-87166390D02*
X129281285Y-87214009D01*
X129281285Y-87214009D02*
X129328904Y-87309247D01*
X129328904Y-87309247D02*
X129328904Y-87547342D01*
X129328904Y-87547342D02*
X129281285Y-87642580D01*
X129281285Y-87642580D02*
X129233666Y-87690200D01*
X129233666Y-87690200D02*
X129138428Y-87737819D01*
X129138428Y-87737819D02*
X128900333Y-87737819D01*
X128900333Y-87737819D02*
X128805095Y-87690200D01*
X128805095Y-87690200D02*
X128757476Y-87642580D01*
%TO.C,R7*%
X159546333Y-56586819D02*
X159213000Y-56110628D01*
X158974905Y-56586819D02*
X158974905Y-55586819D01*
X158974905Y-55586819D02*
X159355857Y-55586819D01*
X159355857Y-55586819D02*
X159451095Y-55634438D01*
X159451095Y-55634438D02*
X159498714Y-55682057D01*
X159498714Y-55682057D02*
X159546333Y-55777295D01*
X159546333Y-55777295D02*
X159546333Y-55920152D01*
X159546333Y-55920152D02*
X159498714Y-56015390D01*
X159498714Y-56015390D02*
X159451095Y-56063009D01*
X159451095Y-56063009D02*
X159355857Y-56110628D01*
X159355857Y-56110628D02*
X158974905Y-56110628D01*
X159879667Y-55586819D02*
X160546333Y-55586819D01*
X160546333Y-55586819D02*
X160117762Y-56586819D01*
%TO.C,C2*%
X145083333Y-105594580D02*
X145035714Y-105642200D01*
X145035714Y-105642200D02*
X144892857Y-105689819D01*
X144892857Y-105689819D02*
X144797619Y-105689819D01*
X144797619Y-105689819D02*
X144654762Y-105642200D01*
X144654762Y-105642200D02*
X144559524Y-105546961D01*
X144559524Y-105546961D02*
X144511905Y-105451723D01*
X144511905Y-105451723D02*
X144464286Y-105261247D01*
X144464286Y-105261247D02*
X144464286Y-105118390D01*
X144464286Y-105118390D02*
X144511905Y-104927914D01*
X144511905Y-104927914D02*
X144559524Y-104832676D01*
X144559524Y-104832676D02*
X144654762Y-104737438D01*
X144654762Y-104737438D02*
X144797619Y-104689819D01*
X144797619Y-104689819D02*
X144892857Y-104689819D01*
X144892857Y-104689819D02*
X145035714Y-104737438D01*
X145035714Y-104737438D02*
X145083333Y-104785057D01*
X145464286Y-104785057D02*
X145511905Y-104737438D01*
X145511905Y-104737438D02*
X145607143Y-104689819D01*
X145607143Y-104689819D02*
X145845238Y-104689819D01*
X145845238Y-104689819D02*
X145940476Y-104737438D01*
X145940476Y-104737438D02*
X145988095Y-104785057D01*
X145988095Y-104785057D02*
X146035714Y-104880295D01*
X146035714Y-104880295D02*
X146035714Y-104975533D01*
X146035714Y-104975533D02*
X145988095Y-105118390D01*
X145988095Y-105118390D02*
X145416667Y-105689819D01*
X145416667Y-105689819D02*
X146035714Y-105689819D01*
%TO.C,R11*%
X144524142Y-47262819D02*
X144190809Y-46786628D01*
X143952714Y-47262819D02*
X143952714Y-46262819D01*
X143952714Y-46262819D02*
X144333666Y-46262819D01*
X144333666Y-46262819D02*
X144428904Y-46310438D01*
X144428904Y-46310438D02*
X144476523Y-46358057D01*
X144476523Y-46358057D02*
X144524142Y-46453295D01*
X144524142Y-46453295D02*
X144524142Y-46596152D01*
X144524142Y-46596152D02*
X144476523Y-46691390D01*
X144476523Y-46691390D02*
X144428904Y-46739009D01*
X144428904Y-46739009D02*
X144333666Y-46786628D01*
X144333666Y-46786628D02*
X143952714Y-46786628D01*
X145476523Y-47262819D02*
X144905095Y-47262819D01*
X145190809Y-47262819D02*
X145190809Y-46262819D01*
X145190809Y-46262819D02*
X145095571Y-46405676D01*
X145095571Y-46405676D02*
X145000333Y-46500914D01*
X145000333Y-46500914D02*
X144905095Y-46548533D01*
X146428904Y-47262819D02*
X145857476Y-47262819D01*
X146143190Y-47262819D02*
X146143190Y-46262819D01*
X146143190Y-46262819D02*
X146047952Y-46405676D01*
X146047952Y-46405676D02*
X145952714Y-46500914D01*
X145952714Y-46500914D02*
X145857476Y-46548533D01*
%TO.C,R19*%
X151074142Y-53937819D02*
X150740809Y-53461628D01*
X150502714Y-53937819D02*
X150502714Y-52937819D01*
X150502714Y-52937819D02*
X150883666Y-52937819D01*
X150883666Y-52937819D02*
X150978904Y-52985438D01*
X150978904Y-52985438D02*
X151026523Y-53033057D01*
X151026523Y-53033057D02*
X151074142Y-53128295D01*
X151074142Y-53128295D02*
X151074142Y-53271152D01*
X151074142Y-53271152D02*
X151026523Y-53366390D01*
X151026523Y-53366390D02*
X150978904Y-53414009D01*
X150978904Y-53414009D02*
X150883666Y-53461628D01*
X150883666Y-53461628D02*
X150502714Y-53461628D01*
X152026523Y-53937819D02*
X151455095Y-53937819D01*
X151740809Y-53937819D02*
X151740809Y-52937819D01*
X151740809Y-52937819D02*
X151645571Y-53080676D01*
X151645571Y-53080676D02*
X151550333Y-53175914D01*
X151550333Y-53175914D02*
X151455095Y-53223533D01*
X152502714Y-53937819D02*
X152693190Y-53937819D01*
X152693190Y-53937819D02*
X152788428Y-53890200D01*
X152788428Y-53890200D02*
X152836047Y-53842580D01*
X152836047Y-53842580D02*
X152931285Y-53699723D01*
X152931285Y-53699723D02*
X152978904Y-53509247D01*
X152978904Y-53509247D02*
X152978904Y-53128295D01*
X152978904Y-53128295D02*
X152931285Y-53033057D01*
X152931285Y-53033057D02*
X152883666Y-52985438D01*
X152883666Y-52985438D02*
X152788428Y-52937819D01*
X152788428Y-52937819D02*
X152597952Y-52937819D01*
X152597952Y-52937819D02*
X152502714Y-52985438D01*
X152502714Y-52985438D02*
X152455095Y-53033057D01*
X152455095Y-53033057D02*
X152407476Y-53128295D01*
X152407476Y-53128295D02*
X152407476Y-53366390D01*
X152407476Y-53366390D02*
X152455095Y-53461628D01*
X152455095Y-53461628D02*
X152502714Y-53509247D01*
X152502714Y-53509247D02*
X152597952Y-53556866D01*
X152597952Y-53556866D02*
X152788428Y-53556866D01*
X152788428Y-53556866D02*
X152883666Y-53509247D01*
X152883666Y-53509247D02*
X152931285Y-53461628D01*
X152931285Y-53461628D02*
X152978904Y-53366390D01*
%TO.C,D1*%
X149583667Y-85247866D02*
X149583667Y-83847866D01*
X149583667Y-83847866D02*
X149917000Y-83847866D01*
X149917000Y-83847866D02*
X150117000Y-83914533D01*
X150117000Y-83914533D02*
X150250334Y-84047866D01*
X150250334Y-84047866D02*
X150317000Y-84181200D01*
X150317000Y-84181200D02*
X150383667Y-84447866D01*
X150383667Y-84447866D02*
X150383667Y-84647866D01*
X150383667Y-84647866D02*
X150317000Y-84914533D01*
X150317000Y-84914533D02*
X150250334Y-85047866D01*
X150250334Y-85047866D02*
X150117000Y-85181200D01*
X150117000Y-85181200D02*
X149917000Y-85247866D01*
X149917000Y-85247866D02*
X149583667Y-85247866D01*
X151717000Y-85247866D02*
X150917000Y-85247866D01*
X151317000Y-85247866D02*
X151317000Y-83847866D01*
X151317000Y-83847866D02*
X151183667Y-84047866D01*
X151183667Y-84047866D02*
X151050334Y-84181200D01*
X151050334Y-84181200D02*
X150917000Y-84247866D01*
%TO.C,R3*%
X138800333Y-94962819D02*
X138467000Y-94486628D01*
X138228905Y-94962819D02*
X138228905Y-93962819D01*
X138228905Y-93962819D02*
X138609857Y-93962819D01*
X138609857Y-93962819D02*
X138705095Y-94010438D01*
X138705095Y-94010438D02*
X138752714Y-94058057D01*
X138752714Y-94058057D02*
X138800333Y-94153295D01*
X138800333Y-94153295D02*
X138800333Y-94296152D01*
X138800333Y-94296152D02*
X138752714Y-94391390D01*
X138752714Y-94391390D02*
X138705095Y-94439009D01*
X138705095Y-94439009D02*
X138609857Y-94486628D01*
X138609857Y-94486628D02*
X138228905Y-94486628D01*
X139133667Y-93962819D02*
X139752714Y-93962819D01*
X139752714Y-93962819D02*
X139419381Y-94343771D01*
X139419381Y-94343771D02*
X139562238Y-94343771D01*
X139562238Y-94343771D02*
X139657476Y-94391390D01*
X139657476Y-94391390D02*
X139705095Y-94439009D01*
X139705095Y-94439009D02*
X139752714Y-94534247D01*
X139752714Y-94534247D02*
X139752714Y-94772342D01*
X139752714Y-94772342D02*
X139705095Y-94867580D01*
X139705095Y-94867580D02*
X139657476Y-94915200D01*
X139657476Y-94915200D02*
X139562238Y-94962819D01*
X139562238Y-94962819D02*
X139276524Y-94962819D01*
X139276524Y-94962819D02*
X139181286Y-94915200D01*
X139181286Y-94915200D02*
X139133667Y-94867580D01*
%TO.C,TP4*%
X175578095Y-60009819D02*
X176149523Y-60009819D01*
X175863809Y-61009819D02*
X175863809Y-60009819D01*
X176482857Y-61009819D02*
X176482857Y-60009819D01*
X176482857Y-60009819D02*
X176863809Y-60009819D01*
X176863809Y-60009819D02*
X176959047Y-60057438D01*
X176959047Y-60057438D02*
X177006666Y-60105057D01*
X177006666Y-60105057D02*
X177054285Y-60200295D01*
X177054285Y-60200295D02*
X177054285Y-60343152D01*
X177054285Y-60343152D02*
X177006666Y-60438390D01*
X177006666Y-60438390D02*
X176959047Y-60486009D01*
X176959047Y-60486009D02*
X176863809Y-60533628D01*
X176863809Y-60533628D02*
X176482857Y-60533628D01*
X177911428Y-60343152D02*
X177911428Y-61009819D01*
X177673333Y-59962200D02*
X177435238Y-60676485D01*
X177435238Y-60676485D02*
X178054285Y-60676485D01*
%TO.C,R30*%
X121224142Y-58312819D02*
X120890809Y-57836628D01*
X120652714Y-58312819D02*
X120652714Y-57312819D01*
X120652714Y-57312819D02*
X121033666Y-57312819D01*
X121033666Y-57312819D02*
X121128904Y-57360438D01*
X121128904Y-57360438D02*
X121176523Y-57408057D01*
X121176523Y-57408057D02*
X121224142Y-57503295D01*
X121224142Y-57503295D02*
X121224142Y-57646152D01*
X121224142Y-57646152D02*
X121176523Y-57741390D01*
X121176523Y-57741390D02*
X121128904Y-57789009D01*
X121128904Y-57789009D02*
X121033666Y-57836628D01*
X121033666Y-57836628D02*
X120652714Y-57836628D01*
X121557476Y-57312819D02*
X122176523Y-57312819D01*
X122176523Y-57312819D02*
X121843190Y-57693771D01*
X121843190Y-57693771D02*
X121986047Y-57693771D01*
X121986047Y-57693771D02*
X122081285Y-57741390D01*
X122081285Y-57741390D02*
X122128904Y-57789009D01*
X122128904Y-57789009D02*
X122176523Y-57884247D01*
X122176523Y-57884247D02*
X122176523Y-58122342D01*
X122176523Y-58122342D02*
X122128904Y-58217580D01*
X122128904Y-58217580D02*
X122081285Y-58265200D01*
X122081285Y-58265200D02*
X121986047Y-58312819D01*
X121986047Y-58312819D02*
X121700333Y-58312819D01*
X121700333Y-58312819D02*
X121605095Y-58265200D01*
X121605095Y-58265200D02*
X121557476Y-58217580D01*
X122795571Y-57312819D02*
X122890809Y-57312819D01*
X122890809Y-57312819D02*
X122986047Y-57360438D01*
X122986047Y-57360438D02*
X123033666Y-57408057D01*
X123033666Y-57408057D02*
X123081285Y-57503295D01*
X123081285Y-57503295D02*
X123128904Y-57693771D01*
X123128904Y-57693771D02*
X123128904Y-57931866D01*
X123128904Y-57931866D02*
X123081285Y-58122342D01*
X123081285Y-58122342D02*
X123033666Y-58217580D01*
X123033666Y-58217580D02*
X122986047Y-58265200D01*
X122986047Y-58265200D02*
X122890809Y-58312819D01*
X122890809Y-58312819D02*
X122795571Y-58312819D01*
X122795571Y-58312819D02*
X122700333Y-58265200D01*
X122700333Y-58265200D02*
X122652714Y-58217580D01*
X122652714Y-58217580D02*
X122605095Y-58122342D01*
X122605095Y-58122342D02*
X122557476Y-57931866D01*
X122557476Y-57931866D02*
X122557476Y-57693771D01*
X122557476Y-57693771D02*
X122605095Y-57503295D01*
X122605095Y-57503295D02*
X122652714Y-57408057D01*
X122652714Y-57408057D02*
X122700333Y-57360438D01*
X122700333Y-57360438D02*
X122795571Y-57312819D01*
%TO.C,C23*%
X119774142Y-70167580D02*
X119726523Y-70215200D01*
X119726523Y-70215200D02*
X119583666Y-70262819D01*
X119583666Y-70262819D02*
X119488428Y-70262819D01*
X119488428Y-70262819D02*
X119345571Y-70215200D01*
X119345571Y-70215200D02*
X119250333Y-70119961D01*
X119250333Y-70119961D02*
X119202714Y-70024723D01*
X119202714Y-70024723D02*
X119155095Y-69834247D01*
X119155095Y-69834247D02*
X119155095Y-69691390D01*
X119155095Y-69691390D02*
X119202714Y-69500914D01*
X119202714Y-69500914D02*
X119250333Y-69405676D01*
X119250333Y-69405676D02*
X119345571Y-69310438D01*
X119345571Y-69310438D02*
X119488428Y-69262819D01*
X119488428Y-69262819D02*
X119583666Y-69262819D01*
X119583666Y-69262819D02*
X119726523Y-69310438D01*
X119726523Y-69310438D02*
X119774142Y-69358057D01*
X120155095Y-69358057D02*
X120202714Y-69310438D01*
X120202714Y-69310438D02*
X120297952Y-69262819D01*
X120297952Y-69262819D02*
X120536047Y-69262819D01*
X120536047Y-69262819D02*
X120631285Y-69310438D01*
X120631285Y-69310438D02*
X120678904Y-69358057D01*
X120678904Y-69358057D02*
X120726523Y-69453295D01*
X120726523Y-69453295D02*
X120726523Y-69548533D01*
X120726523Y-69548533D02*
X120678904Y-69691390D01*
X120678904Y-69691390D02*
X120107476Y-70262819D01*
X120107476Y-70262819D02*
X120726523Y-70262819D01*
X121059857Y-69262819D02*
X121678904Y-69262819D01*
X121678904Y-69262819D02*
X121345571Y-69643771D01*
X121345571Y-69643771D02*
X121488428Y-69643771D01*
X121488428Y-69643771D02*
X121583666Y-69691390D01*
X121583666Y-69691390D02*
X121631285Y-69739009D01*
X121631285Y-69739009D02*
X121678904Y-69834247D01*
X121678904Y-69834247D02*
X121678904Y-70072342D01*
X121678904Y-70072342D02*
X121631285Y-70167580D01*
X121631285Y-70167580D02*
X121583666Y-70215200D01*
X121583666Y-70215200D02*
X121488428Y-70262819D01*
X121488428Y-70262819D02*
X121202714Y-70262819D01*
X121202714Y-70262819D02*
X121107476Y-70215200D01*
X121107476Y-70215200D02*
X121059857Y-70167580D01*
%TO.C,L1*%
X167750333Y-79812819D02*
X167274143Y-79812819D01*
X167274143Y-79812819D02*
X167274143Y-78812819D01*
X168607476Y-79812819D02*
X168036048Y-79812819D01*
X168321762Y-79812819D02*
X168321762Y-78812819D01*
X168321762Y-78812819D02*
X168226524Y-78955676D01*
X168226524Y-78955676D02*
X168131286Y-79050914D01*
X168131286Y-79050914D02*
X168036048Y-79098533D01*
%TO.C,U4*%
X121855095Y-39562819D02*
X121855095Y-40372342D01*
X121855095Y-40372342D02*
X121902714Y-40467580D01*
X121902714Y-40467580D02*
X121950333Y-40515200D01*
X121950333Y-40515200D02*
X122045571Y-40562819D01*
X122045571Y-40562819D02*
X122236047Y-40562819D01*
X122236047Y-40562819D02*
X122331285Y-40515200D01*
X122331285Y-40515200D02*
X122378904Y-40467580D01*
X122378904Y-40467580D02*
X122426523Y-40372342D01*
X122426523Y-40372342D02*
X122426523Y-39562819D01*
X123331285Y-39896152D02*
X123331285Y-40562819D01*
X123093190Y-39515200D02*
X122855095Y-40229485D01*
X122855095Y-40229485D02*
X123474142Y-40229485D01*
%TO.C,R10*%
X146824142Y-51462819D02*
X146490809Y-50986628D01*
X146252714Y-51462819D02*
X146252714Y-50462819D01*
X146252714Y-50462819D02*
X146633666Y-50462819D01*
X146633666Y-50462819D02*
X146728904Y-50510438D01*
X146728904Y-50510438D02*
X146776523Y-50558057D01*
X146776523Y-50558057D02*
X146824142Y-50653295D01*
X146824142Y-50653295D02*
X146824142Y-50796152D01*
X146824142Y-50796152D02*
X146776523Y-50891390D01*
X146776523Y-50891390D02*
X146728904Y-50939009D01*
X146728904Y-50939009D02*
X146633666Y-50986628D01*
X146633666Y-50986628D02*
X146252714Y-50986628D01*
X147776523Y-51462819D02*
X147205095Y-51462819D01*
X147490809Y-51462819D02*
X147490809Y-50462819D01*
X147490809Y-50462819D02*
X147395571Y-50605676D01*
X147395571Y-50605676D02*
X147300333Y-50700914D01*
X147300333Y-50700914D02*
X147205095Y-50748533D01*
X148395571Y-50462819D02*
X148490809Y-50462819D01*
X148490809Y-50462819D02*
X148586047Y-50510438D01*
X148586047Y-50510438D02*
X148633666Y-50558057D01*
X148633666Y-50558057D02*
X148681285Y-50653295D01*
X148681285Y-50653295D02*
X148728904Y-50843771D01*
X148728904Y-50843771D02*
X148728904Y-51081866D01*
X148728904Y-51081866D02*
X148681285Y-51272342D01*
X148681285Y-51272342D02*
X148633666Y-51367580D01*
X148633666Y-51367580D02*
X148586047Y-51415200D01*
X148586047Y-51415200D02*
X148490809Y-51462819D01*
X148490809Y-51462819D02*
X148395571Y-51462819D01*
X148395571Y-51462819D02*
X148300333Y-51415200D01*
X148300333Y-51415200D02*
X148252714Y-51367580D01*
X148252714Y-51367580D02*
X148205095Y-51272342D01*
X148205095Y-51272342D02*
X148157476Y-51081866D01*
X148157476Y-51081866D02*
X148157476Y-50843771D01*
X148157476Y-50843771D02*
X148205095Y-50653295D01*
X148205095Y-50653295D02*
X148252714Y-50558057D01*
X148252714Y-50558057D02*
X148300333Y-50510438D01*
X148300333Y-50510438D02*
X148395571Y-50462819D01*
%TO.C,D5*%
X169127957Y-52163413D02*
X169127957Y-51162130D01*
X169127957Y-51162130D02*
X169366358Y-51162130D01*
X169366358Y-51162130D02*
X169509398Y-51209810D01*
X169509398Y-51209810D02*
X169604759Y-51305170D01*
X169604759Y-51305170D02*
X169652439Y-51400530D01*
X169652439Y-51400530D02*
X169700119Y-51591251D01*
X169700119Y-51591251D02*
X169700119Y-51734291D01*
X169700119Y-51734291D02*
X169652439Y-51925012D01*
X169652439Y-51925012D02*
X169604759Y-52020372D01*
X169604759Y-52020372D02*
X169509398Y-52115733D01*
X169509398Y-52115733D02*
X169366358Y-52163413D01*
X169366358Y-52163413D02*
X169127957Y-52163413D01*
X170606042Y-51162130D02*
X170129240Y-51162130D01*
X170129240Y-51162130D02*
X170081560Y-51638931D01*
X170081560Y-51638931D02*
X170129240Y-51591251D01*
X170129240Y-51591251D02*
X170224601Y-51543571D01*
X170224601Y-51543571D02*
X170463001Y-51543571D01*
X170463001Y-51543571D02*
X170558362Y-51591251D01*
X170558362Y-51591251D02*
X170606042Y-51638931D01*
X170606042Y-51638931D02*
X170653722Y-51734291D01*
X170653722Y-51734291D02*
X170653722Y-51972692D01*
X170653722Y-51972692D02*
X170606042Y-52068052D01*
X170606042Y-52068052D02*
X170558362Y-52115733D01*
X170558362Y-52115733D02*
X170463001Y-52163413D01*
X170463001Y-52163413D02*
X170224601Y-52163413D01*
X170224601Y-52163413D02*
X170129240Y-52115733D01*
X170129240Y-52115733D02*
X170081560Y-52068052D01*
%TO.C,U7*%
X130703595Y-67736761D02*
X130703595Y-68547879D01*
X130703595Y-68547879D02*
X130751307Y-68643305D01*
X130751307Y-68643305D02*
X130799020Y-68691018D01*
X130799020Y-68691018D02*
X130894446Y-68738730D01*
X130894446Y-68738730D02*
X131085297Y-68738730D01*
X131085297Y-68738730D02*
X131180723Y-68691018D01*
X131180723Y-68691018D02*
X131228435Y-68643305D01*
X131228435Y-68643305D02*
X131276148Y-68547879D01*
X131276148Y-68547879D02*
X131276148Y-67736761D01*
X131657851Y-67736761D02*
X132325830Y-67736761D01*
X132325830Y-67736761D02*
X131896415Y-68738730D01*
%TO.C,U3*%
X158885095Y-68402819D02*
X158885095Y-69212342D01*
X158885095Y-69212342D02*
X158932714Y-69307580D01*
X158932714Y-69307580D02*
X158980333Y-69355200D01*
X158980333Y-69355200D02*
X159075571Y-69402819D01*
X159075571Y-69402819D02*
X159266047Y-69402819D01*
X159266047Y-69402819D02*
X159361285Y-69355200D01*
X159361285Y-69355200D02*
X159408904Y-69307580D01*
X159408904Y-69307580D02*
X159456523Y-69212342D01*
X159456523Y-69212342D02*
X159456523Y-68402819D01*
X159837476Y-68402819D02*
X160456523Y-68402819D01*
X160456523Y-68402819D02*
X160123190Y-68783771D01*
X160123190Y-68783771D02*
X160266047Y-68783771D01*
X160266047Y-68783771D02*
X160361285Y-68831390D01*
X160361285Y-68831390D02*
X160408904Y-68879009D01*
X160408904Y-68879009D02*
X160456523Y-68974247D01*
X160456523Y-68974247D02*
X160456523Y-69212342D01*
X160456523Y-69212342D02*
X160408904Y-69307580D01*
X160408904Y-69307580D02*
X160361285Y-69355200D01*
X160361285Y-69355200D02*
X160266047Y-69402819D01*
X160266047Y-69402819D02*
X159980333Y-69402819D01*
X159980333Y-69402819D02*
X159885095Y-69355200D01*
X159885095Y-69355200D02*
X159837476Y-69307580D01*
%TO.C,R8*%
X145873333Y-70739819D02*
X145540000Y-70263628D01*
X145301905Y-70739819D02*
X145301905Y-69739819D01*
X145301905Y-69739819D02*
X145682857Y-69739819D01*
X145682857Y-69739819D02*
X145778095Y-69787438D01*
X145778095Y-69787438D02*
X145825714Y-69835057D01*
X145825714Y-69835057D02*
X145873333Y-69930295D01*
X145873333Y-69930295D02*
X145873333Y-70073152D01*
X145873333Y-70073152D02*
X145825714Y-70168390D01*
X145825714Y-70168390D02*
X145778095Y-70216009D01*
X145778095Y-70216009D02*
X145682857Y-70263628D01*
X145682857Y-70263628D02*
X145301905Y-70263628D01*
X146444762Y-70168390D02*
X146349524Y-70120771D01*
X146349524Y-70120771D02*
X146301905Y-70073152D01*
X146301905Y-70073152D02*
X146254286Y-69977914D01*
X146254286Y-69977914D02*
X146254286Y-69930295D01*
X146254286Y-69930295D02*
X146301905Y-69835057D01*
X146301905Y-69835057D02*
X146349524Y-69787438D01*
X146349524Y-69787438D02*
X146444762Y-69739819D01*
X146444762Y-69739819D02*
X146635238Y-69739819D01*
X146635238Y-69739819D02*
X146730476Y-69787438D01*
X146730476Y-69787438D02*
X146778095Y-69835057D01*
X146778095Y-69835057D02*
X146825714Y-69930295D01*
X146825714Y-69930295D02*
X146825714Y-69977914D01*
X146825714Y-69977914D02*
X146778095Y-70073152D01*
X146778095Y-70073152D02*
X146730476Y-70120771D01*
X146730476Y-70120771D02*
X146635238Y-70168390D01*
X146635238Y-70168390D02*
X146444762Y-70168390D01*
X146444762Y-70168390D02*
X146349524Y-70216009D01*
X146349524Y-70216009D02*
X146301905Y-70263628D01*
X146301905Y-70263628D02*
X146254286Y-70358866D01*
X146254286Y-70358866D02*
X146254286Y-70549342D01*
X146254286Y-70549342D02*
X146301905Y-70644580D01*
X146301905Y-70644580D02*
X146349524Y-70692200D01*
X146349524Y-70692200D02*
X146444762Y-70739819D01*
X146444762Y-70739819D02*
X146635238Y-70739819D01*
X146635238Y-70739819D02*
X146730476Y-70692200D01*
X146730476Y-70692200D02*
X146778095Y-70644580D01*
X146778095Y-70644580D02*
X146825714Y-70549342D01*
X146825714Y-70549342D02*
X146825714Y-70358866D01*
X146825714Y-70358866D02*
X146778095Y-70263628D01*
X146778095Y-70263628D02*
X146730476Y-70216009D01*
X146730476Y-70216009D02*
X146635238Y-70168390D01*
%TO.C,C5*%
X150900333Y-97817580D02*
X150852714Y-97865200D01*
X150852714Y-97865200D02*
X150709857Y-97912819D01*
X150709857Y-97912819D02*
X150614619Y-97912819D01*
X150614619Y-97912819D02*
X150471762Y-97865200D01*
X150471762Y-97865200D02*
X150376524Y-97769961D01*
X150376524Y-97769961D02*
X150328905Y-97674723D01*
X150328905Y-97674723D02*
X150281286Y-97484247D01*
X150281286Y-97484247D02*
X150281286Y-97341390D01*
X150281286Y-97341390D02*
X150328905Y-97150914D01*
X150328905Y-97150914D02*
X150376524Y-97055676D01*
X150376524Y-97055676D02*
X150471762Y-96960438D01*
X150471762Y-96960438D02*
X150614619Y-96912819D01*
X150614619Y-96912819D02*
X150709857Y-96912819D01*
X150709857Y-96912819D02*
X150852714Y-96960438D01*
X150852714Y-96960438D02*
X150900333Y-97008057D01*
X151805095Y-96912819D02*
X151328905Y-96912819D01*
X151328905Y-96912819D02*
X151281286Y-97389009D01*
X151281286Y-97389009D02*
X151328905Y-97341390D01*
X151328905Y-97341390D02*
X151424143Y-97293771D01*
X151424143Y-97293771D02*
X151662238Y-97293771D01*
X151662238Y-97293771D02*
X151757476Y-97341390D01*
X151757476Y-97341390D02*
X151805095Y-97389009D01*
X151805095Y-97389009D02*
X151852714Y-97484247D01*
X151852714Y-97484247D02*
X151852714Y-97722342D01*
X151852714Y-97722342D02*
X151805095Y-97817580D01*
X151805095Y-97817580D02*
X151757476Y-97865200D01*
X151757476Y-97865200D02*
X151662238Y-97912819D01*
X151662238Y-97912819D02*
X151424143Y-97912819D01*
X151424143Y-97912819D02*
X151328905Y-97865200D01*
X151328905Y-97865200D02*
X151281286Y-97817580D01*
%TO.C,C3*%
X162160333Y-67700080D02*
X162112714Y-67747700D01*
X162112714Y-67747700D02*
X161969857Y-67795319D01*
X161969857Y-67795319D02*
X161874619Y-67795319D01*
X161874619Y-67795319D02*
X161731762Y-67747700D01*
X161731762Y-67747700D02*
X161636524Y-67652461D01*
X161636524Y-67652461D02*
X161588905Y-67557223D01*
X161588905Y-67557223D02*
X161541286Y-67366747D01*
X161541286Y-67366747D02*
X161541286Y-67223890D01*
X161541286Y-67223890D02*
X161588905Y-67033414D01*
X161588905Y-67033414D02*
X161636524Y-66938176D01*
X161636524Y-66938176D02*
X161731762Y-66842938D01*
X161731762Y-66842938D02*
X161874619Y-66795319D01*
X161874619Y-66795319D02*
X161969857Y-66795319D01*
X161969857Y-66795319D02*
X162112714Y-66842938D01*
X162112714Y-66842938D02*
X162160333Y-66890557D01*
X162493667Y-66795319D02*
X163112714Y-66795319D01*
X163112714Y-66795319D02*
X162779381Y-67176271D01*
X162779381Y-67176271D02*
X162922238Y-67176271D01*
X162922238Y-67176271D02*
X163017476Y-67223890D01*
X163017476Y-67223890D02*
X163065095Y-67271509D01*
X163065095Y-67271509D02*
X163112714Y-67366747D01*
X163112714Y-67366747D02*
X163112714Y-67604842D01*
X163112714Y-67604842D02*
X163065095Y-67700080D01*
X163065095Y-67700080D02*
X163017476Y-67747700D01*
X163017476Y-67747700D02*
X162922238Y-67795319D01*
X162922238Y-67795319D02*
X162636524Y-67795319D01*
X162636524Y-67795319D02*
X162541286Y-67747700D01*
X162541286Y-67747700D02*
X162493667Y-67700080D01*
%TO.C,J2*%
X172583666Y-46862819D02*
X172583666Y-47577104D01*
X172583666Y-47577104D02*
X172536047Y-47719961D01*
X172536047Y-47719961D02*
X172440809Y-47815200D01*
X172440809Y-47815200D02*
X172297952Y-47862819D01*
X172297952Y-47862819D02*
X172202714Y-47862819D01*
X173012238Y-46958057D02*
X173059857Y-46910438D01*
X173059857Y-46910438D02*
X173155095Y-46862819D01*
X173155095Y-46862819D02*
X173393190Y-46862819D01*
X173393190Y-46862819D02*
X173488428Y-46910438D01*
X173488428Y-46910438D02*
X173536047Y-46958057D01*
X173536047Y-46958057D02*
X173583666Y-47053295D01*
X173583666Y-47053295D02*
X173583666Y-47148533D01*
X173583666Y-47148533D02*
X173536047Y-47291390D01*
X173536047Y-47291390D02*
X172964619Y-47862819D01*
X172964619Y-47862819D02*
X173583666Y-47862819D01*
%TO.C,R14*%
X144547142Y-61619819D02*
X144213809Y-61143628D01*
X143975714Y-61619819D02*
X143975714Y-60619819D01*
X143975714Y-60619819D02*
X144356666Y-60619819D01*
X144356666Y-60619819D02*
X144451904Y-60667438D01*
X144451904Y-60667438D02*
X144499523Y-60715057D01*
X144499523Y-60715057D02*
X144547142Y-60810295D01*
X144547142Y-60810295D02*
X144547142Y-60953152D01*
X144547142Y-60953152D02*
X144499523Y-61048390D01*
X144499523Y-61048390D02*
X144451904Y-61096009D01*
X144451904Y-61096009D02*
X144356666Y-61143628D01*
X144356666Y-61143628D02*
X143975714Y-61143628D01*
X145499523Y-61619819D02*
X144928095Y-61619819D01*
X145213809Y-61619819D02*
X145213809Y-60619819D01*
X145213809Y-60619819D02*
X145118571Y-60762676D01*
X145118571Y-60762676D02*
X145023333Y-60857914D01*
X145023333Y-60857914D02*
X144928095Y-60905533D01*
X146356666Y-60953152D02*
X146356666Y-61619819D01*
X146118571Y-60572200D02*
X145880476Y-61286485D01*
X145880476Y-61286485D02*
X146499523Y-61286485D01*
%TO.C,EN*%
X177141905Y-95496009D02*
X177475238Y-95496009D01*
X177618095Y-96019819D02*
X177141905Y-96019819D01*
X177141905Y-96019819D02*
X177141905Y-95019819D01*
X177141905Y-95019819D02*
X177618095Y-95019819D01*
X178046667Y-96019819D02*
X178046667Y-95019819D01*
X178046667Y-95019819D02*
X178618095Y-96019819D01*
X178618095Y-96019819D02*
X178618095Y-95019819D01*
%TO.C,C10*%
X144347142Y-64714580D02*
X144299523Y-64762200D01*
X144299523Y-64762200D02*
X144156666Y-64809819D01*
X144156666Y-64809819D02*
X144061428Y-64809819D01*
X144061428Y-64809819D02*
X143918571Y-64762200D01*
X143918571Y-64762200D02*
X143823333Y-64666961D01*
X143823333Y-64666961D02*
X143775714Y-64571723D01*
X143775714Y-64571723D02*
X143728095Y-64381247D01*
X143728095Y-64381247D02*
X143728095Y-64238390D01*
X143728095Y-64238390D02*
X143775714Y-64047914D01*
X143775714Y-64047914D02*
X143823333Y-63952676D01*
X143823333Y-63952676D02*
X143918571Y-63857438D01*
X143918571Y-63857438D02*
X144061428Y-63809819D01*
X144061428Y-63809819D02*
X144156666Y-63809819D01*
X144156666Y-63809819D02*
X144299523Y-63857438D01*
X144299523Y-63857438D02*
X144347142Y-63905057D01*
X145299523Y-64809819D02*
X144728095Y-64809819D01*
X145013809Y-64809819D02*
X145013809Y-63809819D01*
X145013809Y-63809819D02*
X144918571Y-63952676D01*
X144918571Y-63952676D02*
X144823333Y-64047914D01*
X144823333Y-64047914D02*
X144728095Y-64095533D01*
X145918571Y-63809819D02*
X146013809Y-63809819D01*
X146013809Y-63809819D02*
X146109047Y-63857438D01*
X146109047Y-63857438D02*
X146156666Y-63905057D01*
X146156666Y-63905057D02*
X146204285Y-64000295D01*
X146204285Y-64000295D02*
X146251904Y-64190771D01*
X146251904Y-64190771D02*
X146251904Y-64428866D01*
X146251904Y-64428866D02*
X146204285Y-64619342D01*
X146204285Y-64619342D02*
X146156666Y-64714580D01*
X146156666Y-64714580D02*
X146109047Y-64762200D01*
X146109047Y-64762200D02*
X146013809Y-64809819D01*
X146013809Y-64809819D02*
X145918571Y-64809819D01*
X145918571Y-64809819D02*
X145823333Y-64762200D01*
X145823333Y-64762200D02*
X145775714Y-64714580D01*
X145775714Y-64714580D02*
X145728095Y-64619342D01*
X145728095Y-64619342D02*
X145680476Y-64428866D01*
X145680476Y-64428866D02*
X145680476Y-64190771D01*
X145680476Y-64190771D02*
X145728095Y-64000295D01*
X145728095Y-64000295D02*
X145775714Y-63905057D01*
X145775714Y-63905057D02*
X145823333Y-63857438D01*
X145823333Y-63857438D02*
X145918571Y-63809819D01*
%TO.C,R12*%
X173847142Y-92526819D02*
X173513809Y-92050628D01*
X173275714Y-92526819D02*
X173275714Y-91526819D01*
X173275714Y-91526819D02*
X173656666Y-91526819D01*
X173656666Y-91526819D02*
X173751904Y-91574438D01*
X173751904Y-91574438D02*
X173799523Y-91622057D01*
X173799523Y-91622057D02*
X173847142Y-91717295D01*
X173847142Y-91717295D02*
X173847142Y-91860152D01*
X173847142Y-91860152D02*
X173799523Y-91955390D01*
X173799523Y-91955390D02*
X173751904Y-92003009D01*
X173751904Y-92003009D02*
X173656666Y-92050628D01*
X173656666Y-92050628D02*
X173275714Y-92050628D01*
X174799523Y-92526819D02*
X174228095Y-92526819D01*
X174513809Y-92526819D02*
X174513809Y-91526819D01*
X174513809Y-91526819D02*
X174418571Y-91669676D01*
X174418571Y-91669676D02*
X174323333Y-91764914D01*
X174323333Y-91764914D02*
X174228095Y-91812533D01*
X175180476Y-91622057D02*
X175228095Y-91574438D01*
X175228095Y-91574438D02*
X175323333Y-91526819D01*
X175323333Y-91526819D02*
X175561428Y-91526819D01*
X175561428Y-91526819D02*
X175656666Y-91574438D01*
X175656666Y-91574438D02*
X175704285Y-91622057D01*
X175704285Y-91622057D02*
X175751904Y-91717295D01*
X175751904Y-91717295D02*
X175751904Y-91812533D01*
X175751904Y-91812533D02*
X175704285Y-91955390D01*
X175704285Y-91955390D02*
X175132857Y-92526819D01*
X175132857Y-92526819D02*
X175751904Y-92526819D01*
%TO.C,C15*%
X120474142Y-51267580D02*
X120426523Y-51315200D01*
X120426523Y-51315200D02*
X120283666Y-51362819D01*
X120283666Y-51362819D02*
X120188428Y-51362819D01*
X120188428Y-51362819D02*
X120045571Y-51315200D01*
X120045571Y-51315200D02*
X119950333Y-51219961D01*
X119950333Y-51219961D02*
X119902714Y-51124723D01*
X119902714Y-51124723D02*
X119855095Y-50934247D01*
X119855095Y-50934247D02*
X119855095Y-50791390D01*
X119855095Y-50791390D02*
X119902714Y-50600914D01*
X119902714Y-50600914D02*
X119950333Y-50505676D01*
X119950333Y-50505676D02*
X120045571Y-50410438D01*
X120045571Y-50410438D02*
X120188428Y-50362819D01*
X120188428Y-50362819D02*
X120283666Y-50362819D01*
X120283666Y-50362819D02*
X120426523Y-50410438D01*
X120426523Y-50410438D02*
X120474142Y-50458057D01*
X121426523Y-51362819D02*
X120855095Y-51362819D01*
X121140809Y-51362819D02*
X121140809Y-50362819D01*
X121140809Y-50362819D02*
X121045571Y-50505676D01*
X121045571Y-50505676D02*
X120950333Y-50600914D01*
X120950333Y-50600914D02*
X120855095Y-50648533D01*
X122331285Y-50362819D02*
X121855095Y-50362819D01*
X121855095Y-50362819D02*
X121807476Y-50839009D01*
X121807476Y-50839009D02*
X121855095Y-50791390D01*
X121855095Y-50791390D02*
X121950333Y-50743771D01*
X121950333Y-50743771D02*
X122188428Y-50743771D01*
X122188428Y-50743771D02*
X122283666Y-50791390D01*
X122283666Y-50791390D02*
X122331285Y-50839009D01*
X122331285Y-50839009D02*
X122378904Y-50934247D01*
X122378904Y-50934247D02*
X122378904Y-51172342D01*
X122378904Y-51172342D02*
X122331285Y-51267580D01*
X122331285Y-51267580D02*
X122283666Y-51315200D01*
X122283666Y-51315200D02*
X122188428Y-51362819D01*
X122188428Y-51362819D02*
X121950333Y-51362819D01*
X121950333Y-51362819D02*
X121855095Y-51315200D01*
X121855095Y-51315200D02*
X121807476Y-51267580D01*
%TO.C,C8*%
X147550333Y-64767580D02*
X147502714Y-64815200D01*
X147502714Y-64815200D02*
X147359857Y-64862819D01*
X147359857Y-64862819D02*
X147264619Y-64862819D01*
X147264619Y-64862819D02*
X147121762Y-64815200D01*
X147121762Y-64815200D02*
X147026524Y-64719961D01*
X147026524Y-64719961D02*
X146978905Y-64624723D01*
X146978905Y-64624723D02*
X146931286Y-64434247D01*
X146931286Y-64434247D02*
X146931286Y-64291390D01*
X146931286Y-64291390D02*
X146978905Y-64100914D01*
X146978905Y-64100914D02*
X147026524Y-64005676D01*
X147026524Y-64005676D02*
X147121762Y-63910438D01*
X147121762Y-63910438D02*
X147264619Y-63862819D01*
X147264619Y-63862819D02*
X147359857Y-63862819D01*
X147359857Y-63862819D02*
X147502714Y-63910438D01*
X147502714Y-63910438D02*
X147550333Y-63958057D01*
X148121762Y-64291390D02*
X148026524Y-64243771D01*
X148026524Y-64243771D02*
X147978905Y-64196152D01*
X147978905Y-64196152D02*
X147931286Y-64100914D01*
X147931286Y-64100914D02*
X147931286Y-64053295D01*
X147931286Y-64053295D02*
X147978905Y-63958057D01*
X147978905Y-63958057D02*
X148026524Y-63910438D01*
X148026524Y-63910438D02*
X148121762Y-63862819D01*
X148121762Y-63862819D02*
X148312238Y-63862819D01*
X148312238Y-63862819D02*
X148407476Y-63910438D01*
X148407476Y-63910438D02*
X148455095Y-63958057D01*
X148455095Y-63958057D02*
X148502714Y-64053295D01*
X148502714Y-64053295D02*
X148502714Y-64100914D01*
X148502714Y-64100914D02*
X148455095Y-64196152D01*
X148455095Y-64196152D02*
X148407476Y-64243771D01*
X148407476Y-64243771D02*
X148312238Y-64291390D01*
X148312238Y-64291390D02*
X148121762Y-64291390D01*
X148121762Y-64291390D02*
X148026524Y-64339009D01*
X148026524Y-64339009D02*
X147978905Y-64386628D01*
X147978905Y-64386628D02*
X147931286Y-64481866D01*
X147931286Y-64481866D02*
X147931286Y-64672342D01*
X147931286Y-64672342D02*
X147978905Y-64767580D01*
X147978905Y-64767580D02*
X148026524Y-64815200D01*
X148026524Y-64815200D02*
X148121762Y-64862819D01*
X148121762Y-64862819D02*
X148312238Y-64862819D01*
X148312238Y-64862819D02*
X148407476Y-64815200D01*
X148407476Y-64815200D02*
X148455095Y-64767580D01*
X148455095Y-64767580D02*
X148502714Y-64672342D01*
X148502714Y-64672342D02*
X148502714Y-64481866D01*
X148502714Y-64481866D02*
X148455095Y-64386628D01*
X148455095Y-64386628D02*
X148407476Y-64339009D01*
X148407476Y-64339009D02*
X148312238Y-64291390D01*
%TO.C,C7*%
X148100333Y-87967580D02*
X148052714Y-88015200D01*
X148052714Y-88015200D02*
X147909857Y-88062819D01*
X147909857Y-88062819D02*
X147814619Y-88062819D01*
X147814619Y-88062819D02*
X147671762Y-88015200D01*
X147671762Y-88015200D02*
X147576524Y-87919961D01*
X147576524Y-87919961D02*
X147528905Y-87824723D01*
X147528905Y-87824723D02*
X147481286Y-87634247D01*
X147481286Y-87634247D02*
X147481286Y-87491390D01*
X147481286Y-87491390D02*
X147528905Y-87300914D01*
X147528905Y-87300914D02*
X147576524Y-87205676D01*
X147576524Y-87205676D02*
X147671762Y-87110438D01*
X147671762Y-87110438D02*
X147814619Y-87062819D01*
X147814619Y-87062819D02*
X147909857Y-87062819D01*
X147909857Y-87062819D02*
X148052714Y-87110438D01*
X148052714Y-87110438D02*
X148100333Y-87158057D01*
X148433667Y-87062819D02*
X149100333Y-87062819D01*
X149100333Y-87062819D02*
X148671762Y-88062819D01*
%TO.C,U6*%
X120553709Y-73961841D02*
X120553709Y-74772838D01*
X120553709Y-74772838D02*
X120601415Y-74868249D01*
X120601415Y-74868249D02*
X120649120Y-74915955D01*
X120649120Y-74915955D02*
X120744532Y-74963660D01*
X120744532Y-74963660D02*
X120935354Y-74963660D01*
X120935354Y-74963660D02*
X121030766Y-74915955D01*
X121030766Y-74915955D02*
X121078471Y-74868249D01*
X121078471Y-74868249D02*
X121126177Y-74772838D01*
X121126177Y-74772838D02*
X121126177Y-73961841D01*
X122032585Y-73961841D02*
X121841762Y-73961841D01*
X121841762Y-73961841D02*
X121746351Y-74009547D01*
X121746351Y-74009547D02*
X121698645Y-74057253D01*
X121698645Y-74057253D02*
X121603234Y-74200370D01*
X121603234Y-74200370D02*
X121555528Y-74391192D01*
X121555528Y-74391192D02*
X121555528Y-74772838D01*
X121555528Y-74772838D02*
X121603234Y-74868249D01*
X121603234Y-74868249D02*
X121650940Y-74915955D01*
X121650940Y-74915955D02*
X121746351Y-74963660D01*
X121746351Y-74963660D02*
X121937174Y-74963660D01*
X121937174Y-74963660D02*
X122032585Y-74915955D01*
X122032585Y-74915955D02*
X122080291Y-74868249D01*
X122080291Y-74868249D02*
X122127996Y-74772838D01*
X122127996Y-74772838D02*
X122127996Y-74534309D01*
X122127996Y-74534309D02*
X122080291Y-74438898D01*
X122080291Y-74438898D02*
X122032585Y-74391192D01*
X122032585Y-74391192D02*
X121937174Y-74343487D01*
X121937174Y-74343487D02*
X121746351Y-74343487D01*
X121746351Y-74343487D02*
X121650940Y-74391192D01*
X121650940Y-74391192D02*
X121603234Y-74438898D01*
X121603234Y-74438898D02*
X121555528Y-74534309D01*
%TO.C,BUTTON *%
X174517142Y-85696009D02*
X174659999Y-85743628D01*
X174659999Y-85743628D02*
X174707618Y-85791247D01*
X174707618Y-85791247D02*
X174755237Y-85886485D01*
X174755237Y-85886485D02*
X174755237Y-86029342D01*
X174755237Y-86029342D02*
X174707618Y-86124580D01*
X174707618Y-86124580D02*
X174659999Y-86172200D01*
X174659999Y-86172200D02*
X174564761Y-86219819D01*
X174564761Y-86219819D02*
X174183809Y-86219819D01*
X174183809Y-86219819D02*
X174183809Y-85219819D01*
X174183809Y-85219819D02*
X174517142Y-85219819D01*
X174517142Y-85219819D02*
X174612380Y-85267438D01*
X174612380Y-85267438D02*
X174659999Y-85315057D01*
X174659999Y-85315057D02*
X174707618Y-85410295D01*
X174707618Y-85410295D02*
X174707618Y-85505533D01*
X174707618Y-85505533D02*
X174659999Y-85600771D01*
X174659999Y-85600771D02*
X174612380Y-85648390D01*
X174612380Y-85648390D02*
X174517142Y-85696009D01*
X174517142Y-85696009D02*
X174183809Y-85696009D01*
X175183809Y-85219819D02*
X175183809Y-86029342D01*
X175183809Y-86029342D02*
X175231428Y-86124580D01*
X175231428Y-86124580D02*
X175279047Y-86172200D01*
X175279047Y-86172200D02*
X175374285Y-86219819D01*
X175374285Y-86219819D02*
X175564761Y-86219819D01*
X175564761Y-86219819D02*
X175659999Y-86172200D01*
X175659999Y-86172200D02*
X175707618Y-86124580D01*
X175707618Y-86124580D02*
X175755237Y-86029342D01*
X175755237Y-86029342D02*
X175755237Y-85219819D01*
X176088571Y-85219819D02*
X176659999Y-85219819D01*
X176374285Y-86219819D02*
X176374285Y-85219819D01*
X176850476Y-85219819D02*
X177421904Y-85219819D01*
X177136190Y-86219819D02*
X177136190Y-85219819D01*
X177945714Y-85219819D02*
X178136190Y-85219819D01*
X178136190Y-85219819D02*
X178231428Y-85267438D01*
X178231428Y-85267438D02*
X178326666Y-85362676D01*
X178326666Y-85362676D02*
X178374285Y-85553152D01*
X178374285Y-85553152D02*
X178374285Y-85886485D01*
X178374285Y-85886485D02*
X178326666Y-86076961D01*
X178326666Y-86076961D02*
X178231428Y-86172200D01*
X178231428Y-86172200D02*
X178136190Y-86219819D01*
X178136190Y-86219819D02*
X177945714Y-86219819D01*
X177945714Y-86219819D02*
X177850476Y-86172200D01*
X177850476Y-86172200D02*
X177755238Y-86076961D01*
X177755238Y-86076961D02*
X177707619Y-85886485D01*
X177707619Y-85886485D02*
X177707619Y-85553152D01*
X177707619Y-85553152D02*
X177755238Y-85362676D01*
X177755238Y-85362676D02*
X177850476Y-85267438D01*
X177850476Y-85267438D02*
X177945714Y-85219819D01*
X178802857Y-86219819D02*
X178802857Y-85219819D01*
X178802857Y-85219819D02*
X179374285Y-86219819D01*
X179374285Y-86219819D02*
X179374285Y-85219819D01*
%TO.C,R13*%
X173927142Y-82619819D02*
X173593809Y-82143628D01*
X173355714Y-82619819D02*
X173355714Y-81619819D01*
X173355714Y-81619819D02*
X173736666Y-81619819D01*
X173736666Y-81619819D02*
X173831904Y-81667438D01*
X173831904Y-81667438D02*
X173879523Y-81715057D01*
X173879523Y-81715057D02*
X173927142Y-81810295D01*
X173927142Y-81810295D02*
X173927142Y-81953152D01*
X173927142Y-81953152D02*
X173879523Y-82048390D01*
X173879523Y-82048390D02*
X173831904Y-82096009D01*
X173831904Y-82096009D02*
X173736666Y-82143628D01*
X173736666Y-82143628D02*
X173355714Y-82143628D01*
X174879523Y-82619819D02*
X174308095Y-82619819D01*
X174593809Y-82619819D02*
X174593809Y-81619819D01*
X174593809Y-81619819D02*
X174498571Y-81762676D01*
X174498571Y-81762676D02*
X174403333Y-81857914D01*
X174403333Y-81857914D02*
X174308095Y-81905533D01*
X175212857Y-81619819D02*
X175831904Y-81619819D01*
X175831904Y-81619819D02*
X175498571Y-82000771D01*
X175498571Y-82000771D02*
X175641428Y-82000771D01*
X175641428Y-82000771D02*
X175736666Y-82048390D01*
X175736666Y-82048390D02*
X175784285Y-82096009D01*
X175784285Y-82096009D02*
X175831904Y-82191247D01*
X175831904Y-82191247D02*
X175831904Y-82429342D01*
X175831904Y-82429342D02*
X175784285Y-82524580D01*
X175784285Y-82524580D02*
X175736666Y-82572200D01*
X175736666Y-82572200D02*
X175641428Y-82619819D01*
X175641428Y-82619819D02*
X175355714Y-82619819D01*
X175355714Y-82619819D02*
X175260476Y-82572200D01*
X175260476Y-82572200D02*
X175212857Y-82524580D01*
%TO.C,R16*%
X153324142Y-61437819D02*
X152990809Y-60961628D01*
X152752714Y-61437819D02*
X152752714Y-60437819D01*
X152752714Y-60437819D02*
X153133666Y-60437819D01*
X153133666Y-60437819D02*
X153228904Y-60485438D01*
X153228904Y-60485438D02*
X153276523Y-60533057D01*
X153276523Y-60533057D02*
X153324142Y-60628295D01*
X153324142Y-60628295D02*
X153324142Y-60771152D01*
X153324142Y-60771152D02*
X153276523Y-60866390D01*
X153276523Y-60866390D02*
X153228904Y-60914009D01*
X153228904Y-60914009D02*
X153133666Y-60961628D01*
X153133666Y-60961628D02*
X152752714Y-60961628D01*
X154276523Y-61437819D02*
X153705095Y-61437819D01*
X153990809Y-61437819D02*
X153990809Y-60437819D01*
X153990809Y-60437819D02*
X153895571Y-60580676D01*
X153895571Y-60580676D02*
X153800333Y-60675914D01*
X153800333Y-60675914D02*
X153705095Y-60723533D01*
X155133666Y-60437819D02*
X154943190Y-60437819D01*
X154943190Y-60437819D02*
X154847952Y-60485438D01*
X154847952Y-60485438D02*
X154800333Y-60533057D01*
X154800333Y-60533057D02*
X154705095Y-60675914D01*
X154705095Y-60675914D02*
X154657476Y-60866390D01*
X154657476Y-60866390D02*
X154657476Y-61247342D01*
X154657476Y-61247342D02*
X154705095Y-61342580D01*
X154705095Y-61342580D02*
X154752714Y-61390200D01*
X154752714Y-61390200D02*
X154847952Y-61437819D01*
X154847952Y-61437819D02*
X155038428Y-61437819D01*
X155038428Y-61437819D02*
X155133666Y-61390200D01*
X155133666Y-61390200D02*
X155181285Y-61342580D01*
X155181285Y-61342580D02*
X155228904Y-61247342D01*
X155228904Y-61247342D02*
X155228904Y-61009247D01*
X155228904Y-61009247D02*
X155181285Y-60914009D01*
X155181285Y-60914009D02*
X155133666Y-60866390D01*
X155133666Y-60866390D02*
X155038428Y-60818771D01*
X155038428Y-60818771D02*
X154847952Y-60818771D01*
X154847952Y-60818771D02*
X154752714Y-60866390D01*
X154752714Y-60866390D02*
X154705095Y-60914009D01*
X154705095Y-60914009D02*
X154657476Y-61009247D01*
%TO.C,D4*%
X146528905Y-55312819D02*
X146528905Y-54312819D01*
X146528905Y-54312819D02*
X146767000Y-54312819D01*
X146767000Y-54312819D02*
X146909857Y-54360438D01*
X146909857Y-54360438D02*
X147005095Y-54455676D01*
X147005095Y-54455676D02*
X147052714Y-54550914D01*
X147052714Y-54550914D02*
X147100333Y-54741390D01*
X147100333Y-54741390D02*
X147100333Y-54884247D01*
X147100333Y-54884247D02*
X147052714Y-55074723D01*
X147052714Y-55074723D02*
X147005095Y-55169961D01*
X147005095Y-55169961D02*
X146909857Y-55265200D01*
X146909857Y-55265200D02*
X146767000Y-55312819D01*
X146767000Y-55312819D02*
X146528905Y-55312819D01*
X147957476Y-54646152D02*
X147957476Y-55312819D01*
X147719381Y-54265200D02*
X147481286Y-54979485D01*
X147481286Y-54979485D02*
X148100333Y-54979485D01*
%TO.C,J6*%
X110359666Y-47111819D02*
X110359666Y-47826104D01*
X110359666Y-47826104D02*
X110312047Y-47968961D01*
X110312047Y-47968961D02*
X110216809Y-48064200D01*
X110216809Y-48064200D02*
X110073952Y-48111819D01*
X110073952Y-48111819D02*
X109978714Y-48111819D01*
X111264428Y-47111819D02*
X111073952Y-47111819D01*
X111073952Y-47111819D02*
X110978714Y-47159438D01*
X110978714Y-47159438D02*
X110931095Y-47207057D01*
X110931095Y-47207057D02*
X110835857Y-47349914D01*
X110835857Y-47349914D02*
X110788238Y-47540390D01*
X110788238Y-47540390D02*
X110788238Y-47921342D01*
X110788238Y-47921342D02*
X110835857Y-48016580D01*
X110835857Y-48016580D02*
X110883476Y-48064200D01*
X110883476Y-48064200D02*
X110978714Y-48111819D01*
X110978714Y-48111819D02*
X111169190Y-48111819D01*
X111169190Y-48111819D02*
X111264428Y-48064200D01*
X111264428Y-48064200D02*
X111312047Y-48016580D01*
X111312047Y-48016580D02*
X111359666Y-47921342D01*
X111359666Y-47921342D02*
X111359666Y-47683247D01*
X111359666Y-47683247D02*
X111312047Y-47588009D01*
X111312047Y-47588009D02*
X111264428Y-47540390D01*
X111264428Y-47540390D02*
X111169190Y-47492771D01*
X111169190Y-47492771D02*
X110978714Y-47492771D01*
X110978714Y-47492771D02*
X110883476Y-47540390D01*
X110883476Y-47540390D02*
X110835857Y-47588009D01*
X110835857Y-47588009D02*
X110788238Y-47683247D01*
%TO.C,C12*%
X177527142Y-74214580D02*
X177479523Y-74262200D01*
X177479523Y-74262200D02*
X177336666Y-74309819D01*
X177336666Y-74309819D02*
X177241428Y-74309819D01*
X177241428Y-74309819D02*
X177098571Y-74262200D01*
X177098571Y-74262200D02*
X177003333Y-74166961D01*
X177003333Y-74166961D02*
X176955714Y-74071723D01*
X176955714Y-74071723D02*
X176908095Y-73881247D01*
X176908095Y-73881247D02*
X176908095Y-73738390D01*
X176908095Y-73738390D02*
X176955714Y-73547914D01*
X176955714Y-73547914D02*
X177003333Y-73452676D01*
X177003333Y-73452676D02*
X177098571Y-73357438D01*
X177098571Y-73357438D02*
X177241428Y-73309819D01*
X177241428Y-73309819D02*
X177336666Y-73309819D01*
X177336666Y-73309819D02*
X177479523Y-73357438D01*
X177479523Y-73357438D02*
X177527142Y-73405057D01*
X178479523Y-74309819D02*
X177908095Y-74309819D01*
X178193809Y-74309819D02*
X178193809Y-73309819D01*
X178193809Y-73309819D02*
X178098571Y-73452676D01*
X178098571Y-73452676D02*
X178003333Y-73547914D01*
X178003333Y-73547914D02*
X177908095Y-73595533D01*
X178860476Y-73405057D02*
X178908095Y-73357438D01*
X178908095Y-73357438D02*
X179003333Y-73309819D01*
X179003333Y-73309819D02*
X179241428Y-73309819D01*
X179241428Y-73309819D02*
X179336666Y-73357438D01*
X179336666Y-73357438D02*
X179384285Y-73405057D01*
X179384285Y-73405057D02*
X179431904Y-73500295D01*
X179431904Y-73500295D02*
X179431904Y-73595533D01*
X179431904Y-73595533D02*
X179384285Y-73738390D01*
X179384285Y-73738390D02*
X178812857Y-74309819D01*
X178812857Y-74309819D02*
X179431904Y-74309819D01*
%TO.C,R20*%
X119107142Y-81894819D02*
X118773809Y-81418628D01*
X118535714Y-81894819D02*
X118535714Y-80894819D01*
X118535714Y-80894819D02*
X118916666Y-80894819D01*
X118916666Y-80894819D02*
X119011904Y-80942438D01*
X119011904Y-80942438D02*
X119059523Y-80990057D01*
X119059523Y-80990057D02*
X119107142Y-81085295D01*
X119107142Y-81085295D02*
X119107142Y-81228152D01*
X119107142Y-81228152D02*
X119059523Y-81323390D01*
X119059523Y-81323390D02*
X119011904Y-81371009D01*
X119011904Y-81371009D02*
X118916666Y-81418628D01*
X118916666Y-81418628D02*
X118535714Y-81418628D01*
X119488095Y-80990057D02*
X119535714Y-80942438D01*
X119535714Y-80942438D02*
X119630952Y-80894819D01*
X119630952Y-80894819D02*
X119869047Y-80894819D01*
X119869047Y-80894819D02*
X119964285Y-80942438D01*
X119964285Y-80942438D02*
X120011904Y-80990057D01*
X120011904Y-80990057D02*
X120059523Y-81085295D01*
X120059523Y-81085295D02*
X120059523Y-81180533D01*
X120059523Y-81180533D02*
X120011904Y-81323390D01*
X120011904Y-81323390D02*
X119440476Y-81894819D01*
X119440476Y-81894819D02*
X120059523Y-81894819D01*
X120678571Y-80894819D02*
X120773809Y-80894819D01*
X120773809Y-80894819D02*
X120869047Y-80942438D01*
X120869047Y-80942438D02*
X120916666Y-80990057D01*
X120916666Y-80990057D02*
X120964285Y-81085295D01*
X120964285Y-81085295D02*
X121011904Y-81275771D01*
X121011904Y-81275771D02*
X121011904Y-81513866D01*
X121011904Y-81513866D02*
X120964285Y-81704342D01*
X120964285Y-81704342D02*
X120916666Y-81799580D01*
X120916666Y-81799580D02*
X120869047Y-81847200D01*
X120869047Y-81847200D02*
X120773809Y-81894819D01*
X120773809Y-81894819D02*
X120678571Y-81894819D01*
X120678571Y-81894819D02*
X120583333Y-81847200D01*
X120583333Y-81847200D02*
X120535714Y-81799580D01*
X120535714Y-81799580D02*
X120488095Y-81704342D01*
X120488095Y-81704342D02*
X120440476Y-81513866D01*
X120440476Y-81513866D02*
X120440476Y-81275771D01*
X120440476Y-81275771D02*
X120488095Y-81085295D01*
X120488095Y-81085295D02*
X120535714Y-80990057D01*
X120535714Y-80990057D02*
X120583333Y-80942438D01*
X120583333Y-80942438D02*
X120678571Y-80894819D01*
%TO.C,R24*%
X128874142Y-81987819D02*
X128540809Y-81511628D01*
X128302714Y-81987819D02*
X128302714Y-80987819D01*
X128302714Y-80987819D02*
X128683666Y-80987819D01*
X128683666Y-80987819D02*
X128778904Y-81035438D01*
X128778904Y-81035438D02*
X128826523Y-81083057D01*
X128826523Y-81083057D02*
X128874142Y-81178295D01*
X128874142Y-81178295D02*
X128874142Y-81321152D01*
X128874142Y-81321152D02*
X128826523Y-81416390D01*
X128826523Y-81416390D02*
X128778904Y-81464009D01*
X128778904Y-81464009D02*
X128683666Y-81511628D01*
X128683666Y-81511628D02*
X128302714Y-81511628D01*
X129255095Y-81083057D02*
X129302714Y-81035438D01*
X129302714Y-81035438D02*
X129397952Y-80987819D01*
X129397952Y-80987819D02*
X129636047Y-80987819D01*
X129636047Y-80987819D02*
X129731285Y-81035438D01*
X129731285Y-81035438D02*
X129778904Y-81083057D01*
X129778904Y-81083057D02*
X129826523Y-81178295D01*
X129826523Y-81178295D02*
X129826523Y-81273533D01*
X129826523Y-81273533D02*
X129778904Y-81416390D01*
X129778904Y-81416390D02*
X129207476Y-81987819D01*
X129207476Y-81987819D02*
X129826523Y-81987819D01*
X130683666Y-81321152D02*
X130683666Y-81987819D01*
X130445571Y-80940200D02*
X130207476Y-81654485D01*
X130207476Y-81654485D02*
X130826523Y-81654485D01*
%TO.C,J1*%
X170383666Y-92362819D02*
X170383666Y-93077104D01*
X170383666Y-93077104D02*
X170336047Y-93219961D01*
X170336047Y-93219961D02*
X170240809Y-93315200D01*
X170240809Y-93315200D02*
X170097952Y-93362819D01*
X170097952Y-93362819D02*
X170002714Y-93362819D01*
X171383666Y-93362819D02*
X170812238Y-93362819D01*
X171097952Y-93362819D02*
X171097952Y-92362819D01*
X171097952Y-92362819D02*
X171002714Y-92505676D01*
X171002714Y-92505676D02*
X170907476Y-92600914D01*
X170907476Y-92600914D02*
X170812238Y-92648533D01*
%TO.C,U2*%
X144406553Y-89738731D02*
X144406553Y-90549893D01*
X144406553Y-90549893D02*
X144454268Y-90645324D01*
X144454268Y-90645324D02*
X144501984Y-90693040D01*
X144501984Y-90693040D02*
X144597414Y-90740755D01*
X144597414Y-90740755D02*
X144788276Y-90740755D01*
X144788276Y-90740755D02*
X144883707Y-90693040D01*
X144883707Y-90693040D02*
X144931422Y-90645324D01*
X144931422Y-90645324D02*
X144979138Y-90549893D01*
X144979138Y-90549893D02*
X144979138Y-89738731D01*
X145408576Y-89834162D02*
X145456292Y-89786446D01*
X145456292Y-89786446D02*
X145551723Y-89738731D01*
X145551723Y-89738731D02*
X145790300Y-89738731D01*
X145790300Y-89738731D02*
X145885731Y-89786446D01*
X145885731Y-89786446D02*
X145933446Y-89834162D01*
X145933446Y-89834162D02*
X145981161Y-89929593D01*
X145981161Y-89929593D02*
X145981161Y-90025024D01*
X145981161Y-90025024D02*
X145933446Y-90168170D01*
X145933446Y-90168170D02*
X145360861Y-90740755D01*
X145360861Y-90740755D02*
X145981161Y-90740755D01*
%TO.C,R28*%
X139074142Y-84887819D02*
X138740809Y-84411628D01*
X138502714Y-84887819D02*
X138502714Y-83887819D01*
X138502714Y-83887819D02*
X138883666Y-83887819D01*
X138883666Y-83887819D02*
X138978904Y-83935438D01*
X138978904Y-83935438D02*
X139026523Y-83983057D01*
X139026523Y-83983057D02*
X139074142Y-84078295D01*
X139074142Y-84078295D02*
X139074142Y-84221152D01*
X139074142Y-84221152D02*
X139026523Y-84316390D01*
X139026523Y-84316390D02*
X138978904Y-84364009D01*
X138978904Y-84364009D02*
X138883666Y-84411628D01*
X138883666Y-84411628D02*
X138502714Y-84411628D01*
X139455095Y-83983057D02*
X139502714Y-83935438D01*
X139502714Y-83935438D02*
X139597952Y-83887819D01*
X139597952Y-83887819D02*
X139836047Y-83887819D01*
X139836047Y-83887819D02*
X139931285Y-83935438D01*
X139931285Y-83935438D02*
X139978904Y-83983057D01*
X139978904Y-83983057D02*
X140026523Y-84078295D01*
X140026523Y-84078295D02*
X140026523Y-84173533D01*
X140026523Y-84173533D02*
X139978904Y-84316390D01*
X139978904Y-84316390D02*
X139407476Y-84887819D01*
X139407476Y-84887819D02*
X140026523Y-84887819D01*
X140597952Y-84316390D02*
X140502714Y-84268771D01*
X140502714Y-84268771D02*
X140455095Y-84221152D01*
X140455095Y-84221152D02*
X140407476Y-84125914D01*
X140407476Y-84125914D02*
X140407476Y-84078295D01*
X140407476Y-84078295D02*
X140455095Y-83983057D01*
X140455095Y-83983057D02*
X140502714Y-83935438D01*
X140502714Y-83935438D02*
X140597952Y-83887819D01*
X140597952Y-83887819D02*
X140788428Y-83887819D01*
X140788428Y-83887819D02*
X140883666Y-83935438D01*
X140883666Y-83935438D02*
X140931285Y-83983057D01*
X140931285Y-83983057D02*
X140978904Y-84078295D01*
X140978904Y-84078295D02*
X140978904Y-84125914D01*
X140978904Y-84125914D02*
X140931285Y-84221152D01*
X140931285Y-84221152D02*
X140883666Y-84268771D01*
X140883666Y-84268771D02*
X140788428Y-84316390D01*
X140788428Y-84316390D02*
X140597952Y-84316390D01*
X140597952Y-84316390D02*
X140502714Y-84364009D01*
X140502714Y-84364009D02*
X140455095Y-84411628D01*
X140455095Y-84411628D02*
X140407476Y-84506866D01*
X140407476Y-84506866D02*
X140407476Y-84697342D01*
X140407476Y-84697342D02*
X140455095Y-84792580D01*
X140455095Y-84792580D02*
X140502714Y-84840200D01*
X140502714Y-84840200D02*
X140597952Y-84887819D01*
X140597952Y-84887819D02*
X140788428Y-84887819D01*
X140788428Y-84887819D02*
X140883666Y-84840200D01*
X140883666Y-84840200D02*
X140931285Y-84792580D01*
X140931285Y-84792580D02*
X140978904Y-84697342D01*
X140978904Y-84697342D02*
X140978904Y-84506866D01*
X140978904Y-84506866D02*
X140931285Y-84411628D01*
X140931285Y-84411628D02*
X140883666Y-84364009D01*
X140883666Y-84364009D02*
X140788428Y-84316390D01*
%TO.C,R6*%
X138700333Y-86712819D02*
X138367000Y-86236628D01*
X138128905Y-86712819D02*
X138128905Y-85712819D01*
X138128905Y-85712819D02*
X138509857Y-85712819D01*
X138509857Y-85712819D02*
X138605095Y-85760438D01*
X138605095Y-85760438D02*
X138652714Y-85808057D01*
X138652714Y-85808057D02*
X138700333Y-85903295D01*
X138700333Y-85903295D02*
X138700333Y-86046152D01*
X138700333Y-86046152D02*
X138652714Y-86141390D01*
X138652714Y-86141390D02*
X138605095Y-86189009D01*
X138605095Y-86189009D02*
X138509857Y-86236628D01*
X138509857Y-86236628D02*
X138128905Y-86236628D01*
X139557476Y-85712819D02*
X139367000Y-85712819D01*
X139367000Y-85712819D02*
X139271762Y-85760438D01*
X139271762Y-85760438D02*
X139224143Y-85808057D01*
X139224143Y-85808057D02*
X139128905Y-85950914D01*
X139128905Y-85950914D02*
X139081286Y-86141390D01*
X139081286Y-86141390D02*
X139081286Y-86522342D01*
X139081286Y-86522342D02*
X139128905Y-86617580D01*
X139128905Y-86617580D02*
X139176524Y-86665200D01*
X139176524Y-86665200D02*
X139271762Y-86712819D01*
X139271762Y-86712819D02*
X139462238Y-86712819D01*
X139462238Y-86712819D02*
X139557476Y-86665200D01*
X139557476Y-86665200D02*
X139605095Y-86617580D01*
X139605095Y-86617580D02*
X139652714Y-86522342D01*
X139652714Y-86522342D02*
X139652714Y-86284247D01*
X139652714Y-86284247D02*
X139605095Y-86189009D01*
X139605095Y-86189009D02*
X139557476Y-86141390D01*
X139557476Y-86141390D02*
X139462238Y-86093771D01*
X139462238Y-86093771D02*
X139271762Y-86093771D01*
X139271762Y-86093771D02*
X139176524Y-86141390D01*
X139176524Y-86141390D02*
X139128905Y-86189009D01*
X139128905Y-86189009D02*
X139081286Y-86284247D01*
%TO.C,TP1*%
X175578095Y-64309819D02*
X176149523Y-64309819D01*
X175863809Y-65309819D02*
X175863809Y-64309819D01*
X176482857Y-65309819D02*
X176482857Y-64309819D01*
X176482857Y-64309819D02*
X176863809Y-64309819D01*
X176863809Y-64309819D02*
X176959047Y-64357438D01*
X176959047Y-64357438D02*
X177006666Y-64405057D01*
X177006666Y-64405057D02*
X177054285Y-64500295D01*
X177054285Y-64500295D02*
X177054285Y-64643152D01*
X177054285Y-64643152D02*
X177006666Y-64738390D01*
X177006666Y-64738390D02*
X176959047Y-64786009D01*
X176959047Y-64786009D02*
X176863809Y-64833628D01*
X176863809Y-64833628D02*
X176482857Y-64833628D01*
X178006666Y-65309819D02*
X177435238Y-65309819D01*
X177720952Y-65309819D02*
X177720952Y-64309819D01*
X177720952Y-64309819D02*
X177625714Y-64452676D01*
X177625714Y-64452676D02*
X177530476Y-64547914D01*
X177530476Y-64547914D02*
X177435238Y-64595533D01*
%TO.C,TP3*%
X178838095Y-64309819D02*
X179409523Y-64309819D01*
X179123809Y-65309819D02*
X179123809Y-64309819D01*
X179742857Y-65309819D02*
X179742857Y-64309819D01*
X179742857Y-64309819D02*
X180123809Y-64309819D01*
X180123809Y-64309819D02*
X180219047Y-64357438D01*
X180219047Y-64357438D02*
X180266666Y-64405057D01*
X180266666Y-64405057D02*
X180314285Y-64500295D01*
X180314285Y-64500295D02*
X180314285Y-64643152D01*
X180314285Y-64643152D02*
X180266666Y-64738390D01*
X180266666Y-64738390D02*
X180219047Y-64786009D01*
X180219047Y-64786009D02*
X180123809Y-64833628D01*
X180123809Y-64833628D02*
X179742857Y-64833628D01*
X180647619Y-64309819D02*
X181266666Y-64309819D01*
X181266666Y-64309819D02*
X180933333Y-64690771D01*
X180933333Y-64690771D02*
X181076190Y-64690771D01*
X181076190Y-64690771D02*
X181171428Y-64738390D01*
X181171428Y-64738390D02*
X181219047Y-64786009D01*
X181219047Y-64786009D02*
X181266666Y-64881247D01*
X181266666Y-64881247D02*
X181266666Y-65119342D01*
X181266666Y-65119342D02*
X181219047Y-65214580D01*
X181219047Y-65214580D02*
X181171428Y-65262200D01*
X181171428Y-65262200D02*
X181076190Y-65309819D01*
X181076190Y-65309819D02*
X180790476Y-65309819D01*
X180790476Y-65309819D02*
X180695238Y-65262200D01*
X180695238Y-65262200D02*
X180647619Y-65214580D01*
%TO.C,C14*%
X177477142Y-82574580D02*
X177429523Y-82622200D01*
X177429523Y-82622200D02*
X177286666Y-82669819D01*
X177286666Y-82669819D02*
X177191428Y-82669819D01*
X177191428Y-82669819D02*
X177048571Y-82622200D01*
X177048571Y-82622200D02*
X176953333Y-82526961D01*
X176953333Y-82526961D02*
X176905714Y-82431723D01*
X176905714Y-82431723D02*
X176858095Y-82241247D01*
X176858095Y-82241247D02*
X176858095Y-82098390D01*
X176858095Y-82098390D02*
X176905714Y-81907914D01*
X176905714Y-81907914D02*
X176953333Y-81812676D01*
X176953333Y-81812676D02*
X177048571Y-81717438D01*
X177048571Y-81717438D02*
X177191428Y-81669819D01*
X177191428Y-81669819D02*
X177286666Y-81669819D01*
X177286666Y-81669819D02*
X177429523Y-81717438D01*
X177429523Y-81717438D02*
X177477142Y-81765057D01*
X178429523Y-82669819D02*
X177858095Y-82669819D01*
X178143809Y-82669819D02*
X178143809Y-81669819D01*
X178143809Y-81669819D02*
X178048571Y-81812676D01*
X178048571Y-81812676D02*
X177953333Y-81907914D01*
X177953333Y-81907914D02*
X177858095Y-81955533D01*
X179286666Y-82003152D02*
X179286666Y-82669819D01*
X179048571Y-81622200D02*
X178810476Y-82336485D01*
X178810476Y-82336485D02*
X179429523Y-82336485D01*
%TO.C,C1*%
X152105333Y-105542580D02*
X152057714Y-105590200D01*
X152057714Y-105590200D02*
X151914857Y-105637819D01*
X151914857Y-105637819D02*
X151819619Y-105637819D01*
X151819619Y-105637819D02*
X151676762Y-105590200D01*
X151676762Y-105590200D02*
X151581524Y-105494961D01*
X151581524Y-105494961D02*
X151533905Y-105399723D01*
X151533905Y-105399723D02*
X151486286Y-105209247D01*
X151486286Y-105209247D02*
X151486286Y-105066390D01*
X151486286Y-105066390D02*
X151533905Y-104875914D01*
X151533905Y-104875914D02*
X151581524Y-104780676D01*
X151581524Y-104780676D02*
X151676762Y-104685438D01*
X151676762Y-104685438D02*
X151819619Y-104637819D01*
X151819619Y-104637819D02*
X151914857Y-104637819D01*
X151914857Y-104637819D02*
X152057714Y-104685438D01*
X152057714Y-104685438D02*
X152105333Y-104733057D01*
X153057714Y-105637819D02*
X152486286Y-105637819D01*
X152772000Y-105637819D02*
X152772000Y-104637819D01*
X152772000Y-104637819D02*
X152676762Y-104780676D01*
X152676762Y-104780676D02*
X152581524Y-104875914D01*
X152581524Y-104875914D02*
X152486286Y-104923533D01*
%TO.C,R29*%
X147874819Y-76907857D02*
X147398628Y-77241190D01*
X147874819Y-77479285D02*
X146874819Y-77479285D01*
X146874819Y-77479285D02*
X146874819Y-77098333D01*
X146874819Y-77098333D02*
X146922438Y-77003095D01*
X146922438Y-77003095D02*
X146970057Y-76955476D01*
X146970057Y-76955476D02*
X147065295Y-76907857D01*
X147065295Y-76907857D02*
X147208152Y-76907857D01*
X147208152Y-76907857D02*
X147303390Y-76955476D01*
X147303390Y-76955476D02*
X147351009Y-77003095D01*
X147351009Y-77003095D02*
X147398628Y-77098333D01*
X147398628Y-77098333D02*
X147398628Y-77479285D01*
X146970057Y-76526904D02*
X146922438Y-76479285D01*
X146922438Y-76479285D02*
X146874819Y-76384047D01*
X146874819Y-76384047D02*
X146874819Y-76145952D01*
X146874819Y-76145952D02*
X146922438Y-76050714D01*
X146922438Y-76050714D02*
X146970057Y-76003095D01*
X146970057Y-76003095D02*
X147065295Y-75955476D01*
X147065295Y-75955476D02*
X147160533Y-75955476D01*
X147160533Y-75955476D02*
X147303390Y-76003095D01*
X147303390Y-76003095D02*
X147874819Y-76574523D01*
X147874819Y-76574523D02*
X147874819Y-75955476D01*
X147874819Y-75479285D02*
X147874819Y-75288809D01*
X147874819Y-75288809D02*
X147827200Y-75193571D01*
X147827200Y-75193571D02*
X147779580Y-75145952D01*
X147779580Y-75145952D02*
X147636723Y-75050714D01*
X147636723Y-75050714D02*
X147446247Y-75003095D01*
X147446247Y-75003095D02*
X147065295Y-75003095D01*
X147065295Y-75003095D02*
X146970057Y-75050714D01*
X146970057Y-75050714D02*
X146922438Y-75098333D01*
X146922438Y-75098333D02*
X146874819Y-75193571D01*
X146874819Y-75193571D02*
X146874819Y-75384047D01*
X146874819Y-75384047D02*
X146922438Y-75479285D01*
X146922438Y-75479285D02*
X146970057Y-75526904D01*
X146970057Y-75526904D02*
X147065295Y-75574523D01*
X147065295Y-75574523D02*
X147303390Y-75574523D01*
X147303390Y-75574523D02*
X147398628Y-75526904D01*
X147398628Y-75526904D02*
X147446247Y-75479285D01*
X147446247Y-75479285D02*
X147493866Y-75384047D01*
X147493866Y-75384047D02*
X147493866Y-75193571D01*
X147493866Y-75193571D02*
X147446247Y-75098333D01*
X147446247Y-75098333D02*
X147398628Y-75050714D01*
X147398628Y-75050714D02*
X147303390Y-75003095D01*
%TO.C,C18*%
X161377142Y-61974580D02*
X161329523Y-62022200D01*
X161329523Y-62022200D02*
X161186666Y-62069819D01*
X161186666Y-62069819D02*
X161091428Y-62069819D01*
X161091428Y-62069819D02*
X160948571Y-62022200D01*
X160948571Y-62022200D02*
X160853333Y-61926961D01*
X160853333Y-61926961D02*
X160805714Y-61831723D01*
X160805714Y-61831723D02*
X160758095Y-61641247D01*
X160758095Y-61641247D02*
X160758095Y-61498390D01*
X160758095Y-61498390D02*
X160805714Y-61307914D01*
X160805714Y-61307914D02*
X160853333Y-61212676D01*
X160853333Y-61212676D02*
X160948571Y-61117438D01*
X160948571Y-61117438D02*
X161091428Y-61069819D01*
X161091428Y-61069819D02*
X161186666Y-61069819D01*
X161186666Y-61069819D02*
X161329523Y-61117438D01*
X161329523Y-61117438D02*
X161377142Y-61165057D01*
X162329523Y-62069819D02*
X161758095Y-62069819D01*
X162043809Y-62069819D02*
X162043809Y-61069819D01*
X162043809Y-61069819D02*
X161948571Y-61212676D01*
X161948571Y-61212676D02*
X161853333Y-61307914D01*
X161853333Y-61307914D02*
X161758095Y-61355533D01*
X162900952Y-61498390D02*
X162805714Y-61450771D01*
X162805714Y-61450771D02*
X162758095Y-61403152D01*
X162758095Y-61403152D02*
X162710476Y-61307914D01*
X162710476Y-61307914D02*
X162710476Y-61260295D01*
X162710476Y-61260295D02*
X162758095Y-61165057D01*
X162758095Y-61165057D02*
X162805714Y-61117438D01*
X162805714Y-61117438D02*
X162900952Y-61069819D01*
X162900952Y-61069819D02*
X163091428Y-61069819D01*
X163091428Y-61069819D02*
X163186666Y-61117438D01*
X163186666Y-61117438D02*
X163234285Y-61165057D01*
X163234285Y-61165057D02*
X163281904Y-61260295D01*
X163281904Y-61260295D02*
X163281904Y-61307914D01*
X163281904Y-61307914D02*
X163234285Y-61403152D01*
X163234285Y-61403152D02*
X163186666Y-61450771D01*
X163186666Y-61450771D02*
X163091428Y-61498390D01*
X163091428Y-61498390D02*
X162900952Y-61498390D01*
X162900952Y-61498390D02*
X162805714Y-61546009D01*
X162805714Y-61546009D02*
X162758095Y-61593628D01*
X162758095Y-61593628D02*
X162710476Y-61688866D01*
X162710476Y-61688866D02*
X162710476Y-61879342D01*
X162710476Y-61879342D02*
X162758095Y-61974580D01*
X162758095Y-61974580D02*
X162805714Y-62022200D01*
X162805714Y-62022200D02*
X162900952Y-62069819D01*
X162900952Y-62069819D02*
X163091428Y-62069819D01*
X163091428Y-62069819D02*
X163186666Y-62022200D01*
X163186666Y-62022200D02*
X163234285Y-61974580D01*
X163234285Y-61974580D02*
X163281904Y-61879342D01*
X163281904Y-61879342D02*
X163281904Y-61688866D01*
X163281904Y-61688866D02*
X163234285Y-61593628D01*
X163234285Y-61593628D02*
X163186666Y-61546009D01*
X163186666Y-61546009D02*
X163091428Y-61498390D01*
D12*
%TO.C,R23*%
X123692936Y-84665000D02*
X124147064Y-84665000D01*
X123692936Y-86135000D02*
X124147064Y-86135000D01*
%TO.C,C13*%
X178902000Y-89168748D02*
X178902000Y-89691252D01*
X177432000Y-89168748D02*
X177432000Y-89691252D01*
%TO.C,C22*%
X123588748Y-71245000D02*
X124111252Y-71245000D01*
X123588748Y-72715000D02*
X124111252Y-72715000D01*
%TO.C,R27*%
X133125000Y-84627064D02*
X133125000Y-84172936D01*
X134595000Y-84627064D02*
X134595000Y-84172936D01*
%TO.C,R21*%
X119532936Y-84665000D02*
X119987064Y-84665000D01*
X119532936Y-86135000D02*
X119987064Y-86135000D01*
%TO.C,C17*%
X163695000Y-59126252D02*
X163695000Y-58603748D01*
X165165000Y-59126252D02*
X165165000Y-58603748D01*
%TO.C,R5*%
X142067064Y-92845000D02*
X141612936Y-92845000D01*
X142067064Y-91375000D02*
X141612936Y-91375000D01*
%TO.C,R2*%
X146777064Y-102580000D02*
X146322936Y-102580000D01*
X146777064Y-101110000D02*
X146322936Y-101110000D01*
%TO.C,C16*%
X117885000Y-48391252D02*
X117885000Y-47868748D01*
X119355000Y-48391252D02*
X119355000Y-47868748D01*
%TO.C,R26*%
X130745000Y-84627064D02*
X130745000Y-84172936D01*
X132215000Y-84627064D02*
X132215000Y-84172936D01*
%TO.C,R17*%
X153415000Y-54177064D02*
X153415000Y-53722936D01*
X154885000Y-54177064D02*
X154885000Y-53722936D01*
%TO.C,R18*%
X150285000Y-55722936D02*
X150285000Y-56177064D01*
X148815000Y-55722936D02*
X148815000Y-56177064D01*
D13*
%TO.C,Q1*%
X149277600Y-50889600D02*
X152122400Y-50889600D01*
X149277600Y-52210400D02*
X149277600Y-50889600D01*
X152122400Y-50889600D02*
X152122400Y-52210400D01*
X152122400Y-52210400D02*
X149277600Y-52210400D01*
D12*
%TO.C,J4*%
X114870000Y-91470000D02*
X113540000Y-91470000D01*
X114870000Y-90140000D02*
X114870000Y-91470000D01*
X114870000Y-88870000D02*
X114870000Y-71030000D01*
X114870000Y-88870000D02*
X112210000Y-88870000D01*
X114870000Y-71030000D02*
X112210000Y-71030000D01*
X112210000Y-88870000D02*
X112210000Y-71030000D01*
%TO.C,C6*%
X141548748Y-87925000D02*
X142071252Y-87925000D01*
X141548748Y-89395000D02*
X142071252Y-89395000D01*
%TO.C,C4*%
X159185000Y-64976252D02*
X159185000Y-64453748D01*
X160655000Y-64976252D02*
X160655000Y-64453748D01*
%TO.C,D3*%
X144630000Y-71055000D02*
X142710000Y-71055000D01*
X142710000Y-71055000D02*
X142710000Y-73915000D01*
X144630000Y-73915000D02*
X144630000Y-71055000D01*
%TO.C,FLASH*%
X183700000Y-70792500D02*
X182500000Y-70792500D01*
X180900000Y-70792500D02*
X179700000Y-70792500D01*
X179700000Y-70792500D02*
X179700000Y-77192500D01*
X183700000Y-77192500D02*
X183700000Y-70792500D01*
X182500000Y-77192500D02*
X183700000Y-77192500D01*
X179700000Y-77192500D02*
X180900000Y-77192500D01*
%TO.C,C9*%
X149892500Y-79167500D02*
X149892500Y-78380000D01*
X149498750Y-78773750D02*
X150286250Y-78773750D01*
X149394437Y-78140000D02*
X150680000Y-78140000D01*
X149394437Y-78140000D02*
X148330000Y-77075563D01*
X154085563Y-78140000D02*
X152800000Y-78140000D01*
X154085563Y-78140000D02*
X155150000Y-77075563D01*
X148330000Y-77075563D02*
X148330000Y-71320000D01*
X155150000Y-77075563D02*
X155150000Y-71320000D01*
X148330000Y-71320000D02*
X150680000Y-71320000D01*
X155150000Y-71320000D02*
X152800000Y-71320000D01*
%TO.C,C19*%
X135765000Y-84621252D02*
X135765000Y-84098748D01*
X137235000Y-84621252D02*
X137235000Y-84098748D01*
%TO.C,D2*%
X158280000Y-56947500D02*
X156360000Y-56947500D01*
X156360000Y-56947500D02*
X156360000Y-59807500D01*
X158280000Y-59807500D02*
X158280000Y-56947500D01*
%TO.C,C11*%
X158492500Y-79267500D02*
X158492500Y-78480000D01*
X158098750Y-78873750D02*
X158886250Y-78873750D01*
X157994437Y-78240000D02*
X159280000Y-78240000D01*
X157994437Y-78240000D02*
X156930000Y-77175563D01*
X162685563Y-78240000D02*
X161400000Y-78240000D01*
X162685563Y-78240000D02*
X163750000Y-77175563D01*
X156930000Y-77175563D02*
X156930000Y-71420000D01*
X163750000Y-77175563D02*
X163750000Y-71420000D01*
X156930000Y-71420000D02*
X159280000Y-71420000D01*
X163750000Y-71420000D02*
X161400000Y-71420000D01*
%TO.C,C21*%
X144070000Y-79146248D02*
X144070000Y-79668752D01*
X142600000Y-79146248D02*
X142600000Y-79668752D01*
%TO.C,J5*%
X112220000Y-56720000D02*
X113550000Y-56720000D01*
X112220000Y-58050000D02*
X112220000Y-56720000D01*
X112220000Y-59320000D02*
X112220000Y-69540000D01*
X112220000Y-59320000D02*
X114880000Y-59320000D01*
X112220000Y-69540000D02*
X114880000Y-69540000D01*
X114880000Y-59320000D02*
X114880000Y-69540000D01*
D13*
%TO.C,Q2*%
X152172400Y-60910400D02*
X149327600Y-60910400D01*
X152172400Y-59589600D02*
X152172400Y-60910400D01*
X149327600Y-60910400D02*
X149327600Y-59589600D01*
X149327600Y-59589600D02*
X152172400Y-59589600D01*
D12*
%TO.C,R22*%
X123692936Y-82355000D02*
X124147064Y-82355000D01*
X123692936Y-83825000D02*
X124147064Y-83825000D01*
D14*
%TO.C,U5*%
X157310000Y-53030000D02*
X157310000Y-49480000D01*
X157310000Y-53030000D02*
X157310000Y-49480000D01*
X167310000Y-53030000D02*
X167310000Y-49480000D01*
X167310000Y-53030000D02*
X167310000Y-49480000D01*
D15*
X156655000Y-54005000D02*
G75*
G03*
X156655000Y-54005000I-100000J0D01*
G01*
D12*
%TO.C,TP2*%
X181100000Y-62595000D02*
G75*
G03*
X181100000Y-62595000I-950000J0D01*
G01*
%TO.C,R9*%
X174785000Y-71339564D02*
X174785000Y-70885436D01*
X176255000Y-71339564D02*
X176255000Y-70885436D01*
D14*
%TO.C,J3*%
X130370000Y-89975000D02*
X135570000Y-89975000D01*
X130370000Y-104375000D02*
X135570000Y-104375000D01*
X135570000Y-95475000D02*
X135570000Y-89975000D01*
X135570000Y-98875000D02*
X135570000Y-104375000D01*
X130370000Y-89975001D02*
G75*
G03*
X120970002Y-95475000I-2090347J-7210132D01*
G01*
X120970000Y-98875000D02*
G75*
G03*
X130370000Y-104375000I7309653J1710133D01*
G01*
D12*
%TO.C,R15*%
X144215000Y-57777064D02*
X144215000Y-57322936D01*
X145685000Y-57777064D02*
X145685000Y-57322936D01*
%TO.C,R1*%
X142057064Y-102640000D02*
X141602936Y-102640000D01*
X142057064Y-101170000D02*
X141602936Y-101170000D01*
%TO.C,F1*%
X157046252Y-96885000D02*
X154273748Y-96885000D01*
X157046252Y-93465000D02*
X154273748Y-93465000D01*
%TO.C,R25*%
X128287064Y-86135000D02*
X127832936Y-86135000D01*
X128287064Y-84665000D02*
X127832936Y-84665000D01*
%TO.C,R7*%
X160425000Y-58607936D02*
X160425000Y-59062064D01*
X158955000Y-58607936D02*
X158955000Y-59062064D01*
%TO.C,SW4*%
X165410000Y-77005000D02*
X172010000Y-77005000D01*
X172010000Y-77005000D02*
X172009000Y-64310000D01*
X165410000Y-64305000D02*
X165410000Y-77005000D01*
X172010000Y-64305000D02*
X165410000Y-64305000D01*
%TO.C,C2*%
X148305000Y-104843748D02*
X148305000Y-105366252D01*
X146835000Y-104843748D02*
X146835000Y-105366252D01*
%TO.C,R11*%
X145685000Y-49122936D02*
X145685000Y-49577064D01*
X144215000Y-49122936D02*
X144215000Y-49577064D01*
%TO.C,R19*%
X151015000Y-56177064D02*
X151015000Y-55722936D01*
X152485000Y-56177064D02*
X152485000Y-55722936D01*
D14*
%TO.C,D1*%
X152100000Y-90047500D02*
X153140000Y-90047500D01*
X156960000Y-90047500D02*
X158000000Y-90047500D01*
X158000000Y-90047500D02*
X158000000Y-83172500D01*
X152100000Y-83172500D02*
X152100000Y-90047500D01*
X153140000Y-83172500D02*
X152100000Y-83172500D01*
X158000000Y-83172500D02*
X156960000Y-83172500D01*
D15*
X155150000Y-91810000D02*
G75*
G03*
X155150000Y-91810000I-100000J0D01*
G01*
D12*
%TO.C,R3*%
X142067064Y-95225000D02*
X141612936Y-95225000D01*
X142067064Y-93755000D02*
X141612936Y-93755000D01*
%TO.C,C20*%
X146440000Y-79146248D02*
X146440000Y-79668752D01*
X144970000Y-79146248D02*
X144970000Y-79668752D01*
%TO.C,TP4*%
X177780000Y-62605000D02*
G75*
G03*
X177780000Y-62605000I-950000J0D01*
G01*
%TO.C,R30*%
X122685000Y-54782936D02*
X122685000Y-55237064D01*
X121215000Y-54782936D02*
X121215000Y-55237064D01*
%TO.C,C23*%
X123588748Y-69015000D02*
X124111252Y-69015000D01*
X123588748Y-70485000D02*
X124111252Y-70485000D01*
%TO.C,L1*%
X158842500Y-90990000D02*
X160242500Y-90990000D01*
X158842500Y-90990000D02*
X158842500Y-89590000D01*
X159492500Y-90740000D02*
X162242500Y-90740000D01*
X166242500Y-90740000D02*
X168992500Y-90740000D01*
X159092500Y-90340000D02*
X159092500Y-80840000D01*
X169392500Y-80840000D02*
X169392500Y-90340000D01*
X159492500Y-80440000D02*
X162242500Y-80440000D01*
X166242500Y-80440000D02*
X168992500Y-80440000D01*
X159092500Y-90340000D02*
G75*
G03*
X159492500Y-90740000I399999J-1D01*
G01*
X168992500Y-90740000D02*
G75*
G03*
X169392500Y-90340000I1J399999D01*
G01*
X159492500Y-80440000D02*
G75*
G03*
X159092500Y-80840000I0J-400000D01*
G01*
X169392500Y-80840000D02*
G75*
G03*
X168992500Y-80440000I-400000J0D01*
G01*
D14*
%TO.C,U4*%
X124170000Y-39630000D02*
X142170000Y-39630000D01*
X124170000Y-46130000D02*
X124170000Y-39630000D01*
X124170000Y-64480000D02*
X124170000Y-65130000D01*
X124170000Y-65130000D02*
X126620000Y-65130000D01*
X139720000Y-65130000D02*
X142170000Y-65130000D01*
X142170000Y-39630000D02*
X142170000Y-46130000D01*
X142170000Y-65130000D02*
X142170000Y-64480000D01*
D15*
X123070000Y-47120000D02*
G75*
G03*
X123070000Y-47120000I-100000J0D01*
G01*
D12*
%TO.C,R10*%
X146177064Y-53445000D02*
X145722936Y-53445000D01*
X146177064Y-51975000D02*
X145722936Y-51975000D01*
D16*
%TO.C,D5*%
X168884000Y-53691200D02*
X168884000Y-54808800D01*
X170890600Y-53691200D02*
X170890600Y-54808800D01*
X168796200Y-55367600D02*
G75*
G03*
X168796200Y-55367600I-90000J0D01*
G01*
D14*
%TO.C,U7*%
X139875000Y-80970000D02*
X132375000Y-80970000D01*
X139875000Y-69420000D02*
X132375000Y-69420000D01*
D15*
X140922000Y-80495000D02*
G75*
G03*
X140922000Y-80495000I-100000J0D01*
G01*
D17*
X139122000Y-79995000D02*
G75*
G03*
X139122000Y-79995000I-200000J0D01*
G01*
D12*
%TO.C,U3*%
X158170000Y-69375000D02*
X152160000Y-69375000D01*
X155920000Y-62555000D02*
X152160000Y-62555000D01*
X152160000Y-69375000D02*
X152160000Y-68115000D01*
X152160000Y-62555000D02*
X152160000Y-63815000D01*
%TO.C,R8*%
X146635000Y-72707936D02*
X146635000Y-73162064D01*
X145165000Y-72707936D02*
X145165000Y-73162064D01*
%TO.C,C5*%
X150280000Y-94941252D02*
X150280000Y-94418748D01*
X151750000Y-94941252D02*
X151750000Y-94418748D01*
%TO.C,R4*%
X142067064Y-100430000D02*
X141612936Y-100430000D01*
X142067064Y-98960000D02*
X141612936Y-98960000D01*
%TO.C,C3*%
X161645000Y-65006252D02*
X161645000Y-64483748D01*
X163115000Y-65006252D02*
X163115000Y-64483748D01*
D11*
%TO.C,J2*%
X174900000Y-57565000D02*
X176300000Y-57565000D01*
X178700000Y-57565000D02*
X178850000Y-57565000D01*
X178850000Y-57565000D02*
X178850000Y-57265000D01*
X178850000Y-57265000D02*
X179300000Y-57265000D01*
X172725000Y-55215000D02*
X173150000Y-55215000D01*
X173150000Y-55215000D02*
X173150000Y-56215000D01*
X172725000Y-54490000D02*
X172725000Y-55215000D01*
X173150000Y-51615000D02*
X173150000Y-50615000D01*
X178850000Y-49565000D02*
X178850000Y-49265000D01*
X179300000Y-49565000D02*
X178850000Y-49565000D01*
X176300000Y-49265000D02*
X174900000Y-49265000D01*
X178850000Y-49265000D02*
X178700000Y-49265000D01*
D12*
%TO.C,R14*%
X148402000Y-61880936D02*
X148402000Y-62335064D01*
X146932000Y-61880936D02*
X146932000Y-62335064D01*
%TO.C,EN*%
X183650000Y-91142500D02*
X182450000Y-91142500D01*
X180850000Y-91142500D02*
X179650000Y-91142500D01*
X179650000Y-91142500D02*
X179650000Y-97542500D01*
X183650000Y-97542500D02*
X183650000Y-91142500D01*
X182450000Y-97542500D02*
X183650000Y-97542500D01*
X179650000Y-97542500D02*
X180850000Y-97542500D01*
%TO.C,C10*%
X144665000Y-67251252D02*
X144665000Y-66728748D01*
X146135000Y-67251252D02*
X146135000Y-66728748D01*
%TO.C,R12*%
X175015000Y-89632064D02*
X175015000Y-89177936D01*
X176485000Y-89632064D02*
X176485000Y-89177936D01*
%TO.C,C15*%
X120415000Y-48411252D02*
X120415000Y-47888748D01*
X121885000Y-48411252D02*
X121885000Y-47888748D01*
%TO.C,C8*%
X146915000Y-67251252D02*
X146915000Y-66728748D01*
X148385000Y-67251252D02*
X148385000Y-66728748D01*
%TO.C,C7*%
X146985000Y-87388748D02*
X146985000Y-87911252D01*
X145515000Y-87388748D02*
X145515000Y-87911252D01*
D18*
%TO.C,U6*%
X123055000Y-79240000D02*
X123055000Y-75440000D01*
X128055000Y-75440000D02*
X128055000Y-79240000D01*
D15*
X123005000Y-80840000D02*
G75*
G03*
X123005000Y-80840000I-100000J0D01*
G01*
D12*
%TO.C,BUTTON *%
X183650000Y-81055000D02*
X182450000Y-81055000D01*
X180850000Y-81055000D02*
X179650000Y-81055000D01*
X179650000Y-81055000D02*
X179650000Y-87455000D01*
X183650000Y-87455000D02*
X183650000Y-81055000D01*
X182450000Y-87455000D02*
X183650000Y-87455000D01*
X179650000Y-87455000D02*
X180850000Y-87455000D01*
%TO.C,R13*%
X175015000Y-79607064D02*
X175015000Y-79152936D01*
X176485000Y-79607064D02*
X176485000Y-79152936D01*
%TO.C,R16*%
X153415000Y-58277064D02*
X153415000Y-57822936D01*
X154885000Y-58277064D02*
X154885000Y-57822936D01*
%TO.C,D4*%
X146290000Y-59410000D02*
X148210000Y-59410000D01*
X148210000Y-59410000D02*
X148210000Y-56550000D01*
X146290000Y-56550000D02*
X146290000Y-59410000D01*
%TO.C,J6*%
X114850000Y-54925000D02*
X113520000Y-54925000D01*
X114850000Y-53595000D02*
X114850000Y-54925000D01*
X114850000Y-52325000D02*
X114850000Y-47185000D01*
X114850000Y-52325000D02*
X112190000Y-52325000D01*
X114850000Y-47185000D02*
X112190000Y-47185000D01*
X112190000Y-52325000D02*
X112190000Y-47185000D01*
%TO.C,C12*%
X178785000Y-70881248D02*
X178785000Y-71403752D01*
X177315000Y-70881248D02*
X177315000Y-71403752D01*
%TO.C,R20*%
X119522936Y-82355000D02*
X119977064Y-82355000D01*
X119522936Y-83825000D02*
X119977064Y-83825000D01*
%TO.C,R24*%
X128327064Y-83825000D02*
X127872936Y-83825000D01*
X128327064Y-82355000D02*
X127872936Y-82355000D01*
D14*
%TO.C,J1*%
X163200000Y-108862500D02*
X163200000Y-94462500D01*
X172200000Y-108862500D02*
X163200000Y-108862500D01*
X172200000Y-100482500D02*
X172200000Y-108862500D01*
X163200000Y-94462500D02*
X165180000Y-94462500D01*
X172200000Y-94462500D02*
X172200000Y-95842500D01*
X172200000Y-94462500D02*
X170220000Y-94462500D01*
D15*
X167800000Y-93062500D02*
G75*
G03*
X167800000Y-93062500I-100000J0D01*
G01*
D14*
%TO.C,U2*%
X144395000Y-92655000D02*
X144395000Y-96655000D01*
X149395000Y-96655000D02*
X149395000Y-92655000D01*
D15*
X148975000Y-90615000D02*
G75*
G03*
X148975000Y-90615000I-100000J0D01*
G01*
D12*
%TO.C,R28*%
X139542936Y-81935000D02*
X139997064Y-81935000D01*
X139542936Y-83405000D02*
X139997064Y-83405000D01*
%TO.C,R6*%
X141540436Y-85540000D02*
X141994564Y-85540000D01*
X141540436Y-87010000D02*
X141994564Y-87010000D01*
%TO.C,TP1*%
X177780000Y-66845000D02*
G75*
G03*
X177780000Y-66845000I-950000J0D01*
G01*
%TO.C,TP3*%
X181100000Y-66845000D02*
G75*
G03*
X181100000Y-66845000I-950000J0D01*
G01*
%TO.C,C14*%
X178902000Y-79139248D02*
X178902000Y-79661752D01*
X177432000Y-79139248D02*
X177432000Y-79661752D01*
%TO.C,C1*%
X151892500Y-99627500D02*
X152680000Y-99627500D01*
X152286250Y-99233750D02*
X152286250Y-100021250D01*
X152920000Y-99129437D02*
X152920000Y-100415000D01*
X152920000Y-99129437D02*
X153984437Y-98065000D01*
X152920000Y-103820563D02*
X152920000Y-102535000D01*
X152920000Y-103820563D02*
X153984437Y-104885000D01*
X153984437Y-98065000D02*
X159740000Y-98065000D01*
X153984437Y-104885000D02*
X159740000Y-104885000D01*
X159740000Y-98065000D02*
X159740000Y-100415000D01*
X159740000Y-104885000D02*
X159740000Y-102535000D01*
%TO.C,R29*%
X144932064Y-76925000D02*
X144477936Y-76925000D01*
X144932064Y-75455000D02*
X144477936Y-75455000D01*
%TO.C,C18*%
X162780000Y-58603748D02*
X162780000Y-59126252D01*
X161310000Y-58603748D02*
X161310000Y-59126252D01*
%TD*%
M02*
