%TF.GenerationSoftware,KiCad,Pcbnew,7.0.5*%
%TF.CreationDate,2023-07-07T19:33:34+07:00*%
%TF.ProjectId,19-6-2023_WeatherStation_QuocThang_V1,31392d36-2d32-4303-9233-5f5765617468,rev?*%
%TF.SameCoordinates,Original*%
%TF.FileFunction,Soldermask,Top*%
%TF.FilePolarity,Negative*%
%FSLAX46Y46*%
G04 Gerber Fmt 4.6, Leading zero omitted, Abs format (unit mm)*
G04 Created by KiCad (PCBNEW 7.0.5) date 2023-07-07 19:33:34*
%MOMM*%
%LPD*%
G01*
G04 APERTURE LIST*
G04 Aperture macros list*
%AMRoundRect*
0 Rectangle with rounded corners*
0 $1 Rounding radius*
0 $2 $3 $4 $5 $6 $7 $8 $9 X,Y pos of 4 corners*
0 Add a 4 corners polygon primitive as box body*
4,1,4,$2,$3,$4,$5,$6,$7,$8,$9,$2,$3,0*
0 Add four circle primitives for the rounded corners*
1,1,$1+$1,$2,$3*
1,1,$1+$1,$4,$5*
1,1,$1+$1,$6,$7*
1,1,$1+$1,$8,$9*
0 Add four rect primitives between the rounded corners*
20,1,$1+$1,$2,$3,$4,$5,0*
20,1,$1+$1,$4,$5,$6,$7,0*
20,1,$1+$1,$6,$7,$8,$9,0*
20,1,$1+$1,$8,$9,$2,$3,0*%
G04 Aperture macros list end*
%ADD10C,0.010000*%
%ADD11RoundRect,0.300800X-0.350000X-0.450000X0.350000X-0.450000X0.350000X0.450000X-0.350000X0.450000X0*%
%ADD12RoundRect,0.300800X-0.475000X0.337500X-0.475000X-0.337500X0.475000X-0.337500X0.475000X0.337500X0*%
%ADD13RoundRect,0.300800X-0.337500X-0.475000X0.337500X-0.475000X0.337500X0.475000X-0.337500X0.475000X0*%
%ADD14RoundRect,0.300800X0.450000X-0.350000X0.450000X0.350000X-0.450000X0.350000X-0.450000X-0.350000X0*%
%ADD15RoundRect,0.300800X0.475000X-0.337500X0.475000X0.337500X-0.475000X0.337500X-0.475000X-0.337500X0*%
%ADD16C,3.301600*%
%ADD17RoundRect,0.300800X0.350000X0.450000X-0.350000X0.450000X-0.350000X-0.450000X0.350000X-0.450000X0*%
%ADD18RoundRect,0.300800X-0.450000X0.350000X-0.450000X-0.350000X0.450000X-0.350000X0.450000X0.350000X0*%
%ADD19RoundRect,0.050800X-0.500000X-0.700000X0.500000X-0.700000X0.500000X0.700000X-0.500000X0.700000X0*%
%ADD20RoundRect,0.050800X0.850000X0.850000X-0.850000X0.850000X-0.850000X-0.850000X0.850000X-0.850000X0*%
%ADD21O,1.801600X1.801600*%
%ADD22RoundRect,0.300800X-0.450000X0.325000X-0.450000X-0.325000X0.450000X-0.325000X0.450000X0.325000X0*%
%ADD23RoundRect,0.050800X-0.500000X0.625000X-0.500000X-0.625000X0.500000X-0.625000X0.500000X0.625000X0*%
%ADD24RoundRect,0.300800X0.550000X-1.500000X0.550000X1.500000X-0.550000X1.500000X-0.550000X-1.500000X0*%
%ADD25RoundRect,0.050800X-0.850000X-0.850000X0.850000X-0.850000X0.850000X0.850000X-0.850000X0.850000X0*%
%ADD26RoundRect,0.050800X0.500000X0.700000X-0.500000X0.700000X-0.500000X-0.700000X0.500000X-0.700000X0*%
%ADD27RoundRect,0.100400X0.260400X-0.605400X0.260400X0.605400X-0.260400X0.605400X-0.260400X-0.605400X0*%
%ADD28C,1.601600*%
%ADD29C,1.101600*%
%ADD30C,1.401600*%
%ADD31RoundRect,0.050800X-1.770000X-1.300000X1.770000X-1.300000X1.770000X1.300000X-1.770000X1.300000X0*%
%ADD32RoundRect,0.050800X-1.830000X-1.300000X1.830000X-1.300000X1.830000X1.300000X-1.830000X1.300000X0*%
%ADD33RoundRect,0.300800X0.400000X1.450000X-0.400000X1.450000X-0.400000X-1.450000X0.400000X-1.450000X0*%
%ADD34RoundRect,0.050800X1.250000X-1.250000X1.250000X1.250000X-1.250000X1.250000X-1.250000X-1.250000X0*%
%ADD35O,2.801600X2.801600*%
%ADD36RoundRect,0.050800X-1.590000X1.125000X-1.590000X-1.125000X1.590000X-1.125000X1.590000X1.125000X0*%
%ADD37RoundRect,0.050800X1.590000X-1.125000X1.590000X1.125000X-1.590000X1.125000X-1.590000X-1.125000X0*%
%ADD38RoundRect,0.050800X1.750000X-1.775000X1.750000X1.775000X-1.750000X1.775000X-1.750000X-1.775000X0*%
%ADD39RoundRect,0.050800X-0.750000X-0.450000X0.750000X-0.450000X0.750000X0.450000X-0.750000X0.450000X0*%
%ADD40RoundRect,0.050800X-0.450000X-0.750000X0.450000X-0.750000X0.450000X0.750000X-0.450000X0.750000X0*%
%ADD41RoundRect,0.050800X-0.450000X-0.450000X0.450000X-0.450000X0.450000X0.450000X-0.450000X0.450000X0*%
%ADD42RoundRect,0.092100X0.983700X0.253700X-0.983700X0.253700X-0.983700X-0.253700X0.983700X-0.253700X0*%
%ADD43RoundRect,0.050800X1.000000X0.750000X-1.000000X0.750000X-1.000000X-0.750000X1.000000X-0.750000X0*%
%ADD44RoundRect,0.050800X1.000000X1.900000X-1.000000X1.900000X-1.000000X-1.900000X1.000000X-1.900000X0*%
%ADD45O,0.901600X0.901600*%
%ADD46RoundRect,0.050800X0.650000X-0.225000X0.650000X0.225000X-0.650000X0.225000X-0.650000X-0.225000X0*%
%ADD47O,1.901600X1.251600*%
%ADD48O,2.101600X1.551600*%
%ADD49C,3.101600*%
%ADD50RoundRect,0.050800X-0.300000X-1.100000X0.300000X-1.100000X0.300000X1.100000X-0.300000X1.100000X0*%
%ADD51RoundRect,0.300800X0.450000X-0.325000X0.450000X0.325000X-0.450000X0.325000X-0.450000X-0.325000X0*%
%ADD52O,4.501600X2.301600*%
%ADD53O,4.101600X2.101600*%
%ADD54O,2.101600X4.101600*%
%ADD55RoundRect,0.050800X-0.300000X0.985000X-0.300000X-0.985000X0.300000X-0.985000X0.300000X0.985000X0*%
%ADD56RoundRect,0.050800X-1.650000X1.205000X-1.650000X-1.205000X1.650000X-1.205000X1.650000X1.205000X0*%
%ADD57RoundRect,0.300800X-1.500000X-0.550000X1.500000X-0.550000X1.500000X0.550000X-1.500000X0.550000X0*%
G04 APERTURE END LIST*
%TO.C,D5*%
D10*
X169475000Y-55650700D02*
X169024564Y-55650700D01*
X169024564Y-54750000D01*
X169475000Y-54750000D01*
X169475000Y-55650700D01*
G36*
X169475000Y-55650700D02*
G01*
X169024564Y-55650700D01*
X169024564Y-54750000D01*
X169475000Y-54750000D01*
X169475000Y-55650700D01*
G37*
X169475000Y-53749917D02*
X169024855Y-53749917D01*
X169024855Y-52850000D01*
X169475000Y-52850000D01*
X169475000Y-53749917D01*
G36*
X169475000Y-53749917D02*
G01*
X169024855Y-53749917D01*
X169024855Y-52850000D01*
X169475000Y-52850000D01*
X169475000Y-53749917D01*
G37*
X170125000Y-53749435D02*
X169674746Y-53749435D01*
X169674746Y-52850000D01*
X170125000Y-52850000D01*
X170125000Y-53749435D01*
G36*
X170125000Y-53749435D02*
G01*
X169674746Y-53749435D01*
X169674746Y-52850000D01*
X170125000Y-52850000D01*
X170125000Y-53749435D01*
G37*
X170125000Y-55650820D02*
X169674869Y-55650820D01*
X169674869Y-54750000D01*
X170125000Y-54750000D01*
X170125000Y-55650820D01*
G36*
X170125000Y-55650820D02*
G01*
X169674869Y-55650820D01*
X169674869Y-54750000D01*
X170125000Y-54750000D01*
X170125000Y-55650820D01*
G37*
X170775000Y-53749692D02*
X170325262Y-53749692D01*
X170325262Y-52850000D01*
X170775000Y-52850000D01*
X170775000Y-53749692D01*
G36*
X170775000Y-53749692D02*
G01*
X170325262Y-53749692D01*
X170325262Y-52850000D01*
X170775000Y-52850000D01*
X170775000Y-53749692D01*
G37*
X170775000Y-55651810D02*
X170325551Y-55651810D01*
X170325551Y-54750000D01*
X170775000Y-54750000D01*
X170775000Y-55651810D01*
G36*
X170775000Y-55651810D02*
G01*
X170325551Y-55651810D01*
X170325551Y-54750000D01*
X170775000Y-54750000D01*
X170775000Y-55651810D01*
G37*
%TD*%
D11*
%TO.C,R23*%
X122920000Y-85400000D03*
X124920000Y-85400000D03*
%TD*%
D12*
%TO.C,C13*%
X178167000Y-88392500D03*
X178167000Y-90467500D03*
%TD*%
D13*
%TO.C,C22*%
X122812500Y-71980000D03*
X124887500Y-71980000D03*
%TD*%
D14*
%TO.C,R27*%
X133860000Y-85400000D03*
X133860000Y-83400000D03*
%TD*%
D11*
%TO.C,R21*%
X118760000Y-85400000D03*
X120760000Y-85400000D03*
%TD*%
D15*
%TO.C,C17*%
X164430000Y-59902500D03*
X164430000Y-57827500D03*
%TD*%
D16*
%TO.C,H4*%
X179230000Y-42555000D03*
%TD*%
D17*
%TO.C,R5*%
X142840000Y-92110000D03*
X140840000Y-92110000D03*
%TD*%
%TO.C,R2*%
X147550000Y-101845000D03*
X145550000Y-101845000D03*
%TD*%
D16*
%TO.C,H1*%
X113950000Y-102908000D03*
%TD*%
D15*
%TO.C,C16*%
X118620000Y-49167500D03*
X118620000Y-47092500D03*
%TD*%
D14*
%TO.C,R26*%
X131480000Y-85400000D03*
X131480000Y-83400000D03*
%TD*%
%TO.C,R17*%
X154150000Y-54950000D03*
X154150000Y-52950000D03*
%TD*%
D18*
%TO.C,R18*%
X149550000Y-54950000D03*
X149550000Y-56950000D03*
%TD*%
D19*
%TO.C,Q1*%
X149750000Y-52650000D03*
X151650000Y-52650000D03*
X150700000Y-50450000D03*
%TD*%
D20*
%TO.C,J4*%
X113540000Y-90140000D03*
D21*
X113540000Y-87600000D03*
X113540000Y-85060000D03*
X113540000Y-82520000D03*
X113540000Y-79980000D03*
X113540000Y-77440000D03*
X113540000Y-74900000D03*
X113540000Y-72360000D03*
%TD*%
D13*
%TO.C,C6*%
X140772500Y-88660000D03*
X142847500Y-88660000D03*
%TD*%
D15*
%TO.C,C4*%
X159920000Y-65752500D03*
X159920000Y-63677500D03*
%TD*%
D22*
%TO.C,D3*%
X143670000Y-71890000D03*
X143670000Y-73940000D03*
%TD*%
D23*
%TO.C,FLASH*%
X181700000Y-70117500D03*
X181700000Y-77867500D03*
%TD*%
D24*
%TO.C,C9*%
X151740000Y-77530000D03*
X151740000Y-71930000D03*
%TD*%
D15*
%TO.C,C19*%
X136500000Y-85397500D03*
X136500000Y-83322500D03*
%TD*%
D22*
%TO.C,D2*%
X157320000Y-57782500D03*
X157320000Y-59832500D03*
%TD*%
D24*
%TO.C,C11*%
X160340000Y-77530000D03*
X160340000Y-72130000D03*
%TD*%
D12*
%TO.C,C21*%
X143335000Y-78370000D03*
X143335000Y-80445000D03*
%TD*%
D25*
%TO.C,J5*%
X113550000Y-58050000D03*
D21*
X113550000Y-60590000D03*
X113550000Y-63130000D03*
X113550000Y-65670000D03*
X113550000Y-68210000D03*
%TD*%
D26*
%TO.C,Q2*%
X151700000Y-59150000D03*
X149800000Y-59150000D03*
X150750000Y-61350000D03*
%TD*%
D11*
%TO.C,R22*%
X122920000Y-83090000D03*
X124920000Y-83090000D03*
%TD*%
D27*
%TO.C,U5*%
X157865000Y-54005000D03*
X159135000Y-54005000D03*
X160405000Y-54005000D03*
X161675000Y-54005000D03*
X162945000Y-54005000D03*
X164215000Y-54005000D03*
X165485000Y-54005000D03*
X166755000Y-54005000D03*
X166755000Y-48505000D03*
X165485000Y-48505000D03*
X164215000Y-48505000D03*
X162945000Y-48505000D03*
X161675000Y-48505000D03*
X160405000Y-48505000D03*
X159135000Y-48505000D03*
X157865000Y-48505000D03*
%TD*%
D28*
%TO.C,TP2*%
X180150000Y-62595000D03*
%TD*%
D14*
%TO.C,R9*%
X175520000Y-72112500D03*
X175520000Y-70112500D03*
%TD*%
D29*
%TO.C,J3*%
X124770000Y-97175000D03*
D30*
X132270000Y-97175000D03*
D31*
X136500000Y-97175000D03*
D32*
X120700000Y-97175000D03*
%TD*%
D14*
%TO.C,R15*%
X144950000Y-58550000D03*
X144950000Y-56550000D03*
%TD*%
D17*
%TO.C,R1*%
X142830000Y-101905000D03*
X140830000Y-101905000D03*
%TD*%
D33*
%TO.C,F1*%
X157885000Y-95175000D03*
X153435000Y-95175000D03*
%TD*%
D17*
%TO.C,R25*%
X129060000Y-85400000D03*
X127060000Y-85400000D03*
%TD*%
D18*
%TO.C,R7*%
X159690000Y-57835000D03*
X159690000Y-59835000D03*
%TD*%
D34*
%TO.C,SW4*%
X168710000Y-75355000D03*
D35*
X168710000Y-70655000D03*
X168710000Y-65955000D03*
%TD*%
D12*
%TO.C,C2*%
X147570000Y-104067500D03*
X147570000Y-106142500D03*
%TD*%
D18*
%TO.C,R11*%
X144950000Y-48350000D03*
X144950000Y-50350000D03*
%TD*%
D14*
%TO.C,R19*%
X151750000Y-56950000D03*
X151750000Y-54950000D03*
%TD*%
D36*
%TO.C,D1*%
X155050000Y-83155000D03*
D37*
X155050000Y-90065000D03*
%TD*%
D17*
%TO.C,R3*%
X142840000Y-94490000D03*
X140840000Y-94490000D03*
%TD*%
D12*
%TO.C,C20*%
X145705000Y-78370000D03*
X145705000Y-80445000D03*
%TD*%
D28*
%TO.C,TP4*%
X176830000Y-62605000D03*
%TD*%
D18*
%TO.C,R30*%
X121950000Y-54010000D03*
X121950000Y-56010000D03*
%TD*%
D13*
%TO.C,C23*%
X122812500Y-69750000D03*
X124887500Y-69750000D03*
%TD*%
D38*
%TO.C,L1*%
X164242500Y-90065000D03*
X164242500Y-81115000D03*
%TD*%
D39*
%TO.C,U4*%
X124420000Y-47120000D03*
X124420000Y-48390000D03*
X124420000Y-49660000D03*
X124420000Y-50930000D03*
X124420000Y-52200000D03*
X124420000Y-53470000D03*
X124420000Y-54740000D03*
X124420000Y-56010000D03*
X124420000Y-57280000D03*
X124420000Y-58550000D03*
X124420000Y-59820000D03*
X124420000Y-61090000D03*
X124420000Y-62360000D03*
X124420000Y-63630000D03*
D40*
X127455000Y-64880000D03*
X128725000Y-64880000D03*
X129995000Y-64880000D03*
X131265000Y-64880000D03*
X132535000Y-64880000D03*
X133805000Y-64880000D03*
X135075000Y-64880000D03*
X136345000Y-64880000D03*
X137615000Y-64880000D03*
X138885000Y-64880000D03*
D39*
X141920000Y-63630000D03*
X141920000Y-62360000D03*
X141920000Y-61090000D03*
X141920000Y-59820000D03*
X141920000Y-58550000D03*
X141920000Y-57280000D03*
X141920000Y-56010000D03*
X141920000Y-54740000D03*
X141920000Y-53470000D03*
X141920000Y-52200000D03*
X141920000Y-50930000D03*
X141920000Y-49660000D03*
X141920000Y-48390000D03*
X141920000Y-47120000D03*
D41*
X130270000Y-53440000D03*
X131670000Y-53440000D03*
X133070000Y-53440000D03*
X130270000Y-54840000D03*
X131670000Y-54840000D03*
X133070000Y-54840000D03*
X130270000Y-56240000D03*
X131670000Y-56240000D03*
X133070000Y-56240000D03*
%TD*%
D17*
%TO.C,R10*%
X146950000Y-52710000D03*
X144950000Y-52710000D03*
%TD*%
D42*
%TO.C,U7*%
X140780000Y-79640000D03*
X140780000Y-78370000D03*
X140780000Y-77100000D03*
X140780000Y-75830000D03*
X140780000Y-74560000D03*
X140780000Y-73290000D03*
X140780000Y-72020000D03*
X140780000Y-70750000D03*
X131470000Y-70750000D03*
X131470000Y-72020000D03*
X131470000Y-73290000D03*
X131470000Y-74560000D03*
X131470000Y-75830000D03*
X131470000Y-77100000D03*
X131470000Y-78370000D03*
X131470000Y-79640000D03*
%TD*%
D43*
%TO.C,U3*%
X157220000Y-68265000D03*
X157220000Y-65965000D03*
D44*
X150920000Y-65965000D03*
D43*
X157220000Y-63665000D03*
%TD*%
D18*
%TO.C,R8*%
X145900000Y-71935000D03*
X145900000Y-73935000D03*
%TD*%
D15*
%TO.C,C5*%
X151015000Y-95717500D03*
X151015000Y-93642500D03*
%TD*%
D17*
%TO.C,R4*%
X142840000Y-99695000D03*
X140840000Y-99695000D03*
%TD*%
D15*
%TO.C,C3*%
X162380000Y-65782500D03*
X162380000Y-63707500D03*
%TD*%
D45*
%TO.C,J2*%
X174750000Y-55915000D03*
X174750000Y-50915000D03*
D46*
X173650000Y-54715000D03*
X173650000Y-54065000D03*
X173650000Y-53415000D03*
X173650000Y-52765000D03*
X173650000Y-52115000D03*
D47*
X177500000Y-57290000D03*
D48*
X173700000Y-57140000D03*
X173700000Y-49690000D03*
D47*
X177500000Y-49540000D03*
%TD*%
D16*
%TO.C,H3*%
X113730000Y-42555000D03*
%TD*%
D18*
%TO.C,R14*%
X147667000Y-61108000D03*
X147667000Y-63108000D03*
%TD*%
D49*
%TO.C,H2*%
X179230000Y-102808000D03*
%TD*%
D23*
%TO.C,EN*%
X181650000Y-90467500D03*
X181650000Y-98217500D03*
%TD*%
D15*
%TO.C,C10*%
X145400000Y-68027500D03*
X145400000Y-65952500D03*
%TD*%
D14*
%TO.C,R12*%
X175750000Y-90405000D03*
X175750000Y-88405000D03*
%TD*%
D15*
%TO.C,C15*%
X121150000Y-49187500D03*
X121150000Y-47112500D03*
%TD*%
%TO.C,C8*%
X147650000Y-68027500D03*
X147650000Y-65952500D03*
%TD*%
D12*
%TO.C,C7*%
X146250000Y-86612500D03*
X146250000Y-88687500D03*
%TD*%
D50*
%TO.C,U6*%
X123650000Y-79940000D03*
X124920000Y-79940000D03*
X126190000Y-79940000D03*
X127460000Y-79940000D03*
X127460000Y-74740000D03*
X126190000Y-74740000D03*
X124920000Y-74740000D03*
X123650000Y-74740000D03*
%TD*%
D23*
%TO.C,BUTTON *%
X181650000Y-80380000D03*
X181650000Y-88130000D03*
%TD*%
D14*
%TO.C,R13*%
X175750000Y-80380000D03*
X175750000Y-78380000D03*
%TD*%
%TO.C,R16*%
X154150000Y-59050000D03*
X154150000Y-57050000D03*
%TD*%
D51*
%TO.C,D4*%
X147250000Y-58575000D03*
X147250000Y-56525000D03*
%TD*%
D20*
%TO.C,J6*%
X113520000Y-53595000D03*
D21*
X113520000Y-51055000D03*
X113520000Y-48515000D03*
%TD*%
D12*
%TO.C,C12*%
X178050000Y-70105000D03*
X178050000Y-72180000D03*
%TD*%
D11*
%TO.C,R20*%
X118750000Y-83090000D03*
X120750000Y-83090000D03*
%TD*%
D17*
%TO.C,R24*%
X129100000Y-83090000D03*
X127100000Y-83090000D03*
%TD*%
D52*
%TO.C,J1*%
X167700000Y-95162500D03*
D53*
X167700000Y-101162500D03*
D54*
X172400000Y-98162500D03*
%TD*%
D55*
%TO.C,U2*%
X148800000Y-92180000D03*
X147530000Y-92180000D03*
X146260000Y-92180000D03*
X144990000Y-92180000D03*
X144990000Y-97130000D03*
X146260000Y-97130000D03*
X147530000Y-97130000D03*
X148800000Y-97130000D03*
D56*
X146895000Y-94655000D03*
%TD*%
D11*
%TO.C,R28*%
X138770000Y-82670000D03*
X140770000Y-82670000D03*
%TD*%
%TO.C,R6*%
X140767500Y-86275000D03*
X142767500Y-86275000D03*
%TD*%
D28*
%TO.C,TP1*%
X176830000Y-66845000D03*
%TD*%
%TO.C,TP3*%
X180150000Y-66845000D03*
%TD*%
D12*
%TO.C,C14*%
X178167000Y-78363000D03*
X178167000Y-80438000D03*
%TD*%
D57*
%TO.C,C1*%
X153530000Y-101475000D03*
X159130000Y-101475000D03*
%TD*%
D17*
%TO.C,R29*%
X145705000Y-76190000D03*
X143705000Y-76190000D03*
%TD*%
D12*
%TO.C,C18*%
X162045000Y-57827500D03*
X162045000Y-59902500D03*
%TD*%
M02*
