%TF.GenerationSoftware,KiCad,Pcbnew,7.0.5*%
%TF.CreationDate,2023-07-07T19:33:34+07:00*%
%TF.ProjectId,19-6-2023_WeatherStation_QuocThang_V1,31392d36-2d32-4303-9233-5f5765617468,rev?*%
%TF.SameCoordinates,Original*%
%TF.FileFunction,Other,Comment*%
%FSLAX46Y46*%
G04 Gerber Fmt 4.6, Leading zero omitted, Abs format (unit mm)*
G04 Created by KiCad (PCBNEW 7.0.5) date 2023-07-07 19:33:34*
%MOMM*%
%LPD*%
G01*
G04 APERTURE LIST*
%ADD10C,0.300000*%
%ADD11C,0.150000*%
G04 APERTURE END LIST*
D10*
X105339638Y-77411666D02*
X105339638Y-77792619D01*
X105339638Y-77792619D02*
X105434876Y-77983095D01*
X105434876Y-77983095D02*
X105530114Y-78078333D01*
X105530114Y-78078333D02*
X105815828Y-78268809D01*
X105815828Y-78268809D02*
X106196780Y-78364047D01*
X106196780Y-78364047D02*
X106958685Y-78364047D01*
X106958685Y-78364047D02*
X107149161Y-78268809D01*
X107149161Y-78268809D02*
X107244400Y-78173571D01*
X107244400Y-78173571D02*
X107339638Y-77983095D01*
X107339638Y-77983095D02*
X107339638Y-77602142D01*
X107339638Y-77602142D02*
X107244400Y-77411666D01*
X107244400Y-77411666D02*
X107149161Y-77316428D01*
X107149161Y-77316428D02*
X106958685Y-77221190D01*
X106958685Y-77221190D02*
X106482495Y-77221190D01*
X106482495Y-77221190D02*
X106292019Y-77316428D01*
X106292019Y-77316428D02*
X106196780Y-77411666D01*
X106196780Y-77411666D02*
X106101542Y-77602142D01*
X106101542Y-77602142D02*
X106101542Y-77983095D01*
X106101542Y-77983095D02*
X106196780Y-78173571D01*
X106196780Y-78173571D02*
X106292019Y-78268809D01*
X106292019Y-78268809D02*
X106482495Y-78364047D01*
X106196780Y-76078333D02*
X106101542Y-76268809D01*
X106101542Y-76268809D02*
X106006304Y-76364047D01*
X106006304Y-76364047D02*
X105815828Y-76459285D01*
X105815828Y-76459285D02*
X105720590Y-76459285D01*
X105720590Y-76459285D02*
X105530114Y-76364047D01*
X105530114Y-76364047D02*
X105434876Y-76268809D01*
X105434876Y-76268809D02*
X105339638Y-76078333D01*
X105339638Y-76078333D02*
X105339638Y-75697380D01*
X105339638Y-75697380D02*
X105434876Y-75506904D01*
X105434876Y-75506904D02*
X105530114Y-75411666D01*
X105530114Y-75411666D02*
X105720590Y-75316428D01*
X105720590Y-75316428D02*
X105815828Y-75316428D01*
X105815828Y-75316428D02*
X106006304Y-75411666D01*
X106006304Y-75411666D02*
X106101542Y-75506904D01*
X106101542Y-75506904D02*
X106196780Y-75697380D01*
X106196780Y-75697380D02*
X106196780Y-76078333D01*
X106196780Y-76078333D02*
X106292019Y-76268809D01*
X106292019Y-76268809D02*
X106387257Y-76364047D01*
X106387257Y-76364047D02*
X106577733Y-76459285D01*
X106577733Y-76459285D02*
X106958685Y-76459285D01*
X106958685Y-76459285D02*
X107149161Y-76364047D01*
X107149161Y-76364047D02*
X107244400Y-76268809D01*
X107244400Y-76268809D02*
X107339638Y-76078333D01*
X107339638Y-76078333D02*
X107339638Y-75697380D01*
X107339638Y-75697380D02*
X107244400Y-75506904D01*
X107244400Y-75506904D02*
X107149161Y-75411666D01*
X107149161Y-75411666D02*
X106958685Y-75316428D01*
X106958685Y-75316428D02*
X106577733Y-75316428D01*
X106577733Y-75316428D02*
X106387257Y-75411666D01*
X106387257Y-75411666D02*
X106292019Y-75506904D01*
X106292019Y-75506904D02*
X106196780Y-75697380D01*
X107149161Y-74459285D02*
X107244400Y-74364047D01*
X107244400Y-74364047D02*
X107339638Y-74459285D01*
X107339638Y-74459285D02*
X107244400Y-74554523D01*
X107244400Y-74554523D02*
X107149161Y-74459285D01*
X107149161Y-74459285D02*
X107339638Y-74459285D01*
X105339638Y-72554523D02*
X105339638Y-73506904D01*
X105339638Y-73506904D02*
X106292019Y-73602142D01*
X106292019Y-73602142D02*
X106196780Y-73506904D01*
X106196780Y-73506904D02*
X106101542Y-73316428D01*
X106101542Y-73316428D02*
X106101542Y-72840237D01*
X106101542Y-72840237D02*
X106196780Y-72649761D01*
X106196780Y-72649761D02*
X106292019Y-72554523D01*
X106292019Y-72554523D02*
X106482495Y-72459285D01*
X106482495Y-72459285D02*
X106958685Y-72459285D01*
X106958685Y-72459285D02*
X107149161Y-72554523D01*
X107149161Y-72554523D02*
X107244400Y-72649761D01*
X107244400Y-72649761D02*
X107339638Y-72840237D01*
X107339638Y-72840237D02*
X107339638Y-73316428D01*
X107339638Y-73316428D02*
X107244400Y-73506904D01*
X107244400Y-73506904D02*
X107149161Y-73602142D01*
X107339638Y-71602142D02*
X106006304Y-71602142D01*
X106196780Y-71602142D02*
X106101542Y-71506904D01*
X106101542Y-71506904D02*
X106006304Y-71316428D01*
X106006304Y-71316428D02*
X106006304Y-71030713D01*
X106006304Y-71030713D02*
X106101542Y-70840237D01*
X106101542Y-70840237D02*
X106292019Y-70744999D01*
X106292019Y-70744999D02*
X107339638Y-70744999D01*
X106292019Y-70744999D02*
X106101542Y-70649761D01*
X106101542Y-70649761D02*
X106006304Y-70459285D01*
X106006304Y-70459285D02*
X106006304Y-70173571D01*
X106006304Y-70173571D02*
X106101542Y-69983094D01*
X106101542Y-69983094D02*
X106292019Y-69887856D01*
X106292019Y-69887856D02*
X107339638Y-69887856D01*
X107339638Y-68935475D02*
X106006304Y-68935475D01*
X106196780Y-68935475D02*
X106101542Y-68840237D01*
X106101542Y-68840237D02*
X106006304Y-68649761D01*
X106006304Y-68649761D02*
X106006304Y-68364046D01*
X106006304Y-68364046D02*
X106101542Y-68173570D01*
X106101542Y-68173570D02*
X106292019Y-68078332D01*
X106292019Y-68078332D02*
X107339638Y-68078332D01*
X106292019Y-68078332D02*
X106101542Y-67983094D01*
X106101542Y-67983094D02*
X106006304Y-67792618D01*
X106006304Y-67792618D02*
X106006304Y-67506904D01*
X106006304Y-67506904D02*
X106101542Y-67316427D01*
X106101542Y-67316427D02*
X106292019Y-67221189D01*
X106292019Y-67221189D02*
X107339638Y-67221189D01*
D11*
X109170000Y-38405000D02*
X109370000Y-38605000D01*
X109170000Y-38405000D02*
X108960000Y-38615000D01*
X109170000Y-106895000D02*
X109430000Y-106635000D01*
X109170000Y-106895000D02*
X108910000Y-106635000D01*
X109170000Y-38405000D02*
X109170000Y-106895000D01*
D10*
X139500952Y-34324638D02*
X140834285Y-34324638D01*
X140834285Y-34324638D02*
X139977142Y-36324638D01*
X142453333Y-34991304D02*
X142453333Y-36324638D01*
X141977142Y-34229400D02*
X141500952Y-35657971D01*
X141500952Y-35657971D02*
X142739047Y-35657971D01*
X143500952Y-36134161D02*
X143596190Y-36229400D01*
X143596190Y-36229400D02*
X143500952Y-36324638D01*
X143500952Y-36324638D02*
X143405714Y-36229400D01*
X143405714Y-36229400D02*
X143500952Y-36134161D01*
X143500952Y-36134161D02*
X143500952Y-36324638D01*
X145310476Y-34991304D02*
X145310476Y-36324638D01*
X144834285Y-34229400D02*
X144358095Y-35657971D01*
X144358095Y-35657971D02*
X145596190Y-35657971D01*
X146453333Y-36324638D02*
X146834285Y-36324638D01*
X146834285Y-36324638D02*
X147024762Y-36229400D01*
X147024762Y-36229400D02*
X147120000Y-36134161D01*
X147120000Y-36134161D02*
X147310476Y-35848447D01*
X147310476Y-35848447D02*
X147405714Y-35467495D01*
X147405714Y-35467495D02*
X147405714Y-34705590D01*
X147405714Y-34705590D02*
X147310476Y-34515114D01*
X147310476Y-34515114D02*
X147215238Y-34419876D01*
X147215238Y-34419876D02*
X147024762Y-34324638D01*
X147024762Y-34324638D02*
X146643809Y-34324638D01*
X146643809Y-34324638D02*
X146453333Y-34419876D01*
X146453333Y-34419876D02*
X146358095Y-34515114D01*
X146358095Y-34515114D02*
X146262857Y-34705590D01*
X146262857Y-34705590D02*
X146262857Y-35181780D01*
X146262857Y-35181780D02*
X146358095Y-35372257D01*
X146358095Y-35372257D02*
X146453333Y-35467495D01*
X146453333Y-35467495D02*
X146643809Y-35562733D01*
X146643809Y-35562733D02*
X147024762Y-35562733D01*
X147024762Y-35562733D02*
X147215238Y-35467495D01*
X147215238Y-35467495D02*
X147310476Y-35372257D01*
X147310476Y-35372257D02*
X147405714Y-35181780D01*
X148643809Y-34324638D02*
X148834286Y-34324638D01*
X148834286Y-34324638D02*
X149024762Y-34419876D01*
X149024762Y-34419876D02*
X149120000Y-34515114D01*
X149120000Y-34515114D02*
X149215238Y-34705590D01*
X149215238Y-34705590D02*
X149310476Y-35086542D01*
X149310476Y-35086542D02*
X149310476Y-35562733D01*
X149310476Y-35562733D02*
X149215238Y-35943685D01*
X149215238Y-35943685D02*
X149120000Y-36134161D01*
X149120000Y-36134161D02*
X149024762Y-36229400D01*
X149024762Y-36229400D02*
X148834286Y-36324638D01*
X148834286Y-36324638D02*
X148643809Y-36324638D01*
X148643809Y-36324638D02*
X148453333Y-36229400D01*
X148453333Y-36229400D02*
X148358095Y-36134161D01*
X148358095Y-36134161D02*
X148262857Y-35943685D01*
X148262857Y-35943685D02*
X148167619Y-35562733D01*
X148167619Y-35562733D02*
X148167619Y-35086542D01*
X148167619Y-35086542D02*
X148262857Y-34705590D01*
X148262857Y-34705590D02*
X148358095Y-34515114D01*
X148358095Y-34515114D02*
X148453333Y-34419876D01*
X148453333Y-34419876D02*
X148643809Y-34324638D01*
X150167619Y-36324638D02*
X150167619Y-34991304D01*
X150167619Y-35181780D02*
X150262857Y-35086542D01*
X150262857Y-35086542D02*
X150453333Y-34991304D01*
X150453333Y-34991304D02*
X150739048Y-34991304D01*
X150739048Y-34991304D02*
X150929524Y-35086542D01*
X150929524Y-35086542D02*
X151024762Y-35277019D01*
X151024762Y-35277019D02*
X151024762Y-36324638D01*
X151024762Y-35277019D02*
X151120000Y-35086542D01*
X151120000Y-35086542D02*
X151310476Y-34991304D01*
X151310476Y-34991304D02*
X151596190Y-34991304D01*
X151596190Y-34991304D02*
X151786667Y-35086542D01*
X151786667Y-35086542D02*
X151881905Y-35277019D01*
X151881905Y-35277019D02*
X151881905Y-36324638D01*
X152834286Y-36324638D02*
X152834286Y-34991304D01*
X152834286Y-35181780D02*
X152929524Y-35086542D01*
X152929524Y-35086542D02*
X153120000Y-34991304D01*
X153120000Y-34991304D02*
X153405715Y-34991304D01*
X153405715Y-34991304D02*
X153596191Y-35086542D01*
X153596191Y-35086542D02*
X153691429Y-35277019D01*
X153691429Y-35277019D02*
X153691429Y-36324638D01*
X153691429Y-35277019D02*
X153786667Y-35086542D01*
X153786667Y-35086542D02*
X153977143Y-34991304D01*
X153977143Y-34991304D02*
X154262857Y-34991304D01*
X154262857Y-34991304D02*
X154453334Y-35086542D01*
X154453334Y-35086542D02*
X154548572Y-35277019D01*
X154548572Y-35277019D02*
X154548572Y-36324638D01*
D11*
X109930000Y-37555000D02*
X110170000Y-37795000D01*
X109930000Y-37555000D02*
X110190000Y-37295000D01*
X184390000Y-37555000D02*
X184080000Y-37865000D01*
X184070000Y-37235000D02*
X184390000Y-37555000D01*
X184390000Y-37555000D02*
X184070000Y-37235000D01*
X109930000Y-37555000D02*
X184390000Y-37555000D01*
%TO.C,H4*%
X182430000Y-42555000D02*
G75*
G03*
X182430000Y-42555000I-3200000J0D01*
G01*
%TO.C,H1*%
X117150000Y-102908000D02*
G75*
G03*
X117150000Y-102908000I-3200000J0D01*
G01*
%TO.C,H3*%
X116930000Y-42555000D02*
G75*
G03*
X116930000Y-42555000I-3200000J0D01*
G01*
%TO.C,H2*%
X182430000Y-102808000D02*
G75*
G03*
X182430000Y-102808000I-3200000J0D01*
G01*
%TD*%
M02*
